<svg xmlns="http://www.w3.org/2000/svg" xmlns:xlink="http://www.w3.org/1999/xlink" width="500" zoomAndPan="magnify" viewBox="0 0 375 374.999991" height="500" preserveAspectRatio="xMidYMid meet" version="1.0"><defs><clipPath id="f1e837f945"><path d="M 13 25.453125 L 256 25.453125 L 256 108 L 13 108 Z M 13 25.453125 " clip-rule="nonzero"/></clipPath><clipPath id="0daee9f228"><path d="M 73 25.453125 L 256 25.453125 L 256 205 L 73 205 Z M 73 25.453125 " clip-rule="nonzero"/></clipPath></defs><g clip-path="url(#f1e837f945)"><path fill="#ff9f1c" d="M 74.109375 106.945312 C 67.949219 102.253906 11.601562 61.636719 13.746094 58.820312 C 14.039062 58.4375 14.464844 58.214844 14.910156 58.164062 L 253.128906 25.765625 C 254.058594 25.640625 254.910156 26.292969 255.035156 27.21875 C 255.140625 27.996094 254.703125 28.71875 254.011719 29.007812 L 75.8125 107.152344 C 75.230469 107.40625 74.582031 107.304688 74.109375 106.945312 Z M 19.375 60.980469 L 75.371094 103.644531 L 241.582031 30.757812 Z M 19.375 60.980469 " fill-opacity="1" fill-rule="nonzero"/></g><g clip-path="url(#0daee9f228)"><path fill="#ff9f1c" d="M 73.457031 105.824219 C 73.332031 104.894531 73.984375 104.042969 74.910156 103.917969 C 75.839844 103.792969 76.691406 104.445312 76.816406 105.371094 L 89.015625 194.238281 C 91.011719 186.769531 107.976562 120.402344 109.472656 119.425781 L 252.425781 26.023438 C 253.210938 25.511719 254.265625 25.730469 254.777344 26.515625 C 255.148438 27.085938 255.136719 27.796875 254.800781 28.34375 L 166.195312 182.683594 C 163.285156 187.777344 115.796875 133.433594 110.316406 127.730469 L 90.117188 203.246094 C 89.945312 203.886719 89.402344 204.394531 88.703125 204.488281 C 85.207031 204.957031 74.761719 115.320312 73.457031 105.824219 Z M 111.339844 123.902344 L 164.375 179.035156 L 248.359375 32.742188 L 111.339844 123.90625 Z M 111.339844 123.902344 " fill-opacity="1" fill-rule="nonzero"/></g><path fill="#ff9f1c" d="M 137.042969 153.082031 C 137.710938 152.429688 138.789062 152.445312 139.4375 153.117188 C 141.929688 155.679688 94.707031 199.101562 89.660156 204.023438 C 88.988281 204.675781 87.914062 204.660156 87.261719 203.988281 C 84.386719 201.042969 131.972656 158.023438 137.042969 153.082031 Z M 137.042969 153.082031 " fill-opacity="1" fill-rule="nonzero"/><path fill="#ff9f1c" d="M 73.300781 216.324219 C 74.21875 216.5 74.824219 217.390625 74.648438 218.308594 C 71.09375 236.832031 60.695312 281.808594 72.351562 297.449219 C 77.425781 304.257812 85.96875 306.394531 94.074219 305.773438 C 75.78125 268.636719 111.890625 216.367188 134.5 234.238281 C 155.222656 250.625 130.113281 302.175781 99.515625 308.425781 C 103.40625 314.183594 108.964844 318.53125 115.253906 321.175781 C 178.695312 347.84375 225.871094 161.613281 270.058594 174.160156 C 287.164062 179.019531 267.925781 217.886719 264.484375 226.277344 C 255.085938 249.195312 222.332031 332.636719 270.855469 340.644531 C 294.335938 344.417969 335.691406 312.636719 354.109375 299.539062 C 363.394531 292.925781 304.433594 349.472656 270.3125 343.992188 C 218.28125 335.40625 250.820312 250.664062 261.347656 224.988281 C 274.265625 193.5 281.367188 150.03125 242.617188 192.917969 C 209.652344 229.398438 168.375 347.179688 113.941406 324.296875 C 106.859375 321.320312 100.625 316.363281 96.34375 309.777344 C 95.035156 307.707031 76.921875 312.824219 68.007812 296.976562 C 58.976562 280.917969 68.027344 215.320312 73.300781 216.324219 Z M 97.652344 305.328125 C 127.25 300.207031 150.304688 251.050781 132.398438 236.894531 C 113.015625 221.570312 79.488281 271.234375 97.652344 305.328125 Z M 97.652344 305.328125 " fill-opacity="1" fill-rule="nonzero"/></svg>