<svg xmlns="http://www.w3.org/2000/svg" xmlns:xlink="http://www.w3.org/1999/xlink" width="500" zoomAndPan="magnify" viewBox="0 0 375 374.999991" height="500" preserveAspectRatio="xMidYMid meet" version="1.0"><defs><clipPath id="e10e4022e5"><path d="M 125.054688 22.289062 L 244 22.289062 L 244 369.539062 L 125.054688 369.539062 Z M 125.054688 22.289062 " clip-rule="nonzero"/></clipPath></defs><path fill="#fcdd44" d="M 188.511719 89.644531 C 184.945312 97.613281 182.542969 105.742188 181.5625 114.429688 C 181.234375 117.378906 180.628906 120.101562 180.648438 123.398438 C 180.671875 127.011719 181.828125 130.40625 184.996094 132.410156 C 186.582031 133.414062 188.730469 133.003906 190.039062 131.761719 C 198.257812 123.964844 200.277344 112.039062 201.855469 101.339844 C 202.789062 95.03125 203.828125 88.738281 204.753906 82.429688 C 205.023438 80.601562 205.289062 78.769531 205.550781 76.9375 C 205.652344 76.226562 205.628906 75.375 205.816406 74.6875 C 206.0625 73.75 206.585938 72.90625 206.816406 71.949219 C 207.628906 68.550781 207.066406 65.113281 205.058594 62.230469 C 203.273438 59.667969 199.550781 59.394531 197.820312 62.230469 C 189.3125 76.1875 183.746094 91.863281 180.023438 107.726562 C 179.097656 111.648438 178.289062 115.605469 177.585938 119.578125 C 177.265625 121.410156 176.957031 123.242188 176.679688 125.082031 C 176.535156 126.050781 176.386719 127.023438 176.257812 127.992188 C 176.191406 128.472656 176.125 128.953125 176.058594 129.4375 C 176.109375 129.039062 175.6875 132.175781 175.863281 130.90625 C 175.988281 129.996094 175.828125 131.152344 175.800781 131.324219 C 175.753906 131.683594 175.699219 132.042969 175.652344 132.40625 C 175.484375 133.609375 175.320312 134.808594 175.164062 136.011719 C 174.882812 138.238281 174.648438 140.476562 174.496094 142.714844 C 173.945312 150.9375 173.816406 165.726562 184.40625 167.839844 C 195.695312 170.089844 199.867188 156.941406 201.433594 148.34375 C 201.875 145.921875 202.195312 143.480469 202.5 141.042969 C 202.554688 140.632812 202.601562 140.21875 202.65625 139.808594 C 202.757812 138.976562 202.78125 139.105469 202.65625 139.773438 C 203.066406 137.53125 203.296875 135.230469 203.503906 132.957031 C 204.425781 122.925781 203.832031 112.742188 205.738281 102.808594 C 206.671875 97.933594 200.835938 95.65625 197.964844 99.535156 C 192.503906 106.917969 187.773438 115 183.890625 123.3125 C 179.6875 132.316406 174.695312 144.132812 177.929688 154.195312 C 181.289062 164.640625 193.945312 168.835938 202.890625 162.484375 C 211.882812 156.097656 216.683594 144.675781 220.332031 134.648438 C 222.375 129.027344 224.007812 123.261719 225.558594 117.492188 C 227.960938 108.5625 230.191406 99.03125 229.386719 89.722656 C 229.1875 87.414062 227.605469 85.523438 225.152344 85.488281 C 222.894531 85.457031 220.652344 85.988281 218.796875 87.308594 C 216.605469 88.875 215.773438 90.855469 214.558594 93.125 C 213.289062 95.496094 211.613281 97.730469 210.257812 100.074219 C 208.730469 102.707031 207.292969 105.398438 205.945312 108.132812 C 200.582031 119.03125 195.402344 129.957031 191.316406 141.414062 C 189.964844 145.1875 194.484375 147.613281 197.507812 146.171875 C 201.023438 144.496094 203.191406 140.90625 205.039062 137.628906 C 207.089844 133.996094 209.109375 130.386719 210.792969 126.566406 C 214.519531 118.113281 217.1875 109.285156 219.441406 100.339844 C 221.042969 93.984375 222.5625 87.609375 224.175781 81.253906 C 225.714844 75.195312 227.097656 68.925781 227.164062 62.652344 C 227.230469 56.164062 225.460938 48.96875 219.238281 45.75 C 217.445312 44.820312 215.601562 45.121094 214.101562 46.414062 C 203.902344 55.175781 199.222656 68.269531 197.023438 81.183594 C 196.082031 86.707031 195.523438 92.289062 194.964844 97.867188 C 194.484375 102.65625 194.140625 107.511719 194.699219 112.308594 C 195.265625 117.109375 196.574219 122.316406 200.425781 125.589844 C 203.765625 128.433594 208.324219 129.511719 212.609375 128.652344 C 219.941406 127.1875 224.601562 120.027344 227.453125 113.691406 C 231.003906 105.796875 233.148438 97.363281 234.820312 88.898438 C 235.949219 83.164062 236.554688 77.324219 237.746094 71.609375 C 238.464844 68.136719 239.542969 64.753906 240.195312 61.257812 C 241.019531 56.808594 241.996094 51.460938 240.082031 47.152344 C 237.796875 42 231.636719 40.953125 226.851562 42.964844 C 222.101562 44.957031 218.296875 48.8125 214.890625 52.566406 C 205.828125 62.53125 197.59375 72.988281 191.679688 85.167969 C 188.84375 91.003906 186.386719 97.128906 184.675781 103.398438 C 183.039062 109.390625 182.03125 115.851562 183.417969 121.996094 C 184.101562 125.046875 185.542969 127.707031 187.511719 130.109375 C 188.460938 131.257812 190.375 131.628906 191.742188 131.226562 C 206.1875 127.003906 214.925781 115.140625 219.621094 101.410156 C 222.148438 94.011719 223.671875 86.253906 224.621094 78.503906 C 225.695312 69.761719 225.792969 60.445312 223.292969 51.917969 C 221.265625 45.015625 217.050781 38.042969 210.128906 35.234375 C 206.453125 33.746094 202.722656 34.046875 198.882812 34.570312 C 195.175781 35.078125 191.539062 35.894531 187.992188 37.074219 C 173.519531 41.882812 161.03125 51.597656 151.5625 63.414062 C 146.769531 69.394531 142.824219 75.804688 139.351562 82.625 C 135.558594 90.0625 132.15625 99.132812 137.546875 106.742188 C 141.941406 112.949219 149.441406 114.605469 156.660156 114.4375 C 163.363281 114.285156 170.175781 113.070312 176.460938 110.71875 C 188.976562 106.03125 200.277344 96.875 203.988281 83.578125 C 208.183594 68.523438 201.648438 53.445312 191.4375 42.417969 C 186.492188 37.078125 179.890625 31.554688 172.722656 29.589844 C 165.914062 27.730469 159.707031 31.105469 155.539062 36.378906 C 151.253906 41.796875 148.4375 48.300781 145.695312 54.597656 C 142.066406 62.941406 138.886719 71.691406 138.566406 80.882812 C 138.109375 94.222656 146.8125 111.371094 162.644531 107.3125 C 172.042969 104.90625 179.050781 96.039062 183.320312 87.816406 C 187.507812 79.742188 190.699219 69.421875 187.933594 60.378906 C 184.75 49.984375 173.828125 46.277344 163.824219 47.976562 C 150.957031 50.160156 144.113281 63.371094 142.6875 75.207031 C 141.207031 87.464844 146.382812 102.625 158.039062 108.429688 C 164.378906 111.589844 171.488281 111.421875 177.976562 108.742188 C 182.210938 106.996094 185.917969 104.121094 189.375 101.160156 C 193.121094 97.945312 197.257812 93.792969 198.535156 88.859375 C 200.195312 82.449219 195.542969 77.695312 189.65625 76.0625 C 174.316406 71.800781 161.386719 89.441406 162.078125 103.289062 C 162.445312 110.648438 167.433594 118.902344 175.597656 119.28125 C 179.972656 119.488281 183.304688 116.042969 184.449219 112.066406 C 185.515625 108.378906 185.015625 104.386719 184.464844 100.664062 C 184.015625 97.648438 183.269531 94.5 181.554688 91.929688 C 179.445312 88.757812 176.472656 86.894531 172.996094 85.507812 C 171.125 84.757812 169.277344 86.058594 168.226562 87.445312 C 162.089844 95.53125 160.195312 106.882812 160.578125 116.800781 C 160.980469 127.121094 164 138.492188 172.054688 145.53125 C 173.402344 146.707031 175.59375 147.300781 177.207031 146.195312 C 182.050781 142.890625 182.089844 137.035156 181.214844 131.792969 C 180.234375 125.914062 177.925781 120.273438 175.597656 114.820312 C 173.917969 110.886719 172.015625 107.066406 170.195312 103.199219 C 167.597656 97.679688 165.570312 91.902344 162.449219 86.632812 C 158.703125 80.3125 153.085938 74.285156 145.171875 74.445312 C 143.230469 74.484375 141.671875 75.746094 141.082031 77.558594 C 134.089844 99.035156 140.570312 123.425781 153.03125 141.609375 C 155.148438 144.699219 159.519531 144.113281 160.765625 140.597656 C 162.066406 136.925781 161.292969 132.578125 160.628906 128.867188 C 159.992188 125.316406 159.113281 121.78125 158.226562 118.285156 C 156.816406 112.691406 155.050781 107.191406 153.855469 101.546875 C 152.714844 96.140625 152.347656 90.613281 152.808594 85.101562 C 153.238281 79.957031 154.964844 75.320312 156.9375 70.597656 C 158.535156 66.769531 160.023438 62.65625 162.566406 59.335938 C 164.566406 56.730469 166.8125 55.847656 170.253906 55.320312 C 171.636719 55.105469 173.15625 55.050781 174.316406 55.371094 C 174.984375 55.558594 174.628906 55.507812 175.160156 55.789062 C 175.09375 55.75 174.847656 55.480469 174.835938 55.367188 C 174.789062 54.792969 174.859375 56.394531 174.839844 56.589844 C 174.1875 64.378906 166.839844 73.933594 173.109375 81.273438 C 174.328125 82.699219 176.570312 82.71875 178.109375 81.917969 C 184.609375 78.539062 188.898438 72.5625 192.828125 66.582031 C 197.101562 60.070312 201.484375 53.589844 203.878906 46.109375 C 205.320312 41.609375 198.695312 38.960938 196.347656 42.933594 C 192.234375 49.910156 193.839844 59.101562 198.03125 65.699219 C 202.140625 72.164062 209.078125 74.300781 215.039062 78.503906 C 216.863281 79.792969 219.632812 78.832031 220.6875 77.023438 C 221.894531 74.960938 221.035156 72.667969 219.207031 71.375 C 214.886719 68.328125 208.984375 66.671875 205.695312 62.347656 C 202.628906 58.3125 200.746094 51.707031 203.464844 47.09375 C 200.953125 46.035156 198.445312 44.976562 195.933594 43.917969 C 193.84375 50.457031 189.8125 56.148438 186.085938 61.84375 C 182.796875 66.863281 179.410156 71.960938 173.945312 74.800781 C 175.609375 75.019531 177.277344 75.230469 178.945312 75.445312 C 179.171875 75.710938 178.855469 75.738281 178.90625 75.136719 C 178.859375 75.667969 178.914062 73.859375 178.898438 74.125 C 178.9375 73.308594 179.113281 72.53125 179.296875 71.734375 C 179.78125 69.683594 180.417969 67.660156 180.976562 65.625 C 181.953125 62.0625 183.46875 58.472656 183.058594 54.699219 C 181.925781 44.320312 167.417969 46.035156 160.886719 49.730469 C 156.808594 52.039062 154.164062 56.414062 152.191406 60.515625 C 150.082031 64.886719 147.992188 69.546875 146.46875 74.15625 C 142.597656 85.898438 144.140625 98.515625 147.265625 110.214844 C 148.714844 115.640625 150.199219 121.046875 151.488281 126.519531 C 151.972656 128.589844 152.460938 130.703125 152.738281 132.804688 C 152.878906 133.863281 152.957031 134.953125 152.953125 136.019531 C 152.949219 137.363281 153.007812 137.203125 152.597656 138.359375 C 155.171875 138.023438 157.753906 137.6875 160.332031 137.347656 C 149.054688 120.886719 142.890625 99.277344 149.238281 79.804688 C 147.875 80.84375 146.511719 81.882812 145.148438 82.921875 C 147.054688 82.882812 148.695312 83.480469 150.152344 84.707031 C 152.242188 86.460938 153.582031 88.382812 154.957031 90.683594 C 157.824219 95.46875 159.8125 100.691406 162.0625 105.78125 C 165.679688 113.96875 169.628906 121.105469 172.007812 129.699219 C 172.777344 132.476562 173.15625 134.09375 173.179688 136.433594 C 173.183594 137.007812 173.167969 137.585938 173.097656 138.160156 C 173.21875 137.148438 172.972656 138.347656 172.898438 138.695312 C 172.796875 139.160156 173.070312 138.355469 173.070312 138.351562 C 173 138.589844 172.808594 138.863281 172.675781 139.070312 C 173.308594 138.066406 171.902344 139.523438 172.890625 138.851562 C 174.613281 139.070312 176.328125 139.292969 178.046875 139.511719 C 171.605469 133.886719 169.273438 124.765625 169.015625 116.230469 C 168.761719 107.636719 170.320312 98.546875 175.496094 91.707031 C 173.90625 92.351562 172.3125 93.003906 170.726562 93.648438 C 175.363281 95.492188 176.097656 100 176.460938 104.71875 C 176.554688 105.996094 176.660156 107.363281 176.492188 108.640625 C 176.414062 109.207031 176.265625 109.8125 176.058594 110.339844 C 175.804688 110.988281 175.222656 110.851562 175.960938 110.753906 C 176.40625 110.695312 175.898438 110.835938 175.632812 110.6875 C 175.09375 110.382812 174.5 110.148438 173.964844 109.808594 C 173.007812 109.191406 172.230469 108.417969 171.699219 107.40625 C 167.34375 99.039062 175.019531 84.902344 184.371094 83.914062 C 185.605469 83.789062 186.820312 83.945312 187.992188 84.351562 C 188.550781 84.546875 189.039062 84.816406 189.558594 85.09375 C 190.375 85.527344 189.617188 85.058594 190.25 85.609375 C 190.382812 85.722656 190.464844 85.882812 190.59375 85.992188 C 189.746094 85.261719 190.578125 85.800781 190.480469 85.945312 C 190.453125 85.867188 190.421875 85.792969 190.394531 85.71875 C 190.277344 85.398438 190.28125 85.421875 190.410156 85.78125 C 190.410156 85.777344 190.527344 86.539062 190.460938 85.808594 C 190.410156 85.1875 190.453125 86.25 190.449219 86.460938 C 190.464844 85.53125 190.402344 86.472656 190.285156 86.929688 C 190.242188 87.097656 190.167969 87.257812 190.113281 87.421875 C 189.898438 88.007812 190.410156 86.828125 190.109375 87.402344 C 189.898438 87.796875 189.695312 88.1875 189.460938 88.570312 C 189.253906 88.914062 189.023438 89.246094 188.800781 89.578125 C 188.335938 90.25 188.59375 89.878906 188.707031 89.726562 C 188.492188 90.015625 188.25 90.289062 188.023438 90.5625 C 186.652344 92.167969 185.117188 93.628906 183.523438 95.007812 C 181.304688 96.921875 178.65625 99.058594 175.542969 100.542969 C 171.417969 102.515625 166.351562 102.894531 162.570312 101.148438 C 158.207031 99.128906 155.164062 95.050781 153.238281 90.636719 C 151.136719 85.824219 150.59375 81.625 151.054688 76.476562 C 151.425781 72.335938 152.878906 67.625 155.175781 63.894531 C 157.390625 60.300781 160.527344 57.496094 164.578125 56.472656 C 166.449219 56 168.648438 56.003906 170.855469 56.175781 C 171.78125 56.246094 171.019531 56.164062 171.660156 56.28125 C 172.125 56.371094 172.585938 56.46875 173.046875 56.582031 C 173.484375 56.691406 173.914062 56.824219 174.34375 56.96875 C 174.578125 57.042969 174.8125 57.128906 175.035156 57.222656 C 174.679688 57.082031 174.644531 57.042969 175.007812 57.226562 C 175.722656 57.589844 176.402344 57.980469 177.050781 58.449219 C 176.375 57.960938 177.078125 58.480469 177.320312 58.71875 C 177.625 59.015625 177.910156 59.328125 178.207031 59.632812 C 178.863281 60.3125 178.042969 59.292969 178.410156 59.902344 C 178.597656 60.214844 178.804688 60.519531 178.988281 60.84375 C 179.167969 61.167969 179.332031 61.496094 179.492188 61.832031 C 179.085938 60.984375 179.542969 62 179.652344 62.324219 C 179.894531 63.0625 180.066406 63.8125 180.222656 64.574219 C 180.296875 64.953125 180.335938 65.558594 180.269531 64.804688 C 180.3125 65.269531 180.34375 65.738281 180.367188 66.199219 C 180.402344 67.042969 180.394531 67.894531 180.34375 68.738281 C 180.316406 69.175781 180.273438 69.609375 180.242188 70.042969 C 180.164062 71.050781 180.324219 69.808594 180.144531 70.800781 C 179.808594 72.707031 179.375 74.574219 178.792969 76.417969 C 178.5 77.339844 178.179688 78.25 177.832031 79.144531 C 177.371094 80.347656 177.484375 80.078125 176.871094 81.390625 C 176.011719 83.230469 175.039062 85.019531 173.972656 86.742188 C 173.5 87.507812 173.003906 88.261719 172.492188 88.992188 C 171.703125 90.121094 171.671875 90.164062 171.089844 90.871094 C 169.898438 92.3125 168.636719 93.6875 167.25 94.941406 C 166.929688 95.230469 166.609375 95.507812 166.28125 95.785156 C 166.097656 95.941406 165.910156 96.09375 165.71875 96.242188 C 165.757812 96.210938 166.289062 95.816406 165.890625 96.101562 C 165.191406 96.601562 164.492188 97.082031 163.746094 97.511719 C 160.242188 99.53125 156.234375 99.90625 153.148438 97.40625 C 149.828125 94.71875 147.875 89.628906 147.363281 85.476562 C 146.488281 78.367188 148.480469 71.121094 150.886719 64.5 C 153.046875 58.558594 155.664062 52.65625 158.683594 47.097656 C 159.847656 44.945312 161.121094 42.785156 162.738281 40.980469 C 164.234375 39.320312 165.746094 38.097656 167.605469 37.652344 C 168.070312 37.542969 169.019531 37.496094 169.621094 37.589844 C 170.933594 37.800781 172.148438 38.367188 173.324219 38.964844 C 175.988281 40.316406 178.496094 41.984375 180.773438 43.910156 C 189.855469 51.601562 197.34375 62.964844 196.804688 75.257812 C 196.34375 85.660156 189.609375 94.070312 180.855469 99.121094 C 176.171875 101.824219 171.039062 103.613281 165.746094 104.703125 C 160.96875 105.683594 155.390625 106.359375 150.617188 105.304688 C 145.101562 104.078125 142.324219 99.8125 143.84375 94.136719 C 145.488281 87.996094 149.164062 81.957031 152.550781 76.617188 C 159.082031 66.335938 167.773438 57.222656 178.230469 50.898438 C 183.539062 47.6875 189.222656 45.257812 195.265625 43.816406 C 200.292969 42.621094 206.082031 41.195312 210.128906 45.214844 C 214.121094 49.175781 215.710938 55.132812 216.363281 60.546875 C 217.269531 68.078125 216.636719 75.804688 215.300781 83.242188 C 213.34375 94.148438 210.363281 106.214844 202.6875 114.617188 C 199.054688 118.59375 194.585938 121.347656 189.414062 122.84375 C 190.824219 123.21875 192.234375 123.59375 193.644531 123.964844 C 190.914062 120.625 191.183594 115.28125 191.820312 111.207031 C 192.605469 106.152344 194.226562 101.21875 196.046875 96.449219 C 200.699219 84.28125 207.957031 72.976562 216.613281 63.277344 C 219.335938 60.234375 222.007812 57.078125 225.011719 54.300781 C 226.5625 52.871094 228 51.65625 229.980469 50.738281 C 229.921875 50.765625 231.476562 50.3125 231.464844 50.3125 C 230.992188 50.347656 232.71875 50.425781 231.738281 50.324219 C 232.335938 50.386719 231.632812 50.21875 232.394531 50.597656 C 232.566406 50.6875 232.511719 50.828125 232.445312 50.589844 C 232.460938 50.640625 232.246094 50.035156 232.371094 50.492188 C 232.464844 50.828125 232.550781 51.160156 232.621094 51.503906 C 232.453125 50.695312 232.644531 51.835938 232.65625 52.132812 C 232.742188 53.976562 232.527344 56.144531 232.285156 57.53125 C 231.664062 61.183594 230.734375 64.746094 229.820312 68.332031 C 228.671875 72.820312 228.292969 77.558594 227.476562 82.121094 C 226.164062 89.480469 224.582031 96.835938 222.1875 103.925781 C 220.949219 107.589844 220.140625 109.714844 218.242188 113.085938 C 217.847656 113.789062 217.433594 114.472656 216.988281 115.152344 C 216.796875 115.449219 216.582031 115.738281 216.382812 116.035156 C 215.84375 116.839844 216.621094 115.828125 216.003906 116.546875 C 215.574219 117.046875 215.148438 117.546875 214.679688 118.015625 C 214.417969 118.277344 214.140625 118.519531 213.871094 118.769531 C 213.757812 118.875 213.628906 118.96875 213.515625 119.070312 C 213.074219 119.457031 214.132812 118.640625 213.65625 118.960938 C 213.121094 119.320312 212.574219 119.625 212.027344 119.953125 C 211.367188 120.351562 212.71875 119.757812 211.992188 119.984375 C 211.671875 120.082031 211.363281 120.203125 211.039062 120.285156 C 210.761719 120.355469 210.484375 120.40625 210.207031 120.46875 C 209.636719 120.585938 211.066406 120.417969 210.480469 120.417969 C 210.332031 120.417969 210.1875 120.449219 210.042969 120.445312 C 209.746094 120.433594 209.445312 120.4375 209.152344 120.433594 C 209.003906 120.433594 208.847656 120.40625 208.699219 120.398438 C 208.113281 120.355469 209.492188 120.554688 208.90625 120.414062 C 208.539062 120.328125 208.167969 120.25 207.800781 120.152344 C 207.613281 120.101562 206.765625 119.765625 207.300781 120.011719 C 206.164062 119.488281 206.421875 119.640625 205.5625 118.742188 C 205.066406 118.21875 205.621094 118.9375 205.222656 118.320312 C 205 117.964844 204.785156 117.605469 204.585938 117.238281 C 204.507812 117.089844 204.113281 116.148438 204.3125 116.667969 C 204.097656 116.105469 203.921875 115.527344 203.761719 114.941406 C 201.757812 107.542969 203.355469 98.214844 204.265625 90.234375 C 205.523438 79.175781 207.84375 67.535156 214.5 58.347656 C 216.101562 56.140625 218.03125 54.1875 220.09375 52.414062 C 218.382812 52.636719 216.667969 52.855469 214.957031 53.078125 C 215.433594 53.324219 215.914062 53.582031 216.339844 53.914062 C 215.730469 53.4375 216.800781 54.445312 216.910156 54.570312 C 216.402344 53.984375 217.269531 55.152344 217.367188 55.3125 C 217.496094 55.539062 217.621094 55.789062 217.730469 56.027344 C 217.542969 55.613281 217.679688 55.882812 217.773438 56.144531 C 217.964844 56.675781 218.121094 57.222656 218.253906 57.773438 C 218.285156 57.894531 218.585938 59.46875 218.492188 58.839844 C 218.6875 60.175781 218.703125 61.554688 218.683594 62.902344 C 218.59375 68.265625 217.414062 73.445312 216.066406 78.78125 C 212.65625 92.277344 209.894531 106.066406 204.832031 119.070312 C 203.203125 123.242188 201.257812 127.28125 199.015625 131.160156 C 197.488281 133.789062 196.140625 137.519531 193.246094 138.898438 C 195.308594 140.484375 197.375 142.070312 199.4375 143.660156 C 202.992188 133.6875 207.367188 124.085938 212.117188 114.640625 C 214.429688 110.050781 216.765625 105.511719 219.472656 101.140625 C 220.203125 99.96875 221.035156 98.832031 221.722656 97.640625 C 222.199219 96.8125 222.421875 95.878906 222.925781 95.066406 C 223.597656 93.988281 223.808594 93.945312 225.148438 93.964844 C 223.738281 92.554688 222.324219 91.140625 220.914062 89.730469 C 221.550781 97.160156 220.070312 104.5625 218.277344 111.738281 C 216.910156 117.207031 215.371094 122.65625 213.636719 128.019531 C 210.886719 136.515625 207.34375 145.808594 201.578125 152.320312 C 199.90625 154.210938 198.996094 155.078125 197.140625 156.132812 C 196.941406 156.242188 195.8125 156.789062 196.125 156.660156 C 196.449219 156.53125 195.46875 156.875 195.234375 156.941406 C 194.984375 157.011719 193.640625 157.238281 194.5625 157.136719 C 194 157.195312 193.453125 157.183594 192.890625 157.179688 C 191.96875 157.175781 193.023438 157.324219 192.105469 157.0625 C 191.644531 156.9375 191.1875 156.820312 190.734375 156.671875 C 189.9375 156.398438 190.402344 156.546875 190.585938 156.625 C 190.351562 156.523438 190.113281 156.40625 189.886719 156.285156 C 189.394531 156.019531 188.921875 155.734375 188.460938 155.421875 C 187.933594 155.0625 188.9375 155.84375 188.472656 155.429688 C 188.34375 155.3125 188.203125 155.207031 188.078125 155.085938 C 187.757812 154.757812 187.4375 154.4375 187.136719 154.09375 C 187.765625 154.824219 186.941406 153.78125 186.824219 153.582031 C 186.710938 153.390625 186.609375 153.1875 186.492188 152.996094 C 186.433594 152.894531 186.039062 152.039062 186.277344 152.582031 C 185.707031 151.253906 185.496094 149.855469 185.457031 148.261719 C 185.390625 145.742188 185.582031 144.503906 186 142.4375 C 186.980469 137.628906 188.761719 132.875 190.664062 128.707031 C 194.644531 119.992188 199.59375 111.53125 205.3125 103.835938 C 202.722656 102.742188 200.132812 101.652344 197.542969 100.5625 C 195.921875 108.914062 195.800781 117.382812 195.40625 125.855469 C 195.15625 131.273438 194.496094 136.617188 193.789062 141.988281 C 193.722656 142.480469 193.824219 141.710938 193.828125 141.683594 C 193.796875 141.917969 193.761719 142.15625 193.730469 142.390625 C 193.671875 142.824219 193.605469 143.257812 193.539062 143.691406 C 193.382812 144.691406 193.210938 145.691406 193.019531 146.6875 C 192.613281 148.804688 192.117188 150.910156 191.457031 152.96875 C 190.757812 155.121094 190.5 155.78125 189.203125 157.816406 C 188.808594 158.433594 189.585938 157.511719 188.890625 158.226562 C 188.613281 158.515625 188.34375 158.804688 188.046875 159.074219 C 187.589844 159.5 188.582031 158.96875 187.734375 159.265625 C 187.59375 159.3125 187.441406 159.425781 187.308594 159.496094 C 188.257812 159.003906 187.527344 159.472656 187.292969 159.457031 C 186.257812 159.359375 187.753906 159.488281 186.972656 159.515625 C 185.847656 159.558594 186.972656 159.613281 186.324219 159.480469 C 185.910156 159.398438 185.4375 159.15625 186.109375 159.488281 C 185.921875 159.394531 185.722656 159.296875 185.546875 159.179688 C 184.878906 158.742188 185.890625 159.546875 185.523438 159.179688 C 185.253906 158.910156 184.980469 158.652344 184.738281 158.355469 C 185.28125 159.027344 184.707031 158.234375 184.550781 157.945312 C 184.425781 157.707031 183.988281 156.746094 184.28125 157.480469 C 184.089844 156.996094 183.929688 156.503906 183.78125 156.003906 C 183.089844 153.609375 183.027344 152.570312 182.90625 150.230469 C 182.789062 147.886719 182.835938 145.542969 182.96875 143.203125 C 183.089844 141.125 183.285156 139.054688 183.523438 136.984375 C 183.625 136.097656 183.738281 135.210938 183.855469 134.324219 C 183.703125 135.476562 183.96875 133.519531 184.023438 133.125 C 184.078125 132.714844 184.132812 132.304688 184.191406 131.894531 C 183.949219 133.675781 184.207031 131.773438 184.242188 131.488281 C 184.3125 130.957031 184.382812 130.425781 184.460938 129.894531 C 184.734375 127.941406 185.035156 125.992188 185.355469 124.050781 C 185.953125 120.464844 186.632812 116.886719 187.402344 113.328125 C 190.953125 96.96875 196.332031 80.847656 205.066406 66.488281 C 202.652344 66.488281 200.238281 66.488281 197.824219 66.488281 C 199.554688 68.960938 198.21875 70.367188 197.71875 73.039062 C 197.089844 76.382812 196.761719 79.8125 196.257812 83.179688 C 195.429688 88.707031 194.542969 94.222656 193.71875 99.746094 C 192.394531 108.691406 191.066406 119.339844 184.160156 125.894531 C 185.839844 125.679688 187.523438 125.460938 189.203125 125.246094 C 189.722656 125.574219 189.152344 125.121094 189.203125 125.308594 C 189.191406 125.277344 188.941406 124.238281 188.976562 124.472656 C 188.800781 123.257812 188.953125 121.921875 189.078125 120.710938 C 189.335938 118.167969 189.613281 115.605469 189.9375 113.074219 C 190.792969 106.402344 192.765625 99.871094 195.460938 93.722656 C 196.332031 91.738281 196.042969 89.410156 194.019531 88.226562 C 192.292969 87.199219 189.402344 87.648438 188.511719 89.644531 Z M 188.511719 89.644531 " fill-opacity="1" fill-rule="nonzero"/><g clip-path="url(#e10e4022e5)"><path fill="#e87a30" d="M 174.335938 369.230469 C 179.792969 369.636719 180.628906 359.796875 181.113281 356.242188 C 181.523438 353.222656 181.824219 350.195312 182.085938 347.164062 C 182.164062 346.242188 182.265625 345.324219 182.324219 344.40625 C 182.332031 344.277344 182.351562 344.144531 182.363281 344.015625 C 182.175781 345.839844 182.523438 343.074219 182.542969 342.945312 C 182.796875 341.273438 183.058594 339.597656 183.304688 337.921875 C 184.167969 332.046875 184.871094 326.15625 184.96875 320.210938 C 185.066406 314.167969 184.890625 308.125 184.753906 302.085938 C 184.613281 295.90625 184.503906 289.71875 184.734375 283.539062 C 184.949219 277.6875 185.171875 271.949219 184.617188 266.101562 C 183.5625 254.910156 180.890625 243.96875 179.53125 232.820312 C 178.847656 227.238281 178.484375 221.585938 178.859375 215.964844 C 179.234375 210.324219 180.371094 204.785156 180.570312 199.125 C 180.765625 193.523438 179.941406 188.070312 179.757812 182.503906 C 179.597656 177.8125 180.878906 172.910156 179.171875 168.363281 C 177.34375 163.496094 173.140625 159.867188 170.085938 155.785156 C 166.667969 151.214844 163.660156 146.359375 160.347656 141.714844 C 153.792969 132.519531 145.847656 124.640625 140.882812 114.359375 C 136.316406 104.902344 133.636719 94.050781 132.921875 83.589844 C 132.214844 73.179688 133.660156 62.921875 139.023438 53.847656 C 143.957031 45.496094 151.578125 36.917969 160.746094 33.171875 C 165.636719 31.171875 170.964844 30.796875 176.175781 30.511719 C 181.75 30.203125 187.316406 29.75 192.898438 29.738281 C 198.285156 29.722656 203.714844 29.980469 209.046875 30.804688 C 213.796875 31.542969 218.867188 32.496094 223.222656 34.625 C 230.828125 38.347656 234.902344 46.226562 235.957031 54.421875 C 236.683594 60.082031 236.519531 65.917969 236.890625 71.613281 C 237.261719 77.339844 237.109375 82.90625 235.972656 88.539062 C 233.941406 98.617188 229.574219 107.851562 224.511719 116.738281 C 221.78125 121.53125 218.902344 126.226562 216.273438 131.078125 C 213.609375 136 210.886719 140.835938 207.546875 145.332031 C 204.84375 148.980469 201.863281 152.414062 198.527344 155.503906 C 194.75 159 190.523438 161.964844 186.476562 165.140625 C 181.988281 168.65625 177.480469 172.070312 172.476562 174.828125 C 168.007812 177.292969 164.210938 180.265625 160.300781 183.507812 C 157.675781 185.683594 153.707031 188.335938 153.089844 191.964844 C 152.777344 193.824219 153.5625 195.546875 155.460938 196.140625 C 158.542969 197.105469 161.460938 196.597656 164.046875 194.6875 C 165.203125 193.835938 166.230469 192.824219 167.46875 192.097656 C 169.011719 191.1875 170.765625 190.71875 172.351562 189.898438 C 175.863281 188.085938 177.117188 184.984375 179.394531 182.035156 C 181.40625 179.433594 184.496094 178.230469 186.121094 175.210938 C 184.070312 174.65625 182.019531 174.101562 179.96875 173.546875 C 180.324219 177.042969 180.480469 180.65625 181.519531 184.039062 C 182.429688 187 184.007812 189.5 186.03125 191.816406 C 189.554688 195.835938 195 200.273438 200.71875 199.105469 C 204.519531 198.332031 206.613281 195.019531 205.203125 191.328125 C 203.835938 187.757812 200.667969 184.859375 197.964844 182.273438 C 196.429688 180.808594 194.847656 179.394531 193.28125 177.957031 C 192.640625 177.371094 191.992188 176.777344 191.375 176.164062 C 191.160156 175.945312 190.953125 175.710938 190.730469 175.496094 C 190.179688 174.945312 190.75 175.535156 190.714844 175.488281 C 188.371094 171.828125 182.503906 175.222656 184.867188 178.902344 C 186.546875 181.523438 189.449219 183.496094 191.730469 185.546875 C 193.28125 186.941406 194.824219 188.363281 196.257812 189.882812 C 197.4375 191.136719 198.421875 192.492188 199.023438 193.464844 C 198.792969 193.097656 199.234375 193.863281 199.175781 194 C 199.238281 193.855469 199.273438 193.253906 199.164062 193.453125 C 199.464844 192.921875 199.746094 192.75 199.800781 192.546875 C 199.761719 192.710938 199.980469 192.574219 199.457031 192.660156 C 197.550781 192.976562 195.410156 191.546875 193.832031 190.253906 C 191.792969 188.582031 189.8125 186.542969 188.601562 184.175781 C 186.949219 180.941406 186.914062 177.085938 186.578125 173.550781 C 186.289062 170.515625 182.121094 168.777344 180.425781 171.882812 C 179.183594 174.160156 176.566406 175.191406 174.871094 177.09375 C 173.007812 179.195312 172.054688 182.269531 169.59375 183.761719 C 167.101562 185.273438 164.347656 185.902344 162.003906 187.734375 C 160.40625 188.976562 159.375 190.265625 157.269531 189.601562 C 158.058594 190.996094 158.851562 192.386719 159.636719 193.78125 C 159.808594 192.765625 161.511719 191.359375 162.5625 190.441406 C 164.027344 189.171875 165.539062 187.964844 166.996094 186.683594 C 171.308594 182.894531 176.570312 180.632812 181.300781 177.453125 C 185.820312 174.417969 189.984375 170.90625 194.324219 167.625 C 198.449219 164.503906 202.519531 161.375 206.113281 157.640625 C 213.570312 149.894531 218.710938 140.765625 223.878906 131.4375 C 229.179688 121.878906 235.074219 112.777344 239.023438 102.523438 C 240.851562 97.765625 242.242188 92.84375 243.070312 87.8125 C 244.058594 81.828125 244.070312 76 243.664062 69.964844 C 243.261719 63.964844 243.484375 57.867188 242.503906 51.914062 C 241.777344 47.457031 240.140625 42.910156 237.832031 39.019531 C 232.917969 30.726562 224.515625 26.929688 215.40625 24.976562 C 204.5625 22.648438 193.359375 22.46875 182.332031 23.226562 C 176.820312 23.601562 171.285156 23.679688 165.824219 24.609375 C 160.511719 25.515625 155.578125 27.558594 151.152344 30.628906 C 142.613281 36.554688 135.34375 44.980469 130.847656 54.363281 C 126.027344 64.386719 125.039062 75.738281 126.214844 86.703125 C 127.363281 97.425781 130.171875 108.140625 134.863281 117.867188 C 139.890625 128.28125 147.96875 136.230469 154.578125 145.546875 C 157.957031 150.3125 161.074219 155.261719 164.609375 159.914062 C 166.210938 162.023438 167.976562 163.984375 169.65625 166.027344 C 171.214844 167.914062 172.867188 169.949219 173.21875 172.4375 C 173.519531 174.558594 173.382812 176.757812 173.351562 178.894531 C 173.3125 181.617188 173.5 184.230469 173.75 186.9375 C 174.273438 192.554688 174.375 198.195312 173.875 203.816406 C 173.351562 209.730469 172.257812 215.503906 172.300781 221.472656 C 172.34375 227.132812 172.996094 232.769531 173.820312 238.363281 C 175.492188 249.703125 178.117188 260.949219 178.453125 272.449219 C 178.625 278.304688 178.054688 284.164062 178.023438 290.019531 C 177.988281 296.34375 178.195312 302.664062 178.335938 308.984375 C 178.480469 315.273438 178.613281 321.578125 178.066406 327.851562 C 177.605469 333.265625 176.644531 338.613281 176.078125 344.015625 C 175.527344 349.289062 175.398438 354.570312 174.441406 359.804688 C 174.222656 360.988281 174.007812 362.171875 173.617188 363.3125 C 173.386719 363.988281 173.375 363.503906 173.265625 364.097656 C 173.203125 364.425781 173.421875 364.132812 173.207031 364.152344 C 173.574219 364.113281 173.847656 363.648438 174.328125 363.660156 C 170.714844 363.605469 170.796875 368.964844 174.335938 369.230469 Z M 174.335938 369.230469 " fill-opacity="1" fill-rule="nonzero"/></g></svg>