<svg xmlns="http://www.w3.org/2000/svg" xmlns:xlink="http://www.w3.org/1999/xlink" width="500" zoomAndPan="magnify" viewBox="0 0 375 374.999991" height="500" preserveAspectRatio="xMidYMid meet" version="1.0"><defs><clipPath id="228f4d52be"><path d="M 214 154.191406 L 359.710938 154.191406 L 359.710938 256.914062 L 214 256.914062 Z M 214 154.191406 " clip-rule="nonzero"/></clipPath><clipPath id="78752891ec"><path d="M 191.46875 177.019531 L 266.691406 177.019531 L 266.691406 347.109375 L 191.46875 347.109375 Z M 191.46875 177.019531 " clip-rule="nonzero"/></clipPath></defs><path fill="#fcdd44" d="M 181.71875 143.882812 C 182.800781 143.039062 183.804688 142.097656 184.71875 141.082031 C 185.339844 142.234375 185.960938 143.386719 186.558594 144.550781 C 184.945312 144.328125 183.332031 144.109375 181.71875 143.882812 Z M 103.683594 127.808594 C 101.957031 127.238281 100.238281 126.652344 98.527344 126.042969 C 98.640625 125.957031 98.765625 125.886719 98.871094 125.789062 C 100.621094 124.148438 102.367188 122.507812 104.113281 120.871094 C 103.992188 122.292969 104.433594 123.71875 105.570312 124.855469 C 107.40625 126.699219 110.246094 126.863281 112.355469 125.34375 C 115.453125 123.109375 118.550781 120.875 121.648438 118.640625 C 121 119.675781 120.355469 120.710938 119.707031 121.746094 C 118.324219 123.960938 118.234375 126.59375 120.167969 128.535156 C 122.097656 130.472656 124.734375 130.402344 126.953125 129.023438 C 127.777344 128.515625 128.597656 128.003906 129.421875 127.492188 C 128.625 129.1875 128.792969 131.457031 129.976562 132.878906 C 131.367188 134.539062 134.019531 135.589844 136.089844 134.503906 C 139.105469 132.917969 142.125 131.332031 145.140625 129.75 C 142.113281 133.851562 146.613281 139.496094 151.320312 137.566406 C 153.382812 136.722656 155.449219 135.875 157.511719 135.027344 C 157.121094 135.996094 156.75 136.976562 156.425781 137.964844 C 156.203125 138.65625 156.097656 139.347656 156.105469 140.023438 C 152.777344 139.46875 149.449219 138.898438 146.128906 138.285156 C 131.214844 135.53125 117.785156 132.449219 103.683594 127.808594 Z M 83.046875 119.882812 C 79.679688 118.382812 76.355469 116.785156 73.078125 115.089844 C 71.4375 114.238281 69.808594 113.363281 68.195312 112.460938 C 67.789062 112.234375 67.386719 112.007812 66.984375 111.777344 C 66.894531 111.722656 66.839844 111.695312 66.800781 111.671875 C 66.71875 111.621094 66.625 111.566406 66.503906 111.496094 C 65.796875 111.078125 65.085938 110.664062 64.386719 110.234375 C 59.824219 107.433594 55.488281 104.234375 51.546875 100.609375 C 51.105469 100.203125 50.667969 99.792969 50.238281 99.378906 C 50.085938 99.230469 49.933594 99.078125 49.78125 98.929688 C 49.730469 98.875 49.679688 98.824219 49.644531 98.785156 C 48.65625 97.734375 47.679688 96.679688 46.753906 95.574219 C 45.117188 93.617188 43.644531 91.546875 42.3125 89.371094 C 42.15625 89.085938 42 88.800781 41.847656 88.511719 C 41.585938 88.015625 41.335938 87.515625 41.097656 87.011719 C 40.550781 85.84375 40.0625 84.648438 39.644531 83.433594 C 39.527344 83.085938 38.8125 81.292969 39.359375 82.613281 C 39.136719 82.074219 39.0625 81.414062 38.945312 80.84375 C 38.703125 79.652344 38.539062 78.449219 38.449219 77.238281 C 38.429688 76.933594 38.417969 76.628906 38.402344 76.324219 C 38.394531 76.195312 38.367188 76.070312 38.339844 75.976562 C 38.324219 75.496094 38.445312 74.902344 38.472656 74.527344 C 38.574219 73.230469 38.789062 71.957031 39.042969 70.683594 C 39.050781 70.636719 39.058594 70.605469 39.066406 70.5625 C 39.167969 70.238281 39.257812 69.90625 39.367188 69.582031 C 39.585938 68.921875 39.828125 68.265625 40.097656 67.621094 C 40.367188 66.980469 40.664062 66.347656 40.980469 65.730469 C 41.105469 65.484375 41.242188 65.242188 41.371094 64.996094 C 40.773438 66.140625 41.367188 65.019531 41.527344 64.765625 C 42.273438 63.585938 43.101562 62.460938 44.003906 61.398438 C 44.449219 60.871094 44.921875 60.367188 45.390625 59.867188 C 45.378906 59.875 45.375 59.878906 45.363281 59.890625 C 45.375 59.882812 45.386719 59.871094 45.398438 59.859375 C 45.40625 59.855469 45.410156 59.84375 45.417969 59.839844 C 45.496094 59.753906 45.667969 59.601562 45.738281 59.546875 C 45.921875 59.375 46.109375 59.195312 46.296875 59.027344 C 47.359375 58.082031 48.480469 57.199219 49.648438 56.386719 C 50.238281 55.976562 50.835938 55.582031 51.445312 55.207031 C 51.574219 55.128906 51.703125 55.054688 51.832031 54.976562 C 51.886719 54.957031 52.597656 54.558594 52.742188 54.484375 C 53.960938 53.847656 55.210938 53.277344 56.484375 52.765625 C 57.160156 52.5 57.835938 52.246094 58.523438 52.015625 C 58.796875 51.921875 59.074219 51.835938 59.347656 51.746094 C 59.574219 51.675781 59.804688 51.609375 60.035156 51.539062 C 62.988281 50.816406 65.914062 50.429688 68.949219 50.257812 C 69.007812 50.253906 69.1875 50.246094 69.320312 50.242188 C 69.660156 50.242188 70 50.242188 70.339844 50.25 C 71.085938 50.265625 71.828125 50.296875 72.566406 50.34375 C 74.382812 50.457031 76.1875 50.664062 77.980469 50.957031 C 79.449219 51.195312 80.910156 51.488281 82.363281 51.828125 C 82.425781 51.84375 83.269531 52.058594 83.320312 52.066406 C 83.519531 52.117188 83.714844 52.171875 83.914062 52.226562 C 84.878906 52.5 85.835938 52.789062 86.789062 53.097656 C 93.179688 55.171875 99.292969 58.03125 105.199219 61.222656 C 105.921875 61.613281 106.640625 62.011719 107.355469 62.410156 C 107.636719 62.566406 107.917969 62.722656 108.195312 62.882812 C 108.25 62.910156 108.621094 63.125 108.851562 63.257812 C 110.171875 64.023438 111.484375 64.800781 112.789062 65.597656 C 115.042969 66.972656 117.265625 68.402344 119.464844 69.867188 C 117.925781 69.863281 116.421875 70.554688 115.347656 71.835938 C 112.695312 74.984375 110.046875 78.140625 107.394531 81.289062 C 108.320312 79.019531 109.25 76.746094 110.175781 74.476562 C 111.152344 72.082031 110.152344 69.335938 107.945312 68.070312 C 105.667969 66.757812 102.972656 67.367188 101.285156 69.351562 C 97.398438 73.917969 93.507812 78.488281 89.621094 83.058594 C 91.386719 78.957031 93.296875 74.917969 95.367188 70.957031 C 96.558594 68.683594 95.179688 65.722656 93.136719 64.550781 C 90.960938 63.300781 88.027344 63.753906 86.476562 65.832031 C 86.347656 66.003906 86.222656 66.175781 86.09375 66.347656 C 86.578125 65.128906 87.066406 63.910156 87.550781 62.691406 C 88.363281 60.65625 87.785156 57.9375 85.925781 56.632812 C 84.160156 55.394531 81.328125 55.039062 79.613281 56.621094 C 77.640625 58.433594 75.734375 60.3125 73.867188 62.230469 C 73.054688 60.628906 71.414062 59.496094 69.613281 59.308594 C 69.265625 58.273438 68.648438 57.328125 67.859375 56.773438 C 65.847656 55.359375 63.578125 55.488281 61.546875 56.761719 C 52.527344 62.421875 45.398438 70.613281 40.621094 80.09375 C 39.398438 82.519531 40.960938 85.953125 43.453125 86.84375 C 45.578125 87.605469 47.59375 87.082031 49.019531 85.664062 C 49.386719 86.078125 49.804688 86.429688 50.246094 86.6875 C 51.464844 87.386719 53.109375 87.558594 54.53125 87.132812 C 54.449219 87.335938 54.371094 87.539062 54.289062 87.742188 C 53.328125 90.136719 54.304688 92.871094 56.519531 94.144531 C 58.535156 95.304688 61.847656 95.070312 63.179688 92.863281 C 64.191406 91.191406 65.25 89.546875 66.332031 87.921875 C 64.839844 91.65625 63.347656 95.394531 61.859375 99.128906 C 60.902344 101.53125 61.871094 104.261719 64.089844 105.539062 C 66.261719 106.785156 69.199219 106.332031 70.75 104.253906 C 71.105469 103.773438 71.464844 103.292969 71.824219 102.8125 C 71.492188 104.015625 71.160156 105.222656 70.851562 106.433594 C 70.316406 108.519531 72.101562 111.152344 74.03125 111.84375 C 76.257812 112.636719 78.554688 112.015625 80.089844 110.210938 C 82.855469 106.960938 85.625 103.710938 88.390625 100.457031 C 87.386719 102.921875 86.378906 105.386719 85.375 107.851562 C 84.398438 110.242188 85.398438 112.992188 87.605469 114.257812 C 89.875 115.566406 92.589844 114.972656 94.265625 112.976562 C 94.34375 112.886719 94.421875 112.792969 94.5 112.699219 C 93.3125 115.039062 92.121094 117.378906 90.933594 119.71875 C 90.429688 120.710938 90.417969 121.960938 90.761719 123.109375 C 88.171875 122.082031 85.59375 121.019531 83.046875 119.882812 Z M 42.167969 89.132812 C 42.035156 88.914062 42.082031 88.992188 42.167969 89.132812 Z M 150.675781 95.421875 C 150.855469 95.605469 151.585938 96.34375 151.722656 96.484375 C 152.222656 97 152.726562 97.519531 153.222656 98.042969 C 154.4375 99.3125 155.640625 100.605469 156.824219 101.910156 C 158.910156 104.207031 160.941406 106.554688 162.921875 108.945312 C 162.574219 109.015625 162.230469 109.117188 161.90625 109.289062 C 159.558594 110.519531 157.210938 111.753906 154.863281 112.988281 C 155.816406 111.847656 156.773438 110.707031 157.730469 109.566406 C 159.386719 107.585938 159.007812 104.527344 157.269531 102.777344 C 155.339844 100.839844 152.703125 100.910156 150.484375 102.289062 C 146.960938 104.476562 143.441406 106.660156 139.917969 108.847656 C 141.300781 106.636719 142.679688 104.429688 144.058594 102.21875 C 145.441406 100.003906 145.53125 97.375 143.597656 95.429688 C 141.761719 93.585938 138.921875 93.421875 136.8125 94.941406 C 134.234375 96.804688 131.65625 98.660156 129.078125 100.519531 C 130.894531 97.777344 132.703125 95.03125 134.519531 92.285156 C 135.953125 90.113281 135.957031 87.40625 134.058594 85.5 C 132.394531 83.828125 129.15625 83.242188 127.269531 85.011719 C 122.734375 89.269531 118.191406 93.53125 113.652344 97.789062 C 117.183594 90.847656 120.710938 83.902344 124.238281 76.960938 C 124.855469 75.746094 124.757812 74.355469 124.234375 73.140625 C 128.414062 76.097656 132.480469 79.203125 136.425781 82.464844 C 141.375 86.558594 146.128906 90.886719 150.675781 95.421875 Z M 173.449219 129.628906 C 173.097656 129.765625 172.746094 129.902344 172.394531 130.039062 C 173.21875 129.027344 174.078125 128.050781 174.992188 127.117188 C 175.28125 126.820312 175.492188 126.460938 175.660156 126.070312 C 176.5625 127.421875 177.445312 128.785156 178.3125 130.15625 C 176.898438 129.195312 175.097656 128.992188 173.449219 129.628906 Z M 168.007812 117.226562 C 168.261719 116.902344 168.453125 116.535156 168.617188 116.148438 C 169.28125 117.027344 169.933594 117.914062 170.585938 118.804688 C 170.015625 118.832031 169.449219 118.949219 168.890625 119.179688 C 167.714844 119.660156 166.539062 120.140625 165.359375 120.625 C 166.242188 119.492188 167.125 118.359375 168.007812 117.226562 Z M 195.421875 151.503906 C 197.847656 150.363281 199.460938 147.324219 198.195312 144.726562 C 186.222656 120.109375 169.480469 98.046875 149.121094 79.757812 C 139.113281 70.769531 128.226562 62.753906 116.648438 55.914062 C 104.347656 48.648438 91.136719 42.027344 76.757812 40.332031 C 63.492188 38.761719 49.316406 42.066406 39.375 51.375 C 34.300781 56.128906 30.636719 61.84375 28.957031 68.625 C 27.554688 74.292969 27.972656 80.117188 29.554688 85.691406 C 32.667969 96.671875 41 105.785156 49.785156 112.6875 C 54.902344 116.707031 60.507812 120.015625 66.21875 123.113281 C 72.945312 126.761719 79.90625 129.96875 87.019531 132.785156 C 116.203125 144.347656 147.460938 149.527344 178.394531 153.878906 C 182.171875 154.410156 185.953125 154.925781 189.730469 155.445312 C 192.214844 155.78125 194.824219 153.972656 195.371094 151.519531 C 195.390625 151.511719 195.40625 151.511719 195.421875 151.503906 " fill-opacity="1" fill-rule="nonzero"/><path fill="#fcdd44" d="M 45.738281 59.546875 C 45.625 59.652344 45.511719 59.757812 45.398438 59.859375 C 45.398438 59.863281 45.394531 59.863281 45.390625 59.867188 C 45.757812 59.539062 45.804688 59.492188 45.738281 59.546875 " fill-opacity="1" fill-rule="nonzero"/><g clip-path="url(#228f4d52be)"><path fill="#fcdd44" d="M 319.417969 243.871094 C 319.386719 243.878906 319.378906 243.878906 319.339844 243.886719 C 318.972656 243.980469 318.613281 244.082031 318.246094 244.171875 C 317.664062 244.316406 317.078125 244.457031 316.492188 244.589844 C 315.023438 244.921875 313.546875 245.210938 312.0625 245.453125 C 309.246094 245.921875 306.398438 246.234375 303.546875 246.394531 C 302.871094 246.433594 302.191406 246.464844 301.515625 246.484375 C 301.167969 246.496094 300.816406 246.503906 300.46875 246.511719 C 300.433594 246.511719 300.414062 246.511719 300.375 246.511719 C 298.871094 246.507812 297.367188 246.472656 295.863281 246.390625 C 294.03125 246.292969 292.207031 246.109375 290.386719 245.890625 C 296.148438 239.25 301.5625 232.324219 306.621094 225.144531 C 308.257812 223.183594 309.902344 221.234375 311.574219 219.300781 C 313.28125 217.324219 315.007812 215.371094 316.75 213.425781 C 316.488281 213.90625 316.238281 214.386719 315.96875 214.859375 C 315.792969 215.152344 315.621094 215.449219 315.445312 215.742188 C 315.179688 216.1875 314.90625 216.636719 314.632812 217.082031 C 313.992188 218.117188 313.335938 219.144531 312.660156 220.160156 C 311.359375 222.117188 309.996094 224.035156 308.574219 225.902344 C 307.148438 227.769531 305.664062 229.59375 304.117188 231.367188 C 303.316406 232.285156 302.5 233.191406 301.671875 234.082031 C 301.3125 234.464844 300.953125 234.84375 300.59375 235.21875 C 300.46875 235.347656 299.125 236.714844 299.710938 236.132812 C 297.796875 238.039062 296.796875 241.058594 298.746094 243.394531 C 300.390625 245.355469 303.910156 246.347656 306.007812 244.355469 C 311.886719 238.773438 317.769531 233.191406 323.652344 227.609375 C 322.410156 230.773438 321.167969 233.933594 319.925781 237.097656 C 318.953125 239.570312 319.957031 241.863281 321.71875 243.132812 C 321.007812 243.359375 320.304688 243.605469 319.585938 243.820312 C 319.507812 243.84375 319.472656 243.851562 319.417969 243.871094 Z M 300.605469 246.511719 C 300.832031 246.511719 301.050781 246.511719 300.605469 246.511719 Z M 280.101562 244 C 280.085938 243.996094 280.082031 243.996094 280.0625 243.992188 C 277.765625 243.328125 275.503906 242.597656 273.269531 241.789062 C 274.523438 241.601562 275.707031 240.960938 276.628906 239.882812 C 282.585938 232.832031 288.785156 225.996094 295.230469 219.394531 C 295.980469 218.625 296.734375 217.859375 297.492188 217.097656 C 297.871094 216.714844 298.25 216.335938 298.628906 215.957031 C 299.054688 215.535156 298.71875 215.871094 298.632812 215.953125 C 298.886719 215.703125 299.140625 215.449219 299.394531 215.199219 C 300.839844 213.777344 302.296875 212.371094 303.765625 210.96875 C 303.28125 211.710938 302.800781 212.453125 302.308594 213.191406 C 301.039062 215.101562 299.734375 216.988281 298.410156 218.863281 C 292.691406 225.707031 287.175781 232.726562 281.878906 239.925781 C 280.984375 241.136719 280.679688 242.742188 280.964844 244.210938 C 280.800781 244.171875 280.632812 244.132812 280.46875 244.09375 C 280.34375 244.0625 280.226562 244.03125 280.101562 244 Z M 262.304688 236.855469 C 262.167969 236.777344 262.035156 236.703125 261.898438 236.628906 C 261.8125 236.582031 261.675781 236.503906 261.585938 236.453125 C 261.566406 236.441406 261.539062 236.429688 261.515625 236.414062 C 261.539062 236.425781 261.550781 236.433594 261.566406 236.441406 C 261.5625 236.441406 261.554688 236.433594 261.546875 236.429688 C 260.257812 235.65625 258.976562 234.871094 257.726562 234.03125 C 255.425781 232.488281 253.210938 230.816406 251.09375 229.03125 C 250.121094 228.207031 249.167969 227.363281 248.238281 226.492188 C 247.824219 226.109375 247.417969 225.71875 247.011719 225.324219 C 247.007812 225.320312 246.652344 224.964844 246.492188 224.804688 C 246.304688 224.613281 246.066406 224.367188 246.019531 224.316406 C 244.164062 222.375 242.410156 220.335938 240.757812 218.214844 C 239.152344 216.152344 237.644531 214.007812 236.242188 211.796875 C 235.863281 211.199219 235.492188 210.597656 235.132812 209.988281 C 235.042969 209.839844 234.953125 209.691406 234.867188 209.539062 C 234.816406 209.453125 234.757812 209.355469 234.726562 209.300781 C 234.648438 209.152344 234.570312 209 234.492188 208.851562 C 235.527344 208.835938 236.546875 208.523438 237.351562 207.804688 C 238.617188 206.667969 239.886719 205.53125 241.15625 204.394531 C 240.367188 205.5 239.578125 206.609375 238.789062 207.71875 C 237.21875 209.917969 237.375 213.332031 239.722656 214.980469 C 242 216.582031 245.238281 216.359375 246.988281 214.046875 C 252.929688 206.195312 259.121094 199.496094 265.941406 193.425781 C 259.992188 201.382812 253.589844 208.996094 246.757812 216.222656 C 244.898438 218.199219 245.5625 221.992188 247.695312 223.488281 C 250.207031 225.253906 252.933594 224.640625 254.957031 222.550781 C 255.960938 221.523438 256.964844 220.496094 257.972656 219.476562 C 258.433594 219.011719 258.894531 218.546875 259.355469 218.085938 C 259.476562 217.96875 260.050781 217.402344 260.070312 217.378906 C 260.726562 216.730469 261.402344 216.097656 262.0625 215.453125 C 260.960938 217.039062 259.878906 218.636719 258.832031 220.261719 C 257.421875 222.453125 257.378906 225.125 259.292969 227.050781 C 260.933594 228.695312 264.230469 229.335938 266.078125 227.535156 C 266.402344 227.222656 266.707031 226.898438 267.027344 226.585938 C 267.027344 226.585938 267.027344 226.585938 267.03125 226.589844 C 267.035156 226.582031 267.039062 226.574219 267.046875 226.566406 C 276.957031 216.804688 286.003906 206.25 294.042969 194.949219 C 296.242188 193 298.496094 191.121094 300.800781 189.300781 C 300.265625 190.347656 299.710938 191.390625 299.144531 192.421875 C 298.882812 192.894531 298.613281 193.371094 298.347656 193.847656 C 297.8125 194.792969 298.101562 194.269531 298.222656 194.0625 C 298.085938 194.296875 297.945312 194.535156 297.808594 194.769531 C 297.207031 195.789062 296.589844 196.800781 295.964844 197.800781 C 290.863281 205.980469 284.996094 213.652344 278.898438 221.105469 C 275.464844 225.300781 271.949219 229.429688 268.433594 233.550781 C 266.976562 235.273438 267.074219 238.066406 268.417969 239.855469 C 267.03125 239.25 265.65625 238.609375 264.296875 237.910156 C 263.628906 237.570312 262.964844 237.214844 262.304688 236.855469 Z M 234.9375 209.664062 C 234.976562 209.734375 234.96875 209.714844 234.9375 209.664062 Z M 228.21875 194.5625 C 228.148438 194.363281 228.089844 194.160156 228.027344 193.960938 C 229.222656 194.101562 230.472656 193.832031 231.570312 192.964844 C 233.351562 191.5625 235.128906 190.15625 236.910156 188.75 C 234.710938 192.554688 232.511719 196.359375 230.316406 200.160156 C 230.042969 199.496094 229.753906 198.835938 229.496094 198.164062 C 229.042969 196.972656 228.617188 195.773438 228.21875 194.5625 Z M 225.710938 181.054688 C 225.996094 180.789062 226.285156 180.523438 226.570312 180.257812 C 226.199219 181.097656 225.828125 181.9375 225.453125 182.777344 C 225.382812 182.3125 225.324219 181.847656 225.257812 181.382812 C 225.414062 181.277344 225.570312 181.183594 225.710938 181.054688 Z M 246.078125 168.320312 C 244.59375 169.492188 243.109375 170.664062 241.625 171.835938 C 242.152344 170.648438 242.679688 169.457031 243.203125 168.269531 C 244.164062 168.289062 245.121094 168.3125 246.078125 168.320312 Z M 266.328125 167.96875 C 262.488281 171.410156 258.644531 174.855469 254.804688 178.296875 C 256.171875 175.925781 257.542969 173.554688 258.914062 171.1875 C 259.484375 170.199219 259.828125 169.160156 259.890625 168.136719 C 260.328125 168.125 260.765625 168.117188 261.203125 168.105469 C 262.914062 168.058594 264.621094 168.015625 266.328125 167.96875 Z M 283.6875 167.824219 C 283.476562 167.921875 283.265625 168.023438 283.058594 168.144531 C 280.953125 169.390625 278.878906 170.6875 276.835938 172.03125 C 277.5625 170.675781 277.683594 169.132812 277.183594 167.746094 C 278.066406 167.742188 279.003906 167.746094 280.128906 167.753906 C 281.3125 167.761719 282.5 167.792969 283.6875 167.824219 Z M 309.296875 170.753906 C 309.269531 170.769531 309.25 170.777344 309.226562 170.792969 C 307.558594 171.820312 305.917969 172.886719 304.292969 173.976562 C 304.082031 173.628906 303.839844 173.292969 303.523438 172.976562 C 301.703125 171.144531 298.832031 170.945312 296.738281 172.488281 C 293.824219 174.636719 290.953125 176.835938 288.101562 179.058594 C 288.839844 177.847656 289.585938 176.644531 290.304688 175.421875 C 291.628906 173.164062 291.820312 170.617188 289.84375 168.632812 C 289.617188 168.40625 289.382812 168.214844 289.140625 168.042969 C 292.84375 168.25 296.535156 168.578125 300.210938 169.085938 C 303.261719 169.511719 306.292969 170.0625 309.296875 170.753906 Z M 315.957031 214.878906 C 315.949219 214.890625 315.945312 214.902344 315.9375 214.914062 C 315.761719 215.226562 315.769531 215.207031 315.957031 214.878906 Z M 327.171875 177.539062 C 327.308594 177.613281 327.40625 177.664062 327.484375 177.703125 C 327.558594 177.75 327.644531 177.804688 327.773438 177.878906 C 328.066406 178.0625 328.367188 178.238281 328.660156 178.421875 C 329.324219 178.832031 329.976562 179.261719 330.625 179.699219 C 331.878906 180.546875 333.101562 181.441406 334.273438 182.398438 C 335.246094 183.1875 336.160156 184.035156 337.082031 184.886719 C 337.121094 184.921875 337.148438 184.949219 337.179688 184.980469 C 337.417969 185.226562 337.660156 185.476562 337.894531 185.726562 C 338.371094 186.238281 338.835938 186.761719 339.289062 187.296875 C 341.023438 189.328125 342.539062 191.511719 343.953125 193.78125 C 343.964844 193.800781 343.980469 193.832031 344 193.859375 C 343.976562 193.816406 343.957031 193.78125 343.925781 193.722656 C 343.953125 193.773438 343.976562 193.820312 344.007812 193.871094 C 344.097656 194.035156 344.226562 194.265625 344.160156 194.15625 C 344.253906 194.316406 344.34375 194.480469 344.429688 194.644531 C 344.730469 195.195312 345.019531 195.757812 345.292969 196.324219 C 345.90625 197.574219 346.460938 198.851562 346.960938 200.152344 C 347.359375 201.199219 347.707031 202.261719 348.035156 203.332031 C 348.058594 203.421875 348.261719 204.144531 348.324219 204.410156 C 348.5 205.140625 348.65625 205.875 348.789062 206.617188 C 349.007812 207.816406 349.175781 209.03125 349.28125 210.246094 C 349.335938 210.851562 349.378906 211.457031 349.402344 212.0625 C 349.40625 212.152344 349.40625 212.238281 349.410156 212.328125 C 349.40625 212.402344 349.410156 212.957031 349.40625 213.136719 C 349.371094 214.40625 349.265625 215.671875 349.09375 216.929688 C 349.011719 217.523438 348.914062 218.117188 348.796875 218.703125 C 348.746094 218.96875 348.691406 219.226562 348.632812 219.488281 C 348.601562 219.636719 348.578125 219.777344 348.558594 219.890625 C 348.40625 220.789062 348.019531 221.738281 347.652344 222.601562 C 347.5 222.386719 347.335938 222.1875 347.160156 222.007812 C 345.316406 220.160156 342.492188 220.007812 340.375 221.519531 C 338.890625 222.582031 337.40625 223.640625 335.921875 224.703125 C 337.867188 219.746094 339.8125 214.792969 341.757812 209.839844 C 342.5625 207.800781 341.996094 205.089844 340.132812 203.777344 C 338.390625 202.554688 335.507812 202.164062 333.820312 203.765625 C 333.167969 204.386719 332.511719 205.007812 331.859375 205.628906 C 333.574219 201.375 335.039062 197.007812 336.210938 192.542969 C 336.773438 190.382812 336.601562 187.898438 334.582031 186.480469 C 333.003906 185.371094 330.394531 184.933594 328.699219 186.140625 C 328.257812 182.59375 323.453125 180.042969 320.308594 182.605469 C 317.59375 184.816406 314.917969 187.078125 312.261719 189.359375 C 314.15625 185.300781 315.8125 181.136719 317.164062 176.863281 C 317.550781 175.652344 317.585938 174.289062 317.1875 173.085938 C 317.609375 173.238281 318.039062 173.382812 318.457031 173.542969 C 321.457031 174.671875 324.347656 176.027344 327.171875 177.539062 Z M 359.632812 215.574219 C 360.359375 203.734375 356.074219 191.917969 348.839844 182.628906 C 340.625 172.074219 328.425781 165.316406 315.6875 161.78125 C 301.617188 157.878906 287.179688 157.289062 272.65625 157.53125 C 265.8125 157.644531 258.96875 157.917969 252.121094 158.019531 C 252.222656 158.015625 251.429688 158.027344 251.15625 158.027344 C 250.824219 158.03125 250.210938 158.035156 250.304688 158.035156 C 249.429688 158.039062 248.554688 158.039062 247.675781 158.039062 C 247.230469 158.035156 246.785156 158.023438 246.339844 158.019531 C 246.03125 156.984375 245.433594 156.039062 244.578125 155.4375 C 242.820312 154.203125 239.984375 153.84375 238.269531 155.425781 C 237.46875 156.164062 236.671875 156.898438 235.871094 157.636719 C 234.660156 157.554688 233.449219 157.480469 232.242188 157.367188 C 228.847656 157.050781 225.476562 156.597656 222.125 155.988281 C 219.453125 155.503906 216.566406 157.839844 216.367188 160.511719 C 216.277344 161.6875 216.535156 162.75 217.046875 163.648438 C 215.570312 164.402344 214.417969 165.765625 214.339844 167.535156 C 213.292969 190.773438 221.988281 214.339844 238.238281 231.070312 C 255.679688 249.027344 280.289062 258.117188 305.222656 256.636719 C 328.820312 255.234375 357.988281 242.550781 359.632812 215.574219 " fill-opacity="1" fill-rule="nonzero"/></g><path fill="#fcdd44" d="M 344.007812 193.871094 C 344.003906 193.867188 344 193.863281 344 193.859375 C 344.085938 194.015625 344.140625 194.113281 344.160156 194.15625 C 344.109375 194.058594 344.058594 193.964844 344.007812 193.871094 " fill-opacity="1" fill-rule="nonzero"/><path fill="#fcdd44" d="M 261.566406 236.441406 C 261.574219 236.445312 261.582031 236.449219 261.585938 236.453125 C 261.691406 236.511719 261.796875 236.570312 261.898438 236.628906 C 262.035156 236.699219 262.039062 236.703125 261.566406 236.441406 " fill-opacity="1" fill-rule="nonzero"/><path fill="#fcdd44" d="M 141.933594 200.953125 C 141.894531 200.992188 141.796875 201.089844 141.707031 201.175781 C 141.40625 201.476562 141.101562 201.773438 140.792969 202.074219 C 140.269531 202.585938 139.742188 203.09375 139.207031 203.601562 C 137.96875 204.785156 136.710938 205.953125 135.441406 207.101562 C 132.898438 209.402344 130.296875 211.632812 127.640625 213.800781 C 126.421875 214.785156 125.195312 215.757812 123.957031 216.71875 C 124.757812 212.28125 125.554688 207.84375 126.355469 203.402344 C 126.363281 203.515625 126.375 203.632812 126.386719 203.742188 C 126.625 206.308594 129.117188 208.179688 131.566406 208.152344 C 134.339844 208.121094 136.027344 206.1875 136.65625 203.632812 C 137.570312 199.902344 138.488281 196.171875 139.40625 192.441406 C 140.246094 193.59375 141.539062 194.441406 142.957031 194.550781 C 145.335938 194.730469 147.339844 193.507812 148.363281 191.367188 C 149.613281 188.765625 150.863281 186.167969 152.113281 183.5625 C 153.226562 184.566406 154.742188 185.089844 156.234375 184.945312 C 155.996094 185.246094 155.765625 185.550781 155.523438 185.847656 C 151.253906 191.109375 146.707031 196.140625 141.933594 200.953125 Z M 141.609375 201.277344 C 141.570312 201.316406 141.5625 201.320312 141.609375 201.277344 Z M 109.742188 226.746094 C 109.882812 226.359375 109.992188 225.960938 110.019531 225.53125 C 110.585938 216.363281 111.578125 207.230469 112.964844 198.15625 C 113.148438 200.761719 113.300781 203.367188 113.375 205.976562 C 113.40625 206.960938 113.425781 207.945312 113.4375 208.925781 C 113.4375 209.089844 113.441406 209.417969 113.441406 209.558594 C 113.441406 210.078125 113.441406 210.597656 113.4375 211.113281 C 113.429688 213.273438 113.378906 215.433594 113.296875 217.589844 C 113.21875 219.597656 114.128906 221.675781 115.8125 222.703125 C 114.371094 223.710938 112.917969 224.695312 111.445312 225.660156 C 110.882812 226.03125 110.308594 226.382812 109.742188 226.746094 Z M 101.542969 231.730469 C 100.933594 232.074219 100.320312 232.414062 99.707031 232.75 C 98.199219 233.574219 96.675781 234.375 95.140625 235.144531 C 92.203125 236.617188 89.210938 237.976562 86.152344 239.1875 C 84.777344 239.734375 83.386719 240.246094 81.988281 240.722656 C 81.25 240.972656 80.511719 241.210938 79.769531 241.445312 C 79.398438 241.558594 79.027344 241.671875 78.65625 241.78125 C 78.601562 241.792969 77.96875 241.964844 77.820312 242.007812 C 74.789062 242.777344 71.734375 243.40625 68.621094 243.765625 C 67.09375 243.941406 65.558594 244.058594 64.023438 244.109375 C 63.847656 244.117188 63.667969 244.117188 63.496094 244.121094 C 63.480469 244.121094 63.464844 244.121094 63.4375 244.121094 C 65.023438 243.066406 65.769531 241.230469 65.742188 239.105469 C 65.742188 238.972656 65.738281 238.835938 65.738281 238.703125 C 66.769531 239.488281 68.070312 239.902344 69.441406 239.644531 C 71.644531 239.234375 73.171875 237.734375 73.675781 235.769531 C 74.519531 237.578125 76.367188 238.800781 78.421875 238.777344 C 80.851562 238.753906 83.363281 236.851562 83.507812 234.261719 C 83.730469 230.28125 83.957031 226.300781 84.179688 222.324219 C 84.730469 225.445312 85.28125 228.566406 85.835938 231.6875 C 86.289062 234.238281 88.398438 236.125 91.015625 236.097656 C 93.328125 236.070312 96.125 234.164062 96.105469 231.578125 C 96.039062 223.113281 96.3125 214.65625 96.898438 206.214844 C 97.847656 212.691406 98.800781 219.164062 99.75 225.640625 C 100.101562 228.039062 102.109375 229.820312 104.46875 230.011719 C 103.949219 230.320312 103.433594 230.640625 102.914062 230.949219 C 102.867188 230.976562 102.832031 231 102.800781 231.015625 C 102.738281 231.050781 102.664062 231.09375 102.578125 231.144531 C 102.230469 231.339844 101.886719 231.535156 101.542969 231.730469 Z M 54.265625 243.21875 C 53.933594 243.148438 53.601562 243.074219 53.273438 243 C 53.117188 242.964844 52.609375 242.820312 52.394531 242.761719 C 52.003906 242.644531 51.613281 242.523438 51.226562 242.398438 C 53.007812 241.945312 54.605469 240.566406 55.015625 238.734375 C 55.175781 239.34375 55.324219 239.953125 55.488281 240.558594 C 55.816406 241.75 56.445312 242.890625 57.324219 243.722656 C 56.96875 243.675781 56.613281 243.636719 56.261719 243.582031 C 55.59375 243.476562 54.925781 243.351562 54.265625 243.21875 Z M 43.425781 239.121094 C 43.367188 239.089844 43.320312 239.066406 43.277344 239.042969 C 43.257812 239.03125 43.246094 239.023438 43.222656 239.011719 C 42.992188 238.871094 42.761719 238.734375 42.53125 238.59375 C 41.28125 237.8125 40.074219 236.96875 38.914062 236.058594 C 38.652344 235.851562 38.40625 235.628906 38.152344 235.414062 C 39.105469 230.515625 40.058594 225.617188 41.011719 220.722656 C 42.296875 226.535156 43.578125 232.351562 44.863281 238.164062 C 45.035156 238.949219 45.355469 239.664062 45.769531 240.285156 C 45.53125 240.175781 45.285156 240.074219 45.046875 239.957031 C 44.5 239.6875 43.964844 239.398438 43.425781 239.121094 Z M 51.570312 182.039062 C 51.851562 181.867188 52.140625 181.699219 52.425781 181.53125 C 52.535156 181.46875 52.683594 181.382812 52.734375 181.355469 C 53.445312 180.964844 54.15625 180.570312 54.871094 180.191406 C 56.453125 179.355469 58.054688 178.566406 59.671875 177.8125 C 65.679688 175.015625 71.894531 172.667969 78.199219 170.644531 C 79.730469 170.152344 81.269531 169.679688 82.8125 169.226562 C 83.515625 169.023438 84.21875 168.820312 84.921875 168.625 C 85.097656 168.578125 85.382812 168.5 85.488281 168.472656 C 86.03125 168.324219 86.574219 168.179688 87.117188 168.039062 C 88.578125 167.660156 90.042969 167.300781 91.515625 166.949219 C 91.46875 167.109375 91.417969 167.265625 91.386719 167.433594 C 90.1875 173.847656 89.207031 180.300781 88.394531 186.773438 C 87.8125 183.472656 87.226562 180.171875 86.640625 176.871094 C 86.191406 174.320312 84.078125 172.433594 81.460938 172.464844 C 79.03125 172.488281 76.519531 174.390625 76.375 176.980469 C 76.289062 178.507812 76.203125 180.035156 76.117188 181.5625 C 75.953125 180.429688 75.792969 179.300781 75.628906 178.171875 C 75.261719 175.609375 73 173.734375 70.449219 173.761719 C 67.859375 173.789062 65.734375 175.699219 65.363281 178.277344 C 65.078125 180.246094 64.835938 182.21875 64.597656 184.191406 C 63.683594 182.097656 61.515625 180.546875 59.132812 180.992188 C 57.308594 181.332031 56.085938 182.332031 55.398438 183.695312 C 54.519531 183.15625 53.503906 182.835938 52.546875 182.847656 C 50.121094 182.875 47.59375 184.777344 47.460938 187.367188 C 47.25 191.308594 47.042969 195.25 46.835938 199.191406 C 46.496094 197.664062 46.160156 196.140625 45.824219 194.609375 C 45.261719 192.070312 43.34375 190.171875 40.640625 190.203125 C 40.632812 190.203125 40.621094 190.207031 40.613281 190.207031 C 41.53125 189.347656 42.476562 188.511719 43.449219 187.71875 C 46.011719 185.628906 48.738281 183.746094 51.570312 182.039062 Z M 152.085938 159.734375 C 150.167969 163.726562 148.253906 167.71875 146.335938 171.710938 C 146.074219 169.824219 145.8125 167.9375 145.550781 166.054688 C 145.191406 163.492188 142.910156 161.617188 140.367188 161.644531 C 137.59375 161.675781 135.910156 163.609375 135.28125 166.164062 C 134.796875 168.136719 134.308594 170.109375 133.824219 172.085938 C 133.585938 169.535156 133.347656 166.988281 133.113281 164.4375 C 132.972656 162.96875 132.085938 161.742188 130.902344 160.953125 C 132.664062 160.804688 134.429688 160.667969 136.195312 160.546875 C 141.484375 160.175781 146.785156 159.929688 152.085938 159.734375 Z M 162.503906 162.613281 C 162.558594 162.0625 162.617188 161.507812 162.671875 160.953125 C 162.722656 160.425781 162.679688 159.914062 162.585938 159.421875 C 163.40625 159.402344 164.226562 159.378906 165.050781 159.363281 C 164.199219 160.445312 163.355469 161.53125 162.503906 162.613281 Z M 118.882812 167.570312 C 118.300781 165.035156 116.417969 163.132812 113.703125 163.160156 C 110.910156 163.195312 109.265625 165.132812 108.613281 167.679688 C 107.027344 173.90625 105.660156 180.183594 104.46875 186.496094 C 103.53125 180.105469 102.59375 173.714844 101.65625 167.324219 C 101.527344 166.449219 101.167969 165.664062 100.660156 164.996094 C 108.5 163.488281 116.40625 162.386719 124.34375 161.570312 C 123.589844 162.351562 123.054688 163.375 122.84375 164.546875 C 122.121094 168.546875 121.402344 172.546875 120.683594 176.550781 C 120.148438 173.546875 119.566406 170.550781 118.882812 167.570312 Z M 191.167969 154.609375 C 191.355469 152.101562 189.542969 148.832031 186.644531 148.851562 C 158.523438 149.03125 130.1875 149.195312 102.417969 154.140625 C 88.601562 156.605469 74.917969 160.253906 61.910156 165.550781 C 48.765625 170.90625 35.515625 178.289062 27.027344 190.015625 C 18.9375 201.1875 15.3125 216.175781 20.855469 229.257812 C 25.71875 240.730469 36.726562 249.027344 48.527344 252.375 C 61.828125 256.148438 75.617188 254.175781 88.410156 249.40625 C 101.476562 244.535156 113.738281 237.027344 125 228.878906 C 147.828125 212.371094 167.230469 190.976562 181.324219 166.582031 C 182.746094 164.125 184.109375 161.640625 185.4375 159.132812 C 188.125 159.105469 190.9375 157.632812 191.167969 154.609375 " fill-opacity="1" fill-rule="nonzero"/><g clip-path="url(#78752891ec)"><path fill="#fcdd44" d="M 215.714844 330.230469 C 214.847656 329.105469 214.082031 327.925781 213.339844 326.71875 C 213.328125 326.699219 213.328125 326.699219 213.320312 326.683594 C 213.289062 326.621094 213.265625 326.578125 213.21875 326.488281 C 213.082031 326.214844 212.929688 325.949219 212.789062 325.679688 C 212.507812 325.136719 212.238281 324.585938 211.976562 324.035156 C 211.320312 322.640625 210.730469 321.222656 210.1875 319.78125 C 209.753906 318.628906 209.355469 317.46875 208.984375 316.296875 C 208.753906 315.570312 208.542969 314.84375 208.328125 314.113281 C 208.308594 314.066406 208.285156 313.972656 208.257812 313.878906 C 208.160156 313.496094 208.054688 313.109375 207.957031 312.71875 C 206.5 307.097656 205.316406 301.40625 204.410156 295.667969 C 203.503906 289.933594 202.875 284.15625 202.511719 278.359375 C 202.335938 275.460938 202.230469 272.558594 202.175781 269.65625 C 202.175781 269.570312 202.175781 269.5 202.171875 269.433594 C 202.171875 269.398438 202.175781 269.355469 202.175781 269.304688 C 202.175781 268.980469 202.171875 268.660156 202.171875 268.335938 C 202.167969 267.609375 202.171875 266.882812 202.179688 266.160156 C 202.195312 264.707031 202.226562 263.253906 202.273438 261.804688 C 202.671875 250.03125 204.171875 238.296875 206.757812 226.804688 C 206.800781 226.613281 206.847656 226.417969 206.894531 226.222656 C 207.046875 226.339844 207.191406 226.457031 207.359375 226.554688 C 207.683594 226.738281 208.03125 226.875 208.390625 226.988281 C 207.757812 228.722656 207.128906 230.460938 206.5 232.195312 C 205.613281 234.628906 206.457031 237.296875 208.726562 238.601562 C 209.441406 239.011719 210.171875 239.210938 210.898438 239.265625 C 209.21875 242.71875 207.539062 246.175781 205.859375 249.632812 C 204.734375 251.945312 205.996094 254.835938 208.085938 256.039062 C 208.828125 256.464844 209.601562 256.667969 210.367188 256.707031 C 209.515625 258.164062 208.667969 259.625 207.816406 261.082031 C 206.457031 263.410156 206.261719 266.597656 208.753906 268.347656 C 209.480469 268.859375 210.367188 269.175781 211.277344 269.300781 C 210.792969 270.035156 210.308594 270.773438 209.820312 271.503906 C 208.347656 273.453125 206.960938 275.472656 205.683594 277.566406 C 204.28125 279.871094 204.15625 283.101562 206.617188 284.832031 C 208.332031 286.035156 210.765625 286.21875 212.546875 285.128906 C 212.394531 285.371094 212.238281 285.609375 212.082031 285.851562 C 210.675781 288.046875 210.628906 290.710938 212.546875 292.636719 C 214.328125 294.429688 217.289062 294.726562 219.332031 293.125 C 220.273438 292.386719 221.21875 291.648438 222.160156 290.910156 C 218.898438 295.863281 215.632812 300.8125 212.367188 305.761719 C 210.878906 308.015625 210.898438 311.335938 213.300781 313.023438 C 214.59375 313.933594 215.929688 314.203125 217.203125 313.976562 C 216.382812 315.203125 215.566406 316.425781 214.746094 317.648438 C 213.296875 319.8125 213.316406 322.535156 215.207031 324.4375 C 216.667969 325.90625 219.277344 326.503906 221.1875 325.488281 C 220.441406 326.542969 219.699219 327.597656 218.953125 328.652344 C 218.066406 329.910156 217.757812 331.398438 218.023438 332.796875 C 217.855469 332.648438 217.683594 332.507812 217.515625 332.355469 C 217.507812 332.351562 217.507812 332.347656 217.5 332.339844 C 217.46875 332.308594 217.441406 332.273438 217.40625 332.230469 C 217.214844 332.011719 217.015625 331.804688 216.824219 331.585938 C 216.441406 331.144531 216.070312 330.691406 215.714844 330.230469 Z M 208.246094 313.832031 C 208.199219 313.652344 208.167969 313.523438 208.246094 313.832031 Z M 237.324219 230.859375 C 237.417969 230.707031 237.507812 230.550781 237.597656 230.394531 C 237.699219 230.585938 237.796875 230.78125 237.898438 230.976562 C 237.710938 230.925781 237.519531 230.890625 237.324219 230.859375 Z M 224.859375 211.953125 C 225.226562 210.945312 225.59375 209.933594 225.960938 208.929688 C 226.324219 209.605469 226.691406 210.28125 227.058594 210.960938 C 226.28125 211.113281 225.539062 211.460938 224.859375 211.953125 Z M 250.605469 259.300781 C 251.074219 260.664062 251.519531 262.039062 251.941406 263.417969 C 252.128906 264.035156 252.3125 264.652344 252.492188 265.269531 C 252.550781 265.476562 252.609375 265.683594 252.667969 265.890625 C 252.6875 265.976562 252.875 266.65625 252.910156 266.789062 C 254.398438 272.460938 255.476562 278.25 256.019531 284.089844 C 256.089844 284.84375 256.128906 285.601562 256.183594 286.355469 C 254.496094 284.679688 251.316406 284.152344 249.417969 285.886719 C 248.570312 286.660156 247.726562 287.429688 246.882812 288.203125 C 248.914062 285.160156 250.953125 282.117188 252.988281 279.074219 C 254.492188 276.832031 254.445312 273.492188 252.050781 271.8125 C 250.601562 270.792969 249.09375 270.589844 247.683594 270.976562 C 247.789062 270.8125 247.898438 270.648438 248.007812 270.484375 C 249.441406 268.3125 249.449219 265.605469 247.546875 263.695312 C 245.765625 261.90625 242.804688 261.613281 240.761719 263.210938 C 239.496094 264.199219 238.230469 265.1875 236.96875 266.179688 C 238.929688 263.117188 240.898438 260.054688 242.859375 256.996094 C 244.066406 255.113281 244.421875 252.53125 242.871094 250.683594 C 241.472656 249.007812 238.847656 247.988281 236.757812 249.054688 C 236.21875 249.332031 235.6875 249.621094 235.15625 249.910156 C 237.347656 246.003906 239.472656 242.066406 241.539062 238.097656 C 243.648438 242.367188 245.652344 246.683594 247.480469 251.09375 C 248.605469 253.796875 249.65625 256.527344 250.605469 259.300781 Z M 254.398438 308.417969 C 254.363281 308.542969 254.121094 309.476562 254.070312 309.660156 C 253.992188 309.921875 253.90625 310.183594 253.828125 310.445312 C 253.480469 309.71875 252.988281 309.074219 252.359375 308.632812 C 250.445312 307.285156 247.964844 307.21875 246.046875 308.617188 C 245.84375 308.765625 245.648438 308.910156 245.449219 309.054688 C 249.074219 303.914062 252.703125 298.773438 256.332031 293.632812 C 256.261719 295.847656 256.128906 298.058594 255.867188 300.257812 C 255.539062 303.007812 255.039062 305.726562 254.398438 308.417969 Z M 225.496094 336.355469 C 225.445312 336.492188 225.421875 336.640625 225.382812 336.78125 C 225.171875 336.742188 224.964844 336.707031 224.757812 336.660156 C 225.007812 336.578125 225.257812 336.476562 225.496094 336.355469 Z M 261.0625 258.035156 C 253.285156 233.597656 238.433594 212.257812 227.460938 189.265625 C 226.097656 186.40625 224.792969 183.523438 223.558594 180.609375 C 222.503906 178.109375 219.320312 176.640625 216.785156 177.835938 C 215.75 178.324219 214.925781 179.105469 214.371094 180.035156 C 213.171875 180.535156 212.160156 181.5 211.503906 182.820312 C 200.546875 204.882812 194.054688 229.238281 192.339844 253.804688 C 191.480469 266.144531 191.773438 278.613281 193.285156 290.894531 C 194.03125 296.976562 195.082031 303.023438 196.441406 309 C 197.796875 314.957031 199.324219 320.953125 201.765625 326.570312 C 204.214844 332.207031 207.570312 337.5625 212.300781 341.5625 C 217.117188 345.628906 223.242188 347.609375 229.5 347.355469 C 240.359375 346.914062 250.183594 339.007812 255.960938 330.273438 C 270.09375 308.902344 268.523438 281.484375 261.0625 258.035156 " fill-opacity="1" fill-rule="nonzero"/></g><path fill="#ff9f1c" d="M 210.136719 111.054688 C 210.132812 111.058594 210.132812 111.0625 210.128906 111.066406 C 210.089844 111.121094 210.050781 111.175781 210.007812 111.234375 C 210.066406 111.175781 210.195312 111.019531 210.222656 110.953125 C 210.195312 110.988281 210.167969 111.019531 210.136719 111.054688 " fill-opacity="1" fill-rule="nonzero"/><path fill="#ff9f1c" d="M 224.476562 131.011719 C 224.582031 131.085938 224.722656 131.183594 224.804688 131.273438 C 224.816406 131.277344 224.828125 131.285156 224.839844 131.289062 C 224.75 131.089844 224.53125 130.992188 224.476562 131.011719 " fill-opacity="1" fill-rule="nonzero"/><path fill="#ff9f1c" d="M 223.070312 126.578125 C 223.0625 126.613281 223.054688 126.648438 223.046875 126.683594 C 223.035156 126.789062 223.015625 126.90625 223.011719 126.972656 C 223.011719 126.984375 223.011719 127 223.011719 127.011719 C 223.042969 127.054688 223.128906 126.855469 223.070312 126.578125 " fill-opacity="1" fill-rule="nonzero"/><path fill="#ff9f1c" d="M 232.679688 130.585938 C 232.796875 130.503906 232.898438 130.441406 232.96875 130.429688 C 232.96875 130.429688 232.96875 130.429688 232.972656 130.425781 C 232.875 130.425781 232.761719 130.503906 232.679688 130.585938 " fill-opacity="1" fill-rule="nonzero"/><path fill="#ff9f1c" d="M 233.648438 122.914062 C 233.644531 122.910156 233.644531 122.902344 233.640625 122.898438 C 233.628906 122.882812 233.460938 122.675781 233.382812 122.554688 C 233.375 122.542969 233.363281 122.53125 233.355469 122.519531 C 233.390625 122.722656 233.601562 122.914062 233.648438 122.914062 " fill-opacity="1" fill-rule="nonzero"/><path fill="#ff9f1c" d="M 223.648438 124.691406 C 223.597656 124.832031 223.535156 124.964844 223.457031 125.066406 C 223.457031 125.078125 223.453125 125.085938 223.449219 125.09375 C 223.667969 124.863281 223.699219 124.6875 223.648438 124.691406 " fill-opacity="1" fill-rule="nonzero"/><path fill="#ff9f1c" d="M 234.890625 127.21875 C 234.890625 127.175781 234.894531 127.132812 234.898438 127.089844 C 234.878906 127.171875 234.855469 127.304688 234.859375 127.382812 C 234.871094 127.316406 234.882812 127.261719 234.890625 127.21875 " fill-opacity="1" fill-rule="nonzero"/><path fill="#ff9f1c" d="M 223.863281 130.289062 C 223.9375 130.390625 223.992188 130.488281 224.035156 130.578125 C 224.042969 130.589844 224.054688 130.597656 224.0625 130.605469 C 224.015625 130.445312 223.929688 130.335938 223.863281 130.289062 " fill-opacity="1" fill-rule="nonzero"/><path fill="#ff9f1c" d="M 155.601562 261.210938 C 155.546875 261.253906 155.5 261.292969 155.460938 261.320312 C 155.417969 261.355469 155.339844 261.410156 155.222656 261.496094 C 154.839844 261.777344 154.453125 262.046875 154.058594 262.308594 C 153.324219 262.800781 152.570312 263.257812 151.789062 263.675781 C 151.386719 263.890625 150.976562 264.097656 150.5625 264.289062 C 150.484375 264.324219 150.402344 264.363281 150.320312 264.402344 C 150.277344 264.417969 150.230469 264.433594 150.160156 264.453125 C 149.367188 264.71875 148.585938 264.941406 147.773438 265.125 C 147.710938 265.140625 147.65625 265.15625 147.605469 265.175781 C 147.46875 265.1875 147.3125 265.183594 147.257812 265.1875 C 146.878906 265.210938 146.5 265.21875 146.125 265.203125 C 146.070312 265.199219 145.949219 265.203125 145.832031 265.199219 C 145.804688 265.195312 145.789062 265.191406 145.753906 265.183594 C 145.28125 265.082031 144.820312 264.953125 144.351562 264.832031 C 144.316406 264.824219 144.277344 264.816406 144.230469 264.808594 C 144.101562 264.746094 143.972656 264.675781 143.875 264.621094 C 143.464844 264.414062 143.085938 264.164062 142.703125 263.914062 C 143.464844 264.40625 142.492188 263.710938 142.273438 263.492188 C 142.109375 263.335938 141.949219 263.167969 141.796875 263 C 141.699219 262.890625 141.421875 262.476562 141.40625 262.472656 C 141 261.808594 140.613281 261.152344 140.265625 260.445312 C 140.257812 260.429688 140.25 260.40625 140.246094 260.394531 C 140.171875 260.167969 140.089844 259.949219 140.019531 259.722656 C 139.847656 259.160156 139.703125 258.589844 139.589844 258.007812 C 139.554688 257.824219 139.523438 257.640625 139.496094 257.457031 C 139.492188 257.410156 139.492188 257.367188 139.488281 257.304688 C 139.460938 256.828125 139.429688 256.351562 139.433594 255.871094 C 139.433594 255.363281 139.457031 254.851562 139.496094 254.34375 C 139.511719 254.167969 139.53125 253.996094 139.546875 253.820312 C 139.570312 253.710938 139.65625 253.144531 139.660156 253.117188 C 140.046875 250.96875 140.699219 248.878906 141.460938 246.835938 C 141.617188 246.410156 141.78125 245.988281 141.949219 245.5625 C 141.988281 245.472656 142.277344 244.765625 142.347656 244.589844 C 142.835938 243.433594 143.328125 242.28125 143.832031 241.128906 C 144.757812 238.996094 145.710938 236.878906 146.683594 234.765625 C 147.058594 234.769531 147.441406 234.71875 147.820312 234.582031 C 148.128906 234.472656 148.433594 234.351562 148.738281 234.230469 C 148.714844 234.933594 148.707031 235.636719 148.734375 236.34375 C 148.875 239.960938 153.128906 241.675781 155.765625 239.226562 C 155.804688 239.191406 155.839844 239.152344 155.878906 239.117188 C 155.839844 239.253906 155.804688 239.390625 155.765625 239.523438 C 155.316406 241.105469 156.019531 242.84375 157.289062 243.804688 C 158.671875 244.851562 160.253906 244.8125 161.792969 244.125 C 164.15625 243.0625 166.523438 242 168.886719 240.9375 C 168.652344 241.371094 168.421875 241.804688 168.1875 242.238281 C 167.238281 244.011719 167.691406 246.460938 169.398438 247.605469 C 167.828125 249.339844 166.226562 251.042969 164.597656 252.71875 C 161.730469 255.664062 158.824219 258.652344 155.601562 261.210938 Z M 145.558594 265.167969 C 145.5625 265.167969 145.613281 265.179688 145.679688 265.191406 C 145.621094 265.1875 145.574219 265.179688 145.558594 265.167969 Z M 140.277344 260.480469 C 140.5 260.933594 140.359375 260.667969 140.277344 260.480469 Z M 165.664062 199.679688 C 166.007812 200.164062 166.4375 200.574219 166.945312 200.832031 C 168.632812 201.6875 170.480469 201.402344 171.882812 200.148438 C 173.824219 198.410156 175.765625 196.671875 177.707031 194.933594 C 177.273438 195.65625 176.824219 196.371094 176.351562 197.066406 C 176.09375 197.445312 175.832031 197.820312 175.5625 198.191406 C 175.464844 198.324219 175.371094 198.457031 175.269531 198.589844 C 175.242188 198.621094 175.179688 198.703125 175.050781 198.871094 C 173.726562 200.558594 173.289062 203.070312 175.070312 204.6875 C 176.714844 206.183594 179.265625 206.308594 180.886719 204.667969 C 182.179688 203.351562 183.476562 202.035156 184.773438 200.722656 C 184.960938 201.683594 185.492188 202.582031 186.324219 203.210938 C 187.96875 204.457031 190.199219 204.273438 191.699219 202.855469 C 193.007812 201.621094 194.320312 200.382812 195.628906 199.144531 C 195.933594 200.386719 196.378906 201.609375 197 202.78125 C 197.414062 203.558594 198.128906 204.136719 198.949219 204.484375 C 198.101562 206.152344 197.242188 207.8125 196.355469 209.457031 C 192.15625 217.207031 187.445312 224.679688 182.265625 231.8125 C 182.179688 230.882812 181.808594 229.984375 181.105469 229.347656 C 179.664062 228.042969 177.890625 227.921875 176.164062 228.695312 C 172.808594 230.203125 169.457031 231.707031 166.101562 233.214844 C 166.675781 231.191406 167.25 229.164062 167.824219 227.136719 C 168.296875 225.457031 167.445312 223.328125 165.859375 222.527344 C 164.460938 221.816406 162.910156 221.890625 161.628906 222.683594 C 162.253906 221.492188 162.796875 220.242188 163.234375 218.929688 C 164.414062 215.414062 159.761719 212.4375 156.980469 214.425781 C 159.25 210.3125 161.605469 206.25 164.058594 202.242188 C 164.582031 201.382812 165.128906 200.535156 165.664062 199.679688 Z M 246.265625 111.417969 C 246.378906 111.550781 246.511719 111.695312 246.628906 111.84375 C 246.660156 111.890625 246.699219 111.949219 246.75 112.019531 C 247.828125 113.5 248.679688 115.074219 249.457031 116.71875 C 249.414062 116.652344 249.773438 117.488281 249.839844 117.6875 C 249.996094 118.136719 250.140625 118.59375 250.273438 119.050781 C 250.550781 120.019531 250.769531 121 250.933594 121.996094 C 250.9375 122.019531 250.945312 122.0625 250.953125 122.109375 C 250.96875 122.257812 251.023438 122.664062 251.027344 122.683594 C 251.070312 123.101562 251.101562 123.523438 251.125 123.949219 C 251.179688 125.007812 251.179688 126.066406 251.121094 127.125 C 251.097656 127.550781 251.050781 127.972656 251.019531 128.394531 C 251.015625 128.4375 251.015625 128.453125 251.015625 128.488281 C 250.984375 128.6875 250.957031 128.890625 250.925781 129.085938 C 250.765625 130.085938 250.558594 131.074219 250.300781 132.050781 C 250.054688 132.980469 249.769531 133.894531 249.4375 134.792969 C 249.414062 134.863281 249.386719 134.929688 249.363281 134.996094 C 249.332031 135.074219 249.234375 135.324219 249.183594 135.4375 C 248.972656 135.925781 248.75 136.410156 248.511719 136.886719 C 248.085938 137.746094 247.621094 138.582031 247.117188 139.394531 C 246.863281 139.800781 246.601562 140.199219 246.328125 140.59375 C 246.210938 140.769531 246.085938 140.941406 245.964844 141.113281 C 245.941406 141.144531 245.929688 141.164062 245.914062 141.1875 C 245.894531 141.207031 245.878906 141.226562 245.859375 141.25 C 244.621094 142.777344 243.269531 144.195312 241.742188 145.449219 C 241.722656 145.464844 241.679688 145.496094 241.636719 145.53125 C 241.496094 145.636719 241.246094 145.828125 241.226562 145.84375 C 240.875 146.09375 240.519531 146.332031 240.15625 146.5625 C 239.246094 147.148438 238.304688 147.675781 237.328125 148.144531 C 237.046875 148.28125 236.757812 148.40625 236.472656 148.535156 C 236.5625 148.480469 235.636719 148.863281 235.484375 148.917969 C 234.519531 149.257812 233.535156 149.546875 232.542969 149.785156 C 231.699219 149.988281 230.851562 150.140625 230 150.269531 C 229.960938 150.265625 229.128906 150.367188 228.949219 150.378906 C 228.410156 150.425781 227.871094 150.457031 227.332031 150.46875 C 227.265625 150.472656 227.203125 150.464844 227.140625 150.464844 C 227.582031 150.417969 228.027344 150.371094 228.46875 150.300781 C 233.429688 149.484375 238.300781 146.789062 241.679688 143.078125 C 245.140625 139.273438 247.484375 134.105469 247.054688 128.886719 C 246.890625 126.894531 246.410156 124.933594 245.667969 123.082031 C 244.796875 119.175781 242.703125 115.519531 239.558594 112.894531 C 235.652344 109.636719 230.925781 108.277344 225.894531 109.070312 C 221.640625 109.742188 217.515625 112.171875 214.703125 115.414062 C 211.683594 118.898438 209.785156 123.285156 209.921875 127.945312 C 209.96875 129.503906 210.933594 130.996094 212.316406 131.667969 C 212.769531 133.671875 213.601562 135.574219 214.847656 137.230469 C 216.394531 139.300781 218.425781 140.898438 220.703125 142.015625 C 220.097656 141.867188 219.492188 141.707031 218.902344 141.507812 C 218.679688 141.433594 218.453125 141.324219 218.222656 141.265625 C 217.867188 141.097656 217.496094 140.949219 217.136719 140.773438 C 216.285156 140.355469 215.460938 139.886719 214.664062 139.371094 C 214.289062 139.125 213.917969 138.867188 213.554688 138.605469 C 213.46875 138.546875 213.414062 138.507812 213.371094 138.476562 C 213.285156 138.394531 213.199219 138.3125 213.128906 138.253906 C 212.398438 137.640625 211.699219 136.988281 211.042969 136.296875 C 210.730469 135.96875 210.425781 135.632812 210.132812 135.285156 C 210.003906 135.132812 209.875 134.976562 209.746094 134.824219 C 209.691406 134.753906 209.621094 134.6875 209.558594 134.632812 C 209.011719 134.050781 208.5625 133.113281 208.195312 132.476562 C 207.765625 131.734375 207.40625 130.972656 207.039062 130.199219 C 207.035156 130.191406 207.03125 130.183594 207.027344 130.175781 C 206.957031 129.953125 206.855469 129.730469 206.78125 129.511719 C 206.613281 129.039062 206.464844 128.5625 206.332031 128.082031 C 206.125 127.320312 205.96875 126.542969 205.839844 125.765625 C 205.832031 125.640625 205.777344 125.179688 205.761719 124.980469 C 205.730469 124.457031 205.710938 123.933594 205.714844 123.40625 C 205.71875 122.9375 205.738281 122.472656 205.769531 122 C 205.785156 121.765625 205.808594 121.53125 205.828125 121.296875 C 205.980469 120.335938 206.171875 119.386719 206.433594 118.449219 C 206.558594 118 206.695312 117.550781 206.84375 117.109375 C 206.910156 116.914062 206.988281 116.71875 207.054688 116.523438 C 207.0625 116.488281 207.070312 116.464844 207.082031 116.441406 C 207.472656 115.550781 207.878906 114.671875 208.355469 113.824219 C 208.816406 113.003906 209.320312 112.203125 209.859375 111.433594 C 209.878906 111.410156 209.941406 111.324219 210.007812 111.234375 C 209.957031 111.289062 209.960938 111.269531 210.128906 111.066406 C 210.183594 110.992188 210.230469 110.925781 210.230469 110.925781 C 210.234375 110.929688 210.230469 110.941406 210.222656 110.953125 C 210.5625 110.542969 210.898438 110.132812 211.257812 109.734375 C 211.855469 109.070312 212.488281 108.433594 213.144531 107.832031 C 213.535156 107.476562 213.941406 107.144531 214.339844 106.804688 C 214.371094 106.777344 214.410156 106.742188 214.449219 106.707031 C 214.621094 106.578125 214.800781 106.457031 214.972656 106.332031 C 216.28125 105.410156 217.675781 104.617188 219.128906 103.949219 C 219.367188 103.902344 219.601562 103.851562 219.839844 103.8125 C 219.929688 103.796875 220.101562 103.777344 220.222656 103.761719 C 220.464844 103.734375 220.703125 103.710938 220.945312 103.691406 C 221.886719 103.617188 222.832031 103.589844 223.777344 103.613281 C 224.277344 103.625 224.777344 103.648438 225.277344 103.6875 C 225.496094 103.707031 225.71875 103.730469 225.941406 103.746094 C 226.003906 103.753906 226.03125 103.753906 226.078125 103.757812 C 226.117188 103.765625 226.148438 103.773438 226.21875 103.785156 C 228.113281 104.117188 229.945312 104.570312 231.746094 105.230469 C 231.890625 105.292969 232.375 105.488281 232.550781 105.570312 C 233.054688 105.804688 233.550781 106.054688 234.039062 106.316406 C 234.917969 106.796875 235.761719 107.328125 236.585938 107.902344 C 237.625 108.628906 239.050781 108.59375 240.246094 108.070312 C 239.53125 110.992188 243.574219 112.3125 245.140625 110.164062 C 245.207031 110.230469 245.273438 110.292969 245.335938 110.359375 C 245.652344 110.703125 245.964844 111.058594 246.265625 111.417969 Z M 223.5625 120.46875 C 223.613281 120.4375 223.664062 120.40625 223.714844 120.375 C 223.550781 120.515625 223.109375 120.738281 223.5625 120.46875 Z M 231.671875 120.878906 C 231.703125 120.910156 231.742188 120.9375 231.777344 120.972656 C 231.566406 120.804688 231.238281 120.507812 231.671875 120.878906 Z M 225.597656 131.71875 C 225.53125 131.695312 225.472656 131.675781 225.46875 131.679688 C 225.480469 131.671875 225.53125 131.691406 225.597656 131.71875 Z M 225.742188 131.785156 C 225.738281 131.78125 225.726562 131.777344 225.71875 131.773438 C 225.941406 131.878906 226.175781 132.007812 225.742188 131.785156 Z M 231.171875 131.511719 C 231.035156 131.582031 230.933594 131.625 230.925781 131.613281 C 230.921875 131.605469 231.046875 131.558594 231.171875 131.511719 Z M 231.195312 131.5 C 231.179688 131.503906 231.175781 131.507812 231.164062 131.511719 C 230.90625 131.597656 230.65625 131.691406 230.398438 131.765625 C 230.054688 131.871094 229.707031 131.957031 229.355469 132.03125 C 229.269531 132.046875 229.179688 132.066406 229.09375 132.082031 C 229.050781 132.085938 229.03125 132.089844 229 132.097656 C 228.9375 132.101562 228.875 132.109375 228.8125 132.113281 C 228.457031 132.140625 228.101562 132.152344 227.75 132.144531 C 227.574219 132.140625 227.398438 132.125 227.222656 132.125 C 227.199219 132.125 227.195312 132.125 227.175781 132.125 C 226.765625 132.042969 226.359375 131.964844 225.960938 131.84375 C 225.921875 131.832031 225.777344 131.78125 225.65625 131.738281 C 225.382812 131.59375 225.113281 131.441406 224.839844 131.289062 C 224.851562 131.316406 224.863281 131.339844 224.871094 131.367188 C 224.863281 131.339844 224.835938 131.304688 224.804688 131.273438 C 224.78125 131.257812 224.753906 131.242188 224.726562 131.230469 C 224.484375 131.097656 224.4375 131.023438 224.476562 131.011719 C 224.4375 130.980469 224.398438 130.953125 224.378906 130.933594 C 224.269531 130.832031 224.167969 130.71875 224.0625 130.605469 C 224.074219 130.640625 224.085938 130.675781 224.089844 130.710938 C 224.085938 130.675781 224.054688 130.625 224.035156 130.578125 C 223.996094 130.539062 223.957031 130.496094 223.917969 130.457031 C 223.71875 130.261719 223.769531 130.214844 223.863281 130.289062 C 223.722656 130.089844 223.558594 129.890625 223.488281 129.757812 C 223.441406 129.667969 223.371094 129.445312 223.292969 129.308594 C 223.210938 129.011719 223.128906 128.710938 223.050781 128.410156 C 223.035156 128.289062 223.011719 128.167969 223.007812 128.066406 C 222.992188 127.714844 222.992188 127.363281 223.011719 127.011719 C 222.996094 126.988281 222.992188 126.925781 223.019531 126.796875 C 223.027344 126.757812 223.039062 126.71875 223.046875 126.683594 C 223.058594 126.597656 223.0625 126.523438 223.050781 126.484375 C 223.0625 126.519531 223.066406 126.546875 223.070312 126.578125 C 223.152344 126.207031 223.222656 125.832031 223.332031 125.464844 C 223.371094 125.339844 223.410156 125.21875 223.449219 125.09375 C 223.433594 125.117188 223.421875 125.132812 223.398438 125.152344 C 223.421875 125.128906 223.4375 125.09375 223.457031 125.066406 C 223.46875 125.039062 223.476562 125.015625 223.484375 124.984375 C 223.550781 124.777344 223.617188 124.695312 223.648438 124.691406 C 223.710938 124.527344 223.765625 124.359375 223.828125 124.234375 C 224.023438 123.855469 224.238281 123.492188 224.464844 123.132812 C 224.546875 123.011719 224.632812 122.886719 224.714844 122.765625 C 225.222656 122.199219 225.742188 121.671875 226.304688 121.152344 C 226.304688 121.152344 226.304688 121.152344 226.308594 121.152344 C 226.34375 121.128906 226.386719 121.101562 226.4375 121.066406 C 226.785156 120.832031 227.144531 120.617188 227.515625 120.425781 C 227.632812 120.367188 227.753906 120.3125 227.871094 120.257812 C 228.203125 120.183594 228.535156 120.039062 228.871094 119.960938 C 228.988281 119.9375 229.105469 119.914062 229.222656 119.890625 C 229.417969 119.917969 229.640625 119.914062 229.867188 119.90625 C 230.070312 119.984375 230.277344 120.058594 230.351562 120.097656 C 230.738281 120.300781 231.117188 120.523438 231.484375 120.765625 C 231.535156 120.800781 231.714844 120.941406 231.832031 121.015625 C 232.109375 121.257812 232.386719 121.496094 232.652344 121.757812 C 232.898438 122 233.125 122.261719 233.355469 122.519531 C 233.351562 122.503906 233.34375 122.488281 233.34375 122.472656 C 233.34375 122.488281 233.363281 122.515625 233.382812 122.554688 C 233.433594 122.613281 233.484375 122.667969 233.535156 122.726562 C 233.65625 122.863281 233.675781 122.914062 233.648438 122.914062 C 233.859375 123.234375 234.058594 123.5625 234.234375 123.902344 C 234.320312 124.058594 234.394531 124.21875 234.472656 124.378906 C 234.550781 124.726562 234.703125 125.074219 234.785156 125.421875 C 234.820312 125.566406 234.847656 125.710938 234.878906 125.851562 C 234.867188 126.203125 234.921875 126.566406 234.910156 126.917969 C 234.910156 126.9375 234.90625 127.011719 234.898438 127.089844 C 234.921875 126.988281 234.9375 126.976562 234.890625 127.21875 C 234.882812 127.332031 234.875 127.4375 234.875 127.4375 C 234.863281 127.433594 234.859375 127.410156 234.859375 127.382812 C 234.855469 127.402344 234.851562 127.410156 234.84375 127.433594 C 234.808594 127.609375 234.765625 127.78125 234.714844 127.957031 C 234.691406 128.042969 234.664062 128.125 234.640625 128.214844 C 234.625 128.253906 234.617188 128.273438 234.609375 128.304688 C 234.585938 128.351562 234.5625 128.402344 234.542969 128.449219 C 234.460938 128.605469 234.378906 128.757812 234.292969 128.910156 C 234.242188 129 234.1875 129.082031 234.132812 129.171875 C 233.855469 129.375 233.457031 129.984375 233.253906 130.171875 C 233.160156 130.261719 233.066406 130.34375 232.972656 130.425781 C 232.984375 130.425781 232.996094 130.421875 233.007812 130.425781 C 232.996094 130.421875 232.980469 130.429688 232.96875 130.429688 C 232.933594 130.460938 232.894531 130.492188 232.863281 130.527344 C 232.507812 130.847656 232.542969 130.722656 232.679688 130.585938 C 232.464844 130.734375 232.214844 130.945312 232.117188 131.003906 C 232.0625 131.03125 231.53125 131.332031 231.195312 131.5 Z M 213.464844 138.558594 C 213.566406 138.632812 213.683594 138.714844 213.714844 138.726562 C 213.632812 138.695312 213.546875 138.632812 213.464844 138.558594 Z M 205.820312 121.339844 C 205.789062 121.566406 205.726562 121.949219 205.820312 121.339844 Z M 209.734375 108.054688 C 209.839844 107.984375 209.941406 107.910156 210.046875 107.835938 C 210.078125 107.816406 210.019531 107.863281 209.730469 108.058594 C 209.730469 108.058594 209.730469 108.058594 209.734375 108.054688 Z M 236.078125 103.96875 C 236.082031 103.96875 236.085938 103.96875 236.09375 103.972656 C 236.09375 103.972656 236.101562 103.972656 236.105469 103.976562 C 236.203125 104.015625 236.296875 104.058594 236.394531 104.101562 C 236.460938 104.132812 236.414062 104.113281 236.078125 103.96875 Z M 215.214844 158.960938 C 213.371094 167.246094 210.996094 175.402344 208.105469 183.378906 C 207.984375 183.132812 207.847656 182.894531 207.679688 182.675781 C 206.816406 181.554688 205.257812 180.863281 203.816406 181.058594 C 205.691406 177.101562 200.449219 173.101562 197.210938 176.382812 C 195.171875 178.457031 193.128906 180.527344 191.089844 182.597656 C 191.132812 182.367188 191.191406 182.140625 191.230469 181.910156 C 191.535156 180.160156 190.976562 178.160156 189.269531 177.292969 C 188.984375 177.152344 188.691406 177.050781 188.398438 176.96875 C 188.761719 175.734375 188.542969 174.363281 187.726562 173.296875 C 187.15625 172.554688 186.253906 171.988281 185.289062 171.75 C 186.53125 170.179688 187.78125 168.613281 189.054688 167.0625 C 192.132812 163.320312 195.300781 159.644531 198.550781 156.042969 C 200.179688 154.246094 201.824219 152.464844 203.492188 150.703125 C 203.59375 150.59375 203.675781 150.46875 203.765625 150.347656 C 203.972656 150.527344 204.171875 150.714844 204.382812 150.886719 C 207.929688 153.789062 211.960938 155.878906 216.234375 157.15625 C 215.75 157.636719 215.375 158.234375 215.214844 158.960938 Z M 203.371094 195.15625 C 203.371094 194.898438 203.355469 194.640625 203.363281 194.378906 C 203.363281 194.324219 203.363281 194.304688 203.363281 194.269531 C 203.371094 194.234375 203.375 194.222656 203.382812 194.175781 C 203.449219 193.871094 203.5 193.558594 203.578125 193.253906 C 203.652344 192.949219 203.742188 192.644531 203.839844 192.347656 C 203.914062 192.121094 204.339844 191.3125 203.890625 192.164062 C 204.183594 191.609375 204.4375 191.039062 204.777344 190.507812 C 204.777344 190.5 204.78125 190.496094 204.789062 190.488281 C 205.105469 190.1875 205.421875 189.890625 205.742188 189.585938 C 205.5625 190.019531 205.386719 190.453125 205.207031 190.886719 C 204.613281 192.316406 203.996094 193.738281 203.371094 195.15625 Z M 273.332031 99.535156 C 273.285156 99.53125 273.289062 99.53125 273.332031 99.535156 Z M 275.785156 100.542969 C 275.863281 100.609375 275.902344 100.640625 275.785156 100.542969 Z M 277.054688 102.601562 C 277.082031 102.484375 277.113281 102.390625 277.054688 102.601562 Z M 182.871094 244.457031 C 188.941406 236.898438 194.515625 228.945312 199.476562 220.613281 C 209.253906 204.191406 216.746094 186.324219 221.546875 167.820312 C 222.128906 165.5625 222.671875 163.296875 223.175781 161.019531 C 223.367188 160.175781 223.273438 159.28125 222.964844 158.476562 C 226.089844 158.78125 229.273438 158.683594 232.433594 158.179688 C 242.191406 156.609375 250.707031 150.34375 255.316406 141.632812 C 260 132.785156 260.742188 122.1875 256.757812 112.957031 C 254.863281 108.570312 251.824219 104.742188 248.125 101.699219 C 250.945312 94.296875 254.925781 87.15625 261.339844 82.824219 C 264.875 80.433594 268.890625 78.824219 273.039062 78.648438 C 275.269531 78.550781 277.148438 78.792969 279.289062 79.519531 C 279.90625 79.730469 279.621094 79.613281 280.207031 79.886719 C 280.628906 80.082031 281.042969 80.300781 281.441406 80.53125 C 282.5 81.144531 282.75 81.339844 283.535156 82.042969 C 288.714844 86.691406 290.710938 94.726562 288.140625 101.441406 C 288.09375 101.535156 287.933594 101.917969 287.933594 101.921875 C 287.855469 102.089844 287.777344 102.253906 287.691406 102.417969 C 287.488281 102.832031 287.261719 103.234375 287.019531 103.628906 C 286.375 104.679688 286.261719 104.8125 285.414062 105.695312 C 284.054688 107.101562 282.300781 108.285156 280.480469 108.90625 C 278.609375 109.546875 276.785156 109.769531 275.011719 109.328125 C 274.183594 109.125 273.515625 108.863281 272.753906 108.328125 C 272.730469 108.292969 272.335938 107.960938 272.328125 107.953125 C 272.191406 107.824219 272.058594 107.6875 271.929688 107.546875 C 271.925781 107.542969 271.640625 107.175781 271.585938 107.117188 C 271.445312 106.921875 271.316406 106.71875 271.195312 106.511719 C 270.699219 105.652344 270.445312 104.9375 270.3125 104.015625 C 270.183594 103.09375 270.246094 102.425781 270.53125 101.503906 C 270.550781 101.445312 270.5625 101.410156 270.574219 101.371094 C 270.582031 101.355469 270.597656 101.332031 270.621094 101.285156 C 270.742188 101.039062 270.878906 100.800781 271.027344 100.574219 C 271.074219 100.515625 271.136719 100.433594 271.164062 100.40625 C 271.269531 100.308594 271.851562 99.859375 271.742188 99.894531 C 271.816406 99.851562 271.890625 99.808594 271.933594 99.769531 C 271.964844 99.734375 271.984375 99.714844 271.996094 99.691406 C 272.035156 99.6875 272.085938 99.679688 272.171875 99.660156 C 272.347656 99.617188 272.519531 99.574219 272.691406 99.53125 C 272.132812 99.675781 272.679688 99.523438 272.855469 99.527344 C 273.035156 99.53125 273.210938 99.535156 273.386719 99.539062 C 273.46875 99.546875 273.585938 99.5625 273.683594 99.582031 C 273.863281 99.625 274.042969 99.667969 274.222656 99.722656 C 274.308594 99.746094 274.589844 99.871094 274.6875 99.90625 C 274.992188 100.0625 275.289062 100.222656 275.585938 100.398438 C 275.625 100.421875 275.679688 100.460938 275.730469 100.5 C 275.863281 100.613281 275.996094 100.722656 276.121094 100.847656 C 276.277344 100.996094 276.414062 101.167969 276.566406 101.320312 C 276.582031 101.335938 276.585938 101.339844 276.597656 101.351562 C 276.605469 101.371094 276.609375 101.386719 276.625 101.417969 C 276.691406 101.582031 276.8125 101.777344 276.910156 101.933594 C 276.921875 101.964844 276.933594 102.003906 276.953125 102.0625 C 276.945312 102.085938 277.035156 102.394531 277.050781 102.453125 C 276.882812 101.851562 277.003906 102.460938 277.027344 102.714844 C 277 102.824219 276.972656 102.933594 276.9375 103.042969 C 276.9375 103.042969 276.933594 103.042969 276.933594 103.046875 C 276.300781 104.382812 276.621094 106.019531 277.976562 106.78125 C 279.199219 107.46875 281.078125 107.082031 281.710938 105.738281 C 283.933594 101.046875 280.816406 96.386719 276.332031 94.671875 C 271.460938 92.816406 266.296875 95.539062 265.078125 100.652344 C 263.855469 105.789062 266.605469 111.734375 271.484375 113.875 C 277.070312 116.328125 283.378906 114.550781 287.933594 110.8125 C 295.832031 104.34375 296.390625 92.285156 291.765625 83.757812 C 289.402344 79.394531 285.609375 75.984375 280.929688 74.304688 C 275.761719 72.449219 269.847656 72.929688 264.789062 74.890625 C 258.457031 77.34375 253.390625 81.6875 249.472656 87.183594 C 246.988281 90.671875 245.082031 94.515625 243.496094 98.5 C 241.007812 97.0625 238.351562 95.9375 235.621094 95.175781 C 231.761719 94.105469 227.710938 93.808594 223.742188 94.285156 C 229.953125 83.992188 233.761719 72.0625 232.246094 60 C 231.375 53.085938 228.984375 46.367188 224.726562 40.800781 C 220.601562 35.402344 214.996094 31.445312 208.488281 29.453125 C 202.402344 27.585938 195.617188 27.605469 189.6875 30.015625 C 184.023438 32.316406 179.378906 36.75 176.730469 42.269531 C 174.167969 47.605469 173.277344 53.941406 175.207031 59.632812 C 177.421875 66.171875 183.136719 71.796875 190.300781 72.113281 C 196.71875 72.394531 203.394531 66.980469 203.25 60.304688 C 203.117188 54.351562 197.070312 49.726562 191.300781 50.691406 C 189.828125 50.9375 188.601562 51.65625 187.445312 52.566406 C 186.277344 53.480469 186.5 55.492188 187.457031 56.441406 C 188.617188 57.59375 190.164062 57.347656 191.335938 56.429688 C 190.839844 56.820312 191.503906 56.367188 191.570312 56.324219 C 191.625 56.285156 191.65625 56.257812 191.683594 56.234375 C 191.714844 56.226562 191.738281 56.222656 191.789062 56.210938 C 191.949219 56.164062 192.109375 56.125 192.269531 56.085938 C 192.292969 56.089844 192.648438 56.019531 192.722656 56.019531 C 193.484375 55.996094 194.316406 56.207031 194.902344 56.5 C 195.125 56.613281 195.34375 56.738281 195.558594 56.871094 C 195.597656 56.898438 195.851562 57.082031 195.941406 57.140625 C 196.273438 57.425781 196.578125 57.730469 196.878906 58.050781 C 196.921875 58.097656 196.945312 58.117188 196.96875 58.140625 C 196.988281 58.175781 197.003906 58.207031 197.035156 58.265625 C 197.15625 58.476562 197.28125 58.699219 197.410156 58.90625 C 197.449219 58.96875 197.472656 59.003906 197.5 59.035156 C 197.507812 59.070312 197.511719 59.101562 197.53125 59.160156 C 197.625 59.476562 197.722656 59.789062 197.773438 60.117188 C 197.6875 59.574219 197.722656 61.222656 197.757812 60.964844 C 197.71875 61.253906 197.644531 61.542969 197.566406 61.824219 C 197.570312 61.804688 197.324219 62.464844 197.378906 62.363281 C 196.847656 63.558594 196.378906 64.089844 195.347656 64.953125 C 193.964844 66.113281 191.699219 66.894531 189.625 66.570312 C 184.554688 65.777344 181.082031 61.113281 180.023438 56.53125 C 179.570312 54.554688 179.542969 52.011719 179.890625 50.070312 C 180.351562 47.527344 181.039062 45.671875 182.269531 43.503906 C 184.5 39.585938 187.957031 36.378906 192.316406 34.847656 C 197.316406 33.089844 202.550781 33.273438 207.585938 34.910156 C 218.300781 38.390625 224.972656 48.519531 226.699219 59.632812 C 228.742188 72.769531 223.371094 85.722656 215.886719 96.296875 C 214.265625 96.683594 212.675781 97.1875 211.136719 97.832031 C 200.960938 102.089844 193.921875 112.121094 192.734375 122.980469 C 191.925781 130.375 194.144531 138.101562 198.398438 144.3125 C 198.136719 144.476562 197.882812 144.667969 197.65625 144.90625 C 183.59375 159.789062 170.945312 176.035156 159.949219 193.304688 C 154.507812 201.847656 149.476562 210.652344 144.875 219.675781 C 142.546875 224.253906 140.328125 228.886719 138.21875 233.570312 C 136.199219 238.066406 134.074219 242.613281 132.617188 247.335938 C 131.183594 251.984375 130.609375 257.121094 132.070312 261.835938 C 133.59375 266.75 136.882812 270.746094 141.734375 272.597656 C 149.78125 275.667969 158.089844 270.175781 163.808594 264.984375 C 170.710938 258.71875 177.039062 251.71875 182.871094 244.457031 " fill-opacity="1" fill-rule="nonzero"/></svg>