<svg xmlns="http://www.w3.org/2000/svg" xmlns:xlink="http://www.w3.org/1999/xlink" width="500" zoomAndPan="magnify" viewBox="0 0 375 374.999991" height="500" preserveAspectRatio="xMidYMid meet" version="1.0"><defs><clipPath id="6da819df12"><path d="M 62.148438 131.125 L 260 131.125 L 260 364.734375 L 62.148438 364.734375 Z M 62.148438 131.125 " clip-rule="nonzero"/></clipPath><clipPath id="c05a9814aa"><path d="M 225.492188 124.320312 L 337.488281 124.320312 L 337.488281 241.480469 L 225.492188 241.480469 Z M 225.492188 124.320312 " clip-rule="nonzero"/></clipPath></defs><g clip-path="url(#6da819df12)"><path fill="#9cb66f" d="M 99.023438 289.910156 C 98.484375 288.714844 97.96875 287.507812 97.4375 286.308594 C 100.007812 285.925781 101.617188 283.964844 101.859375 281.355469 C 101.917969 280.714844 101.984375 280.074219 102.058594 279.433594 C 102.066406 279.355469 102.074219 279.285156 102.082031 279.222656 C 102.125 278.941406 102.167969 278.660156 102.210938 278.382812 C 102.3125 277.734375 102.453125 277.09375 102.578125 276.449219 C 102.320312 280.632812 101.933594 284.808594 101.402344 288.96875 C 101.085938 291.441406 103.5625 293.613281 105.765625 293.910156 C 106.632812 294.027344 107.617188 293.871094 108.511719 293.496094 C 108.433594 296.058594 108.351562 298.621094 108.273438 301.1875 C 108.191406 303.691406 110.246094 305.808594 112.632812 306.128906 C 113.179688 306.203125 113.6875 306.171875 114.167969 306.089844 C 113.957031 307.976562 114.542969 309.308594 115.8125 310.878906 C 115.855469 310.933594 116.1875 311.355469 116.320312 311.515625 C 116.460938 311.71875 116.679688 312.019531 116.710938 312.070312 C 117.152344 312.703125 117.570312 313.351562 117.96875 314.015625 C 118.398438 314.746094 118.804688 315.496094 119.179688 316.257812 C 119.347656 316.605469 119.511719 316.953125 119.671875 317.304688 C 119.703125 317.375 119.730469 317.433594 119.753906 317.484375 C 119.765625 317.515625 119.777344 317.550781 119.792969 317.597656 C 120.300781 319.148438 120.855469 320.652344 121.214844 322.246094 C 121.359375 322.875 121.464844 323.507812 121.574219 324.144531 C 121.578125 324.222656 121.679688 324.945312 121.6875 325.023438 C 121.730469 325.484375 121.757812 325.945312 121.785156 326.410156 C 121.914062 328.820312 123.683594 331.128906 126.152344 331.394531 C 126.445312 334.878906 126.71875 338.378906 126.976562 341.902344 C 116.503906 325.222656 107.144531 307.851562 99.023438 289.910156 Z M 88.445312 262.277344 C 89.734375 262.21875 90.8125 261.757812 91.652344 261.039062 C 91.679688 264.941406 91.707031 268.84375 91.734375 272.746094 C 90.34375 269.257812 89.007812 265.746094 87.707031 262.222656 C 87.949219 262.253906 88.191406 262.285156 88.445312 262.277344 Z M 80.683594 237.433594 C 81.203125 237.410156 81.683594 237.3125 82.136719 237.167969 C 82.375 240.90625 82.613281 244.648438 82.851562 248.386719 C 81.628906 244.691406 80.46875 240.976562 79.347656 237.25 C 79.785156 237.375 80.234375 237.453125 80.683594 237.433594 Z M 102.085938 279.203125 C 102.113281 279.003906 102.125 278.945312 102.085938 279.203125 Z M 79.042969 199.460938 C 79.144531 199.515625 79.242188 199.566406 79.28125 199.585938 C 79.933594 199.933594 80.511719 200.371094 81.144531 200.742188 C 81.195312 200.773438 81.214844 200.78125 81.242188 200.796875 C 81.289062 200.835938 81.3125 200.859375 81.375 200.910156 C 81.609375 201.109375 81.839844 201.300781 82.066406 201.5 C 82.527344 201.90625 82.96875 202.324219 83.398438 202.757812 C 84.410156 203.769531 85.347656 204.851562 86.246094 205.964844 C 86.648438 206.46875 87.050781 206.976562 87.449219 207.484375 C 87.515625 207.578125 88.117188 208.367188 88.25 208.542969 C 89.160156 209.753906 90.046875 210.976562 90.917969 212.21875 C 94.164062 216.847656 97.136719 221.667969 99.84375 226.636719 C 101.21875 229.152344 102.527344 231.710938 103.769531 234.296875 C 104.390625 235.59375 104.996094 236.898438 105.585938 238.207031 C 105.847656 238.789062 106.109375 239.375 106.367188 239.957031 C 106.496094 240.253906 106.621094 240.546875 106.746094 240.839844 C 106.792969 240.9375 106.972656 241.367188 107.058594 241.566406 C 107.746094 243.207031 108.402344 244.859375 109.042969 246.515625 C 107.039062 245.839844 104.644531 246.398438 103.160156 248.628906 C 102.632812 249.417969 102.132812 250.21875 101.644531 251.027344 C 101.605469 245.445312 101.566406 239.863281 101.523438 234.28125 C 101.511719 232.152344 99.980469 229.917969 97.832031 229.429688 C 95.539062 228.90625 93.460938 229.824219 92.148438 231.742188 C 92.054688 231.878906 91.972656 232.023438 91.882812 232.160156 C 91.582031 227.4375 91.28125 222.714844 90.980469 217.992188 C 90.820312 215.472656 89.1875 213.394531 86.617188 213.046875 C 85.621094 212.914062 84.703125 213.070312 83.902344 213.4375 C 83.960938 212.207031 84.039062 210.976562 84.160156 209.75 C 84.402344 207.265625 82.054688 205.109375 79.796875 204.804688 C 79.484375 204.765625 79.183594 204.753906 78.894531 204.765625 C 78.828125 203.992188 78.761719 203.214844 78.695312 202.441406 C 78.582031 201.148438 78.050781 199.867188 77.195312 198.925781 C 77.207031 198.925781 77.21875 198.925781 77.230469 198.925781 C 77.257812 198.960938 78.074219 199.09375 78.339844 199.179688 C 78.351562 199.179688 78.859375 199.394531 79.042969 199.460938 Z M 112.871094 257.65625 C 112.867188 257.53125 112.863281 257.410156 112.859375 257.285156 C 112.898438 257.398438 112.9375 257.511719 112.972656 257.628906 C 112.941406 257.636719 112.90625 257.644531 112.871094 257.65625 Z M 119.050781 281.902344 C 119.011719 281.90625 118.980469 281.914062 118.941406 281.917969 C 118.957031 281.355469 118.976562 280.792969 118.996094 280.234375 C 119.117188 280.796875 119.234375 281.359375 119.355469 281.921875 C 119.253906 281.917969 119.152344 281.898438 119.050781 281.902344 Z M 135.179688 225.910156 C 135.148438 225.6875 135.09375 225.265625 135.179688 225.910156 Z M 259.238281 215.910156 C 257.722656 213.554688 254.835938 212.765625 252.355469 214.101562 C 230.375 225.976562 210.1875 241.253906 192.644531 259.035156 C 175.101562 276.8125 160.058594 297.1875 148.34375 319.25 C 148.3125 319.308594 148.28125 319.367188 148.253906 319.429688 C 149.375 302.859375 149.632812 286.234375 148.988281 269.621094 C 147.84375 240.28125 143.992188 211.011719 137.488281 182.382812 C 133.839844 166.335938 129.339844 150.492188 124.015625 134.925781 C 123.164062 132.4375 120.519531 130.535156 117.824219 131.410156 C 115.359375 132.207031 113.398438 134.933594 114.3125 137.597656 C 123.667969 164.96875 130.460938 193.199219 134.605469 221.828125 C 134.730469 222.683594 134.851562 223.542969 134.96875 224.398438 C 135.042969 224.90625 135.113281 225.417969 135.179688 225.925781 C 135.1875 225.996094 135.199219 226.058594 135.210938 226.152344 C 135.457031 228.039062 135.699219 229.929688 135.925781 231.820312 C 136.359375 235.429688 136.75 239.046875 137.097656 242.667969 C 137.796875 249.90625 138.328125 257.164062 138.691406 264.429688 C 139.410156 278.785156 139.472656 293.175781 138.867188 307.535156 C 138.527344 315.667969 137.972656 323.792969 137.203125 331.894531 C 137.035156 333.675781 136.855469 335.414062 136.675781 337.140625 C 135.128906 317.449219 133.023438 297.792969 128.898438 278.464844 C 123.863281 254.890625 115.621094 231.585938 102.414062 211.296875 C 99.117188 206.222656 95.566406 201.085938 91.460938 196.628906 C 86.972656 191.757812 80.917969 187.898438 74.050781 189.101562 C 68.632812 190.050781 64.832031 194.386719 63.230469 199.445312 C 61.730469 204.1875 62.050781 209.359375 62.832031 214.191406 C 63.742188 219.777344 65.453125 225.308594 66.964844 230.753906 C 68.609375 236.683594 70.382812 242.578125 72.277344 248.433594 C 76.125 260.304688 80.484375 272.003906 85.328125 283.5 C 95.066406 306.601562 106.65625 328.878906 120.167969 349.996094 C 121.78125 352.519531 123.421875 355.023438 125.085938 357.511719 C 125.832031 358.625 126.988281 359.464844 128.253906 359.824219 C 128.59375 362.296875 130.527344 364.585938 133.226562 364.460938 C 133.554688 364.449219 133.882812 364.398438 134.210938 364.324219 C 134.492188 364.464844 134.792969 364.574219 135.105469 364.648438 C 137.855469 365.273438 140.367188 363.828125 141.269531 361.1875 C 142.671875 360.628906 143.835938 359.542969 144.066406 357.984375 C 144.441406 355.472656 144.789062 352.953125 145.125 350.4375 C 145.980469 348.203125 146.859375 345.976562 147.777344 343.765625 C 147.800781 343.707031 147.8125 343.671875 147.835938 343.625 C 147.980469 343.28125 148.125 342.933594 148.277344 342.589844 C 148.558594 341.929688 148.847656 341.269531 149.136719 340.613281 C 149.773438 339.167969 150.425781 337.726562 151.089844 336.292969 C 152.359375 333.554688 153.675781 330.84375 155.042969 328.152344 C 160.585938 317.269531 166.929688 306.792969 173.988281 296.824219 C 175.734375 294.363281 177.523438 291.929688 179.351562 289.53125 C 179.570312 289.242188 179.789062 288.957031 180.011719 288.671875 C 180.050781 288.621094 180.089844 288.574219 180.144531 288.5 C 180.589844 287.933594 181.03125 287.367188 181.480469 286.808594 C 182.460938 285.566406 183.453125 284.339844 184.460938 283.117188 C 188.390625 278.347656 192.492188 273.71875 196.757812 269.246094 C 205.140625 260.460938 214.148438 252.269531 223.707031 244.78125 C 223.988281 244.5625 224.269531 244.339844 224.554688 244.117188 C 225.007812 243.769531 225.011719 243.769531 224.558594 244.117188 C 224.730469 243.984375 224.902344 243.851562 225.074219 243.722656 C 225.699219 243.242188 226.332031 242.765625 226.964844 242.292969 C 228.34375 241.257812 229.734375 240.238281 231.132812 239.234375 C 233.933594 237.222656 236.78125 235.273438 239.664062 233.382812 C 245.433594 229.601562 251.363281 226.074219 257.433594 222.792969 C 259.753906 221.542969 260.679688 218.140625 259.238281 215.910156 " fill-opacity="1" fill-rule="nonzero"/></g><path fill="#ef8256" d="M 151.589844 68.726562 C 149.980469 82.589844 146.601562 96.78125 138.996094 108.65625 C 138.332031 109.691406 137.625 110.703125 136.886719 111.699219 C 142.429688 99.949219 145.296875 86.941406 145.171875 73.949219 C 146.460938 68.484375 147.5 62.960938 148.257812 57.386719 C 148.5 55.597656 147.824219 53.789062 145.914062 53.261719 C 145.316406 53.097656 144.609375 53.140625 143.949219 53.351562 C 143.550781 52.503906 142.738281 51.8125 141.863281 51.523438 C 140.496094 49.128906 136.566406 49.453125 135.730469 52.3125 C 131.167969 67.894531 127.082031 83.609375 123.421875 99.421875 C 122.832031 87.609375 122.242188 75.796875 121.652344 63.980469 C 123.25 59.097656 124.003906 53.941406 123.929688 48.796875 C 124.375 47.75 124.882812 46.730469 125.488281 45.753906 C 126.910156 43.441406 128.828125 41.382812 131.121094 40 C 133.300781 38.683594 135.902344 38.023438 138.136719 38.304688 C 143.472656 38.96875 147.753906 43.191406 149.976562 48.042969 C 152.816406 54.234375 152.375 61.953125 151.589844 68.726562 Z M 79.796875 119.492188 C 83.019531 123.511719 87.550781 126.132812 92.75 126.445312 C 98.003906 126.757812 103.203125 124.246094 105.941406 119.710938 C 107.847656 116.554688 108.476562 112.542969 107.402344 109.03125 C 107.472656 108.59375 107.445312 108.148438 107.261719 107.714844 C 101.871094 94.875 97.851562 81.460938 95.332031 67.769531 C 96.992188 73.28125 99.167969 78.644531 101.863281 83.75 C 102.410156 84.789062 103.265625 85.289062 104.171875 85.382812 C 104.53125 87.402344 104.921875 89.417969 105.359375 91.425781 C 105.933594 94.070312 108.953125 94.382812 110.699219 93.039062 C 110.808594 94.917969 110.914062 96.796875 110.996094 98.679688 C 110.941406 104.765625 111.039062 110.855469 111.335938 116.941406 C 111.515625 120.621094 116.292969 121.175781 117.667969 118.519531 C 117.773438 120.628906 117.878906 122.742188 117.984375 124.851562 C 118.023438 125.644531 118.308594 126.382812 118.777344 126.960938 C 116.128906 128.203125 113.351562 129.167969 110.460938 129.785156 C 99.597656 132.101562 86.769531 128.476562 79.796875 119.492188 Z M 53.21875 111.332031 C 51.269531 110.003906 49.371094 108.195312 48.300781 106.617188 C 45.804688 102.941406 44.730469 99.125 45.109375 94.722656 C 45.113281 94.6875 45.222656 93.949219 45.191406 94.085938 C 45.21875 93.933594 45.246094 93.78125 45.277344 93.625 C 45.390625 93.089844 45.527344 92.554688 45.691406 92.035156 C 45.757812 91.824219 45.832031 91.621094 45.90625 91.414062 C 45.941406 91.316406 45.960938 91.261719 45.976562 91.207031 C 46.003906 91.15625 46.027344 91.109375 46.074219 91.019531 C 46.308594 90.535156 46.566406 90.058594 46.859375 89.605469 C 47.230469 89.027344 47.792969 88.339844 48.683594 87.574219 C 48.707031 87.554688 48.816406 87.46875 48.890625 87.414062 C 49.105469 87.257812 49.328125 87.109375 49.554688 86.96875 C 50.121094 86.617188 50.695312 86.304688 51.296875 86.070312 C 52.609375 85.566406 53.984375 85.320312 55.382812 85.261719 C 56.984375 86.5625 58.75 87.640625 60.628906 88.421875 C 55.675781 87.769531 50.464844 90.621094 48.273438 95.128906 C 45.851562 100.109375 47.457031 105.726562 51.457031 109.363281 C 56.03125 113.523438 62.253906 115.222656 68.148438 116.507812 C 69.722656 116.851562 71.304688 117.144531 72.890625 117.40625 C 72.761719 117.597656 72.652344 117.796875 72.558594 118.003906 C 68.511719 117.304688 64.496094 116.433594 60.625 115.054688 C 58.015625 114.125 55.515625 112.894531 53.21875 111.332031 Z M 55.050781 65.320312 C 56.546875 61.011719 60.683594 57.132812 65.023438 55.574219 C 70.015625 53.78125 74.957031 54.476562 79.472656 57.265625 C 79.738281 57.429688 79.980469 57.625 80.238281 57.800781 C 80.3125 57.941406 80.390625 58.078125 80.464844 58.21875 C 78.511719 57.894531 76.203125 59.1875 76.410156 61.460938 C 76.773438 65.386719 77.335938 69.28125 78.089844 73.132812 C 75.851562 70.007812 73.164062 67.207031 70.105469 64.832031 C 69.128906 62.304688 67.457031 60.015625 65.097656 58.332031 C 63.070312 56.882812 59.894531 58.808594 60.050781 61.230469 C 60.089844 61.851562 60.171875 62.46875 60.253906 63.082031 C 57.765625 68.5625 58.730469 75.046875 62.988281 79.40625 C 63.070312 79.492188 63.171875 79.558594 63.265625 79.632812 C 61.5625 79.183594 59.839844 78.863281 58.097656 78.710938 C 58 78.609375 57.902344 78.511719 57.804688 78.40625 C 54.492188 74.765625 53.417969 70.011719 55.050781 65.320312 Z M 82.382812 45.476562 C 81.816406 43.417969 81.414062 41.324219 81.300781 39.191406 C 81.210938 37.550781 81.328125 35.660156 81.554688 34.449219 C 82.207031 30.90625 83.367188 28.085938 85.417969 25.152344 C 86.144531 24.113281 87.359375 22.769531 88.574219 21.734375 C 89.125 21.257812 89.40625 21.050781 90.207031 20.558594 C 90.554688 20.339844 90.917969 20.132812 91.285156 19.941406 C 91.679688 19.734375 92.066406 19.554688 92.089844 19.542969 C 95.253906 18.269531 98.109375 18.28125 101.425781 19.539062 C 108.21875 22.113281 112.882812 29.667969 115.140625 36.511719 C 116.34375 40.164062 117.011719 43.929688 117.167969 47.707031 C 116.738281 48.902344 116.382812 50.121094 116.074219 51.359375 C 115.3125 51.769531 114.703125 52.429688 114.574219 53.3125 C 114.304688 55.109375 114.074219 56.914062 113.835938 58.714844 C 113.542969 56.757812 113.25 54.800781 112.925781 52.847656 C 111.933594 46.84375 110.789062 40.867188 109.507812 34.921875 C 109.160156 33.308594 107.382812 32.285156 105.828125 32.515625 C 104.042969 32.785156 103.140625 34.105469 102.917969 35.8125 C 102.699219 37.496094 102.519531 39.183594 102.355469 40.875 C 101.097656 37.777344 99.730469 34.726562 98.230469 31.734375 C 97.574219 30.417969 95.804688 29.816406 94.445312 30.191406 C 94.25 30.242188 94.066406 30.3125 93.898438 30.394531 C 93.21875 29.40625 92.515625 28.425781 91.789062 27.46875 C 90.878906 26.257812 89.558594 25.496094 88.003906 25.925781 C 86.5625 26.320312 85.570312 27.683594 85.539062 29.160156 C 85.359375 37.5625 85.730469 45.980469 86.625 54.34375 C 86.230469 53.996094 85.828125 53.65625 85.414062 53.328125 C 84.175781 50.804688 83.128906 48.195312 82.382812 45.476562 Z M 88.144531 70.417969 C 88.519531 70.960938 88.902344 71.503906 89.28125 72.042969 C 89.300781 72.070312 89.324219 72.089844 89.339844 72.113281 C 89.40625 72.453125 89.46875 72.792969 89.539062 73.132812 C 89.074219 72.230469 88.609375 71.324219 88.144531 70.417969 Z M 61.242188 104.132812 C 61.21875 104.136719 60.828125 104.308594 60.703125 104.34375 C 60.5 104.40625 60.285156 104.445312 60.082031 104.511719 C 60.070312 104.515625 59.964844 104.535156 59.878906 104.554688 C 59.71875 104.5625 59.21875 104.609375 59.046875 104.613281 C 58.902344 104.613281 58.214844 104.5625 58.148438 104.578125 C 57.882812 104.527344 57.621094 104.476562 57.363281 104.40625 C 57.230469 104.375 56.640625 104.175781 56.539062 104.148438 C 56.445312 104.09375 55.949219 103.839844 55.789062 103.742188 C 55.652344 103.660156 55.519531 103.570312 55.386719 103.480469 C 55.355469 103.457031 55.335938 103.445312 55.320312 103.4375 C 55.296875 103.410156 55.257812 103.371094 55.195312 103.308594 C 55 103.117188 54.808594 102.925781 54.632812 102.71875 C 54.609375 102.652344 54.308594 102.191406 54.253906 102.085938 C 54.226562 102.035156 54.21875 102.023438 54.203125 102 C 54.140625 101.828125 54.085938 101.652344 54.035156 101.480469 C 53.992188 101.316406 53.960938 101.15625 53.925781 100.992188 C 53.914062 100.9375 53.90625 100.914062 53.898438 100.902344 C 53.902344 100.863281 53.90625 100.808594 53.90625 100.71875 C 53.953125 99.371094 54.160156 98.226562 55.042969 97.089844 C 55.019531 97.121094 55.574219 96.53125 55.796875 96.328125 C 55.828125 96.296875 55.832031 96.296875 55.851562 96.277344 C 56.046875 96.140625 56.253906 96.015625 56.460938 95.894531 C 56.886719 95.648438 57.433594 95.539062 57.832031 95.535156 C 58.269531 95.53125 58.832031 95.652344 59.445312 96.007812 C 59.597656 96.09375 59.746094 96.191406 59.890625 96.289062 C 59.914062 96.304688 59.925781 96.316406 59.945312 96.328125 C 60.023438 96.394531 60.097656 96.464844 60.175781 96.53125 C 60.300781 96.652344 60.425781 96.78125 60.546875 96.90625 C 60.59375 96.953125 60.894531 97.324219 60.871094 97.277344 C 61.414062 98.023438 61.480469 98.257812 61.679688 99.070312 C 61.695312 99.125 61.707031 99.160156 61.710938 99.183594 C 61.710938 99.1875 61.710938 99.1875 61.710938 99.191406 C 61.730469 99.417969 61.730469 99.644531 61.722656 99.871094 C 61.722656 99.894531 61.722656 99.902344 61.722656 99.921875 C 61.667969 100.113281 61.550781 100.535156 61.605469 100.453125 C 61.511719 100.6875 61.40625 100.914062 61.316406 101.152344 C 60.941406 102.179688 61.183594 103.117188 61.742188 103.851562 C 61.578125 103.953125 61.414062 104.046875 61.242188 104.132812 Z M 69.082031 89.84375 C 68.351562 90.488281 67.660156 91.179688 67 91.898438 C 66.132812 90.910156 65.113281 90.066406 63.941406 89.453125 C 65.613281 89.820312 67.335938 89.96875 69.082031 89.84375 Z M 70.269531 82.105469 C 68.773438 81.460938 67.246094 80.867188 65.695312 80.355469 C 66.445312 80.304688 67.160156 80.023438 67.667969 79.460938 C 68.480469 80.398438 69.359375 81.269531 70.269531 82.105469 Z M 96.234375 100.785156 C 95.730469 100.773438 95.226562 100.789062 94.726562 100.84375 C 92.445312 96.433594 90.464844 91.875 88.804688 87.203125 C 88.855469 87.027344 88.902344 86.84375 88.921875 86.652344 C 88.925781 86.632812 88.921875 86.605469 88.925781 86.582031 C 91.363281 91.316406 93.796875 96.050781 96.234375 100.785156 Z M 90.601562 118.683594 C 92.941406 118.636719 95.054688 115.792969 93.5 113.636719 C 89.410156 107.96875 83.808594 103.808594 77.136719 101.664062 C 74.800781 100.914062 72.160156 103.402344 73.011719 105.792969 C 73.636719 107.554688 74.28125 109.320312 75 111.046875 C 71.898438 110.589844 68.824219 109.964844 65.832031 109.105469 C 68.910156 106.8125 70.570312 103.019531 70.105469 99.023438 C 70.089844 98.902344 70.066406 98.78125 70.050781 98.660156 C 71.828125 96.113281 74.207031 93.953125 76.898438 92.375 C 77.8125 93.546875 78.804688 94.664062 79.875 95.71875 C 80.84375 96.667969 82.34375 96.828125 83.566406 96.371094 C 85.457031 99.375 87.34375 102.378906 89.230469 105.382812 C 89.289062 105.808594 89.417969 106.214844 89.628906 106.574219 C 90.355469 107.828125 91.210938 108.976562 92.152344 110.03125 C 92.175781 110.070312 92.199219 110.101562 92.21875 110.140625 C 92.527344 110.625 92.898438 110.980469 93.300781 111.234375 C 95.34375 113.191406 97.765625 114.71875 100.441406 115.777344 C 100.320312 116.011719 100.199219 116.246094 100.046875 116.488281 C 99.371094 117.554688 98.375 118.460938 97.09375 119.046875 C 95.554688 119.753906 93.808594 119.933594 92.109375 119.679688 C 91.054688 119.527344 90.050781 119.175781 89.105469 118.695312 C 89.601562 118.691406 90.101562 118.695312 90.601562 118.683594 Z M 127.386719 112.292969 C 127.636719 112.429688 127.902344 112.542969 128.175781 112.625 C 128.175781 113.367188 128.164062 114.113281 128.171875 114.859375 C 128.183594 116.71875 129.691406 117.96875 131.285156 118.148438 C 129.355469 120.039062 127.289062 121.777344 125.082031 123.3125 C 125.828125 119.632812 126.589844 115.960938 127.386719 112.292969 Z M 156.769531 47.042969 C 154.261719 40.382812 149.117188 34.59375 142.214844 32.375 C 134.882812 30.019531 127.625 33.113281 122.660156 38.488281 C 122.558594 38.050781 122.453125 37.613281 122.339844 37.179688 C 119.964844 28.25 114.746094 19.058594 106.402344 14.5 C 98.445312 10.15625 89.160156 11.636719 82.761719 17.972656 C 76.714844 23.960938 73.769531 32.90625 74.78125 41.3125 C 75.085938 43.855469 75.652344 46.308594 76.402344 48.695312 C 72.554688 47.628906 68.4375 47.535156 64.351562 48.742188 C 57.867188 50.65625 52.054688 55.425781 49.328125 61.664062 C 46.785156 67.488281 47.117188 73.964844 50.273438 79.363281 C 44.910156 80.933594 40.730469 85.144531 39.128906 90.5625 C 37.496094 96.085938 38.484375 102.132812 40.933594 107.253906 C 43.578125 112.792969 48.53125 116.875 53.988281 119.507812 C 60.902344 122.835938 68.453125 124.167969 75.980469 125.308594 C 83.671875 133.804688 95.617188 138.019531 107.039062 137.019531 C 121.46875 135.761719 133.847656 126.945312 142.335938 115.585938 C 151.894531 102.792969 155.933594 86.792969 157.988281 71.210938 C 159.039062 63.234375 159.667969 54.726562 156.769531 47.042969 " fill-opacity="1" fill-rule="nonzero"/><g clip-path="url(#c05a9814aa)"><path fill="#ef8256" d="M 325.652344 219.308594 C 322.519531 223.773438 318.242188 227.257812 313.445312 229.777344 C 313.8125 229.378906 314.171875 228.972656 314.519531 228.550781 C 314.835938 228.164062 315.136719 227.769531 315.441406 227.378906 C 316.753906 227.570312 318.203125 227.058594 318.84375 225.804688 C 320.585938 222.386719 322.328125 218.96875 324.074219 215.546875 C 324.691406 214.339844 324.589844 213.203125 324.085938 212.324219 C 324.640625 209.332031 320.082031 207.382812 318.171875 209.726562 C 318.355469 207.171875 318.238281 204.574219 317.8125 201.980469 C 317.40625 199.511719 313.785156 198.734375 312.203125 200.5 C 311.96875 200.765625 311.734375 201.027344 311.5 201.292969 C 311.277344 200.394531 310.976562 199.511719 310.609375 198.640625 C 312.617188 197.183594 314.40625 195.464844 315.9375 193.515625 C 316.46875 193.914062 317.101562 194.148438 317.789062 194.058594 C 322.929688 193.402344 327.742188 196.960938 329.457031 201.878906 C 331.558594 207.886719 329.136719 214.339844 325.652344 219.308594 Z M 257.746094 217.804688 C 258.308594 217.945312 258.90625 217.949219 259.472656 217.816406 C 260.632812 219.53125 261.976562 221.113281 263.460938 222.554688 C 263.484375 222.941406 263.570312 223.292969 263.714844 223.601562 C 261.582031 221.808594 259.585938 219.875 257.746094 217.804688 Z M 234.183594 184 C 234.238281 184.019531 234.289062 184.046875 234.347656 184.0625 C 234.824219 184.191406 235.335938 184.199219 235.832031 184.105469 C 236.164062 186.742188 236.613281 189.363281 237.210938 191.960938 C 237.269531 192.207031 237.335938 192.449219 237.394531 192.695312 C 236.023438 189.910156 234.96875 187 234.183594 184 Z M 233.492188 152.746094 C 234.066406 149.132812 235.066406 144.984375 236.429688 141.960938 C 237.183594 140.28125 238.082031 138.636719 239.195312 137.164062 C 239.816406 136.351562 241.402344 134.808594 242.296875 134.222656 C 242.96875 133.78125 243.667969 133.433594 244.386719 133.152344 C 244.375 133.195312 244.355469 133.234375 244.34375 133.277344 C 244.28125 133.550781 244.230469 133.828125 244.171875 134.101562 C 243.351562 134.300781 242.605469 134.765625 242.148438 135.542969 C 241.574219 136.523438 241.023438 137.523438 240.496094 138.53125 C 240.457031 138.535156 240.425781 138.535156 240.386719 138.539062 C 239.1875 138.71875 237.816406 139.636719 237.597656 140.941406 C 237.28125 142.835938 237.023438 144.742188 236.800781 146.648438 C 234.707031 152.066406 233.21875 157.714844 232.390625 163.464844 C 232.5625 159.875 232.929688 156.289062 233.492188 152.746094 Z M 262.539062 141.820312 C 261.921875 143.707031 261.335938 145.605469 260.777344 147.511719 C 259.441406 144.855469 257.921875 142.289062 256.179688 139.875 C 254.75 137.894531 252.042969 137.796875 250.664062 139.550781 C 250.796875 137.761719 250.894531 135.96875 250.933594 134.167969 C 250.949219 133.582031 250.800781 133.074219 250.5625 132.632812 C 251.203125 132.753906 251.847656 132.902344 252.503906 133.125 C 257.039062 134.660156 260.1875 137.898438 262.539062 141.820312 Z M 285.507812 131.839844 C 289.386719 130.359375 293.171875 131.191406 296.0625 133.800781 C 299.113281 136.5625 300.9375 140.304688 301.480469 144.460938 C 301.710938 146.226562 301.738281 147.992188 301.636719 149.757812 C 301.488281 147.957031 301.292969 146.160156 301.035156 144.359375 C 300.636719 141.566406 296.058594 141.050781 294.90625 143.558594 C 294.464844 144.511719 294.035156 145.472656 293.621094 146.4375 C 293.382812 144.402344 293.097656 142.371094 292.75 140.351562 C 292.507812 138.917969 290.882812 137.886719 289.515625 137.886719 C 289.472656 137.886719 289.433594 137.894531 289.394531 137.894531 C 287.925781 135.84375 284.511719 135.894531 283.472656 138.851562 C 280.433594 147.484375 277.914062 156.277344 275.890625 165.1875 C 275.136719 162.90625 274.085938 160.746094 272.546875 159.105469 C 273.890625 158.78125 275.023438 157.710938 274.972656 155.960938 C 274.71875 147.144531 276.105469 135.417969 285.507812 131.839844 Z M 323.554688 158.875 C 327.011719 160.886719 329.40625 164.34375 330.402344 168.21875 C 331.410156 172.140625 330.667969 176.160156 328.382812 179.75 C 326.386719 182.886719 323.378906 185.230469 319.921875 186.570312 C 322.148438 180.910156 322.714844 174.546875 320.890625 168.714844 C 320.9375 168.546875 320.988281 168.378906 321.03125 168.210938 C 321.867188 165.042969 317.8125 162.511719 315.449219 164.925781 C 315.183594 165.082031 314.929688 165.289062 314.691406 165.546875 C 314.597656 165.652344 314.507812 165.761719 314.414062 165.863281 C 314.199219 164.421875 313.933594 162.984375 313.574219 161.566406 C 313.300781 160.464844 312.964844 159.378906 312.597656 158.300781 C 316.121094 156.914062 320.230469 156.941406 323.554688 158.875 Z M 257.308594 161.132812 C 256.410156 163.886719 255.460938 166.625 254.445312 169.335938 C 254.066406 166.222656 253.480469 163.140625 252.679688 160.109375 C 253.066406 156.683594 253.65625 153.273438 254.441406 149.90625 C 255.847656 152.628906 257.015625 155.457031 257.925781 158.363281 C 257.710938 159.285156 257.507812 160.207031 257.308594 161.132812 Z M 298.421875 198.152344 C 297.785156 198.933594 297.140625 199.703125 296.472656 200.460938 C 295.550781 201.503906 295.222656 202.953125 295.808594 204.230469 C 294.023438 206.34375 292.238281 208.453125 290.449219 210.5625 C 291.160156 205.210938 291.875 199.859375 292.585938 194.511719 C 293.414062 194.304688 294.160156 193.820312 294.511719 193.011719 C 294.628906 192.746094 294.730469 192.476562 294.84375 192.210938 C 294.847656 192.210938 294.847656 192.210938 294.847656 192.210938 C 294.851562 192.203125 294.851562 192.191406 294.855469 192.179688 C 297.910156 184.953125 299.988281 177.433594 301.070312 169.773438 C 301.3125 169.152344 301.542969 168.527344 301.796875 167.910156 C 303.238281 168.058594 304.769531 167.375 305.355469 165.582031 C 305.707031 164.515625 306.234375 163.542969 306.875 162.652344 C 307.871094 166.320312 308.3125 170.136719 308.191406 173.941406 C 303.378906 181.265625 300.007812 189.503906 298.421875 198.152344 Z M 269.558594 181.363281 C 268.730469 184.105469 267.800781 186.8125 266.816406 189.496094 C 266.390625 189.097656 265.957031 188.710938 265.515625 188.332031 C 266.792969 183.035156 267.316406 177.566406 267.097656 172.117188 C 267.582031 169.710938 268.101562 167.308594 268.652344 164.914062 C 268.78125 165.136719 268.898438 165.359375 268.996094 165.574219 C 270.019531 167.800781 270.40625 170.417969 270.863281 172.804688 C 270.996094 173.488281 271.09375 174.179688 271.207031 174.867188 C 270.625 177.023438 270.074219 179.191406 269.558594 181.363281 Z M 276.855469 216.882812 C 279.5 213.921875 281.921875 210.78125 284.148438 207.503906 C 283.648438 211.25 283.148438 214.996094 282.648438 218.742188 C 280.648438 218.296875 278.695312 217.664062 276.855469 216.882812 Z M 251.355469 192.828125 C 251.597656 192.445312 251.804688 192.035156 252.027344 191.640625 C 252.445312 191.496094 252.832031 191.277344 253.148438 190.976562 C 253 193.335938 252.894531 195.691406 252.832031 198.054688 C 252.796875 199.242188 253.335938 200.132812 254.121094 200.679688 C 254.1875 203.101562 254.523438 205.515625 255.121094 207.890625 C 253.445312 206.222656 252.203125 204.054688 251.1875 201.914062 C 250.25 199.933594 249.464844 197.871094 248.75 195.789062 C 249.773438 194.96875 250.667969 193.929688 251.355469 192.828125 Z M 246.355469 187.980469 C 245.796875 185.90625 245.296875 183.8125 244.863281 181.707031 C 244.988281 178.1875 245.179688 174.667969 245.445312 171.15625 C 245.519531 176.382812 246.03125 181.605469 246.960938 186.761719 C 246.765625 187.171875 246.5625 187.578125 246.355469 187.980469 Z M 263.097656 198.652344 C 263.203125 197.574219 263.324219 196.496094 263.445312 195.417969 C 263.6875 195.675781 263.925781 195.941406 264.15625 196.210938 C 263.808594 197.027344 263.460938 197.84375 263.097656 198.652344 Z M 282.894531 190.089844 C 282.867188 190.441406 282.839844 190.789062 282.8125 191.140625 C 282.71875 192.566406 283.4375 193.53125 284.433594 194.015625 C 282.492188 197.914062 280.226562 201.640625 277.691406 205.175781 C 278.605469 199.792969 279.054688 194.351562 279.046875 188.90625 C 279.9375 190.09375 281.546875 190.546875 282.894531 190.089844 Z M 271.613281 212.355469 C 271.679688 212.394531 271.746094 212.4375 271.8125 212.472656 C 271.507812 212.8125 271.203125 213.152344 270.890625 213.484375 C 270.898438 213.414062 270.90625 213.34375 270.914062 213.269531 C 271.15625 212.972656 271.394531 212.671875 271.613281 212.355469 Z M 299.332031 210.417969 C 298.84375 212.804688 298.203125 215.164062 297.390625 217.488281 C 295.644531 218.351562 293.800781 218.902344 291.90625 219.1875 C 294.378906 216.265625 296.855469 213.34375 299.332031 210.417969 Z M 311.261719 211.613281 C 310.804688 214.160156 309.941406 216.636719 308.71875 218.90625 C 307.777344 220.65625 308.535156 222.648438 310.027344 223.507812 C 307.78125 226.3125 305.144531 228.710938 301.875 230.296875 C 298.347656 232.015625 294.527344 232.195312 290.789062 231.417969 C 291.199219 231.363281 291.609375 231.308594 292.019531 231.234375 C 293.804688 230.917969 294.808594 228.738281 294.363281 227.109375 C 294.199219 226.511719 293.890625 226.039062 293.511719 225.664062 C 300.949219 224.3125 307.550781 219.925781 310.589844 212.613281 C 310.648438 212.476562 310.683594 212.335938 310.738281 212.199219 C 310.914062 212.003906 311.089844 211.808594 311.261719 211.613281 Z M 295.273438 160.929688 C 295.175781 163.152344 294.988281 165.375 294.710938 167.582031 C 294.4375 168.277344 294.148438 168.964844 293.890625 169.664062 C 294.058594 167.875 294.167969 166.082031 294.25 164.285156 C 294.574219 163.164062 294.914062 162.042969 295.273438 160.929688 Z M 266.753906 225.351562 C 268.324219 226.511719 270.003906 227.53125 271.761719 228.398438 C 272.390625 228.976562 273.027344 229.542969 273.683594 230.085938 C 270.898438 228.742188 268.230469 227.109375 265.71875 225.207031 C 266.054688 225.300781 266.402344 225.351562 266.753906 225.351562 Z M 327.894531 189.824219 C 334.664062 184.835938 338.714844 176.402344 337.160156 167.761719 C 336.164062 162.191406 332.804688 157.175781 328.226562 153.914062 C 323.59375 150.605469 317.523438 149.78125 312.09375 151.367188 C 311.347656 151.582031 310.617188 151.84375 309.90625 152.140625 C 309.578125 151.527344 309.253906 150.90625 308.898438 150.308594 C 308.738281 150.042969 308.550781 149.816406 308.339844 149.613281 C 308.410156 148.015625 308.394531 146.410156 308.226562 144.8125 C 307.644531 139.136719 305.476562 133.660156 301.371094 129.59375 C 297.210938 125.46875 291.476562 123.5625 285.703125 124.792969 C 280.078125 125.992188 275.164062 130.160156 272.335938 135.074219 C 271.21875 137.023438 270.382812 139.085938 269.765625 141.214844 C 267.15625 135.976562 263.597656 131.34375 258.230469 128.382812 C 253.761719 125.921875 248.386719 124.871094 243.421875 126.359375 C 239.03125 127.675781 235.558594 130.644531 232.980469 134.367188 C 227.554688 142.207031 226.386719 152.667969 225.769531 161.914062 C 225.015625 173.230469 226.242188 184.84375 231.144531 195.183594 C 234.394531 202.035156 239.300781 208.078125 245.460938 212.386719 C 248.90625 218.109375 253.179688 223.328125 258.214844 227.710938 C 268.539062 236.699219 281.71875 241.953125 295.5 241.304688 C 309.042969 240.667969 322.324219 234.75 330.621094 223.816406 C 335.625 217.21875 338.859375 207.84375 335.792969 199.722656 C 334.300781 195.777344 331.472656 192.144531 327.894531 189.824219 " fill-opacity="1" fill-rule="nonzero"/></g></svg>