<svg xmlns="http://www.w3.org/2000/svg" xmlns:xlink="http://www.w3.org/1999/xlink" width="500" zoomAndPan="magnify" viewBox="0 0 375 374.999991" height="500" preserveAspectRatio="xMidYMid meet" version="1.0"><defs><clipPath id="e615bc1144"><path d="M 33.261719 33.300781 L 354.160156 33.300781 L 354.160156 330.175781 L 33.261719 330.175781 Z M 33.261719 33.300781 " clip-rule="nonzero"/></clipPath></defs><g clip-path="url(#e615bc1144)"><path fill="#ff9f1c" d="M 332.078125 164.414062 C 318.335938 193.757812 294.515625 216.683594 270.867188 238.152344 C 252.472656 254.847656 233.511719 270.917969 214.03125 286.335938 C 233.335938 266.375 252.640625 246.414062 271.945312 226.457031 C 273.617188 227.007812 275.472656 226.945312 276.921875 225.886719 C 294.285156 213.226562 309.199219 197.613281 320.90625 179.570312 C 329.128906 166.898438 336.054688 152.867188 340.367188 138.203125 C 340.058594 140.046875 339.691406 141.914062 339.234375 143.890625 C 337.605469 150.960938 335.152344 157.847656 332.078125 164.414062 Z M 52.503906 177.621094 C 53.5 177.066406 54.402344 176.269531 55.148438 175.296875 C 55.425781 174.9375 55.714844 174.582031 55.992188 174.222656 C 56.929688 178.957031 58.003906 183.660156 59.25 188.324219 C 60.773438 194.039062 62.539062 199.6875 64.511719 205.261719 C 64.191406 205.917969 63.871094 206.574219 63.554688 207.226562 C 62.617188 205.167969 61.703125 203.097656 60.828125 201.007812 C 57.660156 193.457031 54.832031 185.621094 52.503906 177.621094 Z M 50.707031 101.007812 C 52.332031 95.835938 54.519531 90.792969 57.152344 85.960938 C 56.996094 86.296875 56.863281 86.648438 56.777344 87.023438 C 54.832031 95.667969 53.484375 104.417969 52.6875 113.214844 C 51.886719 114.992188 51.089844 116.769531 50.289062 118.546875 C 48.996094 121.429688 49.351562 124.78125 51.910156 126.746094 C 51.683594 135.589844 52.019531 144.453125 52.890625 153.261719 C 51.4375 155.878906 49.980469 158.496094 48.527344 161.113281 C 44.703125 141.121094 44.566406 120.558594 50.707031 101.007812 Z M 105.714844 47.191406 C 113.871094 45.378906 122.238281 45.644531 130.230469 47.792969 C 129.335938 48.070312 128.507812 48.550781 127.882812 49.320312 C 127.105469 50.273438 126.328125 51.226562 125.554688 52.179688 C 125.273438 51.851562 124.972656 51.550781 124.640625 51.300781 C 123.089844 50.140625 121.328125 49.800781 119.636719 50.136719 C 117.613281 47.992188 114.28125 47.089844 111.421875 49.179688 C 109.414062 47.4375 106.191406 46.667969 104 48.34375 C 96.613281 53.996094 89.726562 60.230469 83.40625 66.976562 C 83.285156 66.828125 83.175781 66.675781 83.035156 66.535156 C 81.207031 64.707031 77.566406 63.878906 75.351562 65.546875 C 72.398438 67.765625 69.445312 69.984375 66.488281 72.203125 C 76.65625 59.96875 90.210938 50.640625 105.714844 47.191406 Z M 167.273438 81.085938 C 167.507812 81.789062 167.714844 82.476562 167.910156 83.15625 C 165.730469 85.460938 163.554688 87.773438 161.390625 90.097656 C 161.027344 89.550781 160.574219 89.039062 159.984375 88.597656 C 157.515625 86.757812 153.886719 86.773438 151.65625 89.09375 C 151.136719 89.636719 150.625 90.195312 150.109375 90.742188 C 150.730469 89.4375 151.351562 88.132812 151.972656 86.828125 C 153.332031 83.984375 153 80.636719 150.34375 78.652344 C 147.816406 76.761719 144.324219 76.890625 142.015625 79.148438 C 140.625 80.503906 139.277344 81.90625 137.90625 83.285156 C 139.660156 79.675781 141.414062 76.070312 143.171875 72.460938 C 144.550781 69.625 144.183594 66.257812 141.535156 64.28125 C 139.078125 62.445312 135.429688 62.445312 133.210938 64.777344 C 133.007812 64.988281 132.8125 65.207031 132.609375 65.421875 C 134.355469 62.613281 136.097656 59.8125 137.839844 57.003906 C 139.105469 54.96875 138.902344 52.335938 137.644531 50.386719 C 139.4375 51.167969 141.207031 52.011719 142.929688 52.988281 C 153.957031 59.253906 163.371094 69.375 167.273438 81.085938 Z M 205.15625 85.757812 C 202.800781 90.734375 209.011719 96.597656 214.15625 93.769531 C 205.457031 102.164062 196.875 110.675781 188.40625 119.296875 C 188.839844 117.652344 189.273438 116.007812 189.710938 114.363281 C 191.277344 108.433594 183.632812 104.03125 179.554688 107.585938 C 179.460938 107.433594 179.347656 107.296875 179.246094 107.152344 C 180.136719 106.847656 180.988281 106.382812 181.730469 105.726562 C 189.324219 99.015625 197.078125 92.175781 205.15625 85.757812 Z M 323.652344 85.945312 C 322.875 82.917969 319.726562 80.949219 316.691406 81.40625 C 313.363281 81.902344 311.546875 84.402344 311.195312 87.632812 C 310.859375 90.695312 310.449219 93.75 310.046875 96.804688 C 310.023438 93.152344 309.984375 89.5 309.859375 85.847656 C 309.8125 84.398438 309.292969 83.046875 308.453125 81.964844 C 308.523438 81.855469 308.59375 81.746094 308.664062 81.636719 C 312.539062 75.710938 303.285156 68.3125 298.707031 73.957031 C 298.003906 74.820312 297.296875 75.691406 296.59375 76.558594 C 295.621094 75.726562 294.441406 75.144531 293.242188 75.003906 C 290.757812 74.710938 288.597656 75.757812 287.257812 77.648438 C 287.644531 75.21875 288.070312 72.792969 288.4375 70.363281 C 288.914062 67.238281 287.921875 64.148438 284.769531 62.878906 C 282.140625 61.824219 278.109375 62.539062 276.851562 65.476562 C 276.632812 65.976562 276.425781 66.484375 276.210938 66.992188 C 276.210938 66.992188 276.210938 66.992188 276.210938 66.996094 C 275.839844 67.859375 275.484375 68.726562 275.113281 69.59375 C 275.003906 69.496094 274.910156 69.386719 274.792969 69.300781 C 272.175781 67.34375 268.894531 67.648438 266.46875 69.792969 C 262.371094 73.417969 258.324219 77.089844 254.296875 80.789062 C 252.640625 79.195312 250.195312 78.386719 248.039062 78.875 C 248.042969 78.867188 248.050781 78.859375 248.054688 78.851562 C 249.886719 76.324219 248.734375 72.402344 246.421875 70.671875 C 246.277344 70.5625 246.121094 70.484375 245.96875 70.390625 C 252.046875 67.183594 258.429688 64.578125 265.148438 62.839844 C 281.078125 58.722656 298.644531 60.421875 312.765625 69.542969 C 319.582031 73.949219 325.050781 80.152344 328.429688 87.921875 C 332.054688 96.246094 332.796875 105.464844 332.152344 114.433594 C 331.71875 120.4375 330.617188 126.402344 329.011719 132.265625 C 329.285156 116.699219 327.546875 101.144531 323.652344 85.945312 Z M 159.28125 308.253906 C 157.671875 304.285156 156.0625 300.316406 154.453125 296.347656 C 155.0625 295.652344 155.558594 294.835938 155.871094 293.914062 C 160.484375 280.300781 165.09375 266.6875 169.707031 253.074219 C 171.292969 251.125 172.875 249.171875 174.457031 247.214844 C 174.273438 247.796875 174.089844 248.375 173.902344 248.953125 C 170.589844 259.304688 167.277344 269.660156 163.964844 280.015625 C 163.914062 280.089844 163.863281 280.167969 163.8125 280.246094 C 163.125 281.300781 162.851562 282.386719 162.871094 283.433594 C 161.726562 287.007812 160.585938 290.582031 159.441406 294.160156 C 158.394531 297.417969 160.664062 301.078125 163.867188 301.957031 C 167.296875 302.898438 170.617188 300.800781 171.667969 297.527344 C 172.890625 293.722656 174.160156 289.933594 175.410156 286.132812 C 179.367188 281.804688 183.328125 277.476562 187.285156 273.144531 C 186.320312 276.394531 185.351562 279.640625 184.386719 282.890625 C 184.222656 283.445312 184.175781 284.003906 184.175781 284.5625 C 176.570312 294.828125 168.96875 305.09375 161.363281 315.359375 C 161.269531 315.484375 161.21875 315.628906 161.140625 315.757812 C 160.066406 315.226562 159.023438 314.617188 158 313.984375 C 159.4375 312.484375 160.160156 310.410156 159.28125 308.253906 Z M 69.761719 218.769531 C 70.644531 220.828125 71.554688 222.871094 72.496094 224.90625 C 71.390625 222.921875 70.3125 220.925781 69.261719 218.910156 C 69.429688 218.875 69.59375 218.820312 69.761719 218.769531 Z M 59.34375 83.503906 C 58.558594 84.015625 57.890625 84.683594 57.417969 85.488281 C 57.949219 84.527344 58.476562 83.558594 59.046875 82.613281 C 59.117188 82.914062 59.222656 83.207031 59.34375 83.503906 Z M 114.28125 136.496094 C 109.378906 144.144531 104.820312 152.011719 100.625 160.070312 C 100.566406 160.140625 100.507812 160.210938 100.453125 160.28125 C 106.261719 148.335938 112.074219 136.390625 117.882812 124.445312 C 119.589844 122.339844 121.285156 120.226562 123.03125 118.152344 C 120.113281 124.269531 117.195312 130.382812 114.28125 136.496094 Z M 191.117188 136.296875 C 187.292969 141.628906 183.488281 146.972656 179.671875 152.316406 C 180.371094 149.675781 181.066406 147.039062 181.765625 144.402344 C 185.34375 140.636719 188.949219 136.890625 192.570312 133.164062 C 192.089844 134.210938 191.597656 135.25 191.117188 136.296875 Z M 286.847656 192.808594 C 285.164062 194.550781 283.476562 196.292969 281.792969 198.035156 C 285.691406 185.460938 289.347656 172.816406 292.777344 160.109375 C 291.222656 170.300781 289.320312 180.449219 286.96875 190.507812 C 286.789062 191.277344 286.765625 192.054688 286.847656 192.808594 Z M 101.9375 230.789062 C 103.980469 231.304688 106.171875 230.914062 107.625 229.105469 C 109.710938 226.511719 111.835938 223.949219 113.941406 221.371094 C 111.199219 228.957031 108.453125 236.546875 105.707031 244.136719 C 103.289062 250.820312 114.296875 255.570312 117.296875 249.023438 C 123.039062 236.511719 128.777344 224 134.519531 211.492188 C 134.289062 212.191406 134.0625 212.890625 133.839844 213.589844 C 130.691406 222.300781 127.628906 231.042969 124.726562 239.835938 C 121.546875 249.460938 118.566406 259.144531 115.679688 268.859375 C 108.644531 260.726562 102.261719 252.011719 96.5625 242.863281 C 98.355469 238.835938 100.144531 234.8125 101.9375 230.789062 Z M 212.035156 246.066406 C 211.894531 246.546875 211.761719 247.035156 211.621094 247.515625 C 211.050781 248.285156 210.480469 249.054688 209.910156 249.828125 C 210.203125 249.03125 210.492188 248.230469 210.78125 247.433594 C 211.199219 246.980469 211.617188 246.519531 212.035156 246.066406 Z M 145.460938 284.320312 C 144.945312 286.082031 144.421875 287.839844 143.917969 289.605469 C 143.796875 289.679688 143.671875 289.753906 143.554688 289.839844 C 144.183594 288 144.828125 286.160156 145.460938 284.320312 Z M 144.945312 220.410156 C 146.417969 219.9375 147.742188 218.925781 148.734375 217.574219 C 149.015625 217.1875 149.3125 216.8125 149.59375 216.425781 C 146.601562 227.746094 143.601562 239.066406 140.609375 250.390625 C 137.550781 261.957031 134.488281 273.523438 131.429688 285.085938 C 129.5 283.3125 127.605469 281.496094 125.75 279.640625 C 132.148438 259.902344 138.546875 240.15625 144.945312 220.410156 Z M 235.238281 98.839844 C 235.667969 97.492188 236.101562 96.140625 236.535156 94.789062 C 238.199219 92.484375 239.867188 90.175781 241.535156 87.871094 C 240.109375 90.855469 238.6875 93.84375 237.273438 96.839844 C 236.589844 97.5 235.917969 98.179688 235.238281 98.839844 Z M 196.347656 178.804688 C 195.964844 180 195.582031 181.195312 195.199219 182.394531 C 194.878906 182.898438 194.558594 183.402344 194.242188 183.910156 C 194.945312 182.207031 195.632812 180.5 196.347656 178.804688 Z M 249.625 186.160156 C 248.09375 187.832031 246.566406 189.507812 245.035156 191.179688 C 247.148438 184.042969 249.183594 176.878906 251.148438 169.699219 C 252.972656 166.910156 254.792969 164.121094 256.613281 161.332031 C 254.414062 169.644531 252.066406 177.914062 249.625 186.160156 Z M 275.519531 157.828125 C 274.289062 159.171875 273.058594 160.515625 271.832031 161.863281 C 273.914062 155.695312 276 149.53125 278.085938 143.363281 C 277.273438 148.195312 276.417969 153.015625 275.519531 157.828125 Z M 268.324219 192.160156 C 267.769531 194.527344 267.195312 196.886719 266.621094 199.246094 C 263.023438 202.320312 259.511719 205.496094 256.054688 208.722656 C 260.144531 203.203125 264.234375 197.679688 268.324219 192.160156 Z M 216.433594 175.183594 C 216.394531 175.3125 216.355469 175.4375 216.320312 175.5625 C 216.292969 175.597656 216.265625 175.628906 216.238281 175.660156 C 216.304688 175.503906 216.367188 175.34375 216.433594 175.183594 Z M 193.25 235.179688 C 193.128906 235.367188 193.003906 235.554688 192.882812 235.742188 C 195.433594 228.773438 198.023438 221.820312 200.671875 214.890625 C 202.75 212.324219 204.828125 209.761719 206.90625 207.199219 C 205.621094 211.527344 204.332031 215.855469 203.042969 220.183594 C 199.777344 225.179688 196.511719 230.179688 193.25 235.179688 Z M 79.144531 208.265625 C 79.945312 207.191406 80.738281 206.113281 81.542969 205.042969 C 81.4375 205.359375 81.320312 205.671875 81.214844 205.992188 C 78.984375 212.722656 89.6875 217.40625 92.804688 210.875 C 94.15625 208.042969 95.507812 205.207031 96.859375 202.375 C 96.3125 203.75 95.75 205.121094 95.214844 206.503906 C 92.542969 213.398438 90.09375 220.378906 87.816406 227.417969 C 84.625 221.1875 81.71875 214.792969 79.144531 208.265625 Z M 171.640625 104.375 C 171 104.574219 170.390625 104.894531 169.855469 105.355469 C 170.183594 104.808594 170.5 104.253906 170.828125 103.710938 C 171.078125 103.953125 171.355469 104.167969 171.640625 104.375 Z M 70.652344 165.125 C 75.980469 156.558594 81.304688 147.992188 86.625 139.421875 C 90.148438 134.214844 93.816406 129.109375 97.589844 124.082031 C 90.039062 137.1875 82.484375 150.289062 74.933594 163.390625 C 72.839844 166.816406 70.78125 170.257812 68.785156 173.738281 C 68.367188 171.742188 67.976562 169.746094 67.621094 167.742188 C 68.765625 167.292969 69.828125 166.457031 70.652344 165.125 Z M 316.398438 133.878906 C 316.207031 140.785156 315.617188 147.679688 314.511719 154.507812 C 314.078125 157.164062 314.886719 159.84375 316.972656 161.351562 C 316.441406 162.324219 315.902344 163.289062 315.359375 164.25 C 314.519531 164.546875 313.695312 165.050781 312.929688 165.839844 C 310.714844 168.132812 308.496094 170.425781 306.28125 172.714844 C 310.238281 159.921875 313.605469 146.964844 316.398438 133.878906 Z M 351.746094 101.289062 C 348.65625 87.398438 342.257812 74.089844 332.527344 63.625 C 321.367188 51.613281 306.144531 44.609375 290.015625 42.484375 C 253.226562 37.640625 220.121094 57.089844 192.761719 79.527344 C 189.078125 82.550781 185.453125 85.648438 181.855469 88.777344 C 179.285156 62.222656 155.5 39.8125 129.789062 34.574219 C 98.355469 28.171875 68.078125 46.664062 50.824219 72.019531 C 30.199219 102.324219 29.90625 141.359375 38.863281 175.734375 C 47.421875 208.570312 63.820312 239.292969 84.8125 265.824219 C 94.894531 278.566406 106.207031 290.328125 118.558594 300.882812 C 124.980469 306.375 131.679688 311.566406 138.601562 316.410156 C 145.464844 321.207031 152.917969 326.90625 161.042969 329.28125 C 170.605469 332.070312 179.667969 327.921875 187.355469 322.453125 C 195.3125 316.792969 203.066406 310.824219 210.800781 304.859375 C 226.472656 292.765625 241.847656 280.292969 256.863281 267.394531 C 283.890625 244.191406 311.933594 220.148438 331.914062 190.339844 C 341.0625 176.691406 348.578125 161.320312 351.925781 145.152344 C 354.914062 130.710938 354.949219 115.703125 351.746094 101.289062 " fill-opacity="1" fill-rule="nonzero"/></g></svg>