<svg xmlns="http://www.w3.org/2000/svg" xmlns:xlink="http://www.w3.org/1999/xlink" width="500" zoomAndPan="magnify" viewBox="0 0 375 374.999991" height="500" preserveAspectRatio="xMidYMid meet" version="1.0"><path fill="#5d9dd1" d="M 87.179688 264.8125 L 87.074219 265.335938 C 85.585938 272.9375 85.175781 280.398438 86.839844 286.722656 C 87.429688 288.980469 89.34375 288.773438 89.671875 288.726562 C 90.253906 288.652344 91.386719 288.363281 91.804688 286.867188 C 91.878906 286.585938 91.871094 284.667969 91.863281 283.921875 C 91.84375 282.875 91.789062 278.296875 91.789062 277.574219 C 91.789062 273.542969 91.925781 269.511719 92.214844 265.496094 C 93.324219 260.097656 94.960938 254.648438 96.671875 249.5625 C 96.980469 261.011719 99.625 271.867188 105.847656 280.484375 C 106.59375 281.515625 107.199219 281.8125 107.320312 281.871094 C 108.40625 282.351562 109.210938 282.03125 109.757812 281.667969 C 110.046875 281.476562 111.480469 280.363281 110.65625 278.441406 C 110.433594 277.917969 109.160156 275.753906 108.050781 273.871094 C 108.96875 273.46875 109.59375 272.542969 109.570312 271.480469 C 109.410156 265.148438 107.4375 258.824219 107.738281 252.242188 C 108.695312 230.664062 114.996094 206.707031 126.171875 185.730469 C 126.832031 184.742188 127.492188 183.757812 128.167969 182.777344 C 136.992188 171.15625 147.992188 159.660156 160.269531 150.1875 C 172.597656 142.226562 186.726562 137.664062 202.828125 138.546875 C 220.796875 139.539062 237.941406 146.105469 253.714844 154.425781 C 255.347656 155.289062 257.066406 156.148438 258.824219 157.039062 C 260.859375 158.296875 262.910156 159.429688 264.984375 160.351562 C 267.40625 161.765625 269.699219 163.308594 271.671875 165.0625 C 271.59375 164.988281 271.414062 164.789062 271.414062 164.789062 C 271.414062 164.789062 273.183594 166.015625 274.160156 165.773438 C 274.777344 165.617188 275.292969 165.273438 275.671875 164.683594 C 275.871094 164.378906 276.152344 163.847656 276.058594 163.023438 C 276.050781 162.949219 275.992188 162.523438 275.679688 161.898438 C 274.867188 160.289062 270.472656 152.304688 270.296875 152.03125 C 265.429688 144.632812 259.097656 138.054688 251.703125 133.089844 C 195.585938 84.21875 135.769531 127.710938 108.058594 185.796875 C 97.863281 207.160156 91.347656 230.621094 88.273438 254.070312 C 87.804688 257.640625 87.4375 261.222656 87.179688 264.8125 Z M 107.164062 221.644531 C 106.917969 222.230469 106.667969 222.816406 106.425781 223.40625 C 103.230469 233.648438 101.628906 244.375 102.476562 255.042969 C 102.628906 257.078125 102.910156 259.121094 103.304688 261.140625 C 102.878906 258.132812 102.53125 255.105469 102.667969 252.019531 C 103.109375 242.203125 104.625 231.925781 107.164062 221.644531 Z M 98.742188 226.535156 C 98.160156 228.78125 97.613281 231.039062 97.109375 233.300781 L 97.269531 232.867188 C 97.398438 232.511719 97.527344 232.160156 97.664062 231.804688 L 97.976562 230.960938 C 98.203125 229.480469 98.460938 228 98.742188 226.535156 Z M 164.101562 136.523438 C 146.824219 146.882812 132.90625 163.082031 122.703125 181.636719 C 119.574219 185.867188 116.734375 190.109375 114.222656 194.261719 C 126.917969 165.113281 143.414062 145.539062 163.867188 136.625 Z M 248.605469 137.121094 C 246.632812 135.8125 244.574219 134.628906 242.433594 133.589844 C 231.707031 128.363281 220.617188 126.839844 209.628906 128.050781 C 220.738281 129.84375 231.617188 133.921875 241.371094 139.269531 C 241.925781 139.574219 242.480469 139.890625 243.027344 140.222656 L 244.042969 140.730469 C 248.933594 143.226562 254.527344 145.835938 259.730469 148.9375 C 255.644531 144.078125 250.945312 139.203125 249.375 137.800781 C 249.117188 137.570312 248.859375 137.34375 248.605469 137.121094 Z M 228.632812 123.695312 C 217.183594 121.523438 205.578125 122.640625 194.265625 126.136719 C 182.59375 125.65625 171.777344 127.644531 161.839844 131.976562 C 156.53125 134.289062 151.460938 137.28125 146.640625 140.933594 C 169.96875 119.558594 199.152344 109.566406 228.632812 123.695312 Z M 207.40625 132.8125 C 202.160156 132.0625 196.875 131.871094 191.652344 132.363281 C 189.9375 132.988281 188.230469 133.667969 186.542969 134.398438 C 191.828125 133.5 197.347656 133.171875 203.101562 133.488281 C 208.164062 133.765625 213.160156 134.460938 218.074219 135.503906 C 214.445312 134.394531 210.890625 133.496094 207.40625 132.8125 Z M 207.40625 132.8125 " fill-opacity="1" fill-rule="evenodd"/><path fill="#9cb66f" d="M 164.703125 103.3125 C 117.585938 112.800781 83.390625 150.847656 70.660156 201.300781 C 66.226562 218.914062 64.679688 242.023438 70.910156 261.09375 C 70.5625 266.902344 70.433594 272.730469 70.660156 278.539062 C 70.773438 281.46875 70.925781 282.90625 71.175781 285.699219 C 71.238281 286.398438 71.390625 288.21875 71.464844 288.46875 C 71.964844 290.238281 73.445312 290.335938 73.910156 290.335938 C 74.136719 290.335938 76.300781 290.277344 76.46875 287.824219 C 76.613281 285.753906 76.757812 283.640625 76.910156 281.476562 C 77.59375 282.238281 78.707031 282.546875 79.71875 282.160156 C 80.667969 281.789062 81.273438 280.910156 81.335938 279.953125 C 81.789062 280.355469 82.199219 280.65625 82.558594 280.863281 C 83.703125 281.523438 84.699219 281.585938 85.527344 281.394531 C 86.777344 281.113281 87.941406 280.132812 88.570312 278.3125 C 89.6875 275.117188 89.191406 268.015625 89.085938 265.710938 C 88.488281 251.871094 88.417969 237.9375 89.824219 224.136719 C 93.324219 189.917969 109 160.140625 138.402344 141.398438 C 167.949219 122.558594 205.296875 117.722656 239.1875 125.214844 C 248.75 127.324219 257.984375 130.507812 266.828125 134.625 L 267.175781 134.875 L 267.480469 135.097656 C 270.753906 138.144531 273.964844 141.273438 277.230469 144.367188 C 278.15625 145.910156 279.527344 149.171875 280.84375 151.972656 C 282.125 154.671875 283.410156 156.988281 284.207031 157.769531 C 285.167969 158.695312 286.148438 158.796875 286.839844 158.683594 C 287.644531 158.554688 289.09375 157.960938 289.316406 155.578125 C 289.34375 155.382812 289.335938 155.191406 289.308594 155.003906 L 289.984375 155.53125 C 291.902344 157.023438 293.339844 155.730469 293.597656 155.476562 C 294.015625 155.054688 294.726562 154.140625 294.160156 152.703125 C 294.089844 152.511719 293.894531 152.125 293.550781 151.65625 C 292.890625 150.761719 291.402344 149.027344 290.71875 148.28125 L 290.445312 147.984375 C 291.28125 147.917969 291.867188 147.503906 292.296875 146.925781 C 292.585938 146.519531 292.988281 145.820312 292.699219 144.679688 C 291.859375 141.453125 289.671875 138.039062 286.921875 134.792969 C 283.128906 130.332031 278.292969 126.152344 275.179688 123.1875 C 246.171875 95.582031 205.863281 89.890625 168.269531 102.082031 C 167.070312 102.472656 165.878906 102.882812 164.703125 103.3125 Z M 90.019531 197.542969 C 89.285156 199.289062 88.578125 201.050781 87.902344 202.832031 C 82.488281 223.703125 79.816406 245.863281 78.117188 265.753906 C 79.582031 268.921875 81.335938 271.917969 83.40625 274.667969 C 83.605469 274.941406 83.800781 275.191406 83.984375 275.40625 C 84.097656 274.796875 84.203125 274.097656 84.226562 273.5 C 84.355469 270.613281 84.089844 267.3125 84.023438 265.9375 C 83.414062 251.847656 83.347656 237.671875 84.789062 223.621094 C 85.707031 214.59375 87.445312 205.863281 90.019531 197.542969 Z M 136.453125 118.867188 C 128.914062 124.597656 122.058594 131.246094 115.871094 138.554688 C 106.828125 147.195312 99.707031 157.980469 94.066406 170.035156 C 91.699219 175.097656 89.601562 180.390625 87.726562 185.835938 C 83.195312 196.820312 79.648438 208.085938 77.066406 219.140625 C 75.730469 224.871094 74.480469 230.914062 73.582031 237.089844 C 73.164062 239.617188 72.792969 242.152344 72.460938 244.703125 C 70.730469 230.253906 72.453125 214.941406 75.574219 202.539062 C 84.964844 165.308594 106.480469 135.03125 136.453125 118.867188 Z M 141.226562 127.933594 C 132.746094 131.425781 125.4375 136.386719 119.128906 142.464844 C 113.933594 148.679688 109.234375 155.386719 105.027344 162.417969 C 115.097656 149.46875 127.464844 137.542969 141.226562 127.933594 Z M 282.132812 137.015625 C 280.523438 136.054688 278.867188 135.101562 277.230469 134.203125 C 274.03125 131.054688 270.714844 128.019531 267.230469 125.253906 C 247.800781 109.851562 224.253906 103.78125 199.929688 101.5625 C 199.175781 101.492188 198.410156 101.429688 197.664062 101.375 C 224.625 99.378906 251.136719 107.308594 271.679688 126.859375 C 274.449219 129.492188 278.632812 133.105469 282.132812 137.015625 Z M 179.421875 119.667969 C 172.46875 120.445312 165.679688 121.535156 159.210938 122.859375 C 153.761719 125.734375 148.476562 129.003906 143.382812 132.601562 C 154.671875 126.519531 166.859375 122.230469 179.421875 119.667969 Z M 191.621094 106.136719 C 182.6875 105.882812 174.117188 106.621094 165.953125 108.253906 C 156 111.949219 146.921875 117.148438 138.707031 123.484375 C 142.441406 121.914062 146.398438 120.605469 150.582031 119.59375 C 152.835938 119.046875 155.136719 118.527344 157.488281 118.042969 C 160.519531 116.460938 163.601562 114.996094 166.722656 113.660156 C 174.820312 110.203125 183.164062 107.632812 191.621094 106.136719 Z M 246.867188 119.367188 C 244.621094 118.113281 242.277344 116.964844 239.824219 115.9375 C 219.566406 107.511719 198.347656 108.160156 178.3125 114.707031 C 201.265625 112.105469 225.96875 112.824219 246.867188 119.367188 Z M 246.867188 119.367188 " fill-opacity="1" fill-rule="evenodd"/><path fill="#f4c226" d="M 104.019531 113.121094 C 99.167969 116.714844 94.894531 121.125 91.121094 125.960938 C 62.605469 150.164062 42.402344 182.828125 40.945312 220.15625 C 40.445312 232.972656 42.410156 245.546875 46.519531 257.578125 L 46.496094 257.714844 C 46.015625 260.546875 45.613281 263.613281 45.328125 266.5 C 45.28125 267.070312 45.105469 268.34375 45.082031 268.972656 C 45.0625 269.566406 45.167969 269.992188 45.242188 270.210938 C 45.636719 271.3125 46.425781 271.699219 47.042969 271.859375 C 47.519531 271.980469 49.085938 272.308594 50.046875 270.386719 C 50.351562 269.785156 50.609375 269.109375 50.824219 268.375 C 52.265625 271.644531 53.8125 274.878906 55.492188 278.015625 C 55.5 278.03125 57.191406 280.886719 58.246094 282.246094 C 58.757812 282.914062 59.265625 283.332031 59.554688 283.511719 C 60.382812 283.992188 61.125 283.9375 61.648438 283.777344 C 62.308594 283.589844 62.894531 283.1875 63.273438 282.410156 C 63.394531 282.160156 63.5 281.851562 63.570312 281.515625 C 64.351562 281.734375 65.171875 281.734375 65.992188 281.5 C 67.335938 281.113281 68.117188 279.714844 67.738281 278.359375 C 67.375 277.097656 66.113281 276.332031 64.84375 276.566406 C 64.753906 276.476562 64.617188 276.332031 64.535156 276.210938 C 64.289062 275.859375 64.0625 275.425781 63.84375 274.941406 C 63.601562 274.394531 63.378906 273.800781 63.175781 273.15625 C 63.789062 273.074219 64.359375 272.792969 64.816406 272.222656 C 65.035156 271.949219 65.308594 271.503906 65.398438 270.855469 C 65.453125 270.460938 65.40625 269.695312 65.363281 269.324219 C 65.035156 266.550781 64.953125 266.839844 64.679688 263.828125 C 64.34375 260.089844 64.207031 256.980469 64.191406 253.167969 C 64.140625 241.324219 65.238281 229.480469 67.023438 217.773438 C 67.609375 213.933594 68.269531 210.082031 69.019531 206.234375 C 78.03125 185.050781 89.304688 164.738281 103.496094 146.6875 C 117.457031 128.929688 136.527344 114.648438 157.761719 105.59375 C 164.601562 105.449219 171.390625 105.398438 177.910156 104.988281 C 196.414062 103.824219 216.039062 100.226562 235.046875 100.851562 C 246.34375 103.890625 256.828125 108.144531 265.871094 114.582031 C 270.175781 119.597656 273.980469 125.097656 277.359375 130.40625 C 278.9375 132.878906 280.804688 137.507812 283.089844 141.3125 C 284.910156 144.34375 287.03125 146.851562 289.316406 147.957031 C 290.128906 148.347656 290.871094 148.304688 291.546875 148.007812 C 292.046875 147.792969 292.648438 147.367188 293.019531 146.476562 C 293.210938 146 293.375 144.886719 293.398438 143.46875 C 293.847656 143.414062 294.289062 143.234375 294.675781 142.925781 C 295.761719 142.046875 295.933594 140.449219 295.054688 139.363281 C 294.273438 138.398438 293.597656 137.304688 292.988281 136.144531 L 292.914062 135.335938 L 292.898438 135.1875 C 293.253906 135.796875 293.605469 136.410156 293.960938 137.023438 C 294.757812 138.402344 295.554688 139.789062 296.34375 141.175781 C 296.730469 141.851562 297.78125 143.570312 297.984375 143.777344 C 299.207031 145.054688 300.503906 144.535156 300.953125 144.3125 C 301.179688 144.199219 303.046875 143.222656 302.152344 140.957031 C 300.414062 136.542969 297.789062 132.257812 294.582031 128.203125 C 293.414062 126.34375 292.191406 124.519531 290.878906 122.738281 C 290.226562 121.851562 289.558594 120.980469 288.875 120.128906 C 287.296875 116.035156 285.34375 112.085938 282.953125 108.382812 C 271.222656 90.191406 250.6875 82.207031 229.945312 80.574219 C 187.453125 65.859375 138.054688 73.828125 107.261719 109.257812 C 106.160156 110.527344 105.074219 111.816406 104.019531 113.121094 Z M 52.925781 254.140625 L 52.667969 255.269531 C 52.460938 256.195312 52.320312 257.273438 52.210938 258.421875 C 52.707031 259.78125 53.246094 261.125 53.800781 262.46875 C 54.839844 264.957031 55.933594 267.441406 57.085938 269.886719 L 57.011719 269.058594 L 57.011719 268.972656 C 56.753906 267.578125 56.554688 266.21875 56.394531 264.988281 L 56.242188 264.617188 C 54.839844 261.125 53.828125 257.273438 52.925781 254.140625 Z M 80.523438 142.867188 C 79.871094 144.140625 79.253906 145.417969 78.648438 146.691406 C 78.230469 147.578125 77.820312 148.46875 77.410156 149.363281 C 67.257812 160.96875 59.203125 173.597656 54.1875 186.890625 C 47.460938 204.714844 46.09375 223.613281 49.773438 242.007812 C 49.386719 243.601562 49.015625 245.195312 48.660156 246.796875 C 46.585938 238.1875 45.660156 229.335938 46.015625 220.355469 C 47.164062 190.785156 60.53125 164.296875 80.523438 142.867188 Z M 70.742188 166.160156 C 65.863281 173.382812 61.855469 180.910156 58.929688 188.675781 C 53.972656 201.824219 52.082031 215.59375 53.125 229.261719 C 55.058594 222.375 57.15625 215.496094 59.460938 208.671875 C 60.796875 201.9375 62.402344 195.300781 64.207031 188.855469 C 66 181.179688 68.164062 173.59375 70.742188 166.160156 Z M 144.589844 106.109375 C 144.265625 106.132812 143.945312 106.152344 143.625 106.175781 L 143.050781 106.21875 C 134.523438 110.457031 126.195312 115.261719 118.269531 120.550781 C 104.679688 132.105469 93.15625 147.402344 82.695312 166.957031 C 81.136719 169.886719 79.632812 172.847656 78.183594 175.84375 C 84.460938 164.539062 91.53125 153.699219 99.515625 143.554688 C 111.589844 128.191406 127.347656 115.355469 145.015625 106.082031 Z M 93.582031 139.90625 C 92.570312 140.847656 91.5625 141.796875 90.574219 142.753906 C 89.558594 144.667969 88.578125 146.597656 87.636719 148.546875 C 89.578125 145.546875 91.554688 142.667969 93.582031 139.90625 Z M 124.851562 109.023438 L 124.257812 109.179688 C 116.828125 113.273438 109.660156 117.871094 102.867188 122.933594 C 101.484375 124.851562 100.140625 126.796875 98.835938 128.773438 C 103.625 124.851562 108.636719 121.117188 113.828125 117.582031 C 117.375 114.476562 121.070312 111.621094 124.925781 109.007812 Z M 250.648438 89.886719 C 260.785156 93.445312 269.917969 99.289062 276.597656 108.125 C 275.035156 106.964844 273.433594 105.886719 271.769531 104.890625 C 270.933594 104.148438 270.078125 103.414062 269.210938 102.691406 C 263.410156 97.839844 257.1875 93.566406 250.648438 89.886719 Z M 211.050781 80.738281 C 207.921875 81.011719 204.734375 81.394531 201.515625 81.886719 C 199.480469 81.933594 197.429688 82.035156 195.371094 82.183594 C 180.765625 83.234375 165.710938 86.507812 150.984375 91.710938 C 140.613281 93.9375 130.5625 97.464844 121.132812 102.59375 C 145.972656 81.304688 179.421875 74.703125 211.050781 80.738281 Z M 170.472656 95.625 C 168.050781 96.144531 165.671875 96.714844 163.335938 97.339844 C 160.601562 98.378906 157.867188 99.480469 155.144531 100.636719 L 156.28125 100.605469 L 156.675781 100.597656 C 161.1875 98.707031 165.800781 97.042969 170.472656 95.625 Z M 203.191406 94.902344 C 192.929688 95.421875 182.703125 97.230469 172.785156 100.175781 C 174.402344 100.109375 176 100.03125 177.59375 99.929688 C 189.558594 99.175781 201.984375 97.460938 214.40625 96.480469 C 210.699219 95.863281 206.949219 95.332031 203.191406 94.902344 Z M 203.191406 94.902344 " fill-opacity="1" fill-rule="evenodd"/><path fill="#fc7a58" d="M 170.464844 49.257812 C 157.976562 49.996094 145.28125 52.425781 132.511719 56.589844 C 68.710938 77.390625 26.035156 137.027344 24.941406 203.714844 C 24.820312 211.261719 25.230469 218.851562 26.132812 226.390625 C 24.714844 233.664062 23.597656 241.089844 23.164062 247.851562 C 22.597656 256.546875 23.21875 264.183594 25.585938 269.171875 C 25.90625 269.847656 26.390625 270.203125 26.855469 270.402344 C 27.449219 270.667969 28.136719 270.742188 28.90625 270.402344 C 29.011719 270.355469 29.9375 269.921875 30.445312 268.511719 C 30.902344 267.242188 32.101562 263.445312 33.292969 259.566406 C 34.015625 261.867188 34.789062 264.152344 35.59375 266.421875 C 36.15625 267.972656 40.90625 280.027344 44.027344 284.847656 C 44.773438 286.003906 45.5 286.816406 46.0625 287.226562 C 46.730469 287.71875 47.382812 287.894531 47.929688 287.921875 C 49.320312 287.984375 50.511719 286.898438 50.566406 285.507812 C 50.609375 284.660156 50.230469 283.898438 49.609375 283.40625 C 50.191406 283.332031 50.746094 283.066406 51.21875 282.519531 C 51.4375 282.261719 51.726562 281.8125 51.855469 281.152344 C 51.953125 280.636719 51.960938 279.617188 51.953125 279.140625 C 51.839844 275.253906 51.75 275.496094 51.6875 271.425781 C 51.613281 266.523438 51.65625 262.15625 51.78125 257.214844 C 52.160156 243.054688 53.207031 228.859375 54.878906 214.796875 C 57.449219 193.230469 61.808594 167.109375 70.804688 143.511719 C 78.039062 128.453125 86.816406 114.4375 97.914062 103.207031 C 121.207031 89.929688 148.21875 81.699219 173.203125 77.371094 C 183.484375 75.589844 193.445312 74.394531 203.046875 73.929688 C 239.488281 75.660156 268.253906 90.207031 295.273438 117.1875 C 297.164062 119.648438 299.046875 122.109375 300.96875 124.550781 C 301.152344 124.808594 301.339844 125.074219 301.523438 125.335938 C 303.191406 127.730469 305.402344 133.246094 307.839844 137.753906 C 309.789062 141.355469 312 144.308594 314.058594 145.386719 C 315.035156 145.898438 315.789062 145.738281 316.304688 145.539062 C 316.941406 145.296875 317.472656 144.84375 317.785156 144.105469 C 317.929688 143.757812 318.066406 143.207031 317.972656 142.507812 L 317.960938 142.457031 C 318.75 142.726562 319.652344 142.605469 320.351562 142.050781 C 321.445312 141.1875 321.640625 139.589844 320.769531 138.492188 C 318.109375 135.105469 315.4375 131.84375 312.757812 128.699219 C 311.664062 125.6875 309.882812 122.53125 307.726562 119.429688 C 306.664062 117.890625 305.507812 116.367188 304.324219 114.871094 C 297.523438 104.523438 289.808594 96.167969 281.273438 89.5625 C 271.839844 80.953125 261.355469 74.058594 250.101562 68.898438 C 252.925781 69.066406 255.714844 69.371094 258.453125 69.851562 C 267.875 75.082031 276.652344 81.394531 284.441406 88.65625 C 294.820312 98.332031 303.632812 109.824219 311.664062 121.480469 C 314.332031 125.371094 316.828125 129.367188 319.257812 133.414062 C 319.964844 134.578125 320.761719 136.988281 321.550781 138.515625 C 322.226562 139.800781 323.054688 140.632812 323.699219 140.953125 C 324.390625 141.296875 325.074219 141.359375 325.742188 141.203125 C 326.410156 141.046875 327.191406 140.652344 327.820312 139.609375 C 328.035156 139.25 328.222656 138.757812 328.230469 138.109375 C 328.246094 137.496094 327.988281 136.328125 327.386719 134.84375 C 325.230469 129.597656 318.613281 118.265625 317.738281 116.816406 C 306.707031 98.449219 292.679688 77.710938 272.316406 68.710938 C 268.484375 67.019531 264.445312 65.851562 260.277344 65.082031 C 235.238281 51.355469 205.835938 44.972656 177.84375 48.230469 C 175.351562 48.519531 172.886719 48.863281 170.464844 49.257812 Z M 28.753906 242.257812 C 28.054688 248.324219 27.765625 254.0625 28.207031 258.863281 C 29.140625 255.855469 30.105469 252.695312 30.726562 250.609375 C 30 247.839844 29.34375 245.058594 28.753906 242.257812 Z M 36.328125 249.425781 L 36.300781 249.515625 C 36.261719 249.699219 36.148438 250.101562 35.980469 250.675781 C 36.480469 252.53125 37.011719 254.375 37.566406 256.21875 C 37.105469 253.949219 36.695312 251.671875 36.328125 249.425781 Z M 53.8125 187.421875 C 51.566406 194.367188 49.488281 201.1875 47.503906 207.738281 L 47.46875 207.84375 C 47.359375 210.402344 47.246094 212.90625 47.140625 215.335938 C 46.683594 225.964844 46.488281 236.585938 47.011719 247.214844 L 47.050781 247.996094 C 47.574219 236.707031 48.515625 225.410156 49.851562 214.191406 C 50.851562 205.816406 52.113281 196.753906 53.8125 187.421875 Z M 32.472656 220.710938 C 32.054688 222.640625 31.644531 224.585938 31.257812 226.558594 C 31.8125 231.023438 32.542969 235.472656 33.4375 239.882812 L 33.96875 237.757812 L 34.378906 236.148438 C 34.152344 234.507812 33.9375 232.921875 33.71875 231.425781 C 33.203125 227.855469 32.785156 224.28125 32.472656 220.710938 Z M 39.542969 236.390625 L 39.527344 236.472656 L 39.707031 237.792969 L 39.679688 236.851562 L 39.664062 235.925781 Z M 41.226562 187.792969 C 40.574219 189.898438 39.9375 192.007812 39.328125 194.125 C 38.652344 196.449219 37.804688 199.386719 36.898438 202.757812 C 36.777344 209.550781 37.097656 216.347656 37.796875 223.148438 L 38.121094 221.964844 C 38.363281 221.085938 38.601562 220.21875 38.84375 219.339844 L 39.320312 217.667969 C 39.207031 207.351562 39.851562 197.382812 41.226562 187.792969 Z M 122.589844 65.683594 C 113.617188 70.6875 105.355469 76.582031 97.757812 83.234375 C 91.621094 85.953125 85.949219 89.152344 80.933594 92.933594 C 67.152344 103.308594 58.398438 118.417969 52.804688 135.382812 C 43.335938 148.105469 36.601562 162.921875 33.824219 180.054688 C 32.640625 187.375 31.988281 194.710938 31.835938 202.050781 C 31.25 204.230469 30.636719 206.589844 30.019531 209.066406 C 29.984375 207.3125 29.984375 205.550781 30.011719 203.796875 C 31 143.355469 67.273438 88.882812 122.589844 65.683594 Z M 78.328125 116.367188 C 76.644531 117.710938 74.996094 119.085938 73.386719 120.5 C 63.363281 134.027344 55.789062 149.558594 50.898438 166.714844 C 49.925781 173.445312 49.222656 180.191406 48.710938 186.792969 C 53.496094 171.957031 59.03125 156.550781 65.9375 142.046875 C 67.746094 137.265625 69.742188 132.585938 71.9375 128.058594 C 73.902344 124.023438 76.027344 120.117188 78.328125 116.367188 Z M 48.410156 151.796875 C 44.523438 159.28125 41.5625 167.394531 39.707031 176.175781 C 42.121094 169.191406 44.75 162.328125 47.632812 155.628906 C 47.878906 154.347656 48.136719 153.066406 48.410156 151.796875 Z M 83.734375 97.171875 C 74.691406 104.054688 68.003906 113.144531 63.023438 123.46875 C 64.070312 122.398438 65.148438 121.34375 66.234375 120.304688 C 71.535156 112.078125 77.355469 104.332031 83.734375 97.171875 Z M 250.148438 79.238281 L 250.550781 79.410156 L 250.019531 79.171875 L 249.449219 78.917969 L 249.238281 78.851562 Z M 211.253906 58.277344 C 198.195312 54.867188 184.675781 53.527344 170.882812 54.324219 C 148.546875 58.011719 129.414062 66.171875 113.046875 77.664062 C 114.558594 77.214844 116.089844 76.785156 117.632812 76.375 C 136.429688 66.609375 158.269531 60.300781 182.746094 58.066406 C 192.433594 57.179688 201.96875 57.253906 211.253906 58.277344 Z M 221.792969 65.046875 C 209.417969 62.550781 196.457031 61.902344 183.203125 63.113281 C 168.726562 64.4375 155.203125 67.230469 142.730469 71.359375 L 143.203125 71.292969 C 166.210938 65.148438 192.746094 62.808594 216.570312 65.492188 L 217.746094 65.394531 C 218.367188 65.339844 218.984375 65.289062 219.605469 65.234375 Z M 236.1875 68.964844 L 235.914062 68.980469 L 236.832031 69.21875 C 237.195312 69.316406 237.554688 69.414062 237.917969 69.511719 L 238.085938 69.519531 C 237.796875 69.421875 237.515625 69.324219 237.234375 69.222656 L 236.429688 68.953125 Z M 219.023438 55.214844 C 226.1875 57.476562 233.203125 60.347656 240.042969 63.820312 C 242.0625 63.761719 244.082031 63.742188 246.09375 63.773438 C 237.386719 60.011719 228.285156 57.128906 219.023438 55.214844 Z M 219.023438 55.214844 " fill-opacity="1" fill-rule="evenodd"/><path fill="#49d6f0" d="M 76.6875 254.679688 C 75.113281 253.59375 72.046875 251.484375 71.621094 251.320312 C 65.839844 249.113281 58.679688 248.8125 52.285156 250.078125 C 46.191406 251.285156 40.566406 254.503906 36.207031 258.972656 C 35.371094 259.832031 34.496094 261.171875 33.570312 262.441406 C 33.113281 263.070312 32.675781 263.714844 32.171875 264.125 C 31.703125 263.976562 30.820312 263.691406 30.292969 263.507812 C 29.378906 263.1875 28.539062 262.992188 27.992188 262.988281 C 23.441406 262.933594 18.886719 264.910156 15.015625 267.40625 C 11.226562 269.847656 6.8125 274.1875 4.695312 278.796875 C 3.066406 282.347656 2.761719 286.046875 4.535156 289.359375 C 4.765625 289.78125 5.445312 290.527344 6.460938 291.246094 C 6.988281 291.617188 7.714844 292.089844 8.402344 292.523438 C 8.019531 293 7.675781 293.449219 7.574219 293.644531 C 5.550781 297.648438 5.0625 302.070312 6.917969 305.894531 C 8.984375 310.160156 12.933594 312.492188 17.652344 313.363281 C 23.964844 314.527344 31.695312 312.996094 37.101562 310.699219 C 38.222656 310.222656 39.773438 309.132812 41.300781 308.09375 C 42.035156 307.59375 42.738281 307.070312 43.347656 306.773438 C 43.785156 307.222656 44.527344 308.003906 44.941406 308.5 C 45.585938 309.277344 46.160156 309.917969 46.480469 310.175781 C 50.324219 313.246094 55.023438 315.335938 60.183594 315.976562 C 68.035156 316.945312 77.058594 314.796875 83.609375 309.570312 C 84.335938 308.992188 85.449219 307.503906 86.546875 305.949219 C 87.097656 305.175781 87.949219 304.132812 88.386719 303.609375 C 88.816406 303.734375 89.492188 303.9375 89.957031 304.117188 C 91.195312 304.597656 92.402344 305.0625 93.097656 305.167969 C 99.042969 306.09375 105.277344 305.613281 110.816406 302.1875 C 114.4375 299.945312 116.726562 296.5625 117.492188 292.652344 C 117.585938 292.175781 117.59375 291.402344 117.535156 290.527344 C 117.511719 290.113281 117.496094 289.457031 117.488281 288.980469 C 117.9375 288.84375 118.550781 288.664062 119.007812 288.5625 C 120.304688 288.277344 121.5625 288.003906 122.183594 287.742188 C 126.394531 285.949219 130.660156 282.960938 133.035156 279.050781 C 137.160156 272.269531 135.066406 265.476562 130.160156 260.707031 C 126.113281 256.765625 120.105469 254.3125 114.441406 254.539062 C 114.363281 254.441406 114.273438 254.347656 114.179688 254.257812 C 106.539062 247.238281 96.339844 243.890625 85.027344 248.777344 C 83.019531 249.644531 81.257812 251.042969 79.558594 252.453125 C 78.597656 253.25 77.667969 254.058594 76.6875 254.679688 Z M 109.933594 257.269531 C 103.8125 252.042969 95.847656 249.625 87.039062 253.429688 C 85.46875 254.109375 84.125 255.25 82.796875 256.351562 C 81.09375 257.765625 79.417969 259.128906 77.597656 259.933594 C 77.347656 260.042969 76.378906 260.441406 75.136719 259.75 C 74.273438 259.265625 69.964844 256.210938 69.675781 256.007812 C 64.753906 254.164062 58.6875 253.976562 53.269531 255.050781 C 48.171875 256.058594 43.480469 258.773438 39.835938 262.511719 C 38.96875 263.402344 38.085938 264.917969 37.101562 266.179688 C 36.144531 267.398438 35.085938 268.414062 33.984375 268.953125 C 33.332031 269.273438 32.253906 269.410156 30.988281 269.082031 C 30.015625 268.832031 28.0625 268.136719 27.84375 268.054688 C 24.292969 268.042969 20.785156 269.71875 17.761719 271.667969 C 14.671875 273.660156 11.027344 277.152344 9.300781 280.914062 C 8.410156 282.851562 8.023438 284.867188 8.871094 286.695312 C 9.480469 287.085938 12.839844 289.257812 13.445312 289.722656 C 14.503906 290.539062 14.5625 291.507812 14.570312 291.804688 C 14.582031 292.242188 14.464844 292.949219 13.964844 293.714844 C 13.542969 294.355469 12.246094 295.820312 12.042969 296.046875 C 10.800781 298.554688 10.320312 301.292969 11.476562 303.679688 C 12.824219 306.457031 15.503906 307.8125 18.570312 308.378906 C 23.945312 309.367188 30.515625 307.988281 35.117188 306.03125 C 36.234375 305.558594 37.820312 304.292969 39.324219 303.320312 C 40.769531 302.382812 42.1875 301.695312 43.25 301.535156 C 43.96875 301.425781 44.933594 301.578125 45.917969 302.269531 C 47.207031 303.175781 49.007812 305.707031 49.640625 306.210938 C 52.777344 308.714844 56.601562 310.425781 60.804688 310.945312 C 67.386719 311.757812 74.957031 309.988281 80.449219 305.609375 C 81.328125 304.90625 82.785156 302.371094 84.054688 300.808594 C 85.070312 299.5625 86.136719 298.796875 86.859375 298.582031 C 87.570312 298.367188 88.648438 298.382812 89.859375 298.722656 C 91.257812 299.117188 93.035156 300.027344 93.875 300.160156 C 98.660156 300.902344 103.691406 300.632812 108.148438 297.875 C 110.492188 296.425781 111.996094 294.253906 112.507812 291.730469 C 112.496094 291.5625 112.34375 289.410156 112.398438 288.347656 C 112.464844 287.113281 112.867188 286.140625 113.363281 285.574219 C 113.816406 285.0625 114.722656 284.5 115.925781 284.121094 C 117.355469 283.675781 119.417969 283.40625 120.199219 283.074219 C 123.472656 281.683594 126.859375 279.453125 128.707031 276.417969 C 131.425781 271.941406 129.863281 267.488281 126.628906 264.339844 C 123.121094 260.929688 117.703125 258.902344 112.933594 259.789062 C 111.558594 260.046875 110.230469 259.136719 109.976562 257.761719 C 109.945312 257.597656 109.929688 257.433594 109.933594 257.269531 Z M 109.933594 257.269531 " fill-opacity="1" fill-rule="evenodd"/><path fill="#49d6f0" d="M 328.515625 109.886719 C 328.402344 109.839844 328.28125 109.800781 328.15625 109.769531 C 318.070312 107.316406 307.527344 109.316406 299.984375 119.0625 C 298.648438 120.789062 297.777344 122.867188 296.972656 124.921875 C 296.515625 126.085938 296.09375 127.242188 295.535156 128.257812 C 293.632812 128.066406 289.929688 127.703125 289.476562 127.765625 C 283.347656 128.628906 276.933594 131.824219 271.949219 136.019531 C 267.195312 140.023438 263.828125 145.5625 262.171875 151.578125 C 261.855469 152.738281 261.734375 154.332031 261.539062 155.890625 C 261.441406 156.664062 261.371094 157.4375 261.128906 158.039062 C 260.648438 158.136719 259.734375 158.316406 259.1875 158.410156 C 258.230469 158.570312 257.402344 158.804688 256.917969 159.066406 C 252.910156 161.21875 249.878906 165.148438 247.695312 169.207031 C 245.558594 173.175781 243.789062 179.105469 244.164062 184.167969 C 244.453125 188.058594 245.976562 191.449219 249.128906 193.488281 C 249.535156 193.75 250.488281 194.074219 251.726562 194.210938 C 252.367188 194.28125 253.234375 194.34375 254.042969 194.390625 C 253.9375 194.992188 253.855469 195.550781 253.863281 195.773438 C 254.027344 200.253906 255.734375 204.363281 259.203125 206.8125 C 263.078125 209.550781 267.664062 209.683594 272.214844 208.164062 C 278.304688 206.132812 284.332031 201.054688 287.953125 196.433594 C 288.703125 195.472656 289.535156 193.769531 290.371094 192.121094 C 290.773438 191.332031 291.132812 190.53125 291.527344 189.976562 C 292.125 190.160156 293.152344 190.484375 293.753906 190.71875 C 294.695312 191.089844 295.507812 191.371094 295.910156 191.441406 C 300.761719 192.269531 305.882812 191.832031 310.710938 189.898438 C 318.054688 186.949219 324.914062 180.707031 328.125 172.96875 C 328.480469 172.109375 328.734375 170.269531 328.949219 168.378906 C 329.054688 167.433594 329.296875 166.109375 329.425781 165.441406 C 329.863281 165.339844 330.554688 165.195312 331.046875 165.125 C 332.363281 164.945312 333.644531 164.769531 334.304688 164.527344 C 339.957031 162.464844 345.183594 159.03125 348.375 153.355469 C 350.460938 149.640625 350.832031 145.574219 349.609375 141.777344 C 349.464844 141.320312 349.09375 140.636719 348.625 139.902344 C 348.398438 139.550781 348.070312 138.980469 347.832031 138.570312 C 348.15625 138.234375 348.609375 137.777344 348.960938 137.46875 C 349.957031 136.59375 350.929688 135.742188 351.34375 135.214844 C 354.164062 131.609375 356.453125 126.933594 356.644531 122.363281 C 356.980469 114.433594 351.863281 109.496094 345.261719 107.691406 C 339.8125 106.199219 333.367188 106.953125 328.515625 109.886719 Z M 344.800781 143.382812 C 344.710938 143.242188 343.535156 141.433594 343.070312 140.472656 C 342.53125 139.363281 342.414062 138.316406 342.578125 137.578125 C 342.726562 136.910156 343.246094 135.980469 344.117188 135.070312 C 345.152344 133.988281 346.828125 132.757812 347.351562 132.089844 C 349.542969 129.289062 351.433594 125.699219 351.582031 122.148438 C 351.800781 116.917969 348.28125 113.773438 343.925781 112.578125 C 339.207031 111.289062 333.484375 112.132812 329.734375 115.214844 C 328.65625 116.105469 327.058594 115.949219 326.167969 114.871094 C 326.0625 114.738281 325.96875 114.601562 325.890625 114.457031 C 318.011719 112.839844 309.867188 114.574219 303.992188 122.164062 C 302.945312 123.515625 302.320312 125.164062 301.691406 126.769531 C 300.886719 128.828125 300.078125 130.835938 298.871094 132.417969 C 298.707031 132.632812 298.050781 133.449219 296.628906 133.445312 C 295.640625 133.441406 290.390625 132.847656 290.039062 132.808594 C 284.839844 133.574219 279.4375 136.34375 275.214844 139.898438 C 271.238281 143.246094 268.445312 147.890625 267.058594 152.925781 C 266.730469 154.125 266.691406 155.878906 266.4375 157.457031 C 266.191406 158.988281 265.75 160.386719 265.050781 161.394531 C 264.632812 161.988281 263.753906 162.628906 262.488281 162.953125 C 261.515625 163.203125 259.46875 163.539062 259.238281 163.574219 C 256.125 165.28125 253.863281 168.441406 252.160156 171.609375 C 250.417969 174.84375 248.914062 179.667969 249.21875 183.792969 C 249.378906 185.921875 250.011719 187.871094 251.636719 189.0625 C 252.359375 189.109375 256.347656 189.386719 257.109375 189.5 C 258.425781 189.703125 258.949219 190.523438 259.097656 190.777344 C 259.320312 191.15625 259.558594 191.832031 259.488281 192.746094 C 259.433594 193.507812 259.003906 195.417969 258.933594 195.71875 C 259.058594 198.511719 259.960938 201.140625 262.128906 202.671875 C 264.648438 204.453125 267.648438 204.34375 270.609375 203.355469 C 275.792969 201.625 280.878906 197.242188 283.960938 193.304688 C 284.710938 192.351562 285.488281 190.476562 286.332031 188.898438 C 287.144531 187.382812 288.054688 186.09375 288.90625 185.4375 C 289.484375 184.992188 290.402344 184.664062 291.597656 184.792969 C 293.167969 184.960938 295.964844 186.308594 296.761719 186.445312 C 300.71875 187.121094 304.890625 186.769531 308.824219 185.191406 C 314.980469 182.722656 320.75 177.515625 323.441406 171.027344 C 323.875 169.984375 323.921875 167.0625 324.28125 165.082031 C 324.566406 163.5 325.128906 162.3125 325.65625 161.777344 C 326.175781 161.246094 327.128906 160.738281 328.351562 160.453125 C 329.769531 160.121094 331.761719 160.058594 332.5625 159.769531 C 337.113281 158.105469 341.386719 155.4375 343.953125 150.871094 C 345.304688 148.46875 345.574219 145.839844 344.800781 143.382812 Z M 344.800781 143.382812 " fill-opacity="1" fill-rule="evenodd"/><path fill="#49d6f0" d="M 77.277344 259.703125 C 75.1875 259.164062 72.855469 259.277344 70.558594 260.253906 C 69.160156 259.832031 67.664062 259.59375 66.148438 259.539062 C 65.660156 257.722656 64.867188 256.101562 63.75 254.835938 C 62.589844 253.523438 61.0625 252.820312 59.359375 252.582031 C 57.363281 252.308594 55.082031 252.730469 53.152344 253.335938 C 45.140625 255.859375 38.273438 262.425781 36.125 270.324219 L 36.121094 270.34375 C 35.832031 270.828125 35.566406 271.316406 35.328125 271.808594 C 34.953125 269.546875 33.703125 267.691406 31.367188 266.539062 C 25.875 263.839844 19.140625 266.789062 15.566406 271.828125 C 13.144531 275.242188 11.003906 280.085938 10.675781 284.472656 C 10.398438 288.203125 11.316406 291.628906 14.085938 293.953125 C 12.359375 296.609375 10.28125 299.96875 9.46875 302.898438 C 8.769531 305.410156 8.945312 307.683594 10.113281 309.410156 C 10.921875 310.605469 12.230469 311.621094 14.304688 312.179688 C 17.203125 312.964844 20.148438 311.84375 22.746094 309.644531 C 23.679688 308.855469 24.566406 307.925781 25.390625 306.953125 L 25.578125 306.957031 L 25.761719 306.953125 C 25.820312 307.078125 25.886719 307.191406 25.953125 307.300781 C 26.601562 308.3125 27.589844 309 29.246094 308.714844 C 30.164062 308.558594 31.539062 307.71875 32.828125 306.339844 C 33.738281 305.363281 34.695312 304.121094 35.46875 303.054688 C 35.816406 303.152344 36.109375 303.226562 36.335938 303.265625 C 36.882812 303.367188 38.695312 303.605469 40.015625 303.4375 C 41.179688 303.285156 42.082031 302.789062 42.589844 302.21875 L 42.609375 302.199219 C 42.851562 302.191406 43.113281 302.152344 43.394531 302.066406 C 43.445312 303.417969 43.769531 304.722656 44.390625 305.914062 C 45.261719 307.59375 46.722656 309.085938 48.960938 310.167969 C 51.640625 311.460938 54.25 311.433594 56.613281 310.476562 C 59.460938 312.238281 63.019531 312.878906 66.492188 311.273438 C 67.160156 310.960938 67.792969 310.601562 68.398438 310.199219 C 68.664062 310.246094 68.933594 310.273438 69.214844 310.285156 C 70.65625 310.351562 72.285156 309.917969 73.617188 309.328125 C 73.773438 309.359375 73.929688 309.386719 74.089844 309.40625 C 78.246094 309.992188 81.566406 308.144531 84.039062 305.242188 C 86.191406 302.722656 87.667969 299.386719 88.496094 296.582031 C 88.621094 296.160156 88.722656 295.734375 88.804688 295.308594 C 89.15625 297.046875 89.945312 298.636719 91.28125 300.023438 C 92.484375 301.269531 93.8125 301.925781 95.207031 302.101562 C 97.675781 303.585938 100.226562 303.1875 102.628906 301.773438 C 105.894531 299.847656 108.855469 295.570312 110.328125 293.113281 C 110.882812 292.191406 112.464844 290.484375 113.308594 288.921875 C 113.785156 288.042969 114.0625 287.171875 114.128906 286.386719 L 114.300781 286.390625 C 116.039062 286.378906 117.707031 285.707031 119.199219 284.636719 C 121.003906 283.335938 122.554688 281.4375 123.652344 279.914062 C 124.441406 278.816406 125.074219 277.867188 125.519531 276.839844 C 126.097656 275.714844 126.382812 274.617188 126.449219 273.570312 C 127.039062 272.761719 127.511719 271.929688 127.828125 271.117188 C 128.421875 269.582031 128.484375 268.089844 128.03125 266.804688 C 127.644531 265.71875 126.804688 264.832031 125.605469 264.246094 C 123.917969 263.425781 121.34375 263.273438 119.933594 263.425781 C 119.183594 263.507812 118.480469 263.652344 117.828125 263.855469 C 117.558594 263.78125 117.285156 263.714844 117.011719 263.660156 C 113.785156 262.988281 110.652344 263.324219 107.839844 264.445312 C 107.667969 263.003906 107.273438 261.566406 106.621094 260.152344 C 105.832031 258.449219 104.570312 256.777344 102.910156 255.695312 C 102.011719 254.394531 100.597656 253.1875 98.492188 252.195312 C 97.421875 251.691406 96.113281 251.078125 94.875 250.796875 C 86.882812 248.992188 81.253906 252.945312 77.742188 258.878906 C 77.582031 259.148438 77.429688 259.421875 77.277344 259.703125 Z M 18.597656 296.226562 C 17 298.617188 15.085938 301.613281 14.351562 304.253906 C 14.105469 305.140625 13.898438 305.957031 14.308594 306.566406 C 14.550781 306.925781 15.007812 307.117188 15.628906 307.285156 C 16.984375 307.652344 18.253906 306.808594 19.46875 305.777344 C 19.964844 305.355469 20.445312 304.890625 20.90625 304.394531 L 20.847656 304.265625 C 20.828125 304.210938 20.808594 304.160156 20.789062 304.109375 L 20.777344 304.082031 C 20.484375 303.941406 20.207031 303.769531 19.957031 303.574219 C 19.5625 303.269531 19.195312 302.871094 18.902344 302.382812 C 18.652344 302.082031 18.464844 301.726562 18.320312 301.332031 C 17.953125 300.316406 18.257812 298.554688 18.46875 297.785156 C 18.605469 297.289062 18.742188 296.792969 18.886719 296.296875 L 18.640625 296.238281 Z M 63.925781 305.785156 C 63.730469 306.222656 63.515625 306.640625 63.28125 307.039062 C 63.605469 306.96875 63.929688 306.863281 64.253906 306.71875 C 64.121094 306.414062 64.011719 306.101562 63.925781 305.785156 Z M 55.878906 295.5625 C 55.355469 297.871094 55.433594 300.367188 56.066406 302.285156 C 56.28125 302.941406 56.621094 303.597656 57.0625 304.207031 C 57.296875 303.976562 57.527344 303.730469 57.75 303.472656 C 57.636719 303 57.527344 302.527344 57.421875 302.054688 C 57.21875 301.15625 57.046875 300.25 56.839844 299.355469 C 56.542969 298.085938 56.238281 296.816406 55.878906 295.5625 Z M 77.410156 293.734375 C 76.878906 293.972656 76.355469 294.226562 76.121094 294.398438 C 74.871094 295.328125 73.203125 296.710938 71.753906 298.308594 C 71.683594 298.800781 71.652344 299.296875 71.660156 299.789062 C 71.910156 299.484375 72.164062 299.1875 72.414062 298.894531 C 73.269531 297.910156 75.859375 295.828125 77.410156 293.734375 Z M 61.164062 291.808594 C 60.824219 291.972656 60.492188 292.121094 60.15625 292.257812 C 60.539062 293.40625 60.871094 294.574219 61.175781 295.746094 C 61.304688 294.730469 61.417969 293.726562 61.539062 292.761719 C 61.507812 292.484375 61.453125 292.21875 61.378906 291.96875 L 61.371094 291.960938 C 61.335938 291.933594 61.300781 291.90625 61.269531 291.878906 Z M 69.800781 290.703125 C 68.859375 291.234375 67.933594 291.667969 67.050781 291.980469 C 67.28125 292.910156 67.375 293.917969 67.347656 294.976562 C 67.886719 293.375 68.714844 291.898438 69.800781 290.703125 Z M 101.738281 288.90625 C 101.371094 289.058594 101.046875 289.210938 100.777344 289.332031 C 99.171875 290.058594 97.792969 290.878906 96.78125 291.804688 C 96.617188 291.957031 96.460938 292.105469 96.320312 292.257812 C 96.710938 292.1875 97.148438 292.027344 97.636719 291.804688 C 98.96875 291.191406 100.1875 290.609375 101.210938 289.546875 C 101.40625 289.34375 101.582031 289.128906 101.738281 288.90625 Z M 77.246094 285.601562 C 76.972656 285.636719 76.699219 285.667969 76.421875 285.691406 C 76.132812 285.925781 75.835938 286.152344 75.542969 286.367188 C 74.851562 287.03125 74.132812 287.664062 73.398438 288.25 C 74.945312 287.6875 76.734375 287.539062 78.738281 287.964844 C 78.824219 287.984375 78.914062 288.007812 79.003906 288.03125 C 80.359375 288.042969 81.5 288.546875 82.300781 289.574219 L 82.464844 289.6875 C 83.082031 290.121094 83.550781 290.667969 83.882812 291.285156 C 83.632812 289.605469 82.953125 287.960938 81.976562 286.492188 C 80.710938 286.820312 79.59375 286.707031 78.628906 286.351562 C 78.136719 286.171875 77.675781 285.917969 77.246094 285.601562 Z M 59.558594 282.507812 C 58.726562 283.476562 57.816406 284.421875 56.851562 285.289062 C 56.992188 285.496094 57.105469 285.679688 57.195312 285.816406 L 57.253906 285.910156 C 57.980469 285.203125 58.683594 284.457031 59.355469 283.6875 L 59.425781 283.542969 C 59.484375 283.433594 59.542969 283.320312 59.597656 283.214844 L 59.746094 282.953125 C 59.679688 282.808594 59.617188 282.664062 59.558594 282.507812 Z M 21.757812 277.984375 C 21.375 277.996094 21.011719 278.042969 20.664062 278.121094 C 19.683594 278.941406 18.804688 279.941406 18.078125 281.027344 C 17.566406 281.785156 17.128906 282.582031 16.796875 283.394531 C 16.816406 283.578125 16.84375 283.761719 16.882812 283.9375 C 17.035156 284.640625 17.324219 285.332031 18.136719 285.390625 C 18.671875 285.433594 19.15625 285.261719 19.605469 284.980469 C 19.84375 283.046875 20.320312 281.191406 20.976562 279.621094 C 21.121094 279.28125 21.390625 278.683594 21.757812 277.984375 Z M 114.273438 280.386719 C 114.191406 280.484375 114.109375 280.585938 114.03125 280.683594 L 113.839844 280.90625 C 113.859375 280.949219 113.882812 280.992188 113.90625 281.035156 C 113.988281 281.179688 114.082031 281.320312 114.265625 281.320312 C 114.710938 281.316406 115.132812 281.183594 115.535156 280.972656 C 115.117188 280.789062 114.722656 280.554688 114.363281 280.273438 Z M 94.082031 276.070312 L 93.855469 276.296875 L 93.824219 276.382812 C 93.304688 277.886719 93.097656 279.550781 93.007812 280.261719 L 92.972656 280.582031 C 93.050781 280.554688 93.132812 280.527344 93.214844 280.496094 C 93.402344 280.429688 93.589844 280.355469 93.773438 280.269531 C 93.734375 278.789062 93.875 277.292969 94.082031 276.070312 Z M 103.894531 277.582031 C 103.765625 277.765625 103.632812 277.953125 103.496094 278.132812 L 103.605469 278.1875 L 103.625 278.195312 C 103.71875 277.988281 103.808594 277.78125 103.894531 277.582031 Z M 50.199219 274.316406 C 50.210938 273.820312 50.203125 273.3125 50.160156 272.8125 C 50.121094 272.398438 50.0625 271.992188 49.9375 271.632812 C 49.890625 271.496094 49.898438 271.335938 49.773438 271.277344 C 49.710938 271.246094 49.664062 271.332031 49.605469 271.363281 C 49.429688 271.460938 49.265625 271.585938 49.105469 271.726562 C 48.300781 272.4375 47.644531 273.460938 47.214844 274.195312 L 46.636719 275.191406 C 46.546875 275.660156 46.476562 276.128906 46.429688 276.597656 C 47.742188 275.984375 49.042969 275.175781 50.199219 274.316406 Z M 73.785156 270.617188 C 73.191406 270.496094 72.535156 270.484375 71.9375 270.484375 C 71.828125 270.484375 71.71875 270.488281 71.605469 270.496094 C 70.921875 271.082031 70.265625 271.699219 69.640625 272.308594 C 70.695312 273.105469 71.03125 274.261719 70.714844 275.703125 C 70.703125 275.75 70.695312 275.796875 70.679688 275.84375 C 71.410156 275.75 72.140625 275.71875 72.863281 275.746094 C 73.074219 275.386719 73.265625 275.019531 73.433594 274.644531 C 73.464844 273.367188 73.582031 272.007812 73.785156 270.617188 Z M 117.300781 270.761719 C 117.578125 271.832031 117.597656 272.992188 117.378906 274.179688 C 117.582031 274.132812 117.792969 274.054688 118.007812 273.976562 C 118.847656 273.675781 119.710938 273.152344 120.496094 272.515625 L 120.234375 272.320312 C 119.691406 271.90625 118.867188 271.324219 117.96875 270.988281 C 117.746094 270.90625 117.519531 270.800781 117.300781 270.761719 Z M 29.109375 271.078125 C 27.5625 270.324219 25.890625 270.40625 24.328125 271.015625 C 25.625 270.855469 26.933594 270.941406 28.222656 271.3125 C 28.507812 271.179688 28.808594 271.101562 29.109375 271.078125 Z M 110.566406 270.429688 C 110.59375 270.671875 110.617188 270.917969 110.628906 271.171875 C 110.925781 270.976562 111.207031 270.898438 111.421875 270.851562 L 111.421875 270.847656 C 111.175781 270.695312 110.890625 270.554688 110.566406 270.429688 Z M 92.058594 263.820312 C 91.785156 263.832031 91.519531 263.851562 91.253906 263.875 C 91.023438 263.898438 90.789062 263.929688 90.546875 263.976562 C 90.390625 264.210938 90.25 264.441406 90.117188 264.664062 C 89.296875 266.039062 88.601562 267.765625 88.152344 269.601562 L 88.1875 269.710938 C 88.214844 269.808594 88.246094 269.910156 88.273438 270.011719 L 88.347656 270.285156 C 90.050781 269.640625 91.929688 268.59375 93.648438 267.308594 C 93.652344 267.214844 93.652344 267.117188 93.652344 267.019531 C 93.628906 265.753906 92.996094 264.601562 92.058594 263.820312 Z M 92.402344 255.515625 C 88.117188 255.054688 84.976562 257.234375 82.785156 260.398438 C 84.828125 258.390625 87.136719 257.570312 89.351562 257.613281 C 90.285156 256.757812 91.316406 256.019531 92.402344 255.515625 Z M 92.402344 255.515625 " fill-opacity="1" fill-rule="evenodd"/><path fill="#49d6f0" d="M 335.988281 116.417969 C 335.714844 116.480469 335.445312 116.554688 335.179688 116.636719 C 332.027344 117.609375 329.449219 119.421875 327.527344 121.761719 C 326.679688 120.578125 325.640625 119.511719 324.386719 118.589844 C 322.875 117.480469 320.960938 116.625 318.984375 116.484375 C 317.566406 115.773438 315.746094 115.40625 313.425781 115.554688 C 312.246094 115.628906 310.804688 115.722656 309.582031 116.078125 C 301.714844 118.359375 298.695312 124.542969 298.488281 131.433594 C 298.480469 131.746094 298.476562 132.058594 298.480469 132.378906 C 296.390625 132.917969 294.40625 134.140625 292.867188 136.109375 C 291.4375 136.414062 290.011719 136.929688 288.660156 137.613281 C 287.355469 136.257812 285.875 135.222656 284.285156 134.65625 C 282.636719 134.066406 280.960938 134.1875 279.351562 134.804688 C 277.472656 135.527344 275.679688 137 274.285156 138.464844 C 268.488281 144.546875 265.648438 153.609375 267.585938 161.5625 L 267.59375 161.585938 C 267.574219 162.148438 267.578125 162.703125 267.605469 163.25 C 266.183594 161.449219 264.195312 160.429688 261.589844 160.550781 C 255.480469 160.839844 251.007812 166.679688 250.316406 172.816406 C 249.84375 176.976562 250.308594 182.25 252.144531 186.25 C 253.703125 189.648438 256.164062 192.203125 259.710938 192.902344 C 259.484375 196.058594 259.289062 200.007812 259.992188 202.964844 C 260.59375 205.5 261.847656 207.410156 263.703125 208.351562 C 264.988281 209.007812 266.625 209.265625 268.710938 208.753906 C 271.625 208.039062 273.667969 205.636719 274.875 202.453125 C 275.3125 201.3125 275.640625 200.070312 275.890625 198.820312 L 276.058594 198.734375 L 276.21875 198.640625 C 276.328125 198.71875 276.4375 198.789062 276.550781 198.851562 C 277.605469 199.425781 278.804688 199.546875 280.117188 198.496094 C 280.847656 197.917969 281.640625 196.519531 282.101562 194.6875 C 282.429688 193.390625 282.667969 191.84375 282.828125 190.535156 C 283.179688 190.453125 283.472656 190.375 283.691406 190.300781 C 284.21875 190.125 285.917969 189.460938 286.992188 188.671875 C 287.941406 187.976562 288.488281 187.109375 288.660156 186.359375 L 288.667969 186.335938 C 288.875 186.210938 289.085938 186.050781 289.289062 185.839844 C 289.988281 187 290.902344 187.984375 292.023438 188.730469 C 293.597656 189.773438 295.597656 190.375 298.078125 190.242188 C 301.050781 190.078125 303.320312 188.796875 304.929688 186.8125 C 308.273438 186.980469 311.699219 185.824219 313.960938 182.738281 C 314.394531 182.144531 314.777344 181.519531 315.109375 180.875 C 315.363281 180.789062 315.617188 180.683594 315.867188 180.558594 C 317.160156 179.917969 318.378906 178.753906 319.257812 177.589844 C 319.410156 177.542969 319.5625 177.488281 319.710938 177.433594 C 323.632812 175.9375 325.644531 172.714844 326.410156 168.976562 C 327.074219 165.730469 326.753906 162.097656 326.125 159.242188 C 326.03125 158.8125 325.914062 158.390625 325.78125 157.976562 C 326.925781 159.328125 328.386719 160.34375 330.226562 160.910156 C 331.882812 161.421875 333.363281 161.351562 334.667969 160.832031 C 337.546875 160.9375 339.585938 159.355469 341.007812 156.957031 C 342.9375 153.691406 343.460938 148.519531 343.5625 145.652344 C 343.601562 144.578125 344.160156 142.320312 344.148438 140.542969 C 344.140625 139.542969 343.960938 138.648438 343.640625 137.929688 L 343.792969 137.847656 C 345.304688 136.996094 346.441406 135.605469 347.230469 133.945312 C 348.183594 131.9375 348.621094 129.523438 348.847656 127.660156 C 349.007812 126.320312 349.101562 125.179688 348.996094 124.066406 C 348.960938 122.800781 348.679688 121.703125 348.230469 120.757812 C 348.355469 119.761719 348.367188 118.804688 348.253906 117.941406 C 348.03125 116.308594 347.363281 114.972656 346.34375 114.066406 C 345.480469 113.304688 344.316406 112.929688 342.988281 113 C 341.109375 113.097656 338.785156 114.207031 337.625 115.023438 C 337.007812 115.457031 336.460938 115.925781 335.988281 116.417969 Z M 264.804688 192.703125 L 264.761719 192.714844 C 264.515625 195.574219 264.289062 199.125 264.925781 201.792969 C 265.136719 202.6875 265.347656 203.503906 266.003906 203.835938 C 266.386719 204.03125 266.882812 203.984375 267.503906 203.828125 C 268.871094 203.496094 269.570312 202.140625 270.136719 200.652344 C 270.371094 200.042969 270.5625 199.402344 270.726562 198.746094 L 270.613281 198.660156 C 270.570312 198.625 270.527344 198.589844 270.484375 198.554688 L 270.464844 198.535156 C 270.136719 198.554688 269.816406 198.539062 269.5 198.488281 C 269.007812 198.410156 268.492188 198.238281 268.003906 197.953125 C 267.640625 197.808594 267.300781 197.589844 266.988281 197.316406 C 266.171875 196.601562 265.589844 194.914062 265.398438 194.140625 C 265.277344 193.636719 265.160156 193.136719 265.046875 192.632812 Z M 258.710938 175.214844 C 258.382812 175.410156 258.085938 175.628906 257.820312 175.863281 C 257.355469 177.054688 257.070312 178.355469 256.957031 179.65625 C 256.878906 180.566406 256.882812 181.476562 256.980469 182.347656 C 257.085938 182.5 257.199219 182.644531 257.320312 182.78125 C 257.792969 183.324219 258.378906 183.785156 259.121094 183.449219 C 259.605469 183.226562 259.949219 182.84375 260.207031 182.378906 C 259.480469 180.570312 259 178.71875 258.816406 177.023438 C 258.777344 176.65625 258.726562 176.003906 258.710938 175.214844 Z M 297.078125 174.113281 C 297.738281 176.386719 299.011719 178.535156 300.492188 179.910156 C 300.992188 180.378906 301.609375 180.789062 302.289062 181.109375 C 302.386719 180.792969 302.46875 180.46875 302.535156 180.136719 C 302.210938 179.773438 301.886719 179.414062 301.566406 179.050781 C 300.953125 178.363281 300.367188 177.652344 299.75 176.96875 C 298.878906 176 297.996094 175.035156 297.078125 174.113281 Z M 309.0625 179.175781 C 309.101562 179.652344 309.117188 180.121094 309.105469 180.582031 C 309.355469 180.363281 309.585938 180.113281 309.800781 179.832031 C 309.535156 179.628906 309.289062 179.410156 309.0625 179.175781 Z M 299.886719 168.273438 C 299.671875 168.578125 299.453125 168.875 299.222656 169.15625 C 300.113281 169.972656 300.96875 170.835938 301.804688 171.714844 C 301.425781 170.761719 301.042969 169.828125 300.679688 168.925781 C 300.515625 168.699219 300.339844 168.492188 300.15625 168.308594 L 300.144531 168.304688 C 300.101562 168.300781 300.058594 168.292969 300.015625 168.285156 Z M 315.042969 162.109375 C 314.691406 162.570312 314.359375 163.046875 314.234375 163.3125 C 313.589844 164.726562 312.796875 166.746094 312.300781 168.847656 C 312.480469 169.308594 312.691406 169.761719 312.9375 170.1875 C 313.007812 169.800781 313.085938 169.417969 313.164062 169.039062 C 313.4375 167.765625 314.695312 164.691406 315.042969 162.109375 Z M 306.917969 163.132812 C 306.351562 164.050781 305.75 164.878906 305.125 165.578125 C 305.777344 166.28125 306.347656 167.117188 306.835938 168.058594 C 306.53125 166.394531 306.542969 164.703125 306.917969 163.132812 Z M 261.808594 165.617188 C 260.089844 165.703125 258.667969 166.582031 257.59375 167.871094 C 258.652344 167.105469 259.839844 166.546875 261.148438 166.25 C 261.332031 165.992188 261.558594 165.78125 261.808594 165.617188 Z M 293.988281 160.90625 C 293.726562 162.15625 293.390625 163.421875 292.964844 164.648438 C 293.1875 164.761719 293.375 164.867188 293.519531 164.945312 L 293.613281 165 C 293.910156 164.03125 294.164062 163.035156 294.382812 162.035156 L 294.375 161.875 C 294.371094 161.75 294.367188 161.628906 294.363281 161.503906 L 294.367188 161.207031 C 294.242188 161.113281 294.113281 161.011719 293.988281 160.90625 Z M 281.835938 158.257812 C 281.605469 157.820312 281.351562 157.375 281.074219 156.960938 C 280.839844 156.613281 280.59375 156.289062 280.3125 156.035156 C 280.207031 155.9375 280.132812 155.792969 279.996094 155.804688 C 279.925781 155.808594 279.925781 155.902344 279.890625 155.960938 C 279.78125 156.128906 279.699219 156.320312 279.628906 156.519531 C 279.265625 157.53125 279.1875 158.742188 279.167969 159.59375 L 279.140625 160.742188 C 279.289062 161.199219 279.453125 161.644531 279.636719 162.078125 C 280.492188 160.90625 281.242188 159.570312 281.835938 158.257812 Z M 315.539062 153.558594 C 314.589844 154.460938 313.558594 154.898438 312.542969 155.054688 C 312.023438 155.136719 311.5 155.136719 310.972656 155.066406 C 310.746094 155.230469 310.519531 155.390625 310.292969 155.542969 C 310.148438 155.886719 310 156.230469 309.847656 156.5625 C 309.566406 157.476562 309.242188 158.375 308.882812 159.246094 C 309.964844 158 311.457031 157.011719 313.417969 156.414062 C 313.503906 156.390625 313.59375 156.363281 313.683594 156.339844 C 314.875 155.699219 316.117188 155.589844 317.316406 156.101562 L 317.511719 156.121094 C 318.265625 156.203125 318.9375 156.457031 319.527344 156.835938 C 318.496094 155.484375 317.109375 154.375 315.539062 153.558594 Z M 334.007812 146.121094 C 333.761719 146.433594 333.546875 146.722656 333.371094 146.960938 C 332.320312 148.371094 331.507812 149.753906 331.070312 151.058594 C 331 151.269531 330.9375 151.472656 330.886719 151.675781 C 331.191406 151.421875 331.496094 151.074219 331.816406 150.640625 C 332.691406 149.460938 333.476562 148.363281 333.855469 146.941406 C 333.929688 146.667969 333.976562 146.394531 334.007812 146.121094 Z M 300.699219 143.621094 C 300.117188 143.800781 299.539062 144.109375 299.015625 144.398438 C 298.917969 144.453125 298.824219 144.507812 298.730469 144.566406 C 298.414062 145.410156 298.136719 146.269531 297.886719 147.105469 C 299.195312 147.292969 300.050781 148.140625 300.46875 149.554688 C 300.480469 149.601562 300.492188 149.648438 300.503906 149.695312 C 301.101562 149.261719 301.722656 148.882812 302.367188 148.554688 C 302.378906 148.140625 302.371094 147.726562 302.339844 147.316406 C 301.746094 146.179688 301.191406 144.9375 300.699219 143.621094 Z M 321.101562 138.585938 L 321.011719 138.894531 L 321.027344 138.984375 C 321.296875 140.550781 321.921875 142.109375 322.1875 142.773438 L 322.308594 143.070312 C 322.367188 143.007812 322.425781 142.945312 322.484375 142.878906 C 322.613281 142.730469 322.742188 142.574219 322.863281 142.410156 C 322.109375 141.132812 321.511719 139.753906 321.101562 138.585938 Z M 313.410156 128.839844 C 313.179688 128.980469 312.953125 129.128906 312.730469 129.277344 C 312.542969 129.40625 312.351562 129.550781 312.164062 129.707031 C 312.140625 129.988281 312.125 130.257812 312.117188 130.515625 C 312.0625 132.117188 312.289062 133.964844 312.785156 135.785156 L 312.867188 135.867188 C 312.941406 135.941406 313.015625 136.011719 313.089844 136.085938 L 313.285156 136.292969 C 314.464844 134.90625 315.605469 133.078125 316.488281 131.125 C 316.445312 131.039062 316.402344 130.953125 316.351562 130.871094 C 315.71875 129.773438 314.609375 129.070312 313.410156 128.839844 Z M 330.425781 135.164062 C 330.398438 135.390625 330.375 135.617188 330.34375 135.84375 L 330.460938 135.835938 L 330.484375 135.835938 C 330.464844 135.605469 330.445312 135.382812 330.425781 135.164062 Z M 340.863281 132.605469 C 340.84375 132.730469 340.816406 132.859375 340.796875 132.984375 L 340.738281 133.269531 C 340.777344 133.296875 340.816406 133.324219 340.855469 133.347656 C 341 133.4375 341.152344 133.515625 341.308594 133.425781 C 341.699219 133.210938 342.003906 132.890625 342.253906 132.511719 C 341.796875 132.550781 341.339844 132.535156 340.886719 132.464844 Z M 309.699219 121.402344 C 305.722656 123.066406 304.027344 126.496094 303.636719 130.324219 C 304.457031 127.582031 306.082031 125.746094 308.042969 124.710938 C 308.445312 123.511719 308.988281 122.367188 309.699219 121.402344 Z M 333.757812 125.632812 C 333.46875 125.617188 333.152344 125.632812 332.808594 125.679688 C 332.949219 125.878906 333.085938 126.085938 333.21875 126.300781 C 333.386719 125.988281 333.59375 125.78125 333.761719 125.636719 Z M 342.507812 122.707031 L 342.1875 122.664062 C 341.511719 122.5625 340.507812 122.453125 339.558594 122.59375 C 339.324219 122.628906 339.074219 122.644531 338.863281 122.71875 C 339.625 123.519531 340.199219 124.523438 340.582031 125.671875 C 340.738281 125.535156 340.886719 125.363281 341.039062 125.191406 C 341.628906 124.519531 342.128906 123.644531 342.507812 122.707031 Z M 342.507812 122.707031 " fill-opacity="1" fill-rule="evenodd"/></svg>