<svg xmlns="http://www.w3.org/2000/svg" xmlns:xlink="http://www.w3.org/1999/xlink" width="500" zoomAndPan="magnify" viewBox="0 0 375 374.999991" height="500" preserveAspectRatio="xMidYMid meet" version="1.0"><defs><clipPath id="c8559119d5"><path d="M 37.550781 37.5 L 349.832031 37.5 L 349.832031 346.347656 L 37.550781 346.347656 Z M 37.550781 37.5 " clip-rule="nonzero"/></clipPath></defs><g clip-path="url(#c8559119d5)"><path fill="#ff9f1c" d="M 238.054688 121.625 C 236.722656 120.570312 235.390625 119.511719 234.050781 118.460938 C 237.453125 118.078125 239.289062 114.097656 238.035156 111.019531 C 238.84375 111.210938 239.648438 111.410156 240.457031 111.605469 C 240.980469 111.730469 241.492188 111.753906 241.992188 111.726562 C 240.71875 114.957031 239.453125 118.195312 238.144531 121.414062 C 238.128906 121.449219 238.09375 121.53125 238.054688 121.625 Z M 290.421875 186.359375 C 294.339844 189.855469 298.242188 193.382812 302.121094 196.925781 C 299.804688 195.746094 297.484375 194.566406 295.171875 193.386719 C 294.863281 192.027344 293.984375 190.832031 292.707031 189.859375 C 283.507812 182.847656 274.050781 176.183594 264.371094 169.859375 C 257.277344 163.207031 250.183594 156.554688 243.089844 149.902344 C 243.519531 148.9375 243.949219 147.96875 244.375 147 C 245.699219 148.082031 247.027344 149.152344 248.347656 150.242188 C 262.605469 162 276.636719 174.042969 290.421875 186.359375 Z M 149.203125 283.3125 C 146.585938 280.167969 143.96875 277.019531 141.351562 273.875 C 144.726562 274.707031 148.101562 275.539062 151.472656 276.371094 C 152.390625 276.597656 153.269531 276.5625 154.074219 276.34375 C 153.425781 277.28125 152.792969 278.234375 152.140625 279.175781 C 151.175781 280.5625 150.175781 281.925781 149.203125 283.3125 Z M 139.636719 293.042969 C 140.429688 293.167969 141.21875 293.296875 142.011719 293.421875 C 141.628906 293.949219 141.230469 294.460938 140.847656 294.988281 C 140.445312 294.339844 140.042969 293.691406 139.636719 293.042969 Z M 126.949219 313.476562 C 126.652344 313.859375 126.355469 314.234375 126.058594 314.613281 C 126.058594 314.171875 126.058594 313.726562 126.058594 313.289062 C 126.355469 313.351562 126.652344 313.414062 126.949219 313.476562 Z M 127.304688 293.261719 C 126.878906 293.25 126.46875 293.289062 126.066406 293.359375 C 126.066406 292.664062 126.070312 291.972656 126.070312 291.277344 C 126.480469 291.9375 126.894531 292.601562 127.304688 293.261719 Z M 126.0625 271.984375 C 128.6875 275.140625 131.3125 278.296875 133.9375 281.449219 C 132.746094 281.257812 131.550781 281.066406 130.355469 280.875 C 128.808594 280.625 127.300781 280.804688 126.074219 281.628906 C 126.070312 278.414062 126.066406 275.199219 126.0625 271.984375 Z M 126 216.132812 C 126.046875 216.164062 126.085938 216.199219 126.132812 216.226562 C 133.011719 220.367188 139.890625 224.503906 146.769531 228.640625 C 142.136719 227.597656 137.503906 226.550781 132.871094 225.507812 C 127.601562 224.320312 124.328125 230.445312 127.777344 234.367188 C 130.699219 237.6875 133.839844 240.804688 137.136719 243.746094 C 134.457031 243.105469 131.777344 242.460938 129.101562 241.820312 C 128 241.558594 126.957031 241.675781 126.03125 242.03125 C 126.023438 236.085938 126.019531 230.144531 126.011719 224.195312 C 126.007812 221.507812 126.003906 218.820312 126 216.132812 Z M 100.066406 170.027344 C 102.921875 170.050781 105.824219 168.035156 105.519531 164.785156 C 105.1875 161.210938 104.40625 157.78125 103.238281 154.503906 C 105.476562 155.074219 107.742188 155.558594 110.023438 155.96875 C 110.023438 157.21875 110.023438 158.464844 110.027344 159.710938 C 110.03125 163.777344 110.035156 167.84375 110.042969 171.910156 C 106.71875 171.28125 103.390625 170.65625 100.066406 170.027344 Z M 65.535156 161.792969 C 65.796875 161.589844 66.058594 161.390625 66.324219 161.1875 C 67.179688 160.535156 68.039062 159.882812 68.902344 159.234375 C 70.925781 157.714844 72.984375 156.238281 75.03125 154.75 C 75.0625 155.570312 75.28125 156.367188 75.769531 157.003906 C 76.050781 157.371094 76.332031 157.738281 76.613281 158.105469 C 76.363281 158.144531 76.117188 158.175781 75.871094 158.222656 C 73.066406 158.777344 71.46875 162.144531 72.195312 164.746094 C 72.195312 164.757812 72.203125 164.769531 72.207031 164.78125 C 69.386719 164.25 66.570312 163.71875 63.75 163.1875 C 64.195312 162.839844 64.640625 162.488281 65.085938 162.140625 C 65.167969 162.074219 65.382812 161.910156 65.535156 161.792969 Z M 109.996094 131.71875 C 110 136.257812 110.003906 140.792969 110.011719 145.332031 C 104.941406 144.335938 99.957031 142.855469 95.207031 140.910156 C 100.082031 137.757812 105.007812 134.6875 109.996094 131.71875 Z M 125.859375 98.394531 C 128.421875 99.230469 130.988281 100.070312 133.550781 100.90625 C 132.511719 101.421875 131.46875 101.9375 130.429688 102.460938 C 130.355469 102.457031 130.285156 102.449219 130.210938 102.449219 C 128.175781 102.363281 126.738281 103.347656 125.921875 104.734375 C 125.902344 104.746094 125.878906 104.761719 125.855469 104.769531 C 125.855469 102.644531 125.859375 100.519531 125.859375 98.394531 Z M 134.035156 65.515625 C 134.03125 65.511719 134.027344 65.511719 134.023438 65.507812 C 128.289062 62.453125 123.253906 70.519531 128.011719 74.175781 C 127.167969 74.515625 126.4375 75.066406 125.863281 75.753906 C 125.867188 70.539062 125.867188 65.324219 125.871094 60.109375 C 128.601562 61.898438 131.316406 63.707031 134.035156 65.515625 Z M 244.457031 101.726562 C 244.875 101.851562 245.292969 101.976562 245.707031 102.105469 C 245.632812 102.296875 245.5625 102.492188 245.488281 102.6875 C 245.144531 102.367188 244.800781 102.046875 244.457031 101.726562 Z M 170.03125 101.707031 C 170.4375 101.542969 170.835938 101.371094 171.242188 101.210938 C 173.664062 100.230469 176.109375 99.304688 178.550781 98.363281 C 178.34375 100.664062 179.441406 103.070312 182.289062 103.890625 C 185.902344 104.9375 189.515625 105.980469 193.128906 107.027344 C 194.894531 108.339844 196.652344 109.660156 198.414062 110.980469 C 188.953125 107.886719 179.492188 104.796875 170.03125 101.707031 Z M 230.699219 138.828125 C 230.191406 138.6875 229.683594 138.546875 229.175781 138.40625 C 229.96875 137.84375 230.5625 137.046875 230.9375 136.140625 C 231.171875 136.324219 231.40625 136.515625 231.640625 136.699219 C 231.328125 137.410156 231.011719 138.117188 230.699219 138.828125 Z M 304.113281 208.457031 C 305.542969 208.242188 306.84375 207.488281 307.691406 206.023438 C 308.273438 205.019531 308.453125 203.808594 308.304688 202.640625 C 311.277344 205.386719 314.238281 208.144531 317.183594 210.921875 C 312.828125 210.097656 308.46875 209.28125 304.113281 208.457031 Z M 169.289062 202.8125 C 178.265625 204.660156 187.242188 206.507812 196.21875 208.359375 C 195.074219 210.417969 193.945312 212.488281 192.785156 214.539062 C 184.953125 210.628906 177.121094 206.722656 169.289062 202.8125 Z M 128.070312 194.050781 C 139.851562 199.933594 151.632812 205.8125 163.414062 211.691406 C 152.320312 209.96875 141.226562 208.25 130.136719 206.527344 C 128.644531 206.296875 127.171875 206.515625 125.988281 207.222656 C 125.980469 202.066406 125.976562 196.910156 125.96875 191.753906 C 126.382812 192.714844 127.070312 193.550781 128.070312 194.050781 Z M 150.628906 175.203125 C 143.316406 174.296875 136 173.390625 128.6875 172.480469 C 127.746094 172.363281 126.808594 172.425781 125.941406 172.644531 C 125.9375 171.238281 125.9375 169.832031 125.9375 168.421875 C 134.167969 170.683594 142.398438 172.945312 150.628906 175.203125 Z M 129.167969 120.910156 C 129.484375 120.738281 129.804688 120.585938 130.117188 120.417969 C 130.734375 121.507812 131.742188 122.386719 133.164062 122.78125 C 146.976562 126.609375 160.789062 130.4375 174.601562 134.265625 C 160.964844 133.046875 147.332031 131.832031 133.699219 130.613281 C 131.109375 130.382812 128.808594 132.890625 128.554688 135.269531 C 128.277344 137.832031 129.8125 140.375 132.414062 141.027344 C 141.347656 143.273438 150.277344 145.515625 159.207031 147.761719 C 148.824219 146.65625 138.441406 145.550781 128.058594 144.445312 C 127.296875 144.363281 126.570312 144.550781 125.902344 144.886719 C 125.894531 137.496094 125.878906 130.105469 125.871094 122.714844 C 126.976562 122.117188 128.0625 121.496094 129.167969 120.910156 Z M 125.863281 83.445312 C 125.863281 83.207031 125.863281 82.976562 125.863281 82.738281 C 126.160156 83.035156 126.507812 83.308594 126.917969 83.542969 C 126.5625 83.515625 126.214844 83.46875 125.863281 83.445312 Z M 232.148438 188.824219 C 233.734375 190.585938 235.316406 192.347656 236.898438 194.109375 C 240.859375 198.519531 248.707031 192.644531 245.214844 187.699219 C 257.101562 191.386719 268.875 195.433594 280.5 199.878906 C 281.257812 200.464844 282.019531 201.050781 282.777344 201.632812 C 284.382812 202.871094 286.367188 203.441406 288.171875 202.894531 C 292.027344 204.429688 295.867188 206 299.6875 207.625 C 275.875 203.140625 252.0625 198.65625 228.253906 194.171875 C 227.269531 193.984375 226.289062 193.800781 225.304688 193.617188 C 226.128906 193.078125 226.78125 192.292969 227.175781 191.242188 C 229.21875 191.582031 231.078125 190.472656 232.148438 188.824219 Z M 204.472656 175.058594 C 206.605469 176.921875 208.785156 178.734375 211.015625 180.488281 C 210.96875 180.578125 210.921875 180.675781 210.875 180.769531 C 199.566406 177.664062 188.257812 174.558594 176.953125 171.453125 C 186.148438 172.453125 195.324219 173.660156 204.472656 175.058594 Z M 125.917969 154.558594 C 126.1875 154.683594 126.476562 154.785156 126.777344 154.859375 C 131.082031 155.878906 135.382812 156.894531 139.6875 157.914062 C 135.097656 157.683594 130.507812 157.488281 125.921875 157.351562 C 125.917969 156.417969 125.917969 155.488281 125.917969 154.558594 Z M 212.023438 150.117188 C 211.839844 150.070312 211.652344 150.023438 211.46875 149.976562 C 210.867188 149.308594 210.269531 148.640625 209.667969 147.972656 C 210.164062 148.015625 210.660156 148.058594 211.15625 148.105469 C 211.441406 148.777344 211.734375 149.449219 212.023438 150.117188 Z M 236.742188 170.019531 C 235.863281 169.816406 234.988281 169.605469 234.113281 169.398438 C 234.34375 168.902344 234.582031 168.40625 234.816406 167.910156 C 235.617188 168.675781 236.421875 169.4375 237.226562 170.195312 C 237.0625 170.136719 236.910156 170.0625 236.742188 170.019531 Z M 240.660156 175.207031 C 240.660156 174.421875 240.480469 173.652344 240.152344 172.941406 C 241.257812 173.964844 242.371094 174.980469 243.484375 175.992188 C 242.542969 175.730469 241.601562 175.46875 240.660156 175.207031 Z M 83 149.757812 C 82.8125 149.65625 82.613281 149.582031 82.417969 149.503906 C 83.898438 148.46875 85.378906 147.429688 86.875 146.414062 C 87.09375 147.328125 87.550781 148.210938 88.222656 149.003906 C 89.40625 150.390625 90.773438 152.449219 91.824219 154.421875 C 88.882812 152.867188 85.941406 151.3125 83 149.757812 Z M 98.074219 169.652344 C 97.738281 169.589844 97.402344 169.527344 97.0625 169.464844 C 97.070312 169.363281 97.058594 169.261719 97.058594 169.164062 C 97.230469 169.25 97.398438 169.339844 97.570312 169.429688 C 97.730469 169.515625 97.90625 169.585938 98.074219 169.652344 Z M 154.574219 220.976562 C 165.121094 222.613281 175.667969 224.25 186.21875 225.886719 C 184.175781 229.363281 182.097656 232.824219 180 236.273438 C 171.523438 231.171875 163.046875 226.074219 154.574219 220.976562 Z M 166.742188 251.0625 C 160.503906 247.964844 154.660156 244.273438 149.234375 240.042969 C 157.558594 241.917969 165.882812 243.796875 174.207031 245.671875 C 172.527344 248.355469 170.859375 251.042969 169.152344 253.703125 C 168.792969 252.652344 168.035156 251.703125 166.742188 251.0625 Z M 156.566406 267.511719 C 152.808594 263.867188 149.054688 260.226562 145.300781 256.585938 C 151.113281 257.976562 156.925781 259.371094 162.738281 260.761719 C 163.34375 260.90625 163.917969 260.921875 164.472656 260.863281 C 162.355469 264.082031 160.226562 267.292969 158.0625 270.484375 C 157.941406 269.433594 157.476562 268.394531 156.566406 267.511719 Z M 135.085938 261.429688 C 132.847656 260.875 130.605469 260.324219 128.363281 259.769531 C 127.527344 259.5625 126.753906 259.558594 126.050781 259.679688 C 126.046875 257.339844 126.046875 254.996094 126.042969 252.65625 C 129.058594 255.582031 132.070312 258.503906 135.085938 261.429688 Z M 216.394531 85.632812 C 229.132812 81.964844 242.03125 78.871094 255.039062 76.328125 C 253.214844 81.644531 251.347656 86.945312 249.417969 92.222656 C 249.269531 92.164062 249.140625 92.089844 248.980469 92.042969 C 241.171875 89.679688 233.363281 87.3125 225.554688 84.949219 C 220.5625 83.4375 216.65625 90.257812 220.460938 93.8125 C 221.457031 94.738281 222.449219 95.664062 223.445312 96.59375 C 219.769531 95.703125 216.09375 94.8125 212.417969 93.921875 C 209.4375 93.199219 207.15625 94.890625 206.289062 97.148438 C 203.65625 95.179688 201.019531 93.214844 198.375 91.261719 C 204.34375 89.273438 210.34375 87.371094 216.394531 85.632812 Z M 264.671875 58.527344 C 236.761719 63.089844 209.300781 70.257812 182.714844 79.882812 C 179.945312 77.898438 177.179688 75.914062 174.398438 73.953125 C 157.171875 61.789062 139.671875 50.019531 121.917969 38.640625 C 116.699219 35.296875 110 39.789062 109.988281 45.605469 C 109.972656 58.234375 109.976562 70.867188 109.972656 83.492188 C 106.109375 85.152344 105.9375 91.085938 109.96875 93.117188 C 109.972656 99.878906 109.972656 106.640625 109.976562 113.398438 C 101.398438 118.265625 92.949219 123.371094 84.695312 128.789062 C 69.113281 139.015625 54.15625 150.203125 39.886719 162.195312 C 35.394531 165.972656 37.808594 174.425781 43.484375 175.492188 C 65.679688 179.671875 87.871094 183.851562 110.066406 188.03125 C 110.113281 216.945312 110.164062 245.859375 110.183594 274.769531 C 110.199219 294.84375 110.191406 314.914062 110.164062 334.988281 C 108.878906 337.929688 109.011719 341.429688 111.617188 343.816406 C 112.503906 344.632812 113.640625 345.238281 114.855469 345.632812 C 115.890625 346.128906 117.027344 346.40625 118.203125 346.339844 C 121.910156 346.132812 124.976562 343.660156 125.808594 340.175781 C 150.988281 309.375 174.0625 276.859375 194.644531 242.8125 C 201.613281 231.289062 208.269531 219.578125 214.667969 207.734375 C 234.757812 211.515625 254.839844 215.296875 274.929688 219.082031 C 296.597656 223.164062 318.269531 227.242188 339.941406 231.324219 C 343.269531 231.953125 347.144531 230.855469 348.828125 227.632812 C 350.445312 224.527344 350.167969 220.5625 347.578125 218.03125 C 320.832031 191.914062 293.0625 166.855469 264.328125 142.945312 C 259.855469 139.222656 255.351562 135.539062 250.835938 131.871094 C 259.535156 110.957031 267.472656 89.738281 274.488281 68.191406 C 275.339844 65.574219 274.3125 62.453125 272.425781 60.5625 C 270.25 58.382812 267.558594 58.054688 264.671875 58.527344 " fill-opacity="1" fill-rule="nonzero"/></g></svg>