<svg xmlns="http://www.w3.org/2000/svg" xmlns:xlink="http://www.w3.org/1999/xlink" width="500" zoomAndPan="magnify" viewBox="0 0 375 374.999991" height="500" preserveAspectRatio="xMidYMid meet" version="1.0"><defs><clipPath id="c81f27e446"><path d="M 204.320312 257 L 219 257 L 219 330.078125 L 204.320312 330.078125 Z M 204.320312 257 " clip-rule="nonzero"/></clipPath><clipPath id="ca05d40f9b"><path d="M 48.117188 197 L 116 197 L 116 231 L 48.117188 231 Z M 48.117188 197 " clip-rule="nonzero"/></clipPath><clipPath id="05e43366c2"><path d="M 280.660156 154 L 353.367188 154 L 353.367188 165.78125 L 280.660156 165.78125 Z M 280.660156 154 " clip-rule="nonzero"/></clipPath></defs><path fill="#fcdd44" d="M 242.964844 137.597656 C 242.960938 137.59375 242.960938 137.59375 242.957031 137.589844 C 242.890625 137.542969 242.828125 137.492188 242.765625 137.445312 C 242.726562 137.417969 242.757812 137.441406 242.964844 137.597656 " fill-opacity="1" fill-rule="nonzero"/><path fill="#fcdd44" d="M 215.855469 167.269531 C 215.785156 167.289062 215.710938 167.308594 215.636719 167.324219 C 215.6875 167.3125 215.765625 167.296875 215.871094 167.265625 C 215.867188 167.265625 215.863281 167.265625 215.855469 167.269531 " fill-opacity="1" fill-rule="nonzero"/><path fill="#fcdd44" d="M 248.117188 218.929688 C 247.136719 219.917969 246.125 220.875 245.074219 221.792969 C 244.578125 222.230469 244.074219 222.660156 243.558594 223.078125 C 243.304688 223.289062 243.042969 223.5 242.789062 223.703125 C 242.695312 223.773438 242.605469 223.847656 242.515625 223.917969 C 242.464844 223.957031 242.273438 224.101562 242.207031 224.152344 C 239.925781 225.882812 237.523438 227.449219 235.03125 228.863281 C 233.804688 229.558594 232.558594 230.214844 231.292969 230.832031 C 230.660156 231.144531 230.019531 231.445312 229.378906 231.738281 C 229.070312 231.878906 228.761719 232.015625 228.453125 232.148438 C 228.300781 232.21875 228.144531 232.285156 227.988281 232.351562 C 227.953125 232.367188 227.925781 232.378906 227.90625 232.386719 C 227.871094 232.402344 227.828125 232.421875 227.765625 232.445312 C 225.097656 233.554688 222.367188 234.507812 219.59375 235.316406 C 216.765625 236.140625 213.890625 236.8125 210.992188 237.339844 C 210.316406 237.464844 209.636719 237.578125 208.957031 237.6875 C 208.613281 237.738281 208.277344 237.789062 207.933594 237.839844 C 207.730469 237.871094 207.523438 237.898438 207.320312 237.929688 C 207.296875 237.933594 207.28125 237.933594 207.261719 237.9375 C 207.238281 237.941406 207.21875 237.941406 207.1875 237.945312 C 205.753906 238.125 204.3125 238.28125 202.871094 238.398438 C 199.015625 238.710938 195.140625 238.777344 191.273438 238.601562 C 192.082031 238.476562 192.890625 238.335938 193.691406 238.167969 C 199.863281 237.769531 205.980469 236.429688 211.757812 234.234375 C 218.773438 231.570312 225.289062 227.761719 230.972656 222.941406 C 239.875 219.4375 247.734375 213.648438 253.53125 205.910156 C 258.726562 198.976562 262.070312 190.679688 263.492188 182.101562 C 263.445312 183.507812 263.359375 184.914062 263.21875 186.3125 C 263.175781 186.742188 263.128906 187.171875 263.074219 187.597656 C 263.058594 187.730469 263.042969 187.867188 263.023438 188 C 263.011719 188.078125 262.992188 188.246094 262.980469 188.3125 C 262.851562 189.203125 262.707031 190.09375 262.535156 190.976562 C 262.234375 192.589844 261.863281 194.195312 261.425781 195.777344 C 260.992188 197.359375 260.488281 198.921875 259.921875 200.464844 C 259.789062 200.832031 259.648438 201.195312 259.503906 201.558594 C 259.417969 201.777344 259.332031 201.992188 259.246094 202.210938 C 259.25 202.199219 259.160156 202.410156 259.109375 202.542969 C 259.050781 202.671875 258.953125 202.90625 258.957031 202.890625 C 258.882812 203.070312 258.800781 203.246094 258.71875 203.425781 C 258.527344 203.855469 258.332031 204.277344 258.128906 204.703125 C 256.78125 207.511719 255.1875 210.199219 253.378906 212.734375 C 253.183594 213.007812 252.984375 213.277344 252.78125 213.546875 C 252.71875 213.636719 252.457031 213.972656 252.367188 214.09375 C 251.921875 214.660156 251.472656 215.21875 251.007812 215.769531 C 250.082031 216.859375 249.121094 217.914062 248.117188 218.929688 Z M 183.402344 232.769531 C 183.242188 232.75 183.085938 232.730469 182.925781 232.710938 C 182.613281 232.664062 182.300781 232.617188 181.988281 232.570312 C 181.289062 232.460938 180.59375 232.332031 179.898438 232.191406 C 178.527344 231.917969 177.167969 231.585938 175.820312 231.199219 C 174.441406 230.800781 173.078125 230.347656 171.734375 229.839844 C 171.425781 229.722656 171.113281 229.601562 170.804688 229.476562 C 170.726562 229.445312 170.320312 229.28125 170.167969 229.21875 C 169.546875 228.949219 168.929688 228.675781 168.316406 228.386719 C 165.738281 227.167969 163.253906 225.753906 160.886719 224.164062 C 160.332031 223.792969 159.789062 223.414062 159.25 223.027344 C 158.980469 222.828125 158.714844 222.632812 158.449219 222.4375 C 158.289062 222.316406 158.132812 222.195312 157.972656 222.078125 C 157.945312 222.058594 157.9375 222.050781 157.917969 222.039062 C 157.902344 222.023438 157.890625 222.015625 157.863281 221.992188 C 157.648438 221.824219 157.4375 221.644531 157.222656 221.46875 C 156.980469 221.183594 156.734375 220.898438 156.496094 220.605469 C 156.417969 220.507812 156.339844 220.40625 156.261719 220.304688 C 156.675781 220.824219 156.269531 220.316406 156.199219 220.222656 C 155.96875 219.914062 155.738281 219.605469 155.515625 219.292969 C 154.730469 218.195312 153.996094 217.058594 153.3125 215.894531 C 152.605469 214.691406 151.953125 213.460938 151.351562 212.199219 C 151.082031 211.636719 150.828125 211.066406 150.578125 210.492188 C 150.53125 210.371094 150.359375 209.972656 150.316406 209.859375 C 150.167969 209.492188 150.027344 209.128906 149.886719 208.761719 C 148.914062 206.167969 148.140625 203.496094 147.570312 200.789062 C 147.425781 200.105469 147.296875 199.425781 147.175781 198.738281 C 147.117188 198.378906 147.058594 198.019531 147.003906 197.660156 C 146.980469 197.527344 146.960938 197.398438 146.945312 197.265625 C 146.929688 197.167969 146.917969 197.066406 146.902344 196.964844 C 146.734375 195.585938 146.597656 194.203125 146.523438 192.8125 C 146.5 192.367188 146.492188 191.921875 146.476562 191.476562 C 147.59375 192.847656 148.730469 194.199219 149.894531 195.53125 C 151.609375 201.070312 154.472656 206.167969 158.402344 210.464844 C 162.273438 214.703125 167.117188 218.109375 172.339844 220.480469 C 175.738281 222.023438 179.320312 223.1875 182.984375 223.949219 C 185.203125 225.355469 187.449219 226.71875 189.738281 228.011719 C 190.867188 228.648438 192.285156 228.363281 193.074219 227.347656 C 193.511719 226.777344 193.65625 226.152344 193.582031 225.539062 C 195.273438 225.910156 196.988281 226.191406 198.710938 226.367188 C 200.0625 226.5 201.421875 226.5625 202.78125 226.570312 C 204.527344 226.761719 206.285156 226.867188 208.042969 226.90625 C 207.773438 227.070312 207.511719 227.246094 207.238281 227.410156 C 205.816406 228.261719 204.34375 229.042969 202.84375 229.753906 C 202.480469 229.921875 202.121094 230.085938 201.761719 230.246094 C 201.585938 230.320312 201.417969 230.394531 201.246094 230.46875 C 201.171875 230.5 201.011719 230.566406 200.949219 230.589844 C 200.144531 230.917969 199.324219 231.226562 198.5 231.511719 C 196.886719 232.070312 195.246094 232.542969 193.585938 232.929688 C 193.398438 232.972656 193.207031 233.003906 193.019531 233.042969 C 192.570312 233.070312 192.117188 233.097656 191.667969 233.113281 C 188.910156 233.207031 186.144531 233.09375 183.402344 232.769531 Z M 154.804688 227.992188 C 154.1875 227.589844 153.578125 227.175781 152.976562 226.75 C 152.675781 226.535156 152.378906 226.320312 152.085938 226.101562 C 151.9375 225.992188 151.796875 225.882812 151.652344 225.773438 C 151.5625 225.707031 151.472656 225.632812 151.382812 225.5625 C 148.933594 223.617188 146.675781 221.425781 144.683594 219.011719 C 144.566406 218.867188 144.449219 218.726562 144.332031 218.578125 C 144.308594 218.546875 144.164062 218.359375 144.09375 218.273438 C 143.898438 218.019531 143.707031 217.761719 143.519531 217.503906 C 143.039062 216.84375 142.578125 216.167969 142.140625 215.480469 C 141.308594 214.171875 140.546875 212.820312 139.859375 211.433594 C 139.535156 210.773438 139.230469 210.101562 138.933594 209.429688 C 138.917969 209.390625 138.902344 209.359375 138.890625 209.332031 C 138.878906 209.304688 138.867188 209.273438 138.851562 209.234375 C 138.785156 209.0625 138.710938 208.894531 138.644531 208.722656 C 138.480469 208.3125 138.324219 207.898438 138.175781 207.480469 C 138.101562 207.277344 138.039062 207.066406 137.964844 206.859375 C 140.394531 211.007812 143.25 214.902344 146.472656 218.449219 C 148.675781 220.875 151.082031 223.136719 153.640625 225.207031 C 155.238281 227.082031 156.980469 228.816406 158.878906 230.382812 C 157.488281 229.640625 156.125 228.847656 154.804688 227.992188 Z M 138.742188 196.964844 C 138.820312 197.148438 138.789062 197.074219 138.742188 196.964844 Z M 136.769531 191.605469 C 136.222656 189.875 135.753906 188.121094 135.355469 186.351562 C 135.390625 185.730469 135.429688 185.105469 135.488281 184.488281 C 135.558594 183.734375 135.640625 182.984375 135.734375 182.238281 C 135.742188 182.195312 135.746094 182.160156 135.75 182.132812 C 135.753906 182.101562 135.757812 182.066406 135.765625 182.027344 C 135.789062 181.875 135.808594 181.726562 135.832031 181.578125 C 135.894531 181.132812 135.96875 180.683594 136.046875 180.234375 C 136.316406 178.640625 136.648438 177.050781 137.039062 175.476562 C 137.835938 172.285156 138.878906 169.160156 140.113281 166.109375 C 140.203125 165.882812 140.300781 165.65625 140.390625 165.429688 C 140.398438 165.414062 140.417969 165.371094 140.433594 165.328125 C 140.589844 164.96875 140.746094 164.609375 140.902344 164.25 C 141.285156 163.394531 141.679688 162.546875 142.089844 161.703125 C 142.132812 161.621094 142.175781 161.535156 142.214844 161.449219 C 143.386719 163.332031 144.5625 165.210938 145.75 167.082031 C 145.128906 168.65625 144.558594 170.25 144.058594 171.863281 C 140.609375 182.964844 140.339844 194.980469 143.582031 206.152344 C 142.171875 203.910156 140.882812 201.589844 139.75 199.195312 C 139.460938 198.589844 139.183594 197.980469 138.917969 197.367188 C 138.855469 197.226562 138.792969 197.085938 138.734375 196.945312 C 138.707031 196.886719 138.683594 196.824219 138.664062 196.785156 C 138.511719 196.414062 138.359375 196.042969 138.214844 195.667969 C 137.6875 194.332031 137.207031 192.976562 136.769531 191.605469 Z M 147.976562 185.113281 C 147.925781 185.050781 147.878906 184.988281 147.835938 184.929688 C 147.488281 184.480469 147.152344 184.027344 146.808594 183.574219 C 146.804688 183.566406 146.800781 183.5625 146.796875 183.554688 C 146.804688 183.484375 146.8125 183.414062 146.820312 183.34375 C 146.835938 183.214844 146.851562 183.085938 146.867188 182.953125 C 146.871094 182.933594 146.871094 182.917969 146.875 182.898438 C 146.875 182.886719 146.875 182.878906 146.878906 182.867188 C 146.992188 182.09375 147.113281 181.328125 147.25 180.5625 C 147.4375 179.53125 147.660156 178.503906 147.898438 177.484375 C 147.769531 180.027344 147.785156 182.578125 147.976562 185.113281 Z M 157.203125 195.929688 C 156.523438 195.203125 155.847656 194.46875 155.179688 193.730469 C 154.964844 193.492188 154.757812 193.246094 154.542969 193.003906 C 154.476562 192.761719 154.410156 192.523438 154.34375 192.269531 C 153.414062 188.65625 153.09375 186.058594 152.988281 182.3125 C 152.949219 180.960938 152.960938 179.613281 153.015625 178.265625 C 153.558594 179.089844 154.109375 179.90625 154.65625 180.726562 C 154.605469 185.734375 155.351562 190.746094 157.058594 195.53125 C 157.105469 195.664062 157.15625 195.796875 157.203125 195.929688 Z M 134.464844 166.273438 C 134.511719 165.9375 134.566406 165.601562 134.621094 165.269531 C 134.746094 164.53125 134.882812 163.800781 135.035156 163.070312 C 135.328125 161.679688 135.667969 160.300781 136.058594 158.9375 C 136.457031 157.546875 136.90625 156.167969 137.40625 154.804688 C 137.648438 154.140625 137.902344 153.480469 138.171875 152.824219 C 138.222656 152.699219 138.273438 152.578125 138.324219 152.453125 C 138.335938 152.429688 138.339844 152.414062 138.347656 152.394531 C 138.355469 152.371094 138.363281 152.351562 138.378906 152.324219 C 138.539062 151.953125 138.703125 151.585938 138.867188 151.214844 C 140.039062 148.636719 141.382812 146.136719 142.882812 143.738281 C 143.671875 142.476562 144.5 141.242188 145.371094 140.039062 C 145.738281 139.53125 146.113281 139.03125 146.492188 138.535156 C 146.574219 138.433594 146.867188 138.058594 146.933594 137.976562 C 147.183594 137.65625 147.441406 137.34375 147.699219 137.03125 C 149.539062 134.8125 151.515625 132.707031 153.617188 130.734375 C 154.679688 129.730469 155.773438 128.765625 156.898438 127.835938 C 157.417969 127.402344 157.953125 126.976562 158.484375 126.554688 C 158.507812 126.539062 158.523438 126.527344 158.539062 126.511719 C 158.558594 126.5 158.578125 126.484375 158.605469 126.464844 C 158.714844 126.382812 158.820312 126.296875 158.929688 126.21875 C 159.257812 125.972656 159.585938 125.730469 159.914062 125.488281 C 162.273438 123.773438 164.742188 122.207031 167.304688 120.800781 C 168.550781 120.113281 169.820312 119.46875 171.109375 118.859375 C 171.722656 118.574219 172.339844 118.292969 172.964844 118.023438 C 173.046875 117.988281 173.519531 117.789062 173.273438 117.890625 C 173.339844 117.863281 173.402344 117.835938 173.46875 117.808594 C 173.84375 117.65625 174.222656 117.503906 174.597656 117.355469 C 177.3125 116.296875 180.09375 115.417969 182.925781 114.734375 C 184.308594 114.402344 185.699219 114.117188 187.101562 113.878906 C 187.4375 113.824219 187.769531 113.769531 188.105469 113.71875 C 188.308594 113.6875 188.507812 113.660156 188.710938 113.632812 C 188.71875 113.628906 188.726562 113.628906 188.738281 113.625 C 189.476562 113.539062 190.214844 113.449219 190.953125 113.382812 C 193.898438 113.113281 196.863281 113.0625 199.816406 113.21875 C 201.3125 113.296875 202.800781 113.429688 204.285156 113.613281 C 204.382812 113.625 204.476562 113.636719 204.570312 113.648438 C 204.644531 113.660156 204.773438 113.675781 204.839844 113.6875 C 205.21875 113.742188 205.597656 113.800781 205.976562 113.859375 C 206.730469 113.980469 207.484375 114.117188 208.234375 114.265625 C 211.105469 114.828125 213.9375 115.582031 216.710938 116.507812 C 218.164062 116.996094 219.601562 117.527344 221.023438 118.109375 C 221.152344 118.160156 221.28125 118.214844 221.410156 118.269531 C 221.441406 118.28125 221.464844 118.289062 221.488281 118.300781 C 221.511719 118.308594 221.53125 118.320312 221.5625 118.332031 C 221.882812 118.472656 222.203125 118.609375 222.523438 118.753906 C 223.226562 119.066406 223.921875 119.390625 224.613281 119.722656 C 227.289062 121.023438 229.882812 122.480469 232.382812 124.09375 C 233.648438 124.910156 234.886719 125.761719 236.101562 126.652344 C 236.382812 126.859375 236.664062 127.070312 236.941406 127.28125 C 237.085938 127.386719 237.222656 127.492188 237.363281 127.601562 C 237.382812 127.617188 237.390625 127.625 237.417969 127.648438 C 238.023438 128.125 238.625 128.605469 239.214844 129.097656 C 239.222656 129.101562 239.226562 129.109375 239.230469 129.113281 C 235.355469 127.070312 231.207031 125.542969 226.933594 124.523438 C 224.089844 122.484375 220.972656 120.832031 217.660156 119.636719 C 213.535156 118.144531 209.191406 117.472656 204.832031 117.449219 C 201.445312 116.703125 197.964844 116.425781 194.476562 116.722656 C 188.296875 117.242188 182.347656 119.246094 177.0625 122.492188 C 166.25 129.136719 158.621094 140.015625 153.785156 151.558594 C 153.5 152.246094 153.222656 152.9375 152.957031 153.632812 C 151.566406 155.632812 150.292969 157.707031 149.132812 159.847656 C 147.785156 158.585938 146.4375 157.320312 145.089844 156.054688 C 146.484375 153.625 147.976562 151.25 149.558594 148.941406 C 150.460938 147.617188 151.386719 146.320312 152.339844 145.035156 C 152.804688 144.410156 153.273438 143.785156 153.75 143.167969 C 153.777344 143.125 153.804688 143.089844 153.828125 143.0625 C 153.839844 143.046875 153.851562 143.03125 153.871094 143.007812 C 153.996094 142.84375 154.121094 142.683594 154.25 142.519531 C 154.503906 142.195312 154.757812 141.875 155.011719 141.550781 C 159.0625 136.46875 163.425781 131.644531 167.910156 126.941406 C 168.84375 125.964844 168.953125 124.246094 167.910156 123.285156 C 166.894531 122.355469 165.25 122.238281 164.25 123.285156 C 154.125 133.894531 144.425781 145.3125 137.890625 158.542969 C 136.597656 161.160156 135.4375 163.839844 134.421875 166.570312 C 134.4375 166.472656 134.449219 166.375 134.464844 166.273438 Z M 250.253906 168.273438 C 250.351562 169.136719 250.410156 170.003906 250.4375 170.867188 C 249.777344 166.976562 248.710938 163.152344 247.246094 159.496094 C 247.441406 159.820312 247.632812 160.144531 247.8125 160.476562 C 248.003906 160.824219 248.183594 161.175781 248.351562 161.535156 C 248.414062 161.660156 248.472656 161.792969 248.535156 161.921875 C 248.554688 161.964844 248.640625 162.167969 248.683594 162.269531 C 248.949219 162.945312 249.195312 163.625 249.402344 164.320312 C 249.605469 165.003906 249.785156 165.699219 249.933594 166.402344 C 250.007812 166.753906 250.070312 167.105469 250.132812 167.460938 C 250.167969 167.675781 250.199219 167.890625 250.234375 168.101562 C 250.125 167.46875 250.242188 168.1875 250.253906 168.273438 Z M 175.375 198.355469 C 179.335938 201.636719 183.921875 203.867188 188.90625 204.777344 C 189.308594 204.988281 189.714844 205.1875 190.125 205.375 C 191.679688 206.828125 193.230469 208.285156 194.785156 209.742188 C 193.859375 210.003906 192.929688 210.238281 191.988281 210.429688 C 191.285156 210.578125 190.578125 210.699219 189.867188 210.804688 C 189.757812 210.820312 189.503906 210.855469 189.464844 210.859375 C 189.3125 210.878906 189.15625 210.894531 189.003906 210.910156 C 188.542969 210.960938 188.082031 211 187.621094 211.027344 C 185.980469 211.132812 184.335938 211.117188 182.695312 210.972656 C 182.6875 210.96875 182.675781 210.96875 182.664062 210.96875 C 179.539062 206.882812 176.449219 202.746094 173.316406 198.4375 C 171.742188 196.277344 170.183594 194.101562 168.636719 191.917969 C 168.578125 191.398438 168.53125 190.875 168.488281 190.355469 C 170.34375 193.367188 172.652344 196.097656 175.375 198.355469 Z M 162.40625 154.148438 C 162.574219 153.664062 162.738281 153.179688 162.917969 152.699219 C 163.140625 152.109375 163.375 151.523438 163.609375 150.941406 C 163.617188 150.925781 163.621094 150.914062 163.625 150.898438 C 163.679688 150.773438 163.734375 150.644531 163.789062 150.519531 C 163.941406 150.171875 164.097656 149.828125 164.253906 149.484375 C 164.621094 148.691406 165.015625 147.90625 165.421875 147.132812 C 165.671875 146.898438 165.917969 146.660156 166.175781 146.433594 C 166.722656 145.9375 167.285156 145.457031 167.851562 144.984375 C 168.121094 144.761719 168.394531 144.539062 168.671875 144.320312 C 168.808594 144.210938 168.945312 144.101562 169.082031 143.992188 C 169.160156 143.9375 169.234375 143.878906 169.3125 143.816406 C 170.492188 142.929688 171.703125 142.085938 172.949219 141.292969 C 173.019531 141.246094 173.097656 141.203125 173.175781 141.15625 C 168.945312 144.894531 165.304688 149.320312 162.40625 154.148438 Z M 179.882812 169.921875 C 179.054688 171.460938 178.363281 173.078125 177.835938 174.773438 C 176.75 178.261719 176.378906 182.039062 176.738281 185.730469 C 174.242188 183.394531 171.742188 181.050781 169.246094 178.710938 C 169.144531 178.246094 169.042969 177.78125 168.960938 177.3125 C 169.089844 176.460938 169.226562 175.609375 169.382812 174.761719 C 169.675781 173.136719 170.023438 171.519531 170.414062 169.910156 C 171.207031 166.644531 172.167969 163.417969 173.3125 160.257812 C 173.410156 159.992188 173.511719 159.734375 173.609375 159.472656 C 175.703125 162.957031 177.792969 166.4375 179.882812 169.921875 Z M 191.257812 129.011719 C 188.296875 129.453125 185.371094 130.125 182.542969 131.050781 C 180.15625 131.832031 177.847656 132.785156 175.613281 133.890625 C 175.652344 133.851562 175.691406 133.8125 175.730469 133.777344 C 176.25 133.316406 176.78125 132.863281 177.320312 132.421875 C 177.4375 132.328125 177.550781 132.234375 177.667969 132.144531 C 177.699219 132.121094 177.871094 131.984375 177.964844 131.910156 C 178.277344 131.671875 178.59375 131.4375 178.910156 131.203125 C 180.175781 130.289062 181.484375 129.441406 182.828125 128.652344 C 184.210938 127.84375 185.632812 127.105469 187.085938 126.441406 C 187.425781 126.285156 187.765625 126.136719 188.105469 125.988281 C 188.117188 125.984375 188.125 125.980469 188.136719 125.972656 C 188.160156 125.964844 188.179688 125.957031 188.207031 125.945312 C 188.414062 125.863281 188.621094 125.777344 188.828125 125.695312 C 189.585938 125.394531 190.355469 125.113281 191.132812 124.855469 C 192.605469 124.355469 194.101562 123.933594 195.621094 123.585938 C 196.339844 123.421875 197.0625 123.277344 197.789062 123.148438 C 198.152344 123.085938 198.515625 123.023438 198.878906 122.96875 C 198.933594 122.960938 199.222656 122.921875 199.300781 122.910156 C 199.441406 122.894531 199.582031 122.875 199.722656 122.859375 C 201.242188 122.683594 202.757812 122.601562 204.28125 122.601562 C 204.816406 122.730469 205.355469 122.867188 205.882812 123.019531 C 206.4375 123.179688 206.988281 123.359375 207.53125 123.546875 C 201.816406 124.355469 196.25 126.160156 191.257812 129.011719 Z M 229.421875 133.707031 C 229.652344 133.964844 229.890625 134.214844 230.113281 134.476562 C 230.324219 134.71875 230.527344 134.96875 230.730469 135.21875 C 230.796875 135.296875 231.046875 135.617188 231.144531 135.742188 C 231.535156 136.261719 231.925781 136.789062 232.296875 137.328125 C 233.066406 138.449219 233.789062 139.609375 234.453125 140.796875 C 234.570312 141 234.671875 141.207031 234.78125 141.414062 C 234.304688 140.984375 233.816406 140.566406 233.324219 140.15625 C 232.222656 137.902344 230.914062 135.738281 229.421875 133.707031 Z M 231.871094 152.871094 C 231.863281 152.804688 231.859375 152.777344 231.871094 152.871094 Z M 207.511719 175.925781 C 207.640625 175.371094 207.804688 174.824219 207.996094 174.289062 C 208.035156 174.171875 208.082031 174.058594 208.125 173.941406 C 208.121094 173.949219 208.117188 173.953125 208.109375 173.964844 C 208.117188 173.953125 208.125 173.941406 208.128906 173.933594 C 208.128906 173.929688 208.132812 173.925781 208.132812 173.921875 C 208.164062 173.839844 208.207031 173.769531 208.242188 173.726562 C 208.316406 173.566406 208.371094 173.394531 208.441406 173.253906 C 208.65625 172.820312 208.898438 172.402344 209.152344 171.992188 C 209.800781 172.332031 210.445312 172.679688 211.09375 173.019531 C 209.867188 174.160156 208.636719 175.296875 207.410156 176.433594 C 207.445312 176.265625 207.472656 176.09375 207.511719 175.925781 Z M 211.9375 168.90625 C 211.707031 169.132812 211.691406 169.113281 211.757812 169.042969 C 211.800781 169.011719 211.839844 168.976562 211.882812 168.941406 C 211.902344 168.929688 211.921875 168.917969 211.9375 168.90625 Z M 204.160156 169.335938 C 203.363281 170.648438 202.632812 172 201.945312 173.375 C 201.316406 172.75 200.679688 172.136719 200.039062 171.527344 C 200.394531 170.902344 200.792969 170.3125 201.210938 169.734375 C 201.191406 169.777344 201.597656 169.257812 201.683594 169.15625 C 201.914062 168.898438 202.15625 168.648438 202.402344 168.402344 C 202.988281 168.710938 203.574219 169.023438 204.160156 169.335938 Z M 193.285156 165.375 C 192.726562 164.886719 192.15625 164.40625 191.589844 163.925781 C 191.65625 163.871094 191.722656 163.8125 191.792969 163.757812 C 191.65625 163.867188 191.855469 163.699219 191.925781 163.648438 C 191.929688 163.648438 191.929688 163.644531 191.933594 163.644531 C 191.9375 163.640625 191.9375 163.640625 191.941406 163.636719 C 191.9375 163.640625 191.9375 163.640625 191.933594 163.644531 C 192.101562 163.515625 192.273438 163.390625 192.441406 163.265625 C 193.078125 162.800781 193.730469 162.359375 194.394531 161.9375 C 194.515625 161.863281 194.640625 161.796875 194.761719 161.722656 C 194.179688 162.902344 193.6875 164.121094 193.285156 165.375 Z M 186.667969 168.882812 C 186.753906 168.769531 186.839844 168.660156 186.929688 168.546875 C 187.199219 168.21875 187.472656 167.894531 187.753906 167.578125 C 187.78125 167.546875 187.808594 167.519531 187.835938 167.488281 C 189.289062 168.710938 190.71875 169.957031 192.132812 171.222656 C 191.890625 174.042969 192.054688 176.914062 192.675781 179.679688 C 192.664062 180.183594 192.667969 180.6875 192.6875 181.195312 C 190.433594 177.4375 188.175781 173.679688 185.921875 169.925781 C 186.128906 169.621094 186.339844 169.324219 186.554688 169.03125 C 186.605469 168.960938 187.046875 168.40625 186.667969 168.882812 Z M 181.289062 162.214844 C 181.496094 162.371094 181.699219 162.527344 181.902344 162.683594 C 181.949219 162.71875 182.117188 162.84375 182.179688 162.894531 C 182.351562 163.027344 182.519531 163.160156 182.6875 163.289062 C 183.082031 163.601562 183.46875 163.917969 183.863281 164.230469 C 183.589844 164.542969 183.324219 164.855469 183.066406 165.171875 C 182.476562 164.1875 181.882812 163.199219 181.289062 162.214844 Z M 183.472656 191.585938 C 183.457031 191.554688 183.445312 191.519531 183.433594 191.488281 C 183.378906 191.351562 183.324219 191.214844 183.40625 191.410156 C 183.355469 191.285156 183.304688 191.160156 183.257812 191.035156 C 183.128906 190.695312 183.007812 190.355469 182.898438 190.011719 C 182.464844 188.683594 182.058594 187.25 181.941406 185.855469 C 182 186.570312 181.910156 185.523438 181.894531 185.355469 C 181.863281 185.019531 181.839844 184.691406 181.820312 184.355469 C 181.78125 183.625 181.773438 182.890625 181.796875 182.15625 C 181.820312 181.488281 181.863281 180.820312 181.9375 180.15625 C 181.941406 180.128906 181.945312 180.078125 181.949219 180.019531 C 181.964844 179.863281 181.996094 179.707031 182.023438 179.550781 C 182.085938 179.15625 182.160156 178.761719 182.242188 178.371094 C 182.464844 177.324219 182.757812 176.300781 183.109375 175.296875 C 184.710938 177.960938 186.3125 180.625 187.914062 183.289062 C 190.082031 186.90625 192.253906 190.519531 194.425781 194.136719 C 194.199219 196.121094 194.191406 198.117188 194.492188 200.054688 C 194.296875 200.058594 194.105469 200.066406 193.914062 200.066406 C 193.253906 200.0625 192.59375 200.03125 191.9375 199.984375 C 191.316406 199.402344 190.695312 198.820312 190.078125 198.238281 C 188.007812 196.300781 185.933594 194.359375 183.867188 192.417969 C 183.734375 192.148438 183.605469 191.875 183.480469 191.601562 C 183.46875 191.570312 183.449219 191.53125 183.433594 191.488281 C 183.445312 191.519531 183.457031 191.546875 183.472656 191.585938 Z M 199.625 178.34375 C 199.226562 179.230469 198.839844 180.121094 198.457031 181.015625 C 198.238281 180.394531 198.039062 179.765625 197.867188 179.125 C 197.878906 178.929688 197.882812 178.734375 197.898438 178.539062 C 197.917969 178.316406 197.941406 178.097656 197.960938 177.875 C 197.964844 177.859375 197.964844 177.835938 197.96875 177.808594 C 198.015625 177.496094 198.074219 177.179688 198.132812 176.867188 C 198.628906 177.359375 199.128906 177.847656 199.625 178.34375 Z M 189.65625 158.925781 C 188.933594 159.460938 188.230469 160.019531 187.546875 160.601562 C 185.980469 159.351562 184.398438 158.113281 182.789062 156.90625 C 181.460938 155.914062 180.117188 154.941406 178.765625 153.984375 C 179.023438 153.792969 179.28125 153.601562 179.546875 153.417969 C 180.652344 152.644531 181.804688 151.9375 182.996094 151.308594 C 183.582031 150.996094 184.171875 150.707031 184.773438 150.433594 C 184.9375 150.359375 185.832031 149.917969 185.195312 150.242188 C 185.523438 150.078125 185.898438 149.957031 186.246094 149.828125 C 187.480469 149.367188 188.742188 148.976562 190.023438 148.671875 C 190.632812 148.523438 191.246094 148.394531 191.859375 148.28125 C 192.195312 148.226562 192.527344 148.183594 192.859375 148.121094 C 193.070312 148.097656 193.285156 148.074219 193.496094 148.050781 C 194.828125 147.917969 196.171875 147.871094 197.511719 147.917969 C 198.136719 147.941406 198.757812 147.984375 199.378906 148.046875 C 199.53125 148.0625 199.6875 148.082031 199.84375 148.097656 C 199.894531 148.105469 199.960938 148.105469 200.015625 148.105469 C 200.3125 148.132812 200.636719 148.226562 200.914062 148.273438 C 202.207031 148.515625 203.484375 148.855469 204.726562 149.289062 C 205.058594 149.40625 205.390625 149.527344 205.714844 149.65625 C 205.757812 149.671875 205.800781 149.691406 205.84375 149.707031 C 204.324219 150.671875 202.878906 151.746094 201.523438 152.9375 C 201.464844 152.988281 201.410156 153.042969 201.351562 153.09375 C 197.164062 154.382812 193.171875 156.332031 189.65625 158.925781 Z M 207.316406 176.992188 C 207.316406 176.984375 207.316406 176.980469 207.316406 176.972656 C 207.339844 176.757812 207.476562 176.386719 207.316406 176.992188 Z M 201.597656 162.402344 C 201.0625 162.363281 200.519531 162.476562 200.058594 162.738281 C 200.183594 162.53125 200.300781 162.320312 200.429688 162.113281 C 200.8125 161.5 201.226562 160.914062 201.648438 160.328125 C 201.667969 160.300781 201.675781 160.289062 201.691406 160.265625 C 201.695312 160.261719 201.695312 160.261719 201.703125 160.253906 C 201.8125 160.113281 201.925781 159.972656 202.039062 159.835938 C 202.3125 159.503906 202.59375 159.175781 202.882812 158.859375 C 203.242188 158.460938 203.617188 158.078125 204 157.703125 C 204.894531 157.453125 205.796875 157.234375 206.703125 157.054688 C 207.046875 156.984375 207.394531 156.917969 207.738281 156.863281 C 207.835938 156.847656 208.425781 156.761719 208.507812 156.746094 C 209.214844 156.660156 209.921875 156.589844 210.628906 156.546875 C 212.152344 156.453125 213.679688 156.464844 215.195312 156.59375 C 215.261719 156.597656 215.328125 156.605469 215.390625 156.613281 C 215.691406 156.949219 215.988281 157.296875 216.28125 157.640625 C 215.503906 157.984375 214.753906 158.378906 214.027344 158.820312 C 211.996094 158.699219 209.929688 158.910156 207.929688 159.445312 C 205.621094 160.066406 203.492188 161.078125 201.597656 162.402344 Z M 214.480469 205.03125 C 213.863281 205.46875 213.230469 205.878906 212.570312 206.242188 C 212.484375 206.289062 212.398438 206.328125 212.316406 206.375 C 215.1875 204.171875 217.878906 201.730469 220.417969 199.144531 C 220.199219 199.414062 219.976562 199.683594 219.75 199.949219 C 219.191406 200.609375 218.609375 201.253906 218.011719 201.878906 C 217.433594 202.472656 216.839844 203.054688 216.222656 203.605469 C 215.902344 203.894531 215.578125 204.175781 215.242188 204.449219 C 215.160156 204.515625 215.074219 204.585938 214.988281 204.652344 C 215.125 204.539062 214.546875 204.980469 214.480469 205.03125 Z M 221.652344 183.1875 C 221.550781 183.375 221.117188 183.566406 220.929688 183.683594 C 220.683594 183.84375 220.433594 183.992188 220.175781 184.132812 C 219.894531 184.292969 219.601562 184.429688 219.3125 184.570312 C 219.261719 184.59375 219.222656 184.625 219.1875 184.648438 C 219.054688 184.703125 218.898438 184.738281 218.789062 184.777344 C 218.210938 184.984375 217.617188 185.15625 217.011719 185.28125 C 216.890625 185.308594 216.210938 185.507812 216.148438 185.4375 C 216.164062 185.453125 216.726562 185.378906 216.316406 185.410156 C 216.085938 185.429688 215.855469 185.453125 215.621094 185.464844 C 215.042969 185.496094 214.464844 185.488281 213.890625 185.4375 C 213.832031 185.433594 213.773438 185.429688 213.71875 185.421875 C 213.699219 185.421875 213.695312 185.421875 213.679688 185.417969 C 213.636719 185.414062 213.59375 185.40625 213.550781 185.398438 C 213.214844 185.339844 212.878906 185.265625 212.546875 185.175781 C 212.300781 185.109375 212.054688 185.027344 211.8125 184.945312 C 211.824219 184.28125 211.578125 183.617188 211.085938 183.054688 C 210.609375 182.503906 210.113281 181.972656 209.625 181.429688 C 212.203125 179.042969 214.773438 176.660156 217.347656 174.277344 C 218.539062 173.171875 218.261719 170.976562 216.824219 170.214844 C 215.566406 169.546875 214.308594 168.875 213.050781 168.207031 C 213.148438 168.152344 213.242188 168.089844 213.34375 168.039062 C 213.421875 167.996094 213.789062 167.835938 213.882812 167.785156 C 214.050781 167.726562 214.265625 167.644531 214.332031 167.625 C 214.757812 167.488281 215.203125 167.425781 215.636719 167.324219 C 215.472656 167.351562 215.578125 167.289062 215.730469 167.277344 C 215.773438 167.273438 215.816406 167.273438 215.855469 167.269531 C 215.890625 167.257812 215.925781 167.25 215.960938 167.242188 C 215.925781 167.253906 215.898438 167.257812 215.871094 167.265625 C 215.980469 167.257812 216.085938 167.246094 216.195312 167.242188 C 216.457031 167.230469 216.71875 167.226562 216.980469 167.234375 C 217.242188 167.242188 217.507812 167.265625 217.769531 167.289062 C 217.929688 167.320312 218.09375 167.34375 218.253906 167.378906 C 218.78125 167.492188 219.300781 167.644531 219.808594 167.832031 C 219.800781 167.824219 219.792969 167.820312 219.785156 167.8125 C 219.796875 167.824219 219.816406 167.835938 219.839844 167.84375 C 219.828125 167.839844 219.820312 167.835938 219.808594 167.832031 C 220.0625 168.078125 220.128906 167.992188 219.921875 167.882812 C 219.980469 167.90625 220.042969 167.929688 220.078125 167.945312 C 220.367188 168.082031 220.652344 168.226562 220.929688 168.386719 C 221.183594 168.535156 221.433594 168.6875 221.679688 168.851562 C 221.789062 168.925781 221.898438 169 222.003906 169.078125 C 222.03125 169.140625 222.121094 169.222656 222.222656 169.304688 C 222.492188 170.292969 222.726562 171.292969 222.898438 172.304688 C 222.953125 172.613281 223.039062 172.9375 223.050781 173.25 C 223.019531 172.511719 223.078125 173.515625 223.097656 173.699219 C 223.171875 174.394531 223.222656 175.089844 223.25 175.789062 C 223.300781 177.121094 223.265625 178.457031 223.140625 179.78125 C 223.125 179.972656 223.105469 180.164062 223.085938 180.351562 C 223.082031 180.359375 223.078125 180.394531 223.074219 180.4375 C 223.0625 180.507812 223.03125 180.769531 223.027344 180.796875 C 223 180.953125 222.976562 181.109375 222.949219 181.265625 C 222.902344 181.546875 222.847656 181.824219 222.789062 182.105469 C 222.757812 182.140625 222.730469 182.175781 222.699219 182.207031 C 222.5 182.417969 222.292969 182.621094 222.074219 182.816406 C 221.945312 182.933594 221.8125 183.046875 221.679688 183.160156 C 221.613281 183.214844 221.542969 183.269531 221.476562 183.324219 C 221.324219 183.445312 221.386719 183.398438 221.652344 183.1875 Z M 229.625 156.957031 C 228.792969 156.246094 227.914062 155.589844 226.984375 155.015625 C 224.207031 153.300781 221.078125 152.242188 217.851562 151.71875 C 217.421875 151.296875 216.980469 150.886719 216.53125 150.484375 C 216.957031 150.359375 217.386719 150.238281 217.816406 150.128906 C 218.523438 149.945312 219.234375 149.789062 219.945312 149.648438 C 220.339844 149.574219 220.734375 149.503906 221.128906 149.441406 C 221.308594 149.410156 221.488281 149.386719 221.667969 149.359375 C 221.027344 149.457031 221.820312 149.34375 221.953125 149.328125 C 223.476562 149.152344 225.011719 149.074219 226.550781 149.105469 C 227.265625 149.117188 227.980469 149.152344 228.695312 149.207031 C 229.050781 149.238281 229.40625 149.273438 229.761719 149.3125 C 229.824219 149.320312 230.09375 149.355469 230.171875 149.367188 C 230.304688 149.382812 230.433594 149.402344 230.566406 149.421875 C 230.785156 149.457031 231.003906 149.5 231.222656 149.539062 C 231.496094 150.699219 231.714844 151.867188 231.894531 153.046875 C 231.917969 153.25 231.941406 153.457031 231.964844 153.660156 C 232 154.007812 232.035156 154.359375 232.0625 154.707031 C 232.128906 155.480469 232.167969 156.25 232.183594 157.023438 C 232.191406 157.335938 232.179688 157.644531 232.179688 157.953125 C 231.355469 157.554688 230.503906 157.222656 229.625 156.957031 Z M 229.214844 162.265625 C 229.21875 162.269531 229.226562 162.269531 229.230469 162.273438 C 229.292969 162.320312 229.375 162.363281 229.464844 162.402344 C 229.429688 162.40625 229.328125 162.367188 229.214844 162.265625 Z M 228.339844 163.015625 C 228.414062 163.113281 228.570312 163.34375 228.339844 163.015625 Z M 225.804688 161.375 C 225.859375 161.386719 225.914062 161.394531 225.972656 161.402344 C 225.976562 161.402344 225.980469 161.402344 225.984375 161.398438 C 225.980469 161.402344 225.976562 161.402344 225.972656 161.402344 C 226.082031 161.417969 226.191406 161.4375 226.304688 161.457031 C 226.558594 161.503906 226.816406 161.558594 227.070312 161.617188 C 227.234375 161.78125 227.398438 161.941406 227.558594 162.109375 C 227.824219 162.398438 228.074219 162.695312 228.324219 162.996094 C 228.328125 163 228.332031 163.007812 228.339844 163.015625 C 228.503906 163.246094 228.671875 163.472656 228.828125 163.707031 C 229.234375 164.3125 229.601562 164.945312 229.925781 165.59375 C 230.070312 165.875 230.203125 166.164062 230.332031 166.453125 C 230.359375 166.527344 230.398438 166.621094 230.417969 166.667969 C 230.511719 166.90625 230.597656 167.144531 230.683594 167.386719 C 230.761719 167.609375 230.824219 167.839844 230.894531 168.066406 C 230.648438 169.027344 230.363281 169.976562 230.054688 170.917969 C 229.539062 169.925781 228.933594 168.984375 228.25 168.109375 C 227.71875 167.078125 227.09375 166.089844 226.375 165.164062 C 225.90625 163.84375 225.363281 162.550781 224.742188 161.296875 C 224.816406 161.300781 224.894531 161.300781 224.96875 161.304688 C 225.140625 161.316406 225.585938 161.425781 225.835938 161.417969 C 225.6875 161.40625 225.539062 161.332031 225.804688 161.375 Z M 227.808594 142.445312 C 227.699219 142.367188 227.589844 142.273438 227.808594 142.445312 Z M 227.867188 142.496094 C 228.0625 142.648438 228.253906 142.804688 228.445312 142.957031 C 228.722656 143.183594 228.984375 143.421875 229.253906 143.65625 C 229.269531 143.691406 229.289062 143.726562 229.304688 143.761719 C 229.359375 143.882812 229.410156 144 229.460938 144.121094 C 223.375 143.527344 217.132812 144.460938 211.472656 146.796875 C 209.886719 145.863281 208.210938 145.066406 206.464844 144.429688 C 197.675781 141.226562 187.773438 142.703125 179.699219 147.242188 C 179.699219 147.238281 179.703125 147.238281 179.703125 147.234375 C 180.125 146.585938 180.558594 145.945312 181.003906 145.3125 C 181.230469 144.996094 181.457031 144.683594 181.6875 144.375 C 181.789062 144.238281 181.890625 144.101562 181.996094 143.96875 C 181.976562 143.992188 182.25 143.636719 182.269531 143.613281 C 183.984375 141.457031 185.890625 139.445312 187.96875 137.632812 C 188.253906 137.503906 188.539062 137.378906 188.824219 137.25 C 188.832031 137.246094 188.835938 137.246094 188.839844 137.242188 C 188.851562 137.238281 188.859375 137.234375 188.867188 137.230469 C 189.058594 137.15625 189.25 137.074219 189.441406 137 C 189.820312 136.847656 190.207031 136.703125 190.59375 136.5625 C 191.949219 136.070312 193.332031 135.644531 194.734375 135.292969 C 195.402344 135.125 196.078125 134.972656 196.753906 134.839844 C 197.074219 134.773438 197.394531 134.714844 197.71875 134.660156 C 198.011719 134.609375 198.601562 134.636719 198.863281 134.484375 C 198.898438 134.480469 198.933594 134.472656 198.96875 134.46875 C 199.097656 134.453125 199.230469 134.441406 199.359375 134.425781 C 199.71875 134.390625 200.074219 134.355469 200.429688 134.328125 C 201.148438 134.269531 201.867188 134.230469 202.585938 134.214844 C 203.992188 134.179688 205.398438 134.21875 206.796875 134.332031 C 207.441406 134.382812 208.121094 134.398438 208.75 134.53125 C 208.03125 134.382812 209.046875 134.578125 209.230469 134.605469 C 209.617188 134.667969 210.003906 134.730469 210.390625 134.804688 C 211.148438 134.941406 211.90625 135.109375 212.65625 135.289062 C 213.304688 135.460938 213.953125 135.644531 214.59375 135.84375 C 216.023438 136.289062 217.433594 136.792969 218.816406 137.363281 C 218.875 137.386719 218.996094 137.4375 219.0625 137.464844 C 219.160156 137.507812 219.253906 137.550781 219.351562 137.59375 C 219.699219 137.746094 220.050781 137.902344 220.394531 138.066406 C 221.085938 138.386719 221.769531 138.730469 222.445312 139.085938 C 223.632812 139.710938 224.792969 140.390625 225.921875 141.117188 C 226.296875 141.371094 226.675781 141.621094 227.042969 141.882812 C 227.320312 142.085938 227.59375 142.292969 227.867188 142.496094 Z M 209.429688 128.496094 C 211.808594 128.238281 214.210938 128.167969 216.601562 128.261719 C 216.742188 128.355469 216.882812 128.445312 217.019531 128.546875 C 217.304688 128.75 217.582031 128.957031 217.859375 129.167969 C 217.871094 129.179688 217.878906 129.183594 217.890625 129.195312 C 218.050781 129.324219 218.210938 129.453125 218.371094 129.582031 C 218.957031 130.058594 219.527344 130.550781 220.085938 131.058594 C 220.808594 131.722656 221.5 132.414062 222.175781 133.128906 C 221.976562 133.039062 221.78125 132.949219 221.578125 132.863281 C 219.1875 131.832031 216.714844 131.003906 214.195312 130.371094 C 211.777344 129.714844 209.316406 129.21875 206.832031 128.890625 C 207.183594 128.824219 207.535156 128.757812 207.890625 128.699219 C 208.078125 128.671875 209.164062 128.46875 208.40625 128.621094 C 208.738281 128.554688 209.089844 128.535156 209.429688 128.496094 Z M 163.414062 180.328125 C 163.300781 181.578125 163.21875 182.832031 163.175781 184.085938 C 162.070312 182.472656 160.96875 180.859375 159.875 179.234375 C 159.882812 178.957031 159.886719 178.675781 159.902344 178.398438 C 159.925781 177.972656 159.964844 177.550781 160 177.125 C 161.136719 178.191406 162.277344 179.261719 163.414062 180.328125 Z M 161 170.976562 C 161.023438 170.878906 161.042969 170.777344 161.066406 170.683594 C 161.4375 169.199219 161.871094 167.738281 162.367188 166.296875 C 162.59375 165.640625 162.832031 164.988281 163.085938 164.34375 C 163.214844 164.019531 163.34375 163.695312 163.476562 163.375 C 163.480469 163.359375 163.488281 163.351562 163.492188 163.335938 C 163.492188 163.332031 163.492188 163.328125 163.496094 163.320312 C 163.597656 163.097656 163.691406 162.875 163.789062 162.652344 C 164.992188 159.953125 166.421875 157.355469 168.046875 154.886719 C 168.453125 154.28125 168.867188 153.679688 169.292969 153.085938 C 169.496094 152.804688 169.699219 152.527344 169.910156 152.246094 C 170 152.125 170.089844 152.007812 170.183594 151.886719 C 170.253906 151.796875 170.324219 151.707031 170.394531 151.617188 C 171.160156 150.652344 171.964844 149.722656 172.792969 148.8125 C 172.484375 149.390625 172.175781 149.96875 171.882812 150.554688 C 170.65625 151.066406 169.800781 152.558594 170.316406 153.910156 C 169.996094 154.644531 169.683594 155.382812 169.382812 156.125 C 167.074219 159.171875 165.320312 162.644531 164.367188 166.335938 C 163.78125 168.613281 163.5 170.960938 163.492188 173.316406 C 162.664062 172.535156 161.832031 171.757812 161 170.976562 Z M 187.570312 217.292969 C 187.292969 216.941406 187.023438 216.589844 186.75 216.242188 C 190.953125 216.085938 195.128906 215.21875 199.097656 213.785156 C 199.125 213.8125 199.152344 213.839844 199.183594 213.867188 C 200.761719 215.347656 202.339844 216.828125 203.917969 218.304688 C 203.105469 218.535156 202.289062 218.75 201.464844 218.925781 C 200.808594 219.066406 200.148438 219.191406 199.488281 219.304688 C 199.140625 219.359375 198.792969 219.414062 198.445312 219.464844 C 198.429688 219.464844 198.410156 219.46875 198.390625 219.472656 C 198.226562 219.496094 198.058594 219.511719 197.898438 219.527344 C 196.808594 219.652344 195.71875 219.722656 194.628906 219.765625 C 192.660156 219.222656 190.71875 218.574219 188.820312 217.816406 C 188.527344 217.699219 188.230469 217.585938 187.945312 217.457031 C 188.535156 217.722656 187.808594 217.398438 187.570312 217.292969 Z M 205.664062 212.855469 C 205.542969 212.742188 205.421875 212.628906 205.300781 212.515625 C 205.363281 212.527344 205.421875 212.539062 205.480469 212.550781 C 205.542969 212.652344 205.605469 212.753906 205.664062 212.855469 Z M 203.636719 198.410156 C 203.464844 198.46875 203.292969 198.519531 203.125 198.574219 C 202.835938 198.097656 202.550781 197.621094 202.261719 197.140625 C 201.433594 195.761719 200.609375 194.382812 199.777344 193.003906 C 199.847656 192.664062 199.929688 192.320312 200.011719 191.984375 C 201.019531 192.828125 202.109375 193.582031 203.289062 194.199219 C 205.054688 195.125 206.917969 195.773438 208.839844 196.183594 C 208.601562 196.308594 208.367188 196.433594 208.128906 196.554688 C 207.757812 196.738281 207.390625 196.914062 207.015625 197.085938 C 206.792969 197.191406 206.566406 197.289062 206.339844 197.390625 C 206.292969 197.414062 206.253906 197.433594 206.21875 197.449219 C 206.203125 197.453125 206.1875 197.457031 206.167969 197.464844 C 205.332031 197.804688 204.492188 198.128906 203.636719 198.410156 Z M 211.304688 191.410156 C 211.234375 191.429688 211.117188 191.40625 211.007812 191.378906 C 211.089844 191.394531 211.28125 191.417969 211.304688 191.410156 Z M 211.15625 191.390625 C 211.046875 191.378906 210.996094 191.375 210.976562 191.371094 C 210.894531 191.351562 210.816406 191.332031 210.765625 191.324219 C 210.109375 191.207031 209.457031 191.058594 208.816406 190.875 C 208.234375 190.710938 207.660156 190.519531 207.09375 190.296875 C 207.078125 190.292969 207.054688 190.285156 207.035156 190.277344 C 206.941406 190.257812 206.804688 190.175781 206.714844 190.132812 C 206.382812 189.980469 206.0625 189.820312 205.742188 189.648438 C 205.183594 189.347656 204.640625 189.019531 204.121094 188.660156 C 203.996094 188.574219 203.875 188.484375 203.75 188.398438 C 203.730469 188.382812 203.71875 188.375 203.703125 188.367188 C 203.703125 188.367188 203.699219 188.363281 203.699219 188.363281 C 203.441406 188.152344 203.1875 187.9375 202.941406 187.714844 C 202.921875 187.699219 202.910156 187.683594 202.890625 187.667969 C 203.503906 187.101562 204.113281 186.535156 204.726562 185.964844 C 207.074219 188.828125 210.75 190.539062 214.578125 190.648438 C 215.429688 190.675781 216.289062 190.617188 217.140625 190.496094 C 216.816406 190.78125 216.5 191.070312 216.167969 191.34375 C 216.136719 191.347656 216.101562 191.355469 216.070312 191.363281 C 215.953125 191.382812 215.835938 191.402344 215.714844 191.417969 C 215.824219 191.402344 215.933594 191.390625 216.046875 191.375 C 215.496094 191.578125 214.640625 191.511719 214.058594 191.527344 C 213.394531 191.546875 212.726562 191.527344 212.0625 191.480469 C 211.761719 191.457031 211.460938 191.421875 211.15625 191.390625 Z M 219.882812 209.921875 C 219.617188 210.140625 219.34375 210.359375 219.074219 210.574219 C 219.074219 210.574219 219.074219 210.574219 219.070312 210.574219 C 218.917969 210.691406 218.765625 210.808594 218.609375 210.921875 C 218 211.378906 217.378906 211.816406 216.75 212.242188 C 215.550781 213.058594 214.3125 213.820312 213.046875 214.523438 C 212.957031 214.574219 212.871094 214.617188 212.78125 214.664062 C 212.308594 213.875 211.835938 213.085938 211.367188 212.300781 C 213.207031 211.792969 214.964844 210.929688 216.523438 209.886719 C 219.539062 207.871094 222.117188 205.269531 224.367188 202.441406 C 226.738281 199.464844 229.003906 196.359375 230.980469 193.101562 C 233.417969 189.074219 235.394531 184.652344 236.347656 180.035156 C 236.683594 179.523438 237.007812 179.003906 237.316406 178.46875 C 239.304688 175 240.417969 171.136719 239.703125 167.136719 C 239.359375 165.195312 238.445312 163.332031 237.1875 161.792969 C 237.429688 158.949219 237.40625 156.089844 237.097656 153.253906 C 237.480469 153.960938 237.847656 154.679688 238.179688 155.414062 C 238.234375 155.53125 238.28125 155.652344 238.335938 155.769531 C 238.347656 155.796875 238.355469 155.816406 238.367188 155.835938 C 238.371094 155.847656 238.375 155.855469 238.378906 155.871094 C 238.5 156.171875 238.621094 156.472656 238.738281 156.777344 C 239.027344 157.550781 239.285156 158.332031 239.523438 159.125 C 240.027344 160.828125 240.355469 162.550781 240.65625 164.300781 C 240.660156 164.328125 240.664062 164.351562 240.667969 164.367188 C 240.671875 164.394531 240.675781 164.425781 240.679688 164.464844 C 240.6875 164.546875 240.699219 164.628906 240.707031 164.710938 C 240.761719 167.433594 240.617188 170.152344 240.285156 172.855469 C 240.257812 173.035156 240.234375 173.210938 240.207031 173.394531 C 240.15625 173.738281 240.101562 174.085938 240.042969 174.429688 C 239.914062 175.191406 239.773438 175.945312 239.621094 176.703125 C 239.320312 178.144531 238.96875 179.578125 238.566406 180.996094 C 238.144531 182.488281 237.667969 183.957031 237.140625 185.414062 C 236.898438 186.074219 236.648438 186.730469 236.382812 187.382812 C 236.335938 187.5 236.089844 188.082031 236.078125 188.109375 C 235.9375 188.4375 235.792969 188.765625 235.648438 189.09375 C 234.421875 191.8125 232.996094 194.449219 231.390625 196.964844 C 230.578125 198.230469 229.722656 199.46875 228.820312 200.671875 C 228.734375 200.785156 228.648438 200.894531 228.566406 201.007812 C 228.542969 201.035156 228.53125 201.054688 228.515625 201.074219 C 228.5 201.09375 228.480469 201.117188 228.457031 201.144531 C 228.242188 201.417969 228.023438 201.695312 227.804688 201.964844 C 227.320312 202.558594 226.824219 203.144531 226.316406 203.71875 C 224.34375 205.957031 222.195312 208.039062 219.882812 209.921875 Z M 219.011719 210.621094 C 218.824219 210.769531 218.914062 210.695312 219.011719 210.621094 Z M 221.75 214.980469 C 220.878906 215.984375 219.976562 216.960938 219.046875 217.914062 C 218.996094 217.941406 218.941406 217.96875 218.886719 217.992188 C 218.691406 218.078125 218.492188 218.164062 218.296875 218.253906 C 218.261719 218.269531 218.230469 218.28125 218.207031 218.292969 C 218.183594 218.300781 218.15625 218.3125 218.121094 218.324219 C 217.273438 218.667969 216.417969 218.980469 215.554688 219.277344 C 215.515625 219.214844 215.480469 219.152344 215.441406 219.089844 C 217.640625 217.871094 219.746094 216.496094 221.75 214.980469 Z M 235.863281 210.445312 C 235.828125 210.492188 235.789062 210.539062 235.753906 210.589844 C 235.75 210.59375 235.746094 210.597656 235.742188 210.605469 C 235.835938 210.484375 235.867188 210.4375 235.863281 210.445312 Z M 233.164062 208.183594 C 234.269531 206.441406 235.324219 204.675781 236.308594 202.886719 C 240.945312 194.476562 244.71875 185.011719 245.828125 175.347656 C 246.070312 177.980469 246.128906 180.636719 245.980469 183.277344 C 245.9375 184.039062 245.878906 184.800781 245.804688 185.5625 C 245.765625 185.957031 245.722656 186.355469 245.671875 186.753906 C 245.65625 186.898438 245.636719 187.042969 245.617188 187.1875 C 245.703125 186.523438 245.578125 187.464844 245.558594 187.578125 C 245.332031 189.085938 245.039062 190.585938 244.679688 192.070312 C 244.582031 192.488281 244.460938 192.902344 244.351562 193.316406 C 244.117188 193.746094 243.886719 194.179688 243.644531 194.605469 C 242.886719 195.929688 242.085938 197.226562 241.238281 198.5 C 240.8125 199.132812 240.378906 199.761719 239.933594 200.382812 C 239.699219 200.707031 239.464844 201.03125 239.222656 201.351562 C 239.136719 201.46875 239.050781 201.582031 238.960938 201.699219 C 238.902344 201.78125 238.839844 201.863281 238.777344 201.945312 C 238.773438 201.949219 238.773438 201.949219 238.769531 201.953125 C 237.023438 204.144531 235.171875 206.230469 233.164062 208.183594 Z M 242.558594 137.289062 C 242.628906 137.34375 242.695312 137.394531 242.765625 137.445312 C 242.800781 137.472656 242.882812 137.53125 242.929688 137.570312 C 242.9375 137.574219 242.949219 137.582031 242.957031 137.589844 C 242.972656 137.601562 242.992188 137.617188 243.007812 137.628906 C 242.992188 137.617188 242.980469 137.609375 242.964844 137.597656 C 243.222656 137.800781 243.480469 138.007812 243.734375 138.214844 C 244.265625 138.652344 244.789062 139.101562 245.296875 139.566406 C 246.296875 140.472656 247.253906 141.425781 248.160156 142.421875 C 248.582031 142.890625 248.992188 143.363281 249.394531 143.851562 C 249.597656 144.097656 249.796875 144.347656 249.996094 144.597656 C 250.011719 144.617188 250.023438 144.632812 250.035156 144.648438 C 250.050781 144.664062 250.0625 144.679688 250.078125 144.703125 C 250.199219 144.867188 250.316406 145.023438 250.4375 145.183594 C 252.121094 147.472656 253.578125 149.925781 254.789062 152.496094 C 254.929688 152.792969 255.066406 153.089844 255.203125 153.390625 C 255.246094 153.488281 255.414062 153.886719 255.476562 154.027344 C 255.726562 154.640625 255.972656 155.261719 256.199219 155.882812 C 256.671875 157.183594 257.085938 158.503906 257.445312 159.839844 C 257.820312 161.238281 258.136719 162.660156 258.390625 164.089844 C 258.507812 164.734375 258.640625 165.390625 258.699219 166.046875 C 258.632812 165.316406 258.742188 166.398438 258.757812 166.539062 C 258.804688 166.933594 258.847656 167.328125 258.882812 167.726562 C 259.140625 170.535156 259.175781 173.367188 258.996094 176.183594 C 258.949219 176.882812 258.894531 177.578125 258.820312 178.273438 C 258.785156 178.605469 258.75 178.933594 258.707031 179.265625 C 258.691406 179.390625 258.675781 179.519531 258.660156 179.644531 C 258.648438 179.75 258.632812 179.859375 258.617188 179.964844 C 258.410156 181.351562 258.15625 182.726562 257.847656 184.089844 C 257.214844 186.886719 256.367188 189.632812 255.300781 192.289062 C 255.253906 192.417969 254.992188 193.03125 255.019531 192.980469 C 254.914062 193.21875 254.8125 193.457031 254.707031 193.695312 C 254.40625 194.359375 254.09375 195.023438 253.765625 195.675781 C 253.140625 196.925781 252.46875 198.144531 251.742188 199.339844 C 250.984375 200.585938 250.171875 201.800781 249.304688 202.976562 C 249.148438 203.191406 248.984375 203.40625 248.824219 203.617188 C 248.78125 203.667969 248.441406 204.101562 248.367188 204.191406 C 247.910156 204.757812 247.433594 205.316406 246.949219 205.859375 C 245.457031 207.539062 243.828125 209.027344 242.140625 210.480469 C 245.222656 205.847656 247.554688 200.777344 249.085938 195.464844 C 251.582031 190.808594 253.550781 185.835938 254.640625 180.679688 C 256.035156 174.09375 256.167969 166.9375 253.5625 160.621094 C 251.472656 155.554688 247.898438 151.425781 243.332031 148.597656 C 241.621094 142.992188 239.039062 137.667969 235.519531 133.003906 C 235.625 133.054688 235.738281 133.101562 235.847656 133.15625 C 237.023438 133.75 238.171875 134.390625 239.292969 135.082031 C 240.414062 135.769531 241.503906 136.503906 242.558594 137.289062 Z M 256.117188 217.636719 C 264.789062 206.511719 268.96875 192.59375 268.703125 178.535156 C 268.445312 164.871094 264.128906 151.359375 256.3125 140.140625 C 249.058594 129.734375 239.160156 121.171875 227.789062 115.535156 C 216.417969 109.902344 203.546875 107.035156 190.855469 108.21875 C 178.527344 109.367188 166.65625 114.074219 156.726562 121.445312 C 146.84375 128.785156 138.6875 138.539062 133.832031 149.898438 C 131.332031 155.75 129.699219 161.851562 129.054688 168.1875 C 128.441406 174.257812 128.859375 180.417969 130.070312 186.390625 C 130.101562 186.550781 130.144531 186.707031 130.175781 186.863281 C 129.964844 191.046875 130.152344 195.238281 130.792969 199.414062 C 131.804688 205.996094 134.085938 212.460938 137.671875 218.089844 C 141.382812 223.902344 146.421875 228.71875 152.195312 232.457031 C 163.402344 239.71875 177.074219 242.992188 190.289062 243.730469 C 202.527344 244.414062 215.089844 242.738281 226.589844 238.441406 C 238 234.175781 248.578125 227.316406 256.117188 217.636719 " fill-opacity="1" fill-rule="nonzero"/><path fill="#fcdd44" d="M 191.933594 163.644531 C 191.886719 163.683594 191.835938 163.71875 191.792969 163.757812 C 191.820312 163.734375 191.863281 163.699219 191.933594 163.644531 " fill-opacity="1" fill-rule="nonzero"/><path fill="#fcdd44" d="M 225.972656 161.402344 C 225.957031 161.410156 225.9375 161.417969 225.917969 161.417969 C 225.9375 161.417969 225.957031 161.410156 225.972656 161.402344 " fill-opacity="1" fill-rule="nonzero"/><path fill="#fcdd44" d="M 208.242188 173.726562 C 208.210938 173.800781 208.171875 173.871094 208.128906 173.933594 C 208.128906 173.9375 208.128906 173.9375 208.125 173.941406 C 208.347656 173.65625 208.316406 173.628906 208.242188 173.726562 " fill-opacity="1" fill-rule="nonzero"/><path fill="#fcdd44" d="M 183.433594 191.488281 C 183.425781 191.460938 183.414062 191.429688 183.40625 191.410156 C 183.414062 191.4375 183.425781 191.460938 183.433594 191.488281 " fill-opacity="1" fill-rule="nonzero"/><g clip-path="url(#c81f27e446)"><path fill="#fcdd44" d="M 213.070312 275.035156 C 212.515625 270.191406 211.964844 265.34375 211.410156 260.496094 C 211.304688 259.554688 211.097656 258.757812 210.402344 258.058594 C 209.804688 257.460938 208.820312 257.011719 207.964844 257.046875 C 206.269531 257.125 204.296875 258.578125 204.515625 260.496094 C 206.476562 277.695312 208.433594 294.890625 210.394531 312.089844 C 210.945312 316.933594 211.5 321.78125 212.050781 326.625 C 212.160156 327.570312 212.367188 328.367188 213.0625 329.066406 C 213.660156 329.664062 214.640625 330.113281 215.5 330.074219 C 217.195312 330 219.167969 328.546875 218.949219 326.625 C 216.988281 309.429688 215.027344 292.230469 213.070312 275.035156 " fill-opacity="1" fill-rule="nonzero"/></g><path fill="#fcdd44" d="M 250.386719 256.488281 C 248.480469 252.09375 246.574219 247.703125 244.664062 243.3125 C 244.34375 242.574219 243.34375 241.929688 242.605469 241.726562 C 241.777344 241.5 240.679688 241.605469 239.945312 242.078125 C 239.210938 242.550781 238.5625 243.257812 238.363281 244.136719 C 238.144531 245.101562 238.320312 245.898438 238.710938 246.796875 C 245.539062 262.515625 252.367188 278.234375 259.199219 293.953125 C 261.105469 298.34375 263.011719 302.738281 264.921875 307.128906 C 265.242188 307.863281 266.242188 308.507812 266.980469 308.710938 C 267.808594 308.941406 268.90625 308.835938 269.640625 308.363281 C 270.375 307.890625 271.023438 307.183594 271.222656 306.304688 C 271.441406 305.339844 271.265625 304.542969 270.878906 303.644531 C 264.046875 287.925781 257.21875 272.207031 250.386719 256.488281 " fill-opacity="1" fill-rule="nonzero"/><path fill="#fcdd44" d="M 292.691406 213.644531 C 290.476562 211.03125 288.261719 208.410156 286.046875 205.792969 C 284.875 204.414062 282.355469 204.5 281.167969 205.792969 C 279.820312 207.265625 279.921875 209.195312 281.167969 210.671875 C 289.042969 219.976562 296.921875 229.285156 304.800781 238.589844 C 307.011719 241.207031 309.230469 243.824219 311.445312 246.441406 C 312.613281 247.824219 315.132812 247.738281 316.320312 246.441406 C 317.671875 244.972656 317.570312 243.039062 316.320312 241.566406 C 308.445312 232.257812 300.570312 222.953125 292.691406 213.644531 " fill-opacity="1" fill-rule="nonzero"/><path fill="#fcdd44" d="M 172.542969 258.894531 C 171.027344 258.097656 168.625 258.382812 167.824219 260.132812 C 162.78125 271.140625 157.734375 282.148438 152.6875 293.15625 C 152.292969 294.019531 152.078125 294.863281 152.339844 295.8125 C 152.5625 296.613281 153.179688 297.480469 153.925781 297.875 C 155.441406 298.675781 157.839844 298.390625 158.644531 296.640625 C 163.691406 285.628906 168.734375 274.621094 173.78125 263.617188 C 174.175781 262.75 174.386719 261.910156 174.128906 260.957031 C 173.90625 260.160156 173.289062 259.292969 172.542969 258.894531 " fill-opacity="1" fill-rule="nonzero"/><path fill="#fcdd44" d="M 125.527344 242.707031 C 116.9375 249.855469 108.34375 257.003906 99.753906 264.152344 C 97.328125 266.167969 94.90625 268.183594 92.484375 270.199219 C 91.089844 271.359375 91.195312 273.898438 92.484375 275.078125 C 93.964844 276.4375 95.875 276.3125 97.359375 275.078125 C 105.949219 267.929688 114.542969 260.78125 123.136719 253.632812 C 125.558594 251.617188 127.980469 249.597656 130.40625 247.582031 C 131.796875 246.425781 131.691406 243.890625 130.40625 242.707031 C 128.925781 241.347656 127.011719 241.472656 125.527344 242.707031 " fill-opacity="1" fill-rule="nonzero"/><g clip-path="url(#ca05d40f9b)"><path fill="#fcdd44" d="M 112.582031 204.769531 C 114.316406 204.261719 115.574219 202.316406 114.992188 200.527344 C 114.425781 198.769531 112.605469 197.578125 110.75 198.117188 C 94.277344 202.925781 78.246094 209.285156 62.949219 217.0625 C 58.695312 219.222656 54.503906 221.5 50.375 223.882812 C 48.808594 224.78125 48.132812 227.039062 49.136719 228.597656 C 50.152344 230.175781 52.179688 230.800781 53.851562 229.835938 C 61.121094 225.648438 68.582031 221.792969 76.207031 218.292969 C 78.132812 217.40625 80.070312 216.546875 82.015625 215.707031 C 82.503906 215.5 82.992188 215.292969 83.480469 215.085938 C 83.5 215.074219 83.507812 215.070312 83.527344 215.0625 C 83.558594 215.050781 83.589844 215.039062 83.632812 215.019531 C 83.835938 214.933594 84.039062 214.851562 84.242188 214.765625 C 85.261719 214.339844 86.28125 213.921875 87.308594 213.511719 C 91.15625 211.960938 95.042969 210.5 98.960938 209.132812 C 103.460938 207.558594 108.007812 206.101562 112.582031 204.769531 " fill-opacity="1" fill-rule="nonzero"/></g><path fill="#fcdd44" d="M 61.300781 127.140625 C 74.25 132.589844 87.203125 138.039062 100.152344 143.488281 C 103.855469 145.046875 107.554688 146.601562 111.253906 148.160156 C 112.019531 148.480469 113.234375 148.210938 113.910156 147.8125 C 114.625 147.394531 115.308594 146.574219 115.496094 145.753906 C 115.695312 144.871094 115.652344 143.878906 115.148438 143.09375 C 114.628906 142.285156 113.964844 141.878906 113.085938 141.507812 C 100.136719 136.058594 87.183594 130.609375 74.234375 125.160156 C 70.535156 123.601562 66.835938 122.042969 63.132812 120.488281 C 62.371094 120.167969 61.15625 120.4375 60.476562 120.835938 C 59.761719 121.253906 59.078125 122.074219 58.890625 122.894531 C 58.691406 123.78125 58.734375 124.769531 59.242188 125.554688 C 59.761719 126.359375 60.421875 126.769531 61.300781 127.140625 " fill-opacity="1" fill-rule="nonzero"/><path fill="#fcdd44" d="M 113.410156 100.375 C 115.84375 102.09375 118.34375 103.714844 120.902344 105.238281 C 122.453125 106.164062 124.753906 105.640625 125.621094 104.003906 C 126.5 102.335938 126.039062 100.273438 124.382812 99.285156 C 122.144531 97.949219 119.953125 96.542969 117.808594 95.058594 C 116.753906 94.328125 115.710938 93.582031 114.683594 92.816406 C 114.207031 92.464844 113.734375 92.101562 113.261719 91.742188 C 113.148438 91.652344 113.03125 91.5625 112.917969 91.472656 C 112.625 91.242188 112.332031 91.011719 112.042969 90.777344 C 108.007812 87.542969 104.191406 84.039062 100.628906 80.292969 C 98.605469 78.164062 96.664062 75.957031 94.8125 73.683594 C 93.664062 72.277344 91.105469 72.402344 89.933594 73.683594 C 88.5625 75.171875 88.710938 77.058594 89.933594 78.558594 C 96.714844 86.871094 104.652344 94.183594 113.410156 100.375 " fill-opacity="1" fill-rule="nonzero"/><path fill="#fcdd44" d="M 150.421875 79.171875 C 152.355469 83.960938 154.285156 88.75 156.21875 93.535156 C 156.566406 94.402344 156.964844 95.109375 157.800781 95.597656 C 158.539062 96.03125 159.632812 96.210938 160.457031 95.945312 C 162.070312 95.425781 163.589844 93.492188 162.867188 91.703125 C 156.035156 74.769531 149.203125 57.835938 142.371094 40.898438 C 140.441406 36.113281 138.507812 31.324219 136.578125 26.535156 C 136.226562 25.671875 135.828125 24.964844 134.992188 24.476562 C 134.253906 24.042969 133.164062 23.859375 132.335938 24.128906 C 130.722656 24.648438 129.203125 26.578125 129.925781 28.371094 C 136.757812 45.304688 143.589844 62.238281 150.421875 79.171875 " fill-opacity="1" fill-rule="nonzero"/><path fill="#fcdd44" d="M 211.070312 87.511719 C 212.984375 87.425781 214.457031 85.996094 214.515625 84.0625 C 214.917969 71.546875 215.316406 59.03125 215.714844 46.515625 C 215.828125 42.980469 215.941406 39.445312 216.054688 35.910156 C 216.109375 34.105469 214.425781 32.378906 212.605469 32.460938 C 210.6875 32.546875 209.21875 33.976562 209.15625 35.910156 C 208.757812 48.425781 208.359375 60.941406 207.957031 73.457031 C 207.84375 76.992188 207.730469 80.527344 207.621094 84.0625 C 207.5625 85.867188 209.246094 87.59375 211.070312 87.511719 " fill-opacity="1" fill-rule="nonzero"/><path fill="#fcdd44" d="M 246.113281 96.546875 C 247.640625 97.355469 250.011719 97.054688 250.828125 95.308594 C 252.003906 92.816406 253.328125 90.394531 254.808594 88.066406 C 255.535156 86.921875 256.296875 85.796875 257.097656 84.699219 C 257.296875 84.421875 257.5 84.148438 257.703125 83.878906 C 257.777344 83.773438 257.855469 83.671875 257.933594 83.570312 C 258.359375 83.050781 258.769531 82.515625 259.195312 81.996094 C 260.957031 79.875 262.847656 77.863281 264.859375 75.980469 C 265.847656 75.046875 266.867188 74.148438 267.914062 73.277344 C 268.398438 72.875 268.894531 72.484375 269.386719 72.09375 C 269.492188 72.011719 269.597656 71.933594 269.703125 71.855469 C 270.003906 71.628906 270.308594 71.402344 270.613281 71.179688 C 273.121094 69.363281 275.757812 67.730469 278.496094 66.285156 C 280.09375 65.441406 280.710938 63.085938 279.734375 61.566406 C 278.683594 59.941406 276.722656 59.429688 275.011719 60.332031 C 264.734375 65.753906 255.941406 73.859375 249.527344 83.542969 C 247.777344 86.1875 246.222656 88.957031 244.875 91.828125 C 244.109375 93.457031 244.367188 95.625 246.113281 96.546875 " fill-opacity="1" fill-rule="nonzero"/><path fill="#fcdd44" d="M 284.207031 117.796875 C 284.210938 117.792969 284.222656 117.785156 284.230469 117.777344 C 284.320312 117.707031 284.414062 117.636719 284.507812 117.5625 C 284.808594 117.335938 285.113281 117.105469 285.414062 116.878906 C 286.496094 116.070312 287.585938 115.28125 288.691406 114.507812 C 290.933594 112.9375 293.230469 111.445312 295.570312 110.027344 C 300.253906 107.191406 305.125 104.660156 310.136719 102.464844 C 310.484375 102.3125 310.832031 102.160156 311.183594 102.011719 C 311.226562 101.992188 311.335938 101.945312 311.421875 101.910156 C 311.515625 101.871094 311.609375 101.832031 311.640625 101.820312 C 312.339844 101.53125 313.042969 101.246094 313.746094 100.96875 C 315.238281 100.382812 316.738281 99.828125 318.25 99.300781 C 319.949219 98.707031 321.257812 96.914062 320.660156 95.058594 C 320.113281 93.378906 318.242188 92.011719 316.417969 92.648438 C 305.640625 96.421875 295.339844 101.570312 285.933594 108.046875 C 283.128906 109.980469 280.402344 112.039062 277.742188 114.175781 C 276.332031 115.3125 276.472656 117.886719 277.742188 119.050781 C 279.242188 120.429688 281.113281 120.265625 282.621094 119.050781 C 283.144531 118.628906 283.675781 118.210938 284.207031 117.796875 " fill-opacity="1" fill-rule="nonzero"/><g clip-path="url(#05e43366c2)"><path fill="#fcdd44" d="M 351.21875 158.988281 C 333.929688 153.992188 315.679688 152.945312 297.90625 155.648438 C 292.988281 156.394531 288.117188 157.453125 283.328125 158.808594 C 281.59375 159.300781 280.34375 161.269531 280.917969 163.050781 C 281.492188 164.820312 283.300781 165.988281 285.160156 165.460938 C 289.351562 164.273438 293.601562 163.3125 297.898438 162.589844 C 298.949219 162.414062 300.003906 162.253906 301.058594 162.101562 C 301.222656 162.082031 301.429688 162.027344 301.589844 162.03125 C 301.515625 162.03125 301.460938 162.027344 301.410156 162.027344 C 301.523438 162.027344 301.65625 162.023438 301.726562 162.015625 C 302.347656 161.9375 302.964844 161.863281 303.582031 161.792969 C 305.703125 161.558594 307.828125 161.378906 309.957031 161.253906 C 314.304688 161.003906 318.667969 160.984375 323.015625 161.203125 C 325.144531 161.3125 327.273438 161.472656 329.394531 161.695312 C 330.457031 161.804688 331.515625 161.929688 332.574219 162.066406 C 332.589844 162.066406 332.597656 162.070312 332.613281 162.070312 C 332.644531 162.074219 332.675781 162.078125 332.714844 162.085938 C 332.890625 162.109375 333.066406 162.132812 333.238281 162.160156 C 333.855469 162.246094 334.472656 162.339844 335.085938 162.441406 C 339.914062 163.210938 344.691406 164.285156 349.386719 165.640625 C 351.121094 166.140625 353.21875 165.03125 353.628906 163.230469 C 354.046875 161.390625 353.074219 159.527344 351.21875 158.988281 " fill-opacity="1" fill-rule="nonzero"/></g></svg>