<svg xmlns="http://www.w3.org/2000/svg" xmlns:xlink="http://www.w3.org/1999/xlink" width="500" zoomAndPan="magnify" viewBox="0 0 375 374.999991" height="500" preserveAspectRatio="xMidYMid meet" version="1.0"><path fill="#ff9f1c" d="M 292.15625 55.726562 C 295.089844 55.960938 295.089844 60.03125 292.386719 60.761719 C 265.511719 72.402344 239.769531 86.40625 215.894531 103.378906 C 215.828125 104.246094 215.925781 105.011719 215.324219 105.746094 C 213.957031 107.449219 211.890625 109.683594 209.691406 108.015625 C 207.421875 109.28125 205.6875 112.714844 202.820312 112.148438 C 200.554688 111.449219 200.789062 108.480469 202.589844 107.382812 C 229.699219 85.972656 260.277344 68.667969 292.15625 55.726562 Z M 142.300781 81.804688 C 141.730469 97.3125 137.628906 113.050781 140.363281 128.523438 C 140.03125 131.558594 135.628906 131.191406 135.363281 128.289062 C 132.5625 113.183594 136.5625 97.675781 137.296875 82.503906 C 137.128906 79.203125 141.898438 78.371094 142.300781 81.804688 Z M 101.484375 100.746094 C 102.285156 101.34375 102.484375 102.210938 102.585938 103.179688 C 104.550781 119.253906 104.652344 135.859375 110.019531 151.296875 C 110.453125 152.664062 111.6875 154.296875 110.953125 155.699219 C 110.253906 157.265625 108.152344 157.566406 106.953125 156.332031 C 99.25 140.125 100.050781 121.320312 97.617188 103.847656 C 96.980469 101.546875 99.347656 99.179688 101.484375 100.746094 Z M 300.824219 111.347656 C 317.863281 110.914062 334.871094 112.683594 351.84375 114.050781 C 352.910156 114.117188 353.878906 114.285156 354.542969 115.183594 C 356.480469 118.953125 352.277344 119.453125 349.476562 118.886719 C 330.167969 117.152344 310.828125 115.617188 291.453125 116.617188 C 286.1875 116.816406 280.816406 117.085938 275.613281 117.984375 C 272.8125 118.851562 268.511719 118.820312 270.246094 114.683594 C 270.980469 113.683594 272.046875 113.582031 273.148438 113.316406 C 282.117188 111.582031 291.753906 111.617188 300.824219 111.347656 Z M 297.957031 167.703125 C 293.15625 148.464844 281.25 128.554688 261.441406 122.253906 C 243.601562 116.617188 209.757812 110.847656 191.71875 114.949219 C 193.117188 97.578125 189.683594 80.402344 188.316406 63.199219 C 188.683594 55.726562 190.015625 48.324219 191.015625 40.921875 C 191.851562 38.421875 189.550781 35.652344 187.117188 37.523438 C 186.316406 38.222656 186.214844 39.15625 186.046875 40.15625 C 185.015625 49.226562 182.746094 58.328125 183.480469 67.5 C 185.046875 79.136719 186.617188 90.773438 186.914062 102.511719 C 186.914062 106.613281 187.050781 110.78125 186.648438 114.851562 C 186.546875 115.617188 186.816406 116.316406 187.050781 117.050781 C 151.636719 124.519531 119.222656 149.03125 104.71875 182.875 C 85.34375 222.457031 103.519531 273.175781 148.300781 283.480469 C 145.398438 301.351562 138.996094 318.527344 135.53125 336.199219 C 136.164062 339.332031 140.296875 338.632812 140.566406 335.664062 C 144.632812 318.625 150.167969 301.953125 153.167969 284.679688 C 163.238281 286.949219 173.445312 288.046875 183.746094 288.414062 C 184.082031 295.382812 184.882812 302.285156 185.847656 309.1875 C 186.617188 315.691406 187.382812 322.160156 188.449219 328.597656 C 188.648438 329.695312 188.714844 331.296875 189.617188 332.097656 C 192.085938 334.164062 194.550781 331.265625 193.550781 328.664062 C 191.550781 315.324219 189.515625 301.921875 188.816406 288.449219 C 210.324219 288.546875 232.632812 285.015625 251.238281 273.675781 C 285.6875 252.300781 305.191406 207.484375 297.957031 167.703125 Z M 294.523438 188.210938 C 291.15625 242.332031 251.039062 284.046875 195.753906 283.347656 C 172.808594 283.78125 147.902344 282.046875 128.226562 269.074219 C 68.9375 225.15625 120.15625 137.824219 179.644531 124.121094 C 181.214844 126.054688 183.382812 124.988281 185.082031 123.886719 C 187.25 127.855469 192.117188 125.222656 189.617188 121.386719 C 203.121094 114.316406 240.9375 121.886719 256.207031 125.820312 C 282.550781 132.625 296.257812 162.734375 294.523438 188.210938 Z M 48.0625 131.222656 C 49.398438 131.191406 50.132812 132.125 50.597656 133.257812 C 54.03125 141.359375 57.46875 149.464844 61.070312 157.464844 C 66.003906 168.871094 72.507812 180.042969 81.84375 188.34375 C 83.277344 190.679688 80.140625 193.144531 78.109375 191.480469 C 69.472656 184.34375 63.535156 174.171875 58.667969 164.234375 C 54.464844 155.132812 50.53125 145.894531 46.597656 136.660156 C 45.429688 134.792969 44.929688 131.222656 48.0625 131.222656 Z M 319.464844 156.265625 C 320.898438 156.265625 321.832031 157.699219 322.734375 158.632812 C 329.167969 165.769531 335.003906 173.371094 340.40625 181.308594 C 349.574219 194.78125 357.613281 209.050781 364.683594 223.722656 C 366.984375 227.460938 361.714844 230.09375 360.179688 225.890625 C 348.875 201.984375 334.503906 179.40625 317.128906 159.5 C 316.53125 157.933594 317.796875 156.199219 319.464844 156.265625 Z M 27.054688 189.410156 C 27.988281 189.476562 28.589844 190.078125 29.191406 190.710938 C 35.757812 198.082031 41.996094 205.71875 48.265625 213.355469 C 56.234375 222.457031 65.570312 230.492188 72.707031 240.230469 C 73.539062 243.464844 69.339844 244.53125 67.769531 241.832031 C 61.800781 234.695312 55.332031 228.09375 48.832031 221.390625 C 40.695312 212.785156 33.792969 203.117188 25.753906 194.445312 C 23.753906 192.847656 24.023438 189.277344 27.054688 189.410156 Z M 310.429688 239.261719 C 318.765625 256.636719 326.566406 274.078125 333.804688 291.949219 C 334.269531 293.015625 334.636719 294.015625 333.96875 295.085938 C 333.167969 296.484375 331.035156 296.617188 330.035156 295.382812 C 326 287.28125 322.832031 278.710938 319.464844 270.308594 C 315.730469 260.40625 309.761719 251.535156 306.058594 241.398438 C 304.992188 238.695312 308.960938 236.695312 310.429688 239.261719 Z M 106.753906 272.375 C 109.6875 271.84375 110.953125 276.242188 108.019531 277.144531 C 106.453125 277.542969 104.75 277.542969 103.152344 277.8125 C 73.140625 284.445312 42.796875 289.183594 12.851562 296.285156 C 10.75 297.152344 8.015625 295.351562 9.148438 292.984375 C 27.65625 285.949219 48.964844 283.878906 68.703125 279.910156 C 81.542969 278.144531 93.78125 273.441406 106.753906 272.375 Z M 266.878906 277.976562 C 270.613281 276.910156 270.3125 281.511719 270.046875 283.914062 C 269.878906 289.183594 270.347656 294.382812 270.980469 299.585938 C 271.914062 306.589844 273.015625 313.589844 274.148438 320.59375 C 275.113281 323.292969 272.878906 326.328125 270.214844 324.226562 C 268.144531 319.527344 261.84375 279.179688 266.878906 277.976562 Z M 229.097656 292.316406 C 230.597656 292.484375 231.367188 293.816406 231.332031 295.21875 C 231.398438 305.921875 230.332031 316.59375 228.199219 327.0625 C 228.03125 332.164062 221.695312 331.230469 223.230469 326.296875 C 224.097656 321.761719 224.863281 317.226562 225.464844 312.625 C 225.964844 306.722656 226.296875 300.785156 226.296875 294.851562 C 226.363281 293.382812 227.5625 292.148438 229.097656 292.316406 Z M 229.097656 292.316406 " fill-opacity="1" fill-rule="nonzero"/></svg>