<svg xmlns="http://www.w3.org/2000/svg" xmlns:xlink="http://www.w3.org/1999/xlink" width="500" zoomAndPan="magnify" viewBox="0 0 375 374.999991" height="500" preserveAspectRatio="xMidYMid meet" version="1.0"><defs><clipPath id="cd6658e13d"><path d="M 28.015625 244 L 107 244 L 107 319 L 28.015625 319 Z M 28.015625 244 " clip-rule="nonzero"/></clipPath><clipPath id="3b61a1b87a"><path d="M 90 241 L 167 241 L 167 320.429688 L 90 320.429688 Z M 90 241 " clip-rule="nonzero"/></clipPath><clipPath id="f75bd65180"><path d="M 245 97 L 346.765625 97 L 346.765625 194 L 245 194 Z M 245 97 " clip-rule="nonzero"/></clipPath><clipPath id="10854d5ad3"><path d="M 309 54.929688 L 339 54.929688 L 339 111 L 309 111 Z M 309 54.929688 " clip-rule="nonzero"/></clipPath></defs><g clip-path="url(#cd6658e13d)"><path fill="#ff9f1c" d="M 53.769531 263.460938 C 48.09375 268.78125 44.988281 275.429688 44.453125 283.417969 L 44.457031 283.375 C 44.082031 289.542969 46.167969 294.800781 50.722656 299.144531 L 50.582031 299.015625 C 55.273438 303.25 61.355469 305.117188 68.816406 304.609375 L 68.546875 304.632812 C 75.582031 303.875 82.1875 300.460938 88.351562 294.386719 L 87.6875 295.144531 C 92.273438 289.066406 93.734375 282.621094 92.078125 275.804688 L 92.183594 276.1875 C 90.085938 269.328125 84.972656 264.074219 76.835938 260.429688 L 77.402344 260.652344 C 69.171875 257.8125 61.304688 257.980469 53.796875 261.164062 L 54.398438 260.871094 C 47.460938 264.644531 43.179688 269.824219 41.5625 276.410156 C 40.65625 280.101562 36.929688 282.359375 33.238281 281.453125 C 29.550781 280.542969 27.292969 276.816406 28.199219 273.128906 C 30.785156 262.605469 37.324219 254.492188 47.824219 248.78125 C 48.019531 248.675781 48.222656 248.578125 48.425781 248.492188 C 59.179688 243.9375 70.335938 243.652344 81.894531 247.648438 C 82.085938 247.714844 82.273438 247.789062 82.460938 247.871094 C 94.402344 253.21875 102.03125 261.320312 105.34375 272.167969 C 105.382812 272.296875 105.417969 272.421875 105.449219 272.550781 C 108.132812 283.589844 105.875 293.882812 98.675781 303.433594 C 98.472656 303.699219 98.25 303.953125 98.007812 304.191406 C 89.566406 312.507812 80.234375 317.214844 70.019531 318.316406 C 69.929688 318.324219 69.839844 318.332031 69.75 318.339844 C 58.40625 319.109375 48.941406 316.074219 41.359375 309.230469 C 41.3125 309.1875 41.265625 309.144531 41.222656 309.101562 C 33.585938 301.816406 30.085938 292.960938 30.722656 282.539062 L 30.722656 282.496094 C 31.5 270.902344 36.046875 261.210938 44.359375 253.417969 C 47.132812 250.820312 51.488281 250.960938 54.085938 253.734375 C 56.683594 256.507812 56.542969 260.863281 53.769531 263.460938 Z M 53.769531 263.460938 " fill-opacity="1" fill-rule="nonzero"/></g><g clip-path="url(#3b61a1b87a)"><path fill="#fcdd44" d="M 109.058594 263.796875 C 105.34375 269.816406 104.261719 277.710938 105.816406 287.472656 L 105.816406 287.476562 C 106.960938 294.714844 110.070312 300.058594 115.136719 303.511719 L 114.527344 303.140625 C 121.023438 306.644531 127.355469 307.179688 133.523438 304.746094 L 132.917969 305.019531 C 138.808594 302.015625 144.308594 296.414062 149.417969 288.21875 L 149.15625 288.679688 C 152.695312 281.882812 153.535156 274.890625 151.667969 267.703125 L 151.652344 267.640625 C 150.328125 262.351562 147.183594 258.808594 142.21875 257.015625 L 142.273438 257.035156 C 134.578125 254.332031 127.335938 254.453125 120.550781 257.394531 L 120.597656 257.375 C 112.140625 261.117188 106.578125 266.40625 103.90625 273.246094 C 102.519531 276.785156 98.53125 278.53125 94.992188 277.148438 C 91.453125 275.765625 89.703125 271.777344 91.085938 268.234375 C 95.136719 257.875 103.117188 250.0625 115.027344 244.789062 L 115.074219 244.769531 C 125.15625 240.398438 135.742188 240.160156 146.832031 244.050781 L 146.890625 244.070312 C 156.457031 247.523438 162.492188 254.269531 165.003906 264.304688 L 164.988281 264.242188 C 167.742188 274.84375 166.53125 285.109375 161.359375 295.039062 C 161.277344 295.195312 161.1875 295.351562 161.09375 295.5 C 154.636719 305.859375 147.328125 313.117188 139.171875 317.277344 C 138.976562 317.378906 138.773438 317.46875 138.570312 317.550781 C 128.4375 321.542969 118.246094 320.78125 107.996094 315.253906 C 107.785156 315.140625 107.582031 315.015625 107.386719 314.882812 C 99.042969 309.199219 93.988281 300.777344 92.226562 289.628906 L 92.226562 289.632812 C 90.136719 276.511719 91.84375 265.488281 97.347656 256.570312 C 99.34375 253.335938 103.582031 252.332031 106.816406 254.328125 C 110.050781 256.320312 111.054688 260.5625 109.058594 263.796875 Z M 109.058594 263.796875 " fill-opacity="1" fill-rule="nonzero"/></g><path fill="#ff9f1c" d="M 153.640625 235.617188 C 156.996094 255.898438 168.148438 265.292969 187.09375 263.796875 L 186.695312 263.839844 C 195.054688 262.6875 200.605469 259.550781 203.339844 254.433594 C 203.398438 254.328125 203.457031 254.226562 203.515625 254.125 C 208.503906 245.863281 209.824219 237.902344 207.476562 230.242188 L 207.792969 231.078125 C 202.949219 220.460938 192.265625 216.738281 175.734375 219.914062 L 175.917969 219.878906 C 167.660156 221.699219 161.53125 224.886719 157.535156 229.445312 L 157.605469 229.363281 C 154.71875 232.761719 153.96875 236.347656 155.351562 240.117188 C 156.660156 243.6875 154.828125 247.640625 151.261719 248.949219 C 147.691406 250.257812 143.738281 248.425781 142.429688 244.859375 C 139.207031 236.0625 140.769531 227.929688 147.117188 220.453125 C 147.140625 220.425781 147.164062 220.398438 147.1875 220.371094 C 153.167969 213.550781 161.757812 208.90625 172.953125 206.4375 C 173.015625 206.425781 173.074219 206.414062 173.136719 206.402344 C 196.753906 201.863281 212.480469 208.1875 220.3125 225.371094 C 220.4375 225.640625 220.542969 225.921875 220.632812 226.207031 C 224.183594 237.789062 222.40625 249.464844 215.296875 261.238281 L 215.472656 260.929688 C 210.53125 270.164062 201.566406 275.679688 188.578125 277.472656 C 188.445312 277.492188 188.3125 277.507812 188.175781 277.515625 C 160.832031 279.675781 144.796875 266.457031 140.0625 237.863281 C 139.441406 234.117188 141.976562 230.574219 145.726562 229.953125 C 149.476562 229.332031 153.019531 231.867188 153.640625 235.617188 Z M 153.640625 235.617188 " fill-opacity="1" fill-rule="nonzero"/><path fill="#fcdd44" d="M 197.050781 188.988281 C 197.28125 188.773438 197.4375 188.574219 197.511719 188.398438 C 197.042969 189.519531 197.15625 192.019531 197.851562 195.902344 L 197.824219 195.773438 C 198.289062 198.105469 200.164062 200.945312 203.445312 204.285156 L 203.339844 204.179688 C 209.800781 210.46875 218.769531 213.546875 230.25 213.40625 L 229.644531 213.441406 C 235.753906 212.828125 240.847656 208.746094 244.921875 201.195312 C 244.957031 201.132812 244.992188 201.070312 245.027344 201.011719 C 250.277344 191.949219 252.089844 183.9375 250.457031 176.984375 L 250.527344 177.253906 C 248.59375 170.296875 244.894531 165.761719 239.429688 163.652344 L 239.746094 163.765625 C 231 160.878906 221.964844 161.183594 212.640625 164.675781 L 212.945312 164.554688 C 199.109375 170.511719 195.179688 180.433594 201.160156 194.316406 C 201.488281 195.078125 201.84375 195.855469 202.226562 196.644531 C 203.886719 200.0625 202.460938 204.179688 199.039062 205.839844 C 195.621094 207.496094 191.503906 206.070312 189.84375 202.652344 C 189.371094 201.675781 188.929688 200.710938 188.519531 199.757812 C 178.914062 177.449219 185.242188 161.5 207.503906 151.914062 C 207.605469 151.871094 207.707031 151.828125 207.808594 151.792969 C 220.164062 147.160156 232.25 146.796875 244.0625 150.699219 C 244.171875 150.734375 244.277344 150.773438 244.382812 150.8125 C 254.148438 154.582031 260.617188 162.167969 263.785156 173.570312 C 263.8125 173.660156 263.835938 173.75 263.855469 173.839844 C 266.316406 184.339844 264.011719 195.695312 256.933594 207.910156 L 257.035156 207.730469 C 250.644531 219.566406 241.972656 226.035156 231.019531 227.132812 C 230.820312 227.152344 230.617188 227.164062 230.414062 227.167969 C 215.140625 227.351562 202.917969 222.976562 193.738281 214.039062 C 193.703125 214.003906 193.664062 213.96875 193.628906 213.929688 C 188.425781 208.632812 185.324219 203.476562 184.328125 198.457031 C 184.320312 198.414062 184.3125 198.371094 184.304688 198.328125 C 183.132812 191.78125 183.300781 186.699219 184.816406 183.082031 C 185.515625 181.414062 186.488281 180.007812 187.726562 178.863281 C 190.523438 176.289062 194.875 176.46875 197.449219 179.265625 C 200.023438 182.058594 199.84375 186.414062 197.050781 188.988281 Z M 197.050781 188.988281 " fill-opacity="1" fill-rule="nonzero"/><g clip-path="url(#f75bd65180)"><path fill="#fcdd44" d="M 294.882812 116.351562 C 287.4375 116.839844 279.875 120.488281 272.195312 127.300781 L 272.308594 127.195312 C 264.390625 134.550781 260.128906 141.695312 259.527344 148.636719 L 259.546875 148.347656 C 259.148438 157.234375 261.953125 164.734375 267.960938 170.851562 L 267.773438 170.671875 C 274.460938 176.984375 281.550781 180.015625 289.039062 179.765625 L 289.105469 179.765625 C 303.6875 179.414062 314.109375 176.230469 320.367188 170.214844 L 320.332031 170.25 C 329.980469 160.839844 334.183594 151.039062 332.9375 140.855469 L 332.996094 141.238281 C 330.492188 127.332031 325.339844 118.480469 317.539062 114.679688 C 317.445312 114.636719 317.351562 114.585938 317.257812 114.535156 C 308.804688 109.929688 297.941406 110.359375 284.660156 115.832031 C 281.148438 117.28125 277.125 115.605469 275.679688 112.09375 C 274.230469 108.578125 275.90625 104.558594 279.417969 103.109375 C 296.742188 95.96875 311.550781 95.75 323.84375 102.453125 L 323.5625 102.308594 C 335.550781 108.148438 343.210938 120.3125 346.539062 138.800781 C 346.5625 138.925781 346.582031 139.054688 346.597656 139.183594 C 348.394531 153.878906 342.84375 167.519531 329.9375 180.101562 L 329.902344 180.136719 C 321.070312 188.621094 307.582031 193.085938 289.4375 193.523438 L 289.5 193.519531 C 278.1875 193.898438 267.792969 189.617188 258.328125 180.675781 C 258.261719 180.617188 258.203125 180.554688 258.140625 180.492188 C 249.335938 171.527344 245.222656 160.605469 245.796875 147.734375 C 245.800781 147.640625 245.808594 147.542969 245.816406 147.449219 C 246.722656 136.984375 252.433594 126.871094 262.945312 117.109375 C 262.984375 117.074219 263.023438 117.039062 263.0625 117.007812 C 273.09375 108.105469 283.402344 103.3125 293.988281 102.621094 C 297.78125 102.375 301.054688 105.246094 301.300781 109.039062 C 301.550781 112.832031 298.675781 116.105469 294.882812 116.351562 Z M 294.882812 116.351562 " fill-opacity="1" fill-rule="nonzero"/></g><path fill="#fcdd44" d="M 268.742188 122.300781 C 258.519531 112.179688 248.570312 99.820312 238.894531 85.21875 C 236.792969 82.054688 237.660156 77.78125 240.828125 75.683594 C 243.996094 73.585938 248.265625 74.449219 250.363281 77.617188 C 259.519531 91.429688 268.871094 103.066406 278.425781 112.523438 C 281.125 115.195312 281.148438 119.554688 278.472656 122.253906 C 275.800781 124.953125 271.445312 124.976562 268.742188 122.300781 Z M 268.742188 122.300781 " fill-opacity="1" fill-rule="nonzero"/><g clip-path="url(#10854d5ad3)"><path fill="#fcdd44" d="M 310.058594 101.304688 C 312.457031 95.859375 315.761719 87.589844 319.96875 76.503906 L 319.992188 76.449219 C 320.820312 74.316406 322.5625 68.800781 325.21875 59.902344 C 326.308594 56.257812 330.140625 54.1875 333.78125 55.277344 C 337.421875 56.363281 339.492188 60.195312 338.40625 63.835938 C 335.644531 73.09375 333.78125 78.960938 332.816406 81.441406 L 332.835938 81.386719 C 328.542969 92.699219 325.148438 101.1875 322.648438 106.859375 C 321.113281 110.335938 317.054688 111.910156 313.578125 110.378906 C 310.097656 108.84375 308.523438 104.78125 310.058594 101.304688 Z M 310.058594 101.304688 " fill-opacity="1" fill-rule="nonzero"/></g><path fill="#084c61" d="M 273.484375 137.632812 C 273.820312 138.027344 274.398438 138.265625 275.222656 138.355469 L 275.152344 138.347656 C 276.738281 138.4375 278.121094 138.277344 279.296875 137.871094 L 279.230469 137.898438 C 280.117188 137.542969 280.824219 137.089844 281.351562 136.535156 L 281.355469 136.527344 C 282.019531 135.835938 282.863281 134.683594 283.878906 133.066406 C 284.320312 132.363281 285.25 132.152344 285.953125 132.59375 C 286.65625 133.035156 286.867188 133.964844 286.425781 134.667969 C 285.300781 136.460938 284.332031 137.773438 283.527344 138.613281 L 283.53125 138.605469 C 282.703125 139.480469 281.640625 140.175781 280.34375 140.691406 L 280.28125 140.714844 C 278.730469 141.25 276.964844 141.464844 274.984375 141.351562 L 274.910156 141.347656 C 273.28125 141.175781 272.039062 140.585938 271.1875 139.574219 C 270.648438 138.9375 270.730469 137.988281 271.363281 137.453125 C 272 136.917969 272.949219 136.996094 273.484375 137.632812 Z M 273.484375 137.632812 " fill-opacity="1" fill-rule="nonzero"/><path fill="#084c61" d="M 296.242188 128 C 298.074219 128.359375 299.539062 128.496094 300.640625 128.414062 L 300.667969 128.410156 C 302.472656 128.308594 303.769531 128.078125 304.5625 127.714844 L 304.585938 127.703125 C 305.613281 127.257812 306.316406 126.710938 306.695312 126.070312 C 306.71875 126.027344 306.746094 125.988281 306.773438 125.949219 C 307.371094 125.125 307.625 124.4375 307.539062 123.882812 C 307.40625 123.0625 307.964844 122.292969 308.785156 122.160156 C 309.605469 122.03125 310.378906 122.589844 310.507812 123.410156 C 310.726562 124.785156 310.296875 126.21875 309.210938 127.714844 L 309.289062 127.59375 C 308.582031 128.800781 307.414062 129.757812 305.789062 130.464844 L 305.816406 130.453125 C 304.679688 130.972656 303.019531 131.292969 300.835938 131.414062 L 300.867188 131.414062 C 299.496094 131.515625 297.761719 131.363281 295.664062 130.953125 C 294.851562 130.792969 294.316406 130.003906 294.476562 129.1875 C 294.636719 128.375 295.425781 127.839844 296.242188 128 Z M 296.242188 128 " fill-opacity="1" fill-rule="nonzero"/><path fill="#084c61" d="M 279.105469 157.226562 C 280.0625 159.308594 283.78125 161.023438 290.253906 162.378906 L 290.1875 162.367188 C 294.242188 163.027344 299.019531 162.34375 304.523438 160.316406 L 304.496094 160.324219 C 308.945312 158.574219 311.980469 156.449219 313.597656 153.945312 L 313.570312 153.984375 C 316.117188 149.742188 317.109375 145.960938 316.550781 142.652344 C 316.410156 141.832031 316.964844 141.054688 317.78125 140.914062 C 318.601562 140.777344 319.378906 141.328125 319.515625 142.148438 C 320.203125 146.191406 319.078125 150.652344 316.152344 155.535156 L 316.125 155.578125 C 314.15625 158.621094 310.648438 161.140625 305.597656 163.125 L 305.566406 163.136719 C 299.566406 165.347656 294.277344 166.082031 289.703125 165.335938 L 289.636719 165.324219 C 282.175781 163.765625 277.753906 161.484375 276.371094 158.488281 C 276.023438 157.734375 276.355469 156.839844 277.109375 156.492188 C 277.863281 156.144531 278.757812 156.472656 279.105469 157.226562 Z M 279.105469 157.226562 " fill-opacity="1" fill-rule="nonzero"/><path fill="#ff9f1c" d="M 76.351562 264.742188 C 76.320312 264.757812 76.285156 264.773438 76.253906 264.785156 L 76.25 264.785156 C 76.117188 264.832031 75.988281 264.851562 75.867188 264.851562 C 75.753906 264.851562 75.648438 264.832031 75.542969 264.792969 L 75.546875 264.792969 C 75.648438 264.8125 75.753906 264.824219 75.855469 264.824219 C 76.023438 264.824219 76.1875 264.796875 76.347656 264.742188 Z M 91.53125 277.285156 C 91.507812 277.308594 91.484375 277.328125 91.460938 277.347656 C 91.460938 277.34375 91.464844 277.339844 91.464844 277.335938 C 91.484375 277.320312 91.503906 277.304688 91.527344 277.285156 Z M 91.320312 277.4375 C 91.1875 277.523438 91.023438 277.585938 90.828125 277.625 C 91 277.589844 91.164062 277.527344 91.316406 277.4375 Z M 65.300781 282.3125 L 62.941406 288.390625 L 62.9375 288.390625 C 62.800781 288.695312 62.664062 289 62.519531 289.3125 L 62.515625 289.3125 C 62.582031 289.128906 62.648438 288.9375 62.714844 288.75 L 62.734375 288.683594 C 63.066406 287.601562 63.917969 285.476562 65.296875 282.3125 Z M 46.644531 290.832031 Z M 48.574219 291.164062 C 48.59375 291.195312 48.613281 291.226562 48.632812 291.261719 C 48.613281 291.226562 48.59375 291.199219 48.574219 291.167969 L 48.570312 291.167969 C 48.570312 291.167969 48.570312 291.164062 48.570312 291.164062 Z M 57.488281 258.203125 C 57.132812 258.203125 56.785156 258.332031 56.511719 258.566406 C 55.988281 259.011719 55.363281 259.917969 54.640625 261.289062 C 54.472656 261.113281 54.261719 260.976562 54.015625 260.894531 C 53.859375 260.84375 53.703125 260.820312 53.550781 260.820312 C 52.925781 260.820312 52.34375 261.210938 52.128906 261.835938 C 51.695312 263.089844 51.277344 264.300781 50.875 265.46875 C 50.648438 265.355469 50.421875 265.296875 50.199219 265.296875 C 49.777344 265.296875 49.363281 265.507812 48.960938 265.921875 C 48.628906 266.261719 48.121094 266.996094 47.425781 268.125 L 47.425781 268.128906 C 46.582031 269.496094 45.578125 271.351562 44.402344 273.691406 C 43.617188 274.9375 42.191406 278.511719 40.117188 284.414062 C 39.824219 285.054688 39.527344 285.710938 39.226562 286.378906 C 39.214844 286.410156 39.203125 286.4375 39.191406 286.464844 C 38.71875 287.710938 38.394531 288.703125 38.21875 289.445312 L 38.214844 289.445312 C 37.675781 290.726562 37.121094 292.058594 36.546875 293.441406 C 36.234375 294.191406 36.570312 295.050781 37.308594 295.386719 C 37.511719 295.480469 37.722656 295.523438 37.933594 295.523438 C 38.488281 295.523438 39.019531 295.214844 39.28125 294.6875 C 39.644531 293.957031 40.027344 293.136719 40.425781 292.222656 C 40.582031 292.15625 40.742188 292.0625 40.902344 291.945312 C 41.425781 291.570312 42.210938 290.664062 43.25 289.238281 L 43.253906 289.238281 C 43.238281 289.660156 43.347656 290.023438 43.578125 290.324219 C 43.863281 290.699219 44.308594 290.914062 44.773438 290.914062 C 44.867188 290.914062 44.957031 290.90625 45.050781 290.890625 C 45.257812 290.851562 45.449219 290.769531 45.617188 290.65625 L 45.617188 290.660156 C 45.554688 291.03125 45.527344 291.351562 45.539062 291.609375 L 45.539062 291.613281 C 45.574219 292.378906 45.851562 292.921875 46.378906 293.242188 C 46.644531 293.515625 46.949219 293.652344 47.296875 293.652344 C 47.59375 293.652344 47.921875 293.546875 48.277344 293.34375 C 48.429688 293.257812 48.574219 293.144531 48.71875 293.007812 C 49.242188 292.507812 50.070312 291.242188 51.199219 289.203125 C 51.21875 289.171875 51.234375 289.136719 51.25 289.105469 C 51.699219 288.128906 52.136719 287.183594 52.566406 286.261719 L 52.570312 286.261719 L 52.296875 286.957031 L 52.28125 287.007812 C 51.3125 289.773438 50.792969 291.527344 50.714844 292.273438 L 50.714844 292.277344 C 50.667969 292.722656 50.660156 293.085938 50.6875 293.363281 C 50.78125 294.378906 51.277344 294.933594 52.175781 295.023438 C 52.203125 295.027344 52.230469 295.03125 52.253906 295.03125 L 52.25 295.03125 C 51.605469 296.730469 50.960938 298.460938 50.316406 300.214844 C 50.105469 300.789062 50.265625 301.4375 50.722656 301.847656 C 51.003906 302.101562 51.367188 302.238281 51.730469 302.238281 C 51.953125 302.238281 52.175781 302.1875 52.386719 302.085938 C 52.472656 302.046875 52.554688 302 52.640625 301.945312 C 53.632812 301.328125 55.1875 299.257812 57.308594 295.742188 L 57.3125 295.742188 C 57.019531 296.804688 56.789062 297.757812 56.613281 298.601562 C 56.605469 298.636719 56.601562 298.671875 56.597656 298.710938 C 56.550781 299.066406 56.535156 299.367188 56.546875 299.613281 C 56.597656 300.652344 57.082031 301.230469 57.996094 301.347656 L 57.996094 301.351562 C 58.070312 301.359375 58.144531 301.363281 58.21875 301.363281 C 58.695312 301.363281 59.136719 301.15625 59.539062 300.742188 C 59.820312 300.457031 60.15625 299.976562 60.546875 299.308594 L 60.546875 299.3125 C 62.683594 295.757812 64.40625 292.503906 65.71875 289.542969 L 65.746094 289.480469 L 72.945312 270.957031 L 72.941406 270.957031 C 73.484375 269.871094 74.101562 268.726562 74.789062 267.523438 L 74.792969 267.523438 C 74.644531 269.015625 74.394531 270.960938 74.042969 273.359375 L 74.039062 273.359375 L 67.332031 303.96875 C 67.164062 304.742188 67.625 305.519531 68.390625 305.738281 C 68.527344 305.777344 68.667969 305.792969 68.804688 305.792969 C 69.425781 305.792969 70.003906 305.40625 70.222656 304.789062 C 70.566406 303.820312 70.902344 302.871094 71.230469 301.945312 L 71.234375 301.945312 C 71.253906 302.128906 71.296875 302.300781 71.363281 302.457031 C 71.511719 302.796875 71.777344 303.070312 72.113281 303.226562 C 72.386719 303.351562 72.660156 303.417969 72.933594 303.417969 C 73.34375 303.417969 73.757812 303.277344 74.175781 303.003906 C 75.125 302.375 76.355469 300.566406 77.867188 297.585938 C 77.890625 297.535156 77.914062 297.484375 77.933594 297.433594 C 78.429688 296.109375 78.90625 294.839844 79.363281 293.628906 L 79.367188 293.632812 C 78.953125 295.304688 78.550781 296.964844 78.167969 298.621094 C 78.136719 298.75 78.125 298.886719 78.132812 299.019531 C 78.175781 300.0625 78.679688 300.585938 79.644531 300.585938 C 79.679688 300.585938 79.71875 300.582031 79.757812 300.582031 C 80.238281 300.5625 80.65625 300.339844 81.019531 299.914062 C 81.542969 299.304688 82.652344 297.277344 84.347656 293.835938 C 84.363281 293.800781 84.378906 293.769531 84.394531 293.734375 C 85.578125 290.785156 86.617188 288.230469 87.515625 286.070312 L 87.519531 286.070312 C 86.957031 288.246094 86.191406 291.132812 85.230469 294.734375 L 85.21875 294.777344 C 84.96875 295.835938 84.863281 296.628906 84.902344 297.152344 C 84.929688 297.53125 85.027344 297.855469 85.199219 298.128906 C 85.472656 298.574219 85.957031 298.84375 86.476562 298.84375 C 86.496094 298.84375 86.515625 298.84375 86.53125 298.84375 C 86.90625 298.832031 87.277344 298.71875 87.640625 298.507812 C 88.28125 298.132812 89.039062 297.289062 89.90625 295.972656 L 89.910156 295.972656 C 89.988281 296.03125 90.074219 296.082031 90.167969 296.128906 C 90.375 296.226562 90.589844 296.269531 90.804688 296.269531 C 91.371094 296.269531 91.910156 295.953125 92.167969 295.40625 C 93.328125 292.949219 94.871094 287.707031 96.800781 279.679688 C 96.984375 278.90625 96.539062 278.125 95.78125 277.890625 C 95.632812 277.84375 95.484375 277.820312 95.335938 277.820312 C 94.730469 277.820312 94.160156 278.191406 93.933594 278.789062 L 89.53125 290.265625 C 90.890625 285.09375 91.613281 282.175781 91.691406 281.515625 C 91.695312 281.480469 91.695312 281.449219 91.699219 281.414062 L 91.695312 281.414062 C 92.210938 278.683594 92.425781 276.9375 92.34375 276.175781 C 92.289062 275.675781 92.109375 275.277344 91.800781 274.988281 C 91.433594 274.632812 91.0625 274.457031 90.691406 274.457031 C 90.332031 274.457031 89.972656 274.621094 89.613281 274.953125 L 89.609375 274.953125 C 89.460938 275.0625 89.320312 275.199219 89.1875 275.363281 C 88.566406 276.140625 87.125 279.230469 84.863281 284.628906 C 85.789062 281.335938 86.773438 278.003906 87.820312 274.640625 L 87.835938 274.585938 C 87.972656 274.082031 88.054688 273.699219 88.082031 273.4375 C 88.136719 272.929688 88.03125 272.5 87.761719 272.15625 C 87.410156 271.699219 87.027344 271.472656 86.613281 271.472656 C 86.289062 271.472656 85.945312 271.613281 85.582031 271.894531 L 85.578125 271.894531 C 85.464844 271.984375 85.351562 272.089844 85.238281 272.214844 C 84.585938 272.949219 83.339844 275.535156 81.496094 279.980469 C 81.988281 278.621094 82.5 277.203125 83.039062 275.722656 C 83.054688 275.675781 83.070312 275.628906 83.082031 275.585938 C 83.421875 274.269531 83.570312 273.3125 83.523438 272.707031 C 83.492188 272.304688 83.378906 271.960938 83.191406 271.675781 C 82.816406 271.117188 82.378906 270.835938 81.867188 270.835938 C 81.5 270.835938 81.097656 270.984375 80.65625 271.273438 C 80.574219 271.328125 80.5 271.390625 80.429688 271.460938 C 79.476562 272.410156 77.660156 276.3125 74.972656 283.167969 L 74.972656 283.171875 L 77 273.90625 C 77.007812 273.871094 77.015625 273.835938 77.019531 273.800781 C 77.875 267.996094 78.117188 264.46875 77.746094 263.210938 L 77.746094 263.214844 C 77.691406 263.027344 77.625 262.859375 77.539062 262.707031 C 77.167969 262.035156 76.699219 261.699219 76.136719 261.699219 C 76.023438 261.699219 75.90625 261.714844 75.78125 261.742188 C 75.378906 261.75 74.980469 261.949219 74.585938 262.34375 C 74.371094 262.5625 74.066406 262.949219 73.675781 263.503906 L 73.652344 263.535156 C 73.640625 263.554688 73.632812 263.570312 73.621094 263.589844 C 73.148438 264.359375 72.703125 265.109375 72.285156 265.84375 C 72.183594 265.589844 72.011719 265.363281 71.78125 265.191406 C 71.515625 264.992188 71.199219 264.894531 70.886719 264.894531 C 70.527344 264.894531 70.167969 265.019531 69.882812 265.273438 C 69.820312 265.328125 69.757812 265.390625 69.695312 265.460938 C 69.15625 266.054688 67.996094 268.039062 66.214844 271.40625 L 66.199219 271.4375 L 59.789062 284.246094 L 59.789062 284.25 C 61.683594 279.722656 63.589844 275.433594 65.515625 271.375 C 65.53125 271.339844 65.546875 271.304688 65.5625 271.265625 C 66.816406 267.964844 67.613281 265.476562 67.949219 263.800781 C 67.96875 263.707031 67.976562 263.613281 67.976562 263.519531 C 67.984375 262.824219 67.691406 262.332031 67.09375 262.050781 C 66.839844 261.929688 66.597656 261.867188 66.367188 261.867188 C 65.882812 261.867188 65.449219 262.136719 65.074219 262.671875 C 65 262.777344 64.910156 262.921875 64.808594 263.101562 L 64.808594 263.105469 L 65.023438 262.546875 C 65.285156 261.871094 65.03125 261.105469 64.417969 260.722656 C 64.171875 260.570312 63.898438 260.496094 63.625 260.496094 C 63.214844 260.496094 62.808594 260.660156 62.515625 260.980469 C 61.054688 262.566406 58.433594 267.199219 54.660156 274.878906 C 56.378906 270.34375 57.308594 267.765625 57.445312 267.140625 L 57.441406 267.140625 C 58.589844 263.296875 59.125 260.871094 59.050781 259.863281 C 59.027344 259.53125 58.945312 259.242188 58.8125 258.996094 C 58.597656 258.59375 58.210938 258.3125 57.765625 258.230469 C 57.671875 258.214844 57.582031 258.203125 57.488281 258.203125 Z M 57.488281 258.203125 " fill-opacity="1" fill-rule="nonzero"/><path fill="#ff9f1c" d="M 81.460938 258.457031 C 80.953125 258.457031 80.519531 258.75 80.164062 259.335938 C 80.058594 259.511719 79.921875 259.777344 79.757812 260.136719 C 79.742188 260.167969 79.730469 260.199219 79.71875 260.230469 L 79.6875 260.316406 C 79.519531 259.992188 79.238281 259.726562 78.871094 259.589844 C 78.699219 259.527344 78.519531 259.496094 78.347656 259.496094 C 77.734375 259.496094 77.160156 259.871094 76.9375 260.476562 C 75.148438 265.289062 73.742188 269.648438 72.714844 273.550781 C 72.023438 275.945312 70.714844 281.507812 68.796875 290.238281 L 68.792969 290.238281 L 67.949219 293.421875 C 67.195312 295.78125 66.5625 297.75 66.046875 299.320312 L 66.042969 299.320312 C 64.339844 302.101562 62.5625 304.492188 60.714844 306.488281 C 60.152344 307.097656 60.1875 308.050781 60.796875 308.613281 C 61.089844 308.882812 61.453125 309.015625 61.820312 309.015625 C 62.226562 309.015625 62.628906 308.851562 62.925781 308.53125 C 63.710938 307.683594 64.484375 306.769531 65.242188 305.792969 L 65.246094 305.792969 C 65.257812 305.796875 65.269531 305.804688 65.28125 305.808594 C 65.476562 305.894531 65.683594 305.9375 65.886719 305.9375 C 66.453125 305.9375 66.996094 305.617188 67.25 305.070312 C 67.914062 303.652344 68.582031 301.90625 69.25 299.828125 L 69.246094 299.828125 C 72.027344 295.085938 74.609375 289.351562 76.988281 282.632812 C 78.429688 278.550781 79.703125 274.378906 80.800781 270.109375 L 80.804688 270.101562 C 81.660156 266.683594 82.371094 263.644531 82.933594 260.980469 C 82.996094 260.722656 83.039062 260.515625 83.058594 260.359375 L 83.058594 260.355469 C 83.167969 259.523438 82.875 258.945312 82.179688 258.632812 C 81.925781 258.515625 81.683594 258.457031 81.460938 258.457031 Z M 81.460938 258.457031 " fill-opacity="1" fill-rule="nonzero"/><path fill="#fcdd44" d="M 110.402344 274.429688 C 109.042969 277.40625 107.597656 280.417969 106.0625 283.460938 C 105.539062 284.375 105.050781 285.109375 104.597656 285.660156 C 104.308594 286.015625 104.058594 286.273438 103.855469 286.4375 C 103.925781 286.140625 103.996094 285.847656 104.066406 285.558594 L 104.0625 285.558594 C 104.34375 285.109375 104.664062 284.574219 105.023438 283.953125 L 105.03125 283.9375 L 110.398438 274.429688 Z M 108.984375 294.660156 Z M 131.082031 297.136719 C 131.117188 297.195312 131.148438 297.253906 131.175781 297.3125 L 131.167969 297.3125 C 131.140625 297.253906 131.109375 297.195312 131.078125 297.136719 Z M 122.546875 256.078125 C 122.054688 256.078125 121.574219 256.316406 121.285156 256.757812 C 119.980469 258.757812 118.882812 260.609375 117.996094 262.308594 C 117.917969 262.203125 117.828125 262.109375 117.722656 262.027344 L 117.71875 262.027344 C 117.464844 261.375 117.019531 261.050781 116.378906 261.050781 C 116.203125 261.050781 116.007812 261.074219 115.796875 261.128906 C 115.515625 261.195312 115.242188 261.335938 114.976562 261.550781 C 114.25 262.132812 112.996094 263.902344 111.21875 266.855469 L 111.199219 266.890625 L 106.160156 275.816406 L 106.160156 275.820312 C 106.476562 274.113281 106.730469 272.566406 106.921875 271.175781 L 106.917969 271.175781 L 107.5625 268.585938 C 107.65625 268.214844 107.601562 267.824219 107.417969 267.492188 L 107.414062 267.492188 C 107.609375 265.96875 107.714844 264.980469 107.726562 264.523438 C 107.753906 264.027344 107.753906 263.644531 107.71875 263.367188 L 107.71875 263.371094 C 107.660156 262.847656 107.460938 262.445312 107.117188 262.164062 C 106.761719 261.863281 106.414062 261.714844 106.074219 261.714844 C 105.65625 261.714844 105.257812 261.945312 104.871094 262.402344 L 104.871094 262.40625 C 104.804688 262.484375 104.75 262.570312 104.699219 262.660156 C 104.257812 263.484375 103.820312 264.695312 103.378906 266.292969 C 103.367188 266.328125 103.359375 266.363281 103.351562 266.398438 C 102.679688 269.726562 102.121094 272.429688 101.667969 274.507812 C 101.03125 276.578125 100.320312 279.085938 99.53125 282.027344 C 99.519531 282.078125 99.507812 282.128906 99.5 282.183594 C 99.46875 282.375 99.449219 282.535156 99.441406 282.664062 C 99.378906 283.605469 99.746094 284.171875 100.542969 284.367188 L 100.539062 284.367188 L 100.171875 285.84375 C 100.085938 286.179688 100.121094 286.535156 100.269531 286.847656 C 100.398438 287.121094 100.589844 287.339844 100.84375 287.5 L 100.839844 287.5 C 100.855469 287.589844 100.871094 287.675781 100.894531 287.761719 C 100.976562 288.105469 101.117188 288.410156 101.308594 288.675781 C 101.382812 288.777344 101.472656 288.871094 101.570312 288.953125 C 101.78125 289.125 102.003906 289.269531 102.234375 289.378906 C 102.628906 289.566406 103.039062 289.660156 103.460938 289.660156 C 103.597656 289.660156 103.734375 289.652344 103.871094 289.632812 C 104.894531 289.492188 105.910156 288.804688 106.921875 287.570312 C 107.222656 287.203125 107.53125 286.785156 107.84375 286.308594 L 107.847656 286.308594 C 107.382812 287.84375 106.902344 289.425781 106.40625 291.0625 L 106.390625 291.121094 C 105.9375 292.867188 105.808594 294.203125 106.011719 295.128906 C 106.027344 295.234375 106.050781 295.335938 106.074219 295.433594 C 106.351562 296.46875 106.929688 296.988281 107.816406 296.988281 C 107.929688 296.988281 108.050781 296.980469 108.175781 296.964844 C 108.507812 296.917969 108.832031 296.78125 109.152344 296.5625 C 109.421875 296.375 109.703125 296.109375 110 295.765625 C 110.023438 295.734375 110.050781 295.707031 110.070312 295.675781 C 110.691406 294.835938 111.390625 293.695312 112.175781 292.253906 L 112.179688 292.257812 C 111.65625 293.390625 111.109375 294.539062 110.53125 295.703125 C 110.503906 295.753906 110.480469 295.808594 110.460938 295.867188 C 110.355469 296.15625 110.285156 296.386719 110.246094 296.558594 C 110.019531 297.539062 110.339844 298.179688 111.203125 298.488281 L 111.203125 298.492188 C 111.398438 298.558594 111.585938 298.59375 111.765625 298.59375 C 112.226562 298.59375 112.644531 298.363281 113.015625 297.902344 L 113.015625 297.90625 C 113.03125 297.882812 113.046875 297.863281 113.0625 297.839844 C 113.089844 297.808594 113.113281 297.773438 113.136719 297.738281 C 113.984375 296.40625 115.320312 293.726562 117.140625 289.703125 L 117.144531 289.703125 L 115.347656 294.425781 C 115.3125 294.519531 115.289062 294.617188 115.269531 294.714844 C 115.226562 294.976562 115.203125 295.210938 115.199219 295.410156 C 115.1875 296.46875 115.644531 297.078125 116.574219 297.234375 C 116.671875 297.25 116.765625 297.257812 116.855469 297.257812 C 117.300781 297.257812 117.722656 297.074219 118.121094 296.707031 C 118.6875 296.183594 119.628906 294.769531 120.9375 292.464844 L 120.945312 292.449219 C 121.683594 291.125 122.625 289.324219 123.773438 287.058594 L 123.777344 287.058594 C 122.429688 291.175781 120.570312 297.445312 118.203125 305.867188 C 118.152344 306.046875 118.136719 306.234375 118.152344 306.421875 C 118.246094 307.371094 118.722656 307.847656 119.585938 307.847656 C 119.667969 307.847656 119.753906 307.84375 119.84375 307.835938 L 119.847656 307.835938 C 120.285156 307.792969 120.667969 307.574219 121.003906 307.183594 C 121.335938 306.792969 121.914062 305.839844 122.734375 304.328125 L 122.738281 304.320312 L 132.34375 286.417969 L 132.347656 286.417969 C 129.730469 292.742188 128.371094 296.441406 128.265625 297.523438 L 128.269531 297.523438 C 128.226562 297.929688 128.285156 298.285156 128.4375 298.585938 L 128.433594 298.585938 C 128.714844 299.285156 129.171875 299.636719 129.796875 299.636719 C 130.019531 299.636719 130.265625 299.59375 130.53125 299.503906 C 130.765625 299.425781 130.996094 299.296875 131.222656 299.117188 C 132.136719 298.386719 133.84375 295.765625 136.34375 291.253906 L 136.339844 291.253906 C 137.632812 289.167969 139.683594 285.34375 142.492188 279.789062 L 142.496094 279.789062 C 140.5625 285.097656 138.136719 291.625 135.21875 299.367188 C 135.195312 299.429688 135.175781 299.496094 135.160156 299.558594 C 134.894531 300.714844 135.296875 301.414062 136.371094 301.664062 C 136.492188 301.691406 136.621094 301.703125 136.75 301.703125 C 137.03125 301.703125 137.328125 301.636719 137.628906 301.496094 C 138.0625 301.296875 138.664062 300.871094 139.441406 300.21875 L 139.5 300.167969 C 140.496094 299.246094 141.441406 298.058594 142.332031 296.609375 C 142.492188 296.375 142.847656 295.738281 143.390625 294.699219 L 143.394531 294.703125 C 143.703125 295.25 144.21875 295.523438 144.953125 295.523438 C 144.960938 295.523438 144.96875 295.523438 144.976562 295.523438 C 145.183594 295.523438 145.390625 295.484375 145.601562 295.417969 L 145.605469 295.417969 C 145.570312 295.484375 145.53125 295.554688 145.496094 295.621094 C 145.109375 296.355469 145.386719 297.265625 146.121094 297.65625 C 146.347656 297.773438 146.585938 297.828125 146.824219 297.828125 C 147.363281 297.828125 147.886719 297.539062 148.15625 297.027344 C 148.308594 296.742188 148.460938 296.460938 148.617188 296.183594 L 148.621094 296.183594 C 148.742188 296.394531 148.914062 296.582031 149.132812 296.71875 C 149.378906 296.875 149.65625 296.949219 149.933594 296.949219 C 150.316406 296.949219 150.699219 296.800781 150.988281 296.515625 C 153.042969 294.488281 154.722656 291.628906 156.03125 287.9375 C 156.136719 287.648438 156.210938 287.394531 156.25 287.175781 C 156.441406 286.136719 156.097656 285.453125 155.214844 285.132812 C 155.171875 285.117188 155.132812 285.101562 155.089844 285.089844 L 155.085938 285.09375 L 155.164062 284.863281 L 155.1875 284.785156 C 155.480469 283.738281 155.648438 283.019531 155.683594 282.628906 C 155.746094 281.972656 155.550781 281.464844 155.09375 281.109375 C 154.75 280.839844 154.414062 280.703125 154.09375 280.703125 C 153.660156 280.703125 153.25 280.949219 152.859375 281.445312 C 152.839844 281.472656 152.820312 281.5 152.800781 281.523438 C 150.320312 285.140625 148.453125 287.8125 147.195312 289.539062 C 149.886719 282.714844 151.851562 277.957031 153.097656 275.269531 L 153.09375 275.269531 C 153.347656 274.75 153.609375 274.21875 153.875 273.675781 C 154.238281 272.9375 153.941406 272.046875 153.207031 271.671875 C 152.988281 271.5625 152.753906 271.507812 152.527344 271.507812 C 151.984375 271.507812 151.464844 271.800781 151.195312 272.3125 C 150.972656 272.734375 150.710938 273.265625 150.410156 273.917969 L 150.40625 273.917969 C 145.324219 284.253906 142.066406 290.785156 140.628906 293.511719 C 147.578125 274.894531 151.105469 264.664062 151.210938 262.816406 C 151.242188 262.277344 151.101562 261.835938 150.796875 261.492188 C 150.550781 261.210938 150.207031 261.035156 149.835938 260.992188 C 149.773438 260.988281 149.710938 260.984375 149.652344 260.984375 C 149.152344 260.984375 148.71875 261.214844 148.351562 261.675781 C 147.988281 262.128906 147.253906 263.429688 146.152344 265.582031 L 146.136719 265.613281 C 141.285156 275.601562 137.703125 282.691406 135.386719 286.890625 C 137.429688 282.007812 140.230469 275.515625 143.789062 267.421875 L 143.808594 267.375 C 144.902344 264.648438 145.480469 262.882812 145.539062 262.082031 C 145.539062 262.066406 145.539062 262.046875 145.542969 262.027344 C 145.609375 260.832031 145.097656 260.203125 144.011719 260.144531 C 143.980469 260.140625 143.953125 260.140625 143.925781 260.140625 C 143.601562 260.140625 143.28125 260.246094 143.023438 260.441406 C 142.160156 261.089844 140.828125 263.015625 139.023438 266.21875 C 139.007812 266.246094 138.996094 266.273438 138.980469 266.296875 L 131.644531 281.351562 L 124.640625 294.410156 C 125.742188 290.730469 126.648438 287.886719 127.351562 285.878906 L 137.105469 261.152344 C 137.324219 260.601562 137.195312 259.972656 136.78125 259.546875 C 136.492188 259.253906 136.101562 259.097656 135.707031 259.097656 C 135.53125 259.097656 135.355469 259.125 135.183594 259.1875 C 134.9375 259.28125 134.703125 259.429688 134.476562 259.640625 C 133.824219 260.246094 132.730469 261.992188 131.199219 264.882812 L 131.171875 264.941406 C 128.605469 270.339844 126.378906 274.980469 124.480469 278.859375 L 132.304688 258.269531 C 132.566406 257.585938 132.292969 256.8125 131.660156 256.4375 C 131.421875 256.300781 131.160156 256.230469 130.898438 256.230469 C 130.464844 256.230469 130.039062 256.417969 129.746094 256.769531 C 128.746094 257.957031 127.316406 260.296875 125.457031 263.789062 C 125.53125 263.476562 125.589844 263.207031 125.632812 262.976562 C 125.753906 262.296875 125.398438 261.621094 124.765625 261.339844 C 124.566406 261.25 124.359375 261.207031 124.152344 261.207031 C 123.699219 261.207031 123.257812 261.410156 122.964844 261.785156 C 121.507812 263.65625 117.945312 271.476562 112.28125 285.25 C 112.695312 283.847656 113.101562 282.398438 113.511719 280.90625 L 113.507812 280.90625 C 114.925781 277.257812 116.757812 272.765625 118.996094 267.429688 L 119.023438 267.359375 C 119.917969 264.898438 121.511719 261.914062 123.804688 258.40625 C 124.261719 257.710938 124.066406 256.777344 123.371094 256.324219 C 123.117188 256.15625 122.828125 256.078125 122.546875 256.078125 Z M 122.546875 256.078125 " fill-opacity="1" fill-rule="nonzero"/><path fill="#fcdd44" d="M 122.21875 312.191406 C 123.855469 307.441406 125.925781 301.835938 128.429688 295.367188 L 128.398438 295.460938 C 129.730469 291.234375 130.472656 288.917969 130.632812 288.515625 C 130.640625 288.5 130.644531 288.484375 130.652344 288.46875 C 130.964844 287.71875 131.820312 287.351562 132.582031 287.644531 C 133.339844 287.9375 133.730469 288.785156 133.457031 289.550781 C 132.15625 293.222656 130.34375 298.714844 128.015625 306.023438 L 128.011719 306.035156 C 127.382812 307.964844 127.003906 309.386719 126.871094 310.292969 L 126.882812 310.207031 C 126.878906 310.238281 126.878906 310.257812 126.878906 310.273438 C 126.878906 309.542969 126.457031 309.144531 125.613281 309.066406 C 125.179688 309.027344 124.847656 309.136719 124.617188 309.386719 C 124.679688 309.316406 124.785156 309.164062 124.933594 308.925781 L 124.910156 308.964844 L 130.332031 299.691406 L 130.378906 299.613281 L 130.339844 299.679688 C 130.519531 299.375 130.675781 299.140625 130.816406 298.972656 C 131.113281 298.609375 131.453125 298.386719 131.839844 298.308594 L 131.15625 298.648438 C 131.9375 297.960938 132.667969 298.003906 133.34375 298.773438 C 133.644531 299.113281 133.773438 299.546875 133.734375 300.070312 C 133.707031 300.410156 133.59375 300.980469 133.390625 301.789062 L 133.398438 301.746094 C 133.246094 302.429688 132.746094 304.054688 131.894531 306.613281 L 131.914062 306.550781 C 131.691406 307.324219 131.570312 307.796875 131.542969 307.964844 L 131.542969 307.960938 C 131.542969 307.96875 131.542969 307.972656 131.542969 307.976562 C 131.414062 308.796875 130.644531 309.359375 129.824219 309.230469 C 129.003906 309.105469 128.441406 308.335938 128.566406 307.515625 C 128.566406 307.511719 128.566406 307.511719 128.566406 307.515625 L 128.566406 307.511719 C 128.613281 307.214844 128.761719 306.621094 129.019531 305.722656 L 129.039062 305.664062 C 129.859375 303.199219 130.332031 301.679688 130.460938 301.09375 L 130.472656 301.054688 C 130.632812 300.414062 130.71875 300.007812 130.734375 299.84375 C 130.707031 300.160156 130.824219 300.464844 131.085938 300.761719 C 131.734375 301.496094 132.417969 301.546875 133.144531 300.910156 C 132.949219 301.082031 132.714844 301.199219 132.460938 301.253906 C 132.765625 301.1875 132.992188 301.0625 133.144531 300.878906 C 133.101562 300.933594 133.027344 301.046875 132.925781 301.21875 L 132.882812 301.28125 L 132.882812 301.285156 L 132.929688 301.207031 L 127.507812 310.484375 L 127.488281 310.519531 C 127.238281 310.921875 127.015625 311.222656 126.824219 311.429688 C 126.386719 311.902344 125.894531 312.113281 125.347656 312.066406 C 124.359375 311.976562 123.867188 311.378906 123.867188 310.269531 C 123.867188 310.167969 123.875 310.058594 123.882812 309.941406 L 123.894531 309.859375 C 124.050781 308.78125 124.46875 307.199219 125.148438 305.101562 L 125.148438 305.113281 C 127.484375 297.773438 129.308594 292.25 130.621094 288.546875 L 133.429688 289.628906 C 133.429688 289.625 133.429688 289.621094 133.429688 289.625 L 133.429688 289.621094 C 133.296875 289.957031 132.578125 292.203125 131.269531 296.363281 C 131.257812 296.394531 131.25 296.425781 131.238281 296.457031 C 128.746094 302.886719 126.6875 308.457031 125.066406 313.171875 C 124.792969 313.957031 123.9375 314.375 123.152344 314.101562 C 122.367188 313.832031 121.949219 312.976562 122.21875 312.191406 Z M 122.21875 312.191406 " fill-opacity="1" fill-rule="nonzero"/><path fill="#fcdd44" d="M 136.386719 253.433594 C 135.710938 253.433594 135.097656 253.890625 134.925781 254.574219 C 134.375 256.789062 132.667969 261.722656 129.808594 269.367188 L 129.789062 269.425781 C 129.105469 271.492188 128.589844 273.242188 128.238281 274.667969 L 128.238281 274.671875 C 128.066406 275.382812 128.429688 276.117188 129.101562 276.40625 C 129.296875 276.492188 129.5 276.53125 129.699219 276.53125 C 130.195312 276.53125 130.675781 276.285156 130.960938 275.847656 L 131.277344 275.363281 C 131.308594 275.316406 131.335938 275.265625 131.363281 275.210938 C 132.648438 272.625 133.46875 271.042969 133.816406 270.472656 L 133.824219 270.457031 L 134.925781 268.601562 L 134.445312 270.910156 C 134.433594 270.949219 134.429688 270.992188 134.421875 271.03125 C 134.363281 271.519531 134.347656 271.921875 134.382812 272.242188 C 134.488281 273.269531 134.992188 273.835938 135.894531 273.949219 C 135.96875 273.957031 136.039062 273.960938 136.109375 273.960938 C 136.558594 273.960938 136.988281 273.785156 137.394531 273.429688 C 137.414062 273.414062 137.433594 273.394531 137.457031 273.375 L 137.460938 273.375 C 137.570312 273.398438 137.683594 273.410156 137.792969 273.410156 C 138.472656 273.410156 139.089844 272.945312 139.253906 272.253906 C 139.617188 270.71875 139.964844 269.300781 140.296875 267.996094 L 140.292969 267.996094 C 140.871094 266.671875 141.550781 265.082031 142.328125 263.230469 L 142.324219 263.234375 C 143.207031 261.25 143.976562 258.933594 144.640625 256.28125 C 144.800781 255.632812 144.519531 254.953125 143.941406 254.617188 C 143.703125 254.476562 143.441406 254.410156 143.179688 254.410156 C 142.804688 254.410156 142.433594 254.550781 142.148438 254.820312 C 141.347656 255.574219 140.464844 257.332031 139.5 260.101562 C 139.390625 259.734375 139.171875 259.4375 138.839844 259.214844 L 138.839844 259.21875 C 138.589844 259.050781 138.296875 258.960938 138 258.960938 C 137.890625 258.960938 137.777344 258.972656 137.667969 259 C 137.265625 259.089844 136.917969 259.34375 136.707031 259.699219 L 136.203125 260.546875 C 137.019531 258.171875 137.570312 256.421875 137.847656 255.300781 C 138.046875 254.496094 137.558594 253.679688 136.75 253.476562 C 136.628906 253.449219 136.507812 253.433594 136.386719 253.433594 Z M 136.386719 253.433594 " fill-opacity="1" fill-rule="nonzero"/><path fill="#fcdd44" d="M 108.8125 307.832031 C 110.535156 301.441406 111.625 297.820312 112.078125 296.964844 C 112.257812 296.628906 112.484375 296.382812 112.761719 296.222656 L 112.144531 296.910156 C 115.691406 289.003906 118.347656 283.859375 120.109375 281.484375 C 120.359375 281.148438 120.738281 280.929688 121.15625 280.882812 C 122.195312 280.769531 122.773438 281.246094 122.886719 282.308594 C 122.90625 282.476562 122.902344 282.660156 122.871094 282.859375 C 122.824219 283.175781 122.699219 283.632812 122.492188 284.234375 L 122.464844 284.304688 C 120.304688 289.617188 119.039062 292.914062 118.675781 294.1875 L 118.660156 294.234375 C 117.386719 298.199219 116.671875 300.753906 116.511719 301.902344 L 116.523438 301.777344 C 116.523438 301.808594 116.523438 301.835938 116.523438 301.847656 L 116.523438 301.851562 C 116.484375 301.257812 116.105469 300.945312 115.394531 300.90625 C 115.199219 300.894531 115.042969 300.921875 114.925781 300.988281 C 114.960938 300.96875 115.011719 300.929688 115.082031 300.871094 C 115.144531 300.820312 115.214844 300.773438 115.285156 300.730469 C 115.21875 300.769531 115.164062 300.808594 115.128906 300.84375 C 115.570312 300.421875 116.886719 298.4375 119.082031 294.882812 C 119.128906 294.8125 119.179688 294.742188 119.234375 294.679688 C 119.410156 294.480469 119.578125 294.316406 119.730469 294.1875 C 120.542969 293.507812 121.304688 293.480469 122.011719 294.101562 L 122.007812 294.101562 C 122.429688 294.472656 122.617188 294.984375 122.574219 295.640625 C 122.566406 295.746094 122.550781 295.863281 122.53125 295.984375 C 122.519531 296.058594 122.5 296.128906 122.480469 296.199219 C 121.121094 300.449219 119.421875 304.25 117.382812 307.597656 C 116.953125 308.308594 116.027344 308.53125 115.316406 308.101562 C 114.605469 307.667969 114.382812 306.742188 114.8125 306.03125 C 116.726562 302.890625 118.328125 299.304688 119.613281 295.28125 L 119.5625 295.496094 C 119.566406 295.464844 119.570312 295.445312 119.570312 295.433594 L 119.570312 295.429688 C 119.546875 295.765625 119.695312 296.074219 120.019531 296.359375 C 120.605469 296.875 121.152344 296.921875 121.65625 296.496094 C 121.625 296.527344 121.570312 296.582031 121.492188 296.667969 L 121.644531 296.464844 C 119.3125 300.238281 117.832031 302.421875 117.203125 303.019531 C 117.066406 303.148438 116.929688 303.253906 116.792969 303.335938 L 116.996094 303.191406 C 116.789062 303.367188 116.589844 303.503906 116.398438 303.613281 C 116.007812 303.832031 115.621094 303.929688 115.234375 303.910156 C 114.175781 303.855469 113.605469 303.238281 113.523438 302.058594 C 113.511719 301.921875 113.511719 301.773438 113.519531 301.617188 C 113.523438 301.574219 113.527344 301.53125 113.53125 301.492188 C 113.714844 300.171875 114.46875 297.445312 115.796875 293.3125 L 115.78125 293.359375 C 116.175781 291.980469 117.476562 288.585938 119.675781 283.171875 L 119.648438 283.246094 C 119.792969 282.828125 119.875 282.554688 119.894531 282.425781 C 119.886719 282.480469 119.886719 282.546875 119.894531 282.632812 C 119.996094 283.566406 120.527344 283.980469 121.480469 283.875 L 122.527344 283.277344 C 120.894531 285.480469 118.347656 290.433594 114.886719 298.140625 C 114.757812 298.429688 114.542969 298.671875 114.269531 298.828125 C 114.488281 298.699219 114.644531 298.550781 114.734375 298.382812 C 114.386719 299.035156 113.378906 302.445312 111.714844 308.613281 C 111.5 309.417969 110.675781 309.890625 109.871094 309.675781 C 109.070312 309.460938 108.59375 308.632812 108.8125 307.832031 Z M 108.8125 307.832031 " fill-opacity="1" fill-rule="nonzero"/><path fill="#fcdd44" d="M 102.957031 283.203125 C 102.691406 283.21875 102.441406 283.304688 102.226562 283.441406 L 102.226562 283.445312 C 102.230469 283.433594 102.234375 283.421875 102.238281 283.410156 L 102.234375 283.410156 C 102.433594 283.285156 102.671875 283.21875 102.953125 283.203125 Z M 120.09375 251.40625 C 119.597656 251.40625 119.109375 251.652344 118.824219 252.105469 C 118.597656 252.464844 118.15625 253.339844 117.496094 254.730469 L 117.496094 254.734375 C 117.234375 254.546875 116.929688 254.453125 116.628906 254.453125 C 116.183594 254.453125 115.742188 254.652344 115.449219 255.027344 C 108.714844 263.539062 103.605469 272.050781 100.125 280.554688 L 100.121094 280.574219 C 96.921875 288.6875 95.308594 293.445312 95.277344 294.84375 C 95.257812 295.730469 95.609375 296.316406 96.328125 296.601562 C 96.535156 296.679688 96.742188 296.722656 96.941406 296.722656 C 97.367188 296.722656 97.777344 296.542969 98.179688 296.183594 C 98.75 295.679688 99.683594 294.328125 100.984375 292.128906 L 101 292.101562 C 101.972656 290.371094 102.90625 288.558594 103.796875 286.667969 L 103.800781 286.667969 L 102.5 291.53125 C 102.285156 292.335938 102.761719 293.160156 103.5625 293.375 C 103.695312 293.410156 103.824219 293.425781 103.953125 293.425781 C 104.617188 293.425781 105.226562 292.984375 105.40625 292.3125 L 108.566406 280.5 L 108.5625 280.503906 C 108.730469 280.375 108.875 280.210938 108.976562 280.023438 C 111.078125 276.171875 112.246094 273.953125 112.484375 273.363281 C 117.746094 261.300781 120.707031 254.753906 121.363281 253.714844 C 121.808594 253.015625 121.601562 252.085938 120.898438 251.640625 C 120.648438 251.480469 120.371094 251.40625 120.09375 251.40625 Z M 120.09375 251.40625 " fill-opacity="1" fill-rule="nonzero"/><path fill="#fcdd44" d="M 132.242188 248.847656 C 130.75 252.585938 129.9375 254.757812 129.808594 255.367188 L 129.808594 255.363281 L 128.992188 259.226562 L 128.980469 259.265625 C 128.699219 260.4375 128.214844 262.109375 127.53125 264.289062 L 127.5625 264.175781 C 127.496094 264.453125 127.460938 264.628906 127.449219 264.703125 C 127.515625 264.25 127.363281 263.847656 126.992188 263.496094 C 127.308594 263.796875 127.480469 264.21875 127.460938 264.652344 C 127.496094 263.863281 127.058594 263.445312 126.152344 263.40625 C 125.828125 263.390625 125.574219 263.460938 125.386719 263.613281 C 125.429688 263.582031 125.496094 263.511719 125.585938 263.40625 L 125.472656 263.554688 C 129.023438 258.195312 131.269531 255.152344 132.214844 254.433594 C 132.929688 253.890625 133.613281 253.835938 134.265625 254.269531 C 134.699219 254.554688 134.941406 254.972656 134.992188 255.519531 L 134.976562 255.402344 C 134.996094 255.511719 135.007812 255.628906 135.011719 255.75 C 135.03125 256.261719 134.902344 257.058594 134.628906 258.140625 L 134.609375 258.207031 C 132.550781 265.015625 131.359375 269.273438 131.03125 270.976562 L 131.015625 271.054688 C 130.699219 272.335938 130.644531 273.46875 130.847656 274.460938 C 131.019531 275.273438 130.496094 276.070312 129.683594 276.238281 C 128.867188 276.410156 128.070312 275.886719 127.902344 275.074219 C 127.605469 273.636719 127.667969 272.054688 128.09375 270.332031 L 128.078125 270.414062 C 128.421875 268.605469 129.640625 264.246094 131.730469 257.335938 L 131.710938 257.402344 C 131.914062 256.597656 132.011719 256.078125 132.003906 255.855469 C 132.003906 255.871094 132.007812 255.890625 132.011719 255.917969 C 132.003906 255.878906 132 255.839844 131.996094 255.800781 C 132.035156 256.210938 132.238281 256.535156 132.605469 256.777344 C 133.140625 257.132812 133.617188 257.148438 134.035156 256.828125 C 133.363281 257.34375 131.34375 260.136719 127.980469 265.21875 C 127.945312 265.269531 127.910156 265.320312 127.867188 265.367188 C 127.667969 265.597656 127.484375 265.785156 127.316406 265.925781 C 126.902344 266.269531 126.472656 266.429688 126.019531 266.410156 C 124.921875 266.363281 124.402344 265.734375 124.453125 264.523438 L 124.921875 265.679688 C 124.539062 265.316406 124.390625 264.847656 124.472656 264.273438 C 124.492188 264.117188 124.546875 263.859375 124.628906 263.5 C 124.636719 263.464844 124.648438 263.425781 124.660156 263.386719 C 125.324219 261.273438 125.789062 259.664062 126.054688 258.558594 L 126.046875 258.601562 L 126.863281 254.738281 L 126.867188 254.734375 C 127.03125 253.960938 127.890625 251.628906 129.445312 247.730469 C 129.753906 246.960938 130.628906 246.582031 131.398438 246.890625 C 132.171875 247.199219 132.546875 248.074219 132.242188 248.847656 Z M 132.242188 248.847656 " fill-opacity="1" fill-rule="nonzero"/><path fill="#fcdd44" d="M 152.996094 259.1875 C 152.269531 261.078125 149.632812 267.203125 145.082031 277.558594 L 145.113281 277.480469 L 145.09375 277.53125 C 144.683594 278.523438 144.464844 279.160156 144.441406 279.4375 C 144.445312 279.421875 144.445312 279.40625 144.441406 279.382812 C 144.445312 279.4375 144.445312 279.492188 144.441406 279.550781 C 144.496094 278.671875 144.054688 278.207031 143.117188 278.152344 C 142.796875 278.132812 142.542969 278.195312 142.351562 278.34375 C 142.40625 278.300781 142.503906 278.203125 142.640625 278.050781 L 142.566406 278.140625 L 148.316406 270.761719 L 148.300781 270.785156 C 148.75 270.183594 149.136719 269.753906 149.460938 269.496094 C 150.226562 268.894531 150.957031 268.839844 151.652344 269.335938 C 151.707031 269.375 151.761719 269.421875 151.8125 269.46875 C 152.085938 269.730469 152.289062 270.0625 152.417969 270.46875 C 152.675781 271.273438 152.65625 272.589844 152.359375 274.410156 L 151.398438 272.753906 C 152.167969 273.042969 152.492188 273.625 152.367188 274.507812 C 152.277344 275.132812 151.632812 277.457031 150.429688 281.472656 L 150.488281 281.140625 C 150.476562 281.292969 150.476562 281.398438 150.488281 281.457031 C 150.40625 280.984375 150.074219 280.730469 149.484375 280.691406 C 149.445312 280.6875 149.410156 280.6875 149.371094 280.6875 C 149.503906 280.683594 149.632812 280.695312 149.761719 280.722656 C 149.25 280.609375 148.847656 280.707031 148.5625 281.023438 L 148.5625 281.019531 C 148.820312 280.738281 149.347656 279.78125 150.15625 278.148438 C 150.355469 277.742188 150.726562 277.449219 151.164062 277.347656 C 151.601562 277.242188 152.066406 277.34375 152.421875 277.621094 C 151.632812 277.011719 150.9375 277.097656 150.335938 277.878906 L 150.339844 277.878906 C 150.292969 277.9375 150.257812 277.988281 150.234375 278.035156 C 150.429688 277.648438 151.105469 275.753906 152.257812 272.359375 L 152.285156 272.285156 C 152.429688 271.921875 152.558594 271.640625 152.667969 271.449219 C 153.167969 270.582031 153.835938 270.3125 154.675781 270.648438 L 154.679688 270.648438 C 155.109375 270.820312 155.402344 271.125 155.5625 271.570312 L 155.421875 271.277344 C 155.59375 271.554688 155.679688 271.882812 155.675781 272.265625 C 155.671875 272.632812 155.578125 273.332031 155.394531 274.363281 L 155.386719 274.40625 C 153.515625 283.457031 152.570312 288.492188 152.542969 289.511719 C 152.523438 290.34375 151.832031 291 151.003906 290.980469 C 150.171875 290.960938 149.515625 290.269531 149.535156 289.4375 C 149.566406 288.238281 150.53125 283.023438 152.4375 273.796875 L 152.429688 273.835938 C 152.585938 272.96875 152.664062 272.433594 152.667969 272.234375 C 152.664062 272.441406 152.734375 272.660156 152.878906 272.886719 C 152.820312 272.796875 152.773438 272.699219 152.734375 272.597656 C 152.882812 273 153.15625 273.28125 153.5625 273.445312 L 153.566406 273.445312 C 154.339844 273.75 154.910156 273.585938 155.277344 272.949219 C 155.238281 273.015625 155.171875 273.167969 155.078125 273.398438 L 155.105469 273.324219 C 153.910156 276.855469 153.179688 278.875 152.921875 279.386719 C 152.859375 279.511719 152.792969 279.621094 152.722656 279.714844 L 152.722656 279.710938 C 152.101562 280.523438 151.386719 280.621094 150.585938 280.003906 L 152.855469 279.476562 C 151.925781 281.363281 151.238281 282.550781 150.792969 283.042969 C 150.292969 283.597656 149.726562 283.800781 149.09375 283.660156 L 149.484375 283.695312 C 149.417969 283.699219 149.351562 283.695312 149.285156 283.691406 C 148.292969 283.625 147.707031 283.046875 147.519531 281.957031 C 147.472656 281.667969 147.460938 281.328125 147.484375 280.941406 C 147.492188 280.832031 147.511719 280.71875 147.546875 280.609375 C 148.707031 276.738281 149.320312 274.5625 149.386719 274.085938 C 149.285156 274.800781 149.605469 275.296875 150.347656 275.574219 C 149.671875 275.324219 149.273438 274.628906 149.386719 273.921875 C 149.609375 272.578125 149.664062 271.734375 149.554688 271.386719 C 149.578125 271.46875 149.640625 271.558594 149.742188 271.652344 L 149.90625 271.785156 C 150.433594 272.164062 150.910156 272.1875 151.328125 271.859375 C 151.207031 271.953125 151 272.195312 150.707031 272.585938 L 150.691406 272.609375 L 144.941406 279.988281 C 144.917969 280.019531 144.890625 280.050781 144.863281 280.078125 C 144.609375 280.359375 144.386719 280.574219 144.191406 280.722656 C 143.785156 281.039062 143.367188 281.179688 142.933594 281.15625 L 142.9375 281.15625 C 141.867188 281.089844 141.371094 280.492188 141.4375 279.367188 L 141.4375 279.53125 C 141.433594 279.425781 141.433594 279.3125 141.445312 279.191406 C 141.492188 278.601562 141.78125 277.660156 142.316406 276.375 L 142.296875 276.425781 L 142.296875 276.421875 L 142.328125 276.347656 C 146.859375 266.035156 149.476562 259.957031 150.1875 258.109375 C 150.484375 257.332031 151.355469 256.945312 152.128906 257.242188 C 152.90625 257.539062 153.292969 258.410156 152.996094 259.1875 Z M 152.996094 259.1875 " fill-opacity="1" fill-rule="nonzero"/><path fill="#ff9f1c" d="M 218.625 231.441406 Z M 218.949219 231.796875 C 218.675781 232.121094 218.378906 232.300781 218.054688 232.332031 C 218.070312 232.308594 218.085938 232.28125 218.097656 232.257812 L 218.09375 232.257812 C 218.414062 232.203125 218.714844 232.042969 218.945312 231.796875 Z M 211.964844 243.75 C 211.765625 244.261719 211.574219 244.757812 211.386719 245.238281 L 211.382812 245.238281 C 211.242188 245.351562 211.082031 245.496094 210.902344 245.671875 C 211.242188 245.058594 211.59375 244.417969 211.960938 243.75 Z M 172.414062 258.449219 Z M 191.050781 216.648438 C 190.488281 216.648438 189.949219 216.964844 189.691406 217.503906 C 185.128906 227.0625 180.640625 237.96875 176.226562 250.214844 L 176.226562 250.21875 L 183.972656 220.53125 C 184.160156 219.808594 183.792969 219.070312 183.125 218.773438 L 183.121094 218.773438 C 183.308594 218.195312 183.128906 217.5625 182.664062 217.164062 C 182.386719 216.929688 182.039062 216.808594 181.691406 216.808594 C 181.433594 216.808594 181.175781 216.875 180.941406 217.007812 C 179.800781 217.664062 178.695312 219.160156 177.621094 221.5 L 177.613281 221.515625 L 171.421875 235.40625 L 175.574219 223.179688 C 175.617188 223.054688 175.644531 222.921875 175.652344 222.785156 C 175.691406 222.121094 175.421875 221.640625 174.839844 221.335938 C 174.570312 221.195312 174.3125 221.125 174.070312 221.125 C 173.613281 221.125 173.199219 221.375 172.835938 221.871094 C 172.425781 222.429688 171.046875 224.953125 168.699219 229.445312 C 168.671875 229.492188 168.652344 229.539062 168.632812 229.589844 C 166.269531 235.550781 164.285156 240.4375 162.675781 244.25 L 162.675781 244.253906 C 164.289062 237.3125 166.230469 230.265625 168.496094 223.117188 C 168.742188 222.335938 168.320312 221.5 167.542969 221.234375 C 167.382812 221.183594 167.21875 221.15625 167.058594 221.15625 C 166.441406 221.15625 165.867188 221.539062 165.644531 222.152344 L 157.757812 244.035156 L 158.300781 240.117188 L 158.308594 240.074219 C 158.460938 238.6875 159.238281 234.703125 160.640625 228.117188 C 160.804688 227.339844 160.335938 226.566406 159.566406 226.355469 C 159.433594 226.316406 159.300781 226.300781 159.167969 226.300781 C 158.691406 226.300781 158.246094 226.523438 157.960938 226.902344 C 157.75 226.671875 157.460938 226.5 157.125 226.441406 C 157.03125 226.421875 156.941406 226.414062 156.851562 226.414062 C 156.140625 226.414062 155.507812 226.921875 155.375 227.648438 C 153.816406 236.105469 152.703125 241.597656 152.035156 244.128906 L 152.03125 244.128906 L 151.449219 245.839844 C 151.199219 246.578125 151.550781 247.382812 152.261719 247.699219 C 152.460938 247.789062 152.667969 247.832031 152.875 247.832031 C 153.402344 247.832031 153.914062 247.550781 154.1875 247.058594 C 154.199219 247.035156 154.214844 247.011719 154.226562 246.988281 C 154.261719 246.921875 154.296875 246.839844 154.335938 246.746094 L 154.339844 246.746094 L 153.691406 251.421875 L 153.679688 251.5 C 153.648438 251.867188 153.648438 252.183594 153.683594 252.453125 C 153.816406 253.523438 154.363281 254.101562 155.316406 254.183594 C 155.367188 254.1875 155.417969 254.1875 155.46875 254.1875 C 155.710938 254.1875 155.945312 254.140625 156.183594 254.046875 C 156.460938 253.933594 156.71875 253.75 156.960938 253.503906 C 157.261719 253.195312 157.582031 252.699219 157.925781 252.015625 L 157.929688 252.015625 C 157.722656 253.066406 157.523438 254.117188 157.332031 255.164062 C 157.222656 255.761719 157.480469 256.363281 157.988281 256.695312 C 158.238281 256.859375 158.523438 256.941406 158.808594 256.941406 C 159.105469 256.941406 159.398438 256.855469 159.652344 256.683594 C 159.78125 256.597656 159.90625 256.492188 160.027344 256.363281 L 160.027344 256.367188 C 160.589844 255.785156 161.550781 254.039062 162.902344 251.121094 L 162.90625 251.125 L 162.121094 253.441406 L 162.113281 253.464844 C 161.054688 256.742188 160.492188 259.027344 160.425781 260.324219 C 160.386719 261.046875 160.871094 261.695312 161.574219 261.867188 C 161.691406 261.894531 161.8125 261.910156 161.929688 261.910156 C 162.511719 261.910156 163.054688 261.566406 163.300781 261.015625 L 163.914062 259.640625 L 163.917969 259.644531 C 163.816406 259.886719 163.777344 260.152344 163.8125 260.414062 C 163.933594 261.386719 164.421875 261.875 165.277344 261.875 C 165.378906 261.875 165.488281 261.867188 165.605469 261.855469 C 165.984375 261.808594 166.34375 261.625 166.675781 261.308594 C 167.070312 260.933594 167.65625 260.113281 168.433594 258.851562 L 168.464844 258.796875 C 169.714844 256.554688 170.804688 254.300781 171.742188 252.039062 L 171.753906 252.011719 L 174.476562 245 L 173.09375 250.300781 C 173.085938 250.332031 173.078125 250.367188 173.070312 250.398438 C 172.113281 255.457031 171.679688 258.46875 171.769531 259.4375 C 171.855469 260.347656 172.292969 260.878906 173.085938 261.027344 L 173.089844 261.027344 C 173.171875 261.042969 173.253906 261.050781 173.335938 261.054688 L 173.332031 261.054688 C 173.355469 261.054688 173.382812 261.054688 173.40625 261.054688 C 173.917969 261.054688 174.363281 260.820312 174.746094 260.34375 C 175.339844 259.617188 176.628906 256.984375 178.617188 252.449219 C 178.632812 252.417969 178.644531 252.382812 178.65625 252.351562 C 179.582031 249.761719 180.511719 247.230469 181.441406 244.761719 L 181.449219 244.765625 C 179.546875 251.847656 177.558594 259.734375 175.476562 268.433594 C 175.304688 269.15625 175.683594 269.894531 176.375 270.175781 C 176.558594 270.25 176.75 270.285156 176.941406 270.285156 C 177.457031 270.285156 177.953125 270.019531 178.230469 269.550781 C 178.582031 268.964844 178.957031 268.222656 179.355469 267.316406 L 179.359375 267.320312 C 179.382812 267.335938 179.402344 267.355469 179.425781 267.375 C 179.699219 267.589844 180.027344 267.699219 180.359375 267.699219 C 180.589844 267.699219 180.820312 267.644531 181.035156 267.539062 C 181.199219 267.457031 181.355469 267.351562 181.511719 267.226562 C 182.246094 266.621094 183.136719 265.15625 184.183594 262.832031 C 184.199219 262.789062 184.21875 262.746094 184.230469 262.703125 C 188.640625 249.933594 192.414062 239.980469 195.554688 232.839844 L 195.5625 232.839844 C 191.914062 248.527344 189.847656 256.902344 189.363281 257.964844 C 189.035156 258.566406 189.15625 259.324219 189.671875 259.792969 C 189.957031 260.050781 190.320312 260.183594 190.683594 260.183594 C 191.011719 260.183594 191.335938 260.078125 191.609375 259.867188 C 191.667969 259.820312 191.730469 259.769531 191.789062 259.710938 C 192.894531 258.6875 194.957031 254.253906 197.976562 246.414062 L 197.980469 246.414062 C 196.828125 251.609375 195.929688 255.09375 195.277344 256.863281 C 195.253906 256.933594 195.230469 257.007812 195.21875 257.082031 C 195.113281 257.597656 195.058594 257.996094 195.054688 258.285156 C 195.035156 259.285156 195.460938 259.871094 196.332031 260.046875 C 196.449219 260.070312 196.5625 260.082031 196.675781 260.082031 C 197.175781 260.082031 197.621094 259.839844 198.011719 259.355469 C 198.222656 259.089844 198.484375 258.65625 198.800781 258.046875 C 200.542969 254.671875 201.84375 251.769531 202.699219 249.339844 L 202.722656 249.261719 C 204.066406 244.652344 205.21875 240.839844 206.179688 237.824219 L 206.183594 237.824219 C 205.152344 242.324219 203.800781 247.871094 202.121094 254.457031 C 201.953125 255.109375 202.242188 255.796875 202.828125 256.132812 C 203.0625 256.265625 203.320312 256.332031 203.578125 256.332031 C 203.964844 256.332031 204.347656 256.183594 204.636719 255.898438 C 205.027344 255.511719 205.648438 254.644531 206.492188 253.296875 L 206.5 253.296875 C 205.628906 255.195312 204.621094 257.46875 203.476562 260.121094 C 203.144531 260.882812 203.5 261.769531 204.261719 262.097656 C 204.457031 262.183594 204.65625 262.222656 204.855469 262.222656 C 205.4375 262.222656 205.992188 261.882812 206.238281 261.3125 C 206.746094 260.132812 207.226562 259.035156 207.671875 258.015625 L 207.675781 258.019531 C 207.800781 258.101562 207.941406 258.175781 208.101562 258.238281 L 208.101562 258.242188 C 208.335938 258.332031 208.550781 258.375 208.753906 258.375 C 209.269531 258.375 209.691406 258.082031 210.019531 257.492188 C 210.148438 257.257812 210.414062 256.679688 210.816406 255.757812 C 211.371094 254.558594 212.425781 251.75 213.976562 247.332031 L 213.972656 247.332031 C 214.027344 247.183594 214.070312 247.046875 214.101562 246.925781 C 214.15625 246.714844 214.183594 246.519531 214.191406 246.339844 L 214.1875 246.339844 C 214.695312 245.027344 215.253906 243.59375 215.855469 242.042969 L 215.859375 242.039062 L 215.859375 242.03125 L 215.882812 241.972656 C 218.0625 235.53125 219.21875 231.917969 219.355469 231.136719 C 219.402344 230.875 219.402344 230.640625 219.359375 230.425781 L 219.355469 230.425781 C 219.324219 229.753906 219.046875 229.269531 218.527344 228.972656 C 218.246094 228.8125 217.972656 228.730469 217.703125 228.730469 C 217.253906 228.730469 216.820312 228.957031 216.40625 229.410156 C 216.144531 229.695312 215.820312 230.179688 215.429688 230.863281 L 215.402344 230.910156 C 212.109375 237.1875 209.425781 242.179688 207.359375 245.886719 C 210.253906 233.996094 211.679688 226.738281 211.636719 224.113281 C 211.628906 223.65625 211.410156 223.222656 211.046875 222.945312 C 210.78125 222.742188 210.457031 222.632812 210.132812 222.632812 C 210.007812 222.632812 209.882812 222.648438 209.761719 222.679688 C 209.378906 222.777344 209.046875 223.011719 208.765625 223.386719 C 208.285156 224.027344 207.320312 226.089844 205.863281 229.582031 C 205.117188 231.359375 204.023438 234.582031 202.582031 239.246094 C 203.324219 235.625 204.140625 231.515625 205.027344 226.917969 C 205.175781 226.140625 204.699219 225.382812 203.9375 225.179688 C 203.808594 225.144531 203.675781 225.128906 203.546875 225.128906 C 202.921875 225.128906 202.339844 225.519531 202.125 226.136719 C 200.023438 232.1875 198.175781 237.363281 196.582031 241.671875 C 197.175781 239.160156 197.828125 236.378906 198.535156 233.332031 L 198.539062 233.316406 C 199.777344 227.671875 200.367188 224.339844 200.304688 223.320312 C 200.292969 223.125 200.261719 222.953125 200.210938 222.792969 C 199.964844 222.011719 199.523438 221.621094 198.878906 221.621094 C 198.683594 221.621094 198.46875 221.65625 198.234375 221.730469 C 197.878906 221.839844 197.578125 222.078125 197.386719 222.398438 C 194.449219 227.359375 190.679688 236.074219 186.082031 248.535156 L 186.082031 248.539062 L 187.949219 240.644531 L 187.945312 240.644531 C 188.183594 239.949219 188.414062 239.300781 188.632812 238.695312 L 188.636719 238.691406 C 190.011719 234.863281 191.9375 230.332031 194.414062 225.089844 C 194.503906 224.898438 194.554688 224.691406 194.558594 224.484375 C 194.585938 223.457031 194.089844 222.929688 193.074219 222.90625 C 193.0625 222.90625 193.046875 222.902344 193.03125 222.902344 C 192.554688 222.902344 192.132812 223.113281 191.773438 223.53125 C 191.679688 223.640625 191.570312 223.789062 191.4375 223.976562 L 191.417969 224.003906 C 190.851562 224.855469 190.300781 225.777344 189.769531 226.773438 C 190.695312 223.828125 191.597656 221.121094 192.46875 218.65625 C 192.734375 217.898438 192.367188 217.070312 191.625 216.761719 C 191.4375 216.683594 191.242188 216.648438 191.050781 216.648438 Z M 191.050781 216.648438 " fill-opacity="1" fill-rule="nonzero"/><path fill="#ff9f1c" d="M 181.859375 218.023438 C 180.15625 215.679688 179.210938 214.398438 179.027344 214.175781 L 179.035156 214.183594 C 179.035156 214.183594 179.03125 214.183594 179.027344 214.175781 L 178.992188 214.136719 C 178.992188 214.132812 178.988281 214.128906 178.988281 214.128906 C 178.996094 214.136719 179 214.140625 179.011719 214.144531 C 179.007812 214.144531 179.007812 214.144531 179.007812 214.144531 L 179.191406 214.191406 C 178.5 214.050781 177.625 214.394531 176.574219 215.21875 L 176.578125 215.21875 C 175.300781 216.230469 173.871094 217.792969 172.285156 219.90625 L 172.257812 219.945312 C 169.796875 223.027344 166.363281 228.039062 161.960938 234.976562 C 161.945312 235.003906 161.925781 235.03125 161.90625 235.054688 C 161.75 235.273438 161.617188 235.441406 161.511719 235.558594 L 161.507812 235.558594 C 160.835938 236.304688 160.128906 236.40625 159.378906 235.863281 C 158.765625 235.414062 158.597656 234.796875 158.867188 234.003906 C 158.953125 233.75 159.148438 233.316406 159.453125 232.710938 L 159.488281 232.644531 L 159.496094 232.628906 C 162.828125 226.804688 164.707031 223.609375 165.132812 223.042969 C 165.171875 222.988281 165.210938 222.941406 165.25 222.898438 L 165.078125 223.132812 C 165.582031 222.277344 166.039062 221.679688 166.445312 221.332031 C 167.195312 220.695312 167.941406 220.597656 168.6875 221.035156 C 168.898438 221.160156 169.082031 221.328125 169.234375 221.53125 L 169.011719 221.289062 C 169.296875 221.535156 169.492188 221.875 169.601562 222.308594 C 169.742188 222.875 169.792969 223.945312 169.746094 225.515625 L 169.742188 225.597656 C 169.121094 233.125 168.8125 237.867188 168.8125 239.816406 L 168.808594 239.882812 C 168.746094 241.386719 168.785156 243.847656 168.925781 247.261719 C 168.960938 248.09375 168.316406 248.792969 167.484375 248.828125 C 166.65625 248.863281 165.953125 248.214844 165.917969 247.386719 C 165.773438 243.886719 165.738281 241.34375 165.804688 239.753906 L 165.800781 239.816406 C 165.800781 237.785156 166.117188 232.960938 166.742188 225.347656 L 166.738281 225.429688 C 166.777344 224.136719 166.757812 223.339844 166.683594 223.046875 C 166.730469 223.226562 166.847656 223.398438 167.042969 223.566406 C 166.960938 223.496094 166.882812 223.414062 166.820312 223.328125 C 166.910156 223.445312 167.023438 223.546875 167.160156 223.628906 C 167.644531 223.914062 168.054688 223.914062 168.394531 223.625 C 168.246094 223.753906 168.003906 224.097656 167.671875 224.660156 C 167.621094 224.746094 167.5625 224.824219 167.5 224.898438 C 167.515625 224.878906 167.527344 224.863281 167.539062 224.851562 C 167.1875 225.316406 165.378906 228.40625 162.109375 234.125 L 162.113281 234.117188 L 162.109375 234.125 L 162.144531 234.058594 C 161.902344 234.542969 161.757812 234.847656 161.714844 234.976562 C 161.921875 234.371094 161.734375 233.855469 161.152344 233.429688 C 160.4375 232.910156 159.8125 232.949219 159.277344 233.542969 L 159.273438 233.542969 C 159.3125 233.503906 159.378906 233.417969 159.476562 233.28125 L 159.421875 233.363281 C 163.882812 226.335938 167.375 221.234375 169.90625 218.066406 L 169.878906 218.101562 C 171.617188 215.777344 173.230469 214.03125 174.710938 212.859375 L 174.714844 212.855469 C 176.496094 211.453125 178.191406 210.914062 179.796875 211.246094 C 179.859375 211.257812 179.921875 211.273438 179.980469 211.296875 C 180.015625 211.308594 180.054688 211.320312 180.089844 211.335938 C 180.476562 211.484375 180.816406 211.703125 181.109375 211.996094 C 181.195312 212.082031 181.277344 212.175781 181.355469 212.273438 L 181.324219 212.230469 C 181.320312 212.230469 181.320312 212.230469 181.324219 212.230469 L 181.328125 212.238281 C 181.5625 212.515625 182.550781 213.851562 184.292969 216.253906 C 184.78125 216.925781 184.632812 217.867188 183.960938 218.355469 C 183.289062 218.84375 182.347656 218.695312 181.859375 218.023438 Z M 181.859375 218.023438 " fill-opacity="1" fill-rule="nonzero"/><path fill="#ff9f1c" d="M 175.046875 268.984375 C 175.605469 265.417969 176.046875 263.179688 176.375 262.265625 L 176.355469 262.320312 L 176.359375 262.316406 L 176.355469 262.328125 C 177.125 259.820312 177.835938 257.652344 178.492188 255.816406 L 178.511719 255.765625 C 180.714844 250.207031 182.019531 246.753906 182.429688 245.40625 L 182.425781 245.414062 C 182.675781 244.582031 182.8125 244.066406 182.835938 243.871094 C 182.828125 243.933594 182.828125 244.015625 182.84375 244.109375 C 182.832031 244.015625 182.828125 243.921875 182.832031 243.828125 C 182.835938 243.78125 182.835938 243.75 182.835938 243.734375 C 182.859375 244.476562 183.300781 244.875 184.152344 244.929688 C 184.65625 244.960938 185.027344 244.8125 185.265625 244.480469 C 185.261719 244.488281 185.257812 244.496094 185.25 244.507812 L 185.238281 244.527344 C 185.238281 244.523438 185.242188 244.519531 185.242188 244.519531 C 184.910156 245.035156 184.058594 247.320312 182.6875 251.378906 L 182.699219 251.351562 C 180.375 258.722656 179.199219 262.855469 179.171875 263.75 C 179.171875 263.746094 179.171875 263.742188 179.171875 263.738281 C 179.171875 263.796875 179.167969 263.855469 179.164062 263.914062 L 179.171875 263.753906 L 179.164062 263.914062 C 179.152344 264.015625 179.148438 264.085938 179.152344 264.128906 C 179.128906 263.859375 178.960938 263.621094 178.652344 263.421875 C 179.046875 263.675781 179.296875 264.101562 179.335938 264.566406 C 179.257812 263.605469 178.753906 263.164062 177.820312 263.238281 C 177.753906 263.242188 177.703125 263.25 177.664062 263.261719 C 177.695312 263.253906 177.746094 263.234375 177.816406 263.203125 L 177.578125 263.332031 C 178.355469 262.820312 179.308594 261.769531 180.441406 260.175781 C 180.921875 259.5 181.863281 259.339844 182.539062 259.824219 C 183.214844 260.304688 183.375 261.242188 182.894531 261.921875 C 181.542969 263.824219 180.320312 265.132812 179.226562 265.847656 C 179.152344 265.898438 179.070312 265.9375 178.988281 265.976562 C 178.8125 266.050781 178.65625 266.105469 178.515625 266.148438 C 178.355469 266.195312 178.203125 266.226562 178.058594 266.234375 C 176.992188 266.320312 176.417969 265.84375 176.335938 264.808594 L 177.023438 265.953125 C 176.503906 265.621094 176.214844 265.097656 176.152344 264.386719 C 176.132812 264.152344 176.140625 263.886719 176.171875 263.59375 L 176.160156 263.753906 L 176.164062 263.769531 C 176.160156 263.730469 176.164062 263.691406 176.164062 263.652344 C 176.203125 262.484375 177.421875 258.082031 179.828125 250.449219 L 179.835938 250.417969 C 181.285156 246.121094 182.246094 243.609375 182.714844 242.882812 C 182.71875 242.878906 182.722656 242.875 182.726562 242.867188 L 182.714844 242.886719 C 182.757812 242.820312 182.796875 242.761719 182.835938 242.707031 C 183.246094 242.148438 183.746094 241.886719 184.34375 241.925781 C 185.308594 241.988281 185.808594 242.554688 185.84375 243.632812 C 185.847656 243.75 185.84375 243.875 185.835938 244.015625 L 185.828125 243.734375 C 185.847656 243.890625 185.84375 244.0625 185.820312 244.246094 C 185.777344 244.605469 185.605469 245.28125 185.308594 246.273438 L 185.308594 246.28125 C 184.875 247.707031 183.542969 251.238281 181.308594 256.875 L 181.324219 256.828125 C 180.6875 258.621094 179.988281 260.746094 179.230469 263.210938 L 179.226562 263.222656 L 179.226562 263.226562 L 179.207031 263.28125 C 178.945312 264.015625 178.546875 266.074219 178.019531 269.449219 C 177.890625 270.269531 177.121094 270.832031 176.300781 270.703125 C 175.476562 270.574219 174.917969 269.804688 175.046875 268.984375 Z M 175.046875 268.984375 " fill-opacity="1" fill-rule="nonzero"/><path fill="#ff9f1c" d="M 189.117188 250.246094 L 189.117188 250.242188 L 189.117188 250.25 L 189.113281 250.25 C 188.183594 255.464844 187.589844 259.015625 187.335938 260.90625 L 187.328125 260.945312 C 187.136719 262.136719 187.078125 263.316406 187.15625 264.476562 C 187.207031 265.304688 186.578125 266.019531 185.75 266.074219 C 184.921875 266.128906 184.207031 265.5 184.152344 264.667969 C 184.0625 263.285156 184.128906 261.882812 184.359375 260.464844 L 184.351562 260.503906 C 184.613281 258.574219 185.210938 254.976562 186.152344 249.722656 L 186.152344 249.71875 C 186.300781 248.898438 187.082031 248.355469 187.898438 248.5 C 188.71875 248.644531 189.261719 249.429688 189.117188 250.246094 Z M 189.117188 250.246094 " fill-opacity="1" fill-rule="nonzero"/><path fill="#fcdd44" d="M 219.988281 173.390625 C 219.667969 173.707031 219.339844 173.867188 219.003906 173.867188 C 218.835938 173.867188 218.664062 173.828125 218.492188 173.746094 L 218.488281 173.746094 C 218.492188 173.730469 218.496094 173.714844 218.496094 173.703125 L 218.503906 173.703125 C 218.65625 173.753906 218.816406 173.777344 218.976562 173.777344 C 219.339844 173.777344 219.703125 173.644531 219.984375 173.390625 Z M 212.640625 209.050781 Z M 232.839844 156.785156 C 232.289062 156.785156 231.765625 157.089844 231.5 157.605469 C 229.660156 161.191406 228.246094 164.878906 227.261719 168.671875 L 227.257812 168.671875 C 226.953125 169.519531 226.503906 171.125 225.914062 173.488281 C 225.722656 173.417969 225.507812 173.382812 225.265625 173.382812 C 225.246094 173.382812 225.226562 173.382812 225.203125 173.382812 C 224.613281 173.398438 224.140625 173.695312 223.777344 174.273438 L 223.777344 174.277344 C 223.539062 174.660156 223.234375 175.390625 222.863281 176.46875 L 222.863281 176.472656 C 222.257812 178.175781 221.609375 180.589844 220.910156 183.714844 L 220.902344 183.75 L 218.988281 193.429688 L 218.980469 193.429688 C 216.425781 199.246094 214.449219 203.398438 213.054688 205.886719 C 217.875 184.800781 220.347656 173.683594 220.476562 172.527344 C 220.480469 172.488281 220.484375 172.453125 220.488281 172.414062 L 220.484375 172.414062 C 220.972656 169.929688 221.082031 168.222656 220.820312 167.296875 C 220.75 167.0625 220.660156 166.855469 220.546875 166.667969 C 220.417969 166.457031 220.234375 166.28125 220.023438 166.15625 C 219.902344 166.089844 219.773438 166.035156 219.640625 165.996094 C 219.46875 165.949219 219.296875 165.921875 219.136719 165.921875 C 219.070312 165.921875 219.007812 165.925781 218.949219 165.933594 C 219.230469 164.636719 219.515625 163.3125 219.796875 161.957031 C 219.964844 161.160156 219.46875 160.375 218.679688 160.183594 C 218.558594 160.15625 218.441406 160.140625 218.324219 160.140625 C 217.660156 160.140625 217.054688 160.582031 216.875 161.25 L 207.207031 196.824219 L 207.203125 196.824219 C 207.167969 196.914062 207.128906 197.003906 207.09375 197.09375 C 207.25 196.089844 207.425781 195.121094 207.617188 194.183594 L 207.621094 194.160156 C 208.023438 192.011719 208.472656 189.871094 208.964844 187.742188 L 208.960938 187.746094 C 210.492188 183.4375 211.976562 178.28125 213.40625 172.273438 C 213.59375 171.492188 213.132812 170.703125 212.363281 170.480469 C 212.222656 170.4375 212.082031 170.417969 211.945312 170.417969 C 211.316406 170.417969 210.734375 170.8125 210.523438 171.433594 C 208.769531 176.53125 207.285156 181.691406 206.066406 186.921875 L 206.0625 186.921875 C 205.242188 189.210938 204.410156 191.234375 203.566406 193 C 203.648438 192.046875 203.710938 191.445312 203.75 191.195312 L 203.761719 191.113281 C 204.039062 188.558594 204.386719 186.105469 204.804688 183.746094 L 204.796875 183.746094 C 206.632812 177.523438 207.59375 173.582031 207.671875 171.921875 C 207.707031 171.171875 207.179688 170.507812 206.4375 170.371094 C 206.347656 170.355469 206.257812 170.347656 206.167969 170.347656 C 205.878906 170.347656 205.605469 170.429688 205.367188 170.578125 L 205.84375 168.660156 L 205.847656 168.640625 C 206.023438 167.882812 206.109375 167.300781 206.105469 166.902344 C 206.097656 165.972656 205.703125 165.390625 204.925781 165.15625 C 204.78125 165.109375 204.632812 165.089844 204.488281 165.089844 C 203.921875 165.089844 203.386719 165.410156 203.132812 165.941406 C 203.125 165.957031 203.117188 165.96875 203.113281 165.984375 L 203.109375 165.984375 C 202.730469 166.019531 202.367188 166.199219 202.105469 166.507812 C 199.742188 169.289062 198.039062 172.234375 197 175.34375 L 196.976562 175.425781 L 189.6875 202.316406 L 189.683594 202.332031 C 189.492188 203.0625 189.394531 203.625 189.390625 204.019531 C 189.378906 204.734375 189.628906 205.261719 190.136719 205.605469 C 190.386719 205.773438 190.679688 205.863281 190.980469 205.863281 C 191.074219 205.863281 191.171875 205.851562 191.269531 205.835938 C 191.664062 205.757812 192.007812 205.523438 192.230469 205.191406 C 193.507812 203.273438 194.722656 200.78125 195.886719 197.707031 L 195.890625 197.707031 C 196.089844 198.371094 196.585938 198.703125 197.371094 198.703125 C 197.390625 198.703125 197.410156 198.703125 197.429688 198.703125 C 197.914062 198.691406 198.347656 198.480469 198.730469 198.0625 C 199.101562 197.660156 199.640625 196.789062 200.351562 195.453125 L 200.355469 195.453125 C 200.285156 196.382812 200.207031 197.445312 200.121094 198.640625 C 200.113281 198.753906 200.117188 198.867188 200.136719 198.976562 C 200.277344 199.914062 200.757812 200.386719 201.570312 200.386719 C 201.691406 200.386719 201.820312 200.375 201.957031 200.355469 C 202.332031 200.296875 202.683594 200.105469 203.003906 199.785156 C 203.214844 199.574219 203.480469 199.226562 203.808594 198.738281 L 203.8125 198.738281 C 203.625 200.144531 203.464844 201.601562 203.332031 203.117188 L 203.328125 203.152344 C 203.320312 203.304688 203.316406 203.449219 203.324219 203.578125 C 203.375 204.695312 203.902344 205.285156 204.894531 205.351562 C 204.933594 205.351562 204.96875 205.355469 205.003906 205.355469 C 205.15625 205.355469 205.300781 205.335938 205.445312 205.296875 L 205.449219 205.296875 C 205.386719 205.847656 205.335938 206.398438 205.296875 206.953125 C 205.261719 207.335938 205.25 207.640625 205.261719 207.871094 C 205.316406 208.875 205.792969 209.421875 206.691406 209.511719 C 206.753906 209.515625 206.816406 209.519531 206.875 209.519531 C 207.460938 209.519531 207.933594 209.21875 208.296875 208.621094 C 208.628906 208.0625 209.183594 206.5625 209.957031 204.125 L 209.960938 204.109375 C 210.53125 202.246094 211.089844 200.394531 211.636719 198.554688 L 211.640625 198.554688 C 211.039062 201.191406 210.390625 204.027344 209.699219 207.0625 L 209.691406 207.09375 C 209.480469 208.117188 209.453125 208.945312 209.605469 209.574219 L 209.605469 209.578125 C 209.675781 209.855469 209.78125 210.105469 209.917969 210.328125 L 209.914062 210.332031 C 210.269531 211.117188 210.785156 211.507812 211.464844 211.507812 C 211.738281 211.507812 212.03125 211.445312 212.355469 211.324219 C 212.539062 211.253906 212.71875 211.15625 212.894531 211.03125 C 213.734375 210.441406 214.964844 208.613281 216.582031 205.546875 L 216.585938 205.546875 L 214.996094 213.589844 C 214.984375 213.648438 214.976562 213.707031 214.972656 213.769531 C 214.964844 213.867188 214.960938 213.960938 214.960938 214.046875 C 214.957031 215.117188 215.4375 215.691406 216.40625 215.765625 C 216.453125 215.769531 216.5 215.769531 216.542969 215.769531 C 217.078125 215.769531 217.519531 215.523438 217.867188 215.03125 L 217.863281 215.03125 C 218.570312 214.085938 219.214844 212.664062 219.796875 210.761719 L 219.804688 210.722656 L 223.9375 195.800781 L 223.957031 195.71875 C 226.074219 185.933594 227.675781 178.847656 228.765625 174.457031 L 228.773438 174.457031 L 227.683594 181.375 L 227.675781 181.375 C 225.96875 188.914062 223.664062 199.355469 220.769531 212.707031 C 220.597656 213.492188 221.078125 214.273438 221.855469 214.480469 C 221.984375 214.515625 222.113281 214.53125 222.238281 214.53125 C 222.882812 214.53125 223.476562 214.113281 223.675781 213.472656 C 225.648438 207.125 227.171875 201.453125 228.242188 196.453125 L 228.246094 196.453125 C 227.445312 203.320312 226.792969 207.503906 226.28125 209.007812 C 226.054688 209.675781 226.324219 210.414062 226.929688 210.777344 C 227.171875 210.925781 227.441406 210.996094 227.707031 210.996094 C 228.109375 210.996094 228.507812 210.832031 228.800781 210.523438 C 229.929688 209.328125 231.097656 207.511719 232.304688 205.066406 L 232.308594 205.070312 C 232.28125 205.164062 232.253906 205.257812 232.226562 205.355469 C 232.203125 205.425781 232.183594 205.492188 232.171875 205.546875 C 231.917969 206.535156 232.25 207.171875 233.171875 207.457031 C 233.359375 207.515625 233.539062 207.546875 233.707031 207.546875 C 234.234375 207.546875 234.664062 207.253906 234.988281 206.675781 C 234.988281 206.671875 234.988281 206.667969 234.992188 206.664062 L 234.988281 206.664062 C 235.03125 206.601562 235.074219 206.527344 235.113281 206.453125 C 235.523438 205.679688 237.023438 201.394531 239.613281 193.59375 L 239.617188 193.597656 C 237.929688 201.53125 236.640625 207.199219 235.753906 210.59375 C 235.546875 211.390625 236.023438 212.210938 236.820312 212.425781 C 236.953125 212.460938 237.082031 212.476562 237.210938 212.476562 C 237.871094 212.476562 238.476562 212.039062 238.660156 211.375 C 240.714844 203.988281 242.625 197.675781 244.402344 192.429688 L 244.40625 192.429688 C 242.859375 199.234375 241.898438 203.085938 241.53125 203.988281 C 241.449219 204.191406 241.414062 204.40625 241.421875 204.621094 C 241.425781 204.710938 241.433594 204.792969 241.441406 204.875 C 241.574219 205.988281 242.121094 206.546875 243.089844 206.546875 C 243.128906 206.546875 243.164062 206.546875 243.203125 206.542969 C 243.671875 206.523438 244.097656 206.316406 244.488281 205.925781 C 244.890625 205.515625 245.414062 204.699219 246.054688 203.476562 L 246.085938 203.414062 C 247.128906 201.171875 248.078125 199.128906 248.933594 197.285156 L 248.9375 197.285156 C 248.636719 198.109375 248.324219 198.828125 248.003906 199.441406 C 247.617188 200.179688 247.902344 201.085938 248.640625 201.472656 C 248.863281 201.589844 249.101562 201.644531 249.335938 201.644531 C 249.878906 201.644531 250.402344 201.351562 250.671875 200.835938 C 252.34375 197.636719 253.75 192.050781 254.894531 184.074219 C 255.007812 183.296875 254.496094 182.5625 253.726562 182.394531 C 253.617188 182.367188 253.511719 182.359375 253.402344 182.359375 C 252.75 182.359375 252.15625 182.785156 251.964844 183.433594 L 251.960938 183.433594 C 251.710938 184.066406 250.101562 187.59375 247.132812 194.011719 L 247.128906 194.011719 C 247.847656 190.890625 248.6875 187.132812 249.660156 182.730469 C 250.273438 179.972656 250.574219 178.25 250.5625 177.570312 C 250.554688 177.011719 250.371094 176.574219 250.015625 176.253906 C 249.65625 175.933594 249.304688 175.773438 248.957031 175.773438 C 248.554688 175.773438 248.160156 175.988281 247.777344 176.421875 C 247.699219 176.507812 247.632812 176.605469 247.574219 176.707031 C 246.800781 178.140625 245.988281 179.859375 245.136719 181.875 C 246.007812 177.636719 246.949219 173 247.964844 167.953125 C 248.121094 167.171875 247.640625 166.402344 246.867188 166.203125 C 246.742188 166.167969 246.613281 166.152344 246.488281 166.152344 C 245.851562 166.152344 245.261719 166.5625 245.058594 167.195312 C 243.78125 171.152344 242.597656 174.800781 241.515625 178.140625 L 241.511719 178.140625 L 242.703125 172.398438 C 242.867188 171.59375 242.359375 170.804688 241.558594 170.625 C 241.449219 170.601562 241.335938 170.589844 241.226562 170.589844 C 240.550781 170.589844 239.933594 171.050781 239.765625 171.738281 C 236.445312 185.34375 233.394531 195.3125 230.621094 201.644531 C 231.570312 194.503906 232.738281 183.144531 234.125 167.5625 C 234.183594 166.882812 233.78125 166.253906 233.152344 166.019531 L 233.144531 166.019531 L 234.324219 158.523438 C 234.441406 157.796875 234.007812 157.089844 233.304688 156.859375 C 233.152344 156.808594 232.996094 156.785156 232.839844 156.785156 Z M 232.839844 156.785156 " fill-opacity="1" fill-rule="nonzero"/><path fill="#fcdd44" d="M 237.652344 150.886719 C 236.933594 150.886719 236.300781 151.398438 236.171875 152.128906 C 235.75 154.53125 235.433594 157.496094 235.222656 161.027344 L 235.222656 161.105469 C 235.140625 171.273438 234.988281 177.730469 234.753906 180.464844 L 234.753906 180.496094 C 234.695312 181.390625 234.625 182.328125 234.539062 183.296875 L 234.535156 183.300781 C 234.179688 184.230469 233.820312 185.246094 233.445312 186.335938 C 232.804688 188 231.28125 193.710938 228.871094 203.464844 L 228.867188 203.46875 C 226.726562 209.617188 225.585938 213.035156 225.441406 213.71875 C 225.429688 213.769531 225.421875 213.816406 225.414062 213.863281 L 225.410156 213.867188 C 224.933594 215.535156 224.691406 216.664062 224.679688 217.246094 C 224.660156 218.1875 225.050781 218.773438 225.847656 219 C 225.996094 219.042969 226.144531 219.066406 226.289062 219.066406 C 226.503906 219.066406 226.714844 219.019531 226.925781 218.929688 L 226.929688 218.929688 C 226.90625 219.046875 226.886719 219.164062 226.867188 219.273438 C 226.730469 220.027344 227.183594 220.761719 227.921875 220.980469 C 228.0625 221.023438 228.207031 221.042969 228.347656 221.042969 C 228.941406 221.042969 229.496094 220.691406 229.734375 220.121094 C 232.082031 214.53125 233.40625 210.808594 233.707031 208.949219 L 233.703125 208.949219 C 234.492188 205.617188 235.3125 201.097656 236.160156 195.382812 L 236.15625 195.382812 C 237.648438 190.039062 239.398438 183.871094 241.410156 176.886719 C 241.574219 176.3125 241.382812 175.691406 240.917969 175.308594 C 240.644531 175.085938 240.304688 174.96875 239.960938 174.96875 C 239.726562 174.96875 239.492188 175.023438 239.277344 175.132812 C 239.226562 175.15625 239.179688 175.183594 239.132812 175.210938 C 238.765625 175.425781 238.378906 175.792969 237.976562 176.3125 C 238.09375 172.808594 238.179688 167.773438 238.230469 161.203125 L 238.226562 161.203125 C 238.429688 157.789062 238.730469 154.9375 239.132812 152.652344 C 239.277344 151.832031 238.730469 151.050781 237.914062 150.90625 C 237.824219 150.890625 237.738281 150.886719 237.652344 150.886719 Z M 237.652344 150.886719 " fill-opacity="1" fill-rule="nonzero"/><path fill="#fcdd44" d="M 226.332031 148.773438 C 225.746094 148.773438 225.1875 149.121094 224.945312 149.695312 C 222.882812 154.609375 221.523438 158.28125 220.863281 160.707031 C 220.671875 161.394531 220.324219 162.972656 219.820312 165.4375 L 219.816406 165.460938 C 218.082031 174.65625 216.914062 180.484375 216.308594 182.949219 L 216.300781 182.972656 C 215.089844 188.25 213.953125 192.808594 212.886719 196.652344 L 212.878906 196.652344 L 210.878906 203.28125 C 210.640625 204.066406 211.078125 204.898438 211.863281 205.148438 C 212.015625 205.195312 212.167969 205.21875 212.320312 205.21875 C 212.949219 205.21875 213.535156 204.820312 213.746094 204.191406 C 213.878906 203.800781 214.007812 203.398438 214.144531 202.980469 L 214.148438 202.980469 C 214.15625 203 214.167969 203.015625 214.179688 203.035156 C 214.453125 203.535156 214.96875 203.816406 215.5 203.816406 C 215.742188 203.816406 215.992188 203.757812 216.222656 203.632812 C 216.949219 203.230469 217.214844 202.316406 216.816406 201.589844 C 216.476562 200.964844 216.5 199.230469 216.886719 196.382812 L 216.890625 196.320312 C 217.011719 195.042969 217.589844 192.28125 218.628906 188.035156 L 218.625 188.035156 L 220.792969 180.855469 L 220.792969 180.859375 C 221.613281 178.253906 222.457031 175.640625 223.324219 173.027344 L 223.328125 173.023438 C 223.96875 171.054688 224.675781 169.113281 225.453125 167.191406 L 225.449219 167.191406 C 225.804688 166.363281 225.671875 165.6875 225.050781 165.164062 C 224.769531 164.925781 224.421875 164.808594 224.078125 164.808594 C 223.675781 164.808594 223.277344 164.96875 222.980469 165.28125 C 222.957031 165.308594 222.933594 165.335938 222.90625 165.363281 C 223.324219 163.347656 223.609375 162.0625 223.761719 161.507812 L 223.765625 161.496094 C 224.390625 159.195312 225.710938 155.652344 227.71875 150.859375 C 228.039062 150.09375 227.679688 149.210938 226.914062 148.890625 C 226.722656 148.8125 226.527344 148.773438 226.332031 148.773438 Z M 226.332031 148.773438 " fill-opacity="1" fill-rule="nonzero"/></svg>